<svg width="24" height="27" viewBox="0 0 24 27" fill="none" xmlns="http://www.w3.org/2000/svg">
<path d="M5.05261 14.5989L10.731 13.8279L10.7334 19.2882L5.0578 19.3205L5.05261 14.5989ZM10.7282 19.9174L10.7327 25.3825L5.05702 24.6046L5.0567 19.8807L10.7282 19.9174ZM11.4166 13.7271L18.9456 12.6316V19.2188L11.4166 19.2784V13.7271ZM18.9473 19.9688L18.9456 26.5263L11.4166 25.467L11.406 19.9565L18.9473 19.9688Z" fill="#BDD0DA"/>
<path fill-rule="evenodd" clip-rule="evenodd" d="M12 0C15.64 0 18.67 2.59 19.35 6.03999C21.95 6.22 24 8.36 24 11C24 13.3426 22.3863 15.3106 20.2105 15.8523V13.7468C21.2655 13.2825 22 12.229 22 11C22 9.33999 20.66 7.99999 19 7.99999H17.5V7.49999C17.5 4.46 15.04 1.99999 12 1.99999C9.47998 1.99999 7.36999 3.69 6.71002 5.99999H6C3.78998 5.99999 2 7.78999 2 9.99999C2 11.3926 2.71075 12.6184 3.78947 13.3347V15.5786C1.57116 14.6972 0 12.5297 0 10C0 6.91 2.34003 4.36 5.34998 4.03999C6.59998 1.64 9.10999 0 12 0Z" fill="#BDD0DA"/>
</svg>
