<svg width="42" height="42" viewBox="0 0 42 42" fill="none" xmlns="http://www.w3.org/2000/svg">
<path d="M28.35 15.328C27.67 11.7135 24.64 9 21 9C18.11 9 15.6 10.7182 14.35 13.2326C11.34 13.5679 9 16.2395 9 19.4768C9 22.4374 10.9606 24.9245 13.5937 25.5888V23.4015C12.078 22.8055 11 21.2736 11 19.4768C11 17.1614 12.79 15.2861 15 15.2861H15.71C16.37 12.8659 18.48 11.0954 21 11.0954C24.04 11.0954 26.5 13.6727 26.5 16.8576V17.3815H28C29.66 17.3815 31 18.7853 31 20.5245C31 21.9446 30.1066 23.1412 28.875 23.5324V25.6828C31.2183 25.249 33 23.1034 33 20.5245C33 17.7586 30.95 15.5166 28.35 15.328Z" fill="#61D6F2"/>
<path fill-rule="evenodd" clip-rule="evenodd" d="M15.6327 22.2937C15.6327 22.0966 15.789 21.9368 15.9818 21.9368H26.3548C26.5476 21.9368 26.7039 22.0966 26.7039 22.2937V24.7918C26.7039 24.9889 26.5476 25.1487 26.3548 25.1487H15.9818C15.789 25.1487 15.6327 24.9889 15.6327 24.7918V22.2937ZM16.5304 22.7015H17.054V24.384H16.5304V22.7015ZM18.4753 22.7015H17.9517V24.384H18.4753V22.7015ZM25.6566 23.5428C25.6566 23.9651 25.3217 24.3075 24.9086 24.3075C24.4954 24.3075 24.1605 23.9651 24.1605 23.5428C24.1605 23.1204 24.4954 22.778 24.9086 22.778C25.3217 22.778 25.6566 23.1204 25.6566 23.5428Z" fill="#61D6F2"/>
<path fill-rule="evenodd" clip-rule="evenodd" d="M15.9818 25.8625C15.789 25.8625 15.6327 26.0222 15.6327 26.2193V28.7175C15.6327 28.9146 15.789 29.0744 15.9818 29.0744H26.3548C26.5476 29.0744 26.7039 28.9146 26.7039 28.7175V26.2193C26.7039 26.0222 26.5476 25.8625 26.3548 25.8625H15.9818ZM17.054 26.6272H16.5304V28.3096H17.054V26.6272ZM17.9517 26.6272H18.4753V28.3096H17.9517V26.6272ZM24.9086 28.2331C25.3217 28.2331 25.6566 27.8908 25.6566 27.4684C25.6566 27.046 25.3217 26.7037 24.9086 26.7037C24.4954 26.7037 24.1605 27.046 24.1605 27.4684C24.1605 27.8908 24.4954 28.2331 24.9086 28.2331Z" fill="#61D6F2"/>
<path fill-rule="evenodd" clip-rule="evenodd" d="M15.6327 30.145C15.6327 29.9479 15.789 29.7881 15.9818 29.7881H26.3548C26.5476 29.7881 26.7039 29.9479 26.7039 30.145V32.6431C26.7039 32.8402 26.5476 33 26.3548 33H15.9818C15.789 33 15.6327 32.8402 15.6327 32.6431V30.145ZM16.5304 30.5528H17.054V32.2353H16.5304V30.5528ZM18.4753 30.5528H17.9517V32.2353H18.4753V30.5528ZM25.6566 31.3941C25.6566 31.8164 25.3217 32.1588 24.9086 32.1588C24.4954 32.1588 24.1605 31.8164 24.1605 31.3941C24.1605 30.9717 24.4954 30.6293 24.9086 30.6293C25.3217 30.6293 25.6566 30.9717 25.6566 31.3941Z" fill="#61D6F2"/>
</svg>
