<?xml version="1.0" encoding="UTF-8"?>
<!DOCTYPE svg PUBLIC "-//W3C//DTD SVG 1.1//EN" "http://www.w3.org/Graphics/SVG/1.1/DTD/svg11.dtd">
<!-- Creator: CorelDRAW 2017 -->
<svg xmlns="http://www.w3.org/2000/svg" xml:space="preserve" width="108px" height="108px" version="1.1" style="shape-rendering:geometricPrecision; text-rendering:geometricPrecision; image-rendering:optimizeQuality; fill-rule:evenodd; clip-rule:evenodd"
viewBox="0 0 1.04 1.04"
 xmlns:xlink="http://www.w3.org/1999/xlink">
 <defs>
  <style type="text/css">
   <![CDATA[
    .fil0 {fill:#61D6F2}
   ]]>
  </style>
 </defs>
 <g id="Слой_x0020_1">
  <metadata id="CorelCorpID_0Corel-Layer"/>
  <path class="fil0" d="M0.5 0.75c0,0 0,0 0.01,0.01 0,0 0,0 0,0l0.04 -0.01 -0.04 -0.04 -0.01 0.04zm0.26 -0.25l-0.07 -0.05c0,0 -0.01,0.01 -0.01,0.02l-0.17 0.21c0,0.01 -0.01,0.01 -0.01,0.02 -0.01,0.01 -0.01,0 -0.01,0.01l0 0.05c-0.01,0 -0.01,0.02 0,0.02 0,0.01 0.02,0 0.02,0l0.04 -0.02c0.01,0 0.01,0 0.01,-0.01 0.05,-0.05 0.09,-0.11 0.14,-0.17l0.05 -0.06c0,-0.01 0.01,-0.02 0.01,-0.02zm-0.06 -0.06c0,0 0.03,0.02 0.04,0.02 0,0.01 0.03,0.03 0.03,0.03l0.02 -0.03c-0.01,-0.01 -0.02,-0.02 -0.03,-0.03 -0.01,-0.01 -0.03,-0.02 -0.04,-0.02l-0.02 0.03zm-0.1 0.31l0.06 0c0.06,0 0.05,0.01 0.05,-0.08 0,-0.02 0,-0.05 0,-0.07l0 0.01c-0.04,0.04 -0.08,0.09 -0.11,0.14zm-0.25 -0.1c-0.03,0.01 -0.01,0.05 0.02,0.04 0.02,-0.01 0.01,-0.05 -0.02,-0.04zm0 -0.33c-0.03,0.01 -0.01,0.05 0.02,0.04 0.03,-0.01 0.01,-0.06 -0.02,-0.04zm0 0.22c-0.01,0 -0.02,0.01 -0.02,0.03 0.01,0.01 0.02,0.02 0.03,0.01 0.03,-0.01 0.02,-0.05 -0.01,-0.04zm0 -0.11c-0.03,0 -0.02,0.05 0.01,0.04 0.03,0 0.02,-0.05 -0.01,-0.04zm-0.04 -0.11c-0.03,0 -0.06,-0.01 -0.06,0.02 0,0.02 0.02,0.02 0.07,0.02l0 0.07c-0.04,0 -0.07,-0.01 -0.07,0.02 0,0.01 0.01,0.02 0.02,0.02 0.02,0 0.03,0 0.05,0l0 0.07c-0.04,0 -0.07,-0.01 -0.07,0.02 0,0.03 0.03,0.02 0.06,0.02 0.01,0.01 0.01,0.05 0.01,0.07 -0.04,0 -0.07,-0.01 -0.07,0.02 0,0.03 0.03,0.02 0.07,0.02 0,0.07 -0.01,0.06 0.06,0.06l0.08 0 0 -0.03c0,-0.01 0,-0.01 0.01,-0.02 0.01,-0.01 0.02,-0.03 0.03,-0.04l0.21 -0.28 0 -0.08c0,-0.06 0.01,-0.04 -0.17,-0.04 -0.02,0 -0.2,0 -0.21,0 -0.02,0.01 -0.01,0.04 -0.02,0.06zm-0.31 0.2c0,-0.29 0.23,-0.52 0.52,-0.52 0.29,0 0.52,0.23 0.52,0.52 0,0.29 -0.23,0.52 -0.52,0.52 -0.29,0 -0.52,-0.23 -0.52,-0.52z"/>
 </g>
</svg>
