<svg width="36" height="37" viewBox="0 0 36 37" fill="none" xmlns="http://www.w3.org/2000/svg">
<path d="M11.125 17.125H15.25V18.5H11.125V17.125Z" fill="#61D6F2"/>
<path d="M11.125 11.625H19.375V13H11.125V11.625Z" fill="#61D6F2"/>
<path d="M11.125 14.375H19.375V15.75H11.125V14.375Z" fill="#61D6F2"/>
<path d="M11.125 24H15.25V25.375H11.125V24Z" fill="#61D6F2"/>
<path d="M15.25 28.125H9.75C9.38544 28.1246 9.03591 27.9797 8.77813 27.7219C8.52035 27.4641 8.37536 27.1146 8.375 26.75V10.25C8.37536 9.88544 8.52035 9.53591 8.77813 9.27813C9.03591 9.02035 9.38544 8.87536 9.75 8.875H20.75C21.1146 8.87536 21.4641 9.02035 21.7219 9.27813C21.9797 9.53591 22.1246 9.88544 22.125 10.25V15.75H20.75V10.25H9.75V26.75H15.25V28.125Z" fill="#61D6F2"/>
<path d="M25.3182 28.125V23.3125H27.25V28.125H25.3182Z" fill="#61D6F2"/>
<path d="M17.591 28.125V18.5H19.5228V28.125H17.591Z" fill="#61D6F2"/>
<path d="M21.4546 28.125V18.5H23.3864V28.125H21.4546Z" fill="#61D6F2"/>
</svg>
