<svg width="40" height="40" viewBox="0 0 40 40" fill="none" xmlns="http://www.w3.org/2000/svg">
<path fill-rule="evenodd" clip-rule="evenodd" d="M20 40C31.0457 40 40 31.0457 40 20C40 8.9543 31.0457 0 20 0C8.9543 0 0 8.9543 0 20C0 31.0457 8.9543 40 20 40ZM22.5859 10.928C22.7036 10.6116 22.768 10.2693 22.768 9.912C22.768 8.30375 21.4643 7 19.856 7C18.2477 7 16.944 8.30375 16.944 9.912C16.944 10.2693 17.0084 10.6116 17.1261 10.928L13.0924 13.1817C12.5589 12.5796 11.7798 12.2 10.912 12.2C9.30375 12.2 8 13.5037 8 15.112C8 16.5472 9.03831 17.7399 10.4047 17.98V22.02C9.03831 22.2601 8 23.4528 8 24.888C8 26.4963 9.30375 27.8 10.912 27.8C11.7948 27.8 12.5859 27.4071 13.1199 26.7867L17.1409 29.0333C17.0137 29.3603 16.944 29.716 16.944 30.088C16.944 31.6963 18.2477 33 19.856 33C21.4643 33 22.768 31.6963 22.768 30.088C22.768 29.716 22.6983 29.3603 22.5711 29.0333L26.5921 26.7867C27.1261 27.4071 27.9172 27.8 28.8 27.8C30.4083 27.8 31.712 26.4963 31.712 24.888C31.712 23.4528 30.6737 22.2601 29.3073 22.02V17.98C30.6737 17.7399 31.712 16.5472 31.712 15.112C31.712 13.5037 30.4083 12.2 28.8 12.2C27.9322 12.2 27.1531 12.5796 26.6196 13.1817L22.5859 10.928ZM13.824 15.112C13.824 16.5908 12.7217 17.8121 11.2939 17.9992V22.0008C12.7217 22.1879 13.824 23.4092 13.824 24.888C13.824 25.2938 13.741 25.6803 13.591 26.0313L17.5862 28.2636C18.12 27.6004 18.9384 27.176 19.856 27.176C20.7736 27.176 21.592 27.6004 22.1258 28.2636L26.121 26.0313C25.971 25.6803 25.888 25.2938 25.888 24.888C25.888 23.4092 26.9903 22.1879 28.4181 22.0008V17.9992C26.9903 17.8121 25.888 16.5908 25.888 15.112C25.888 14.6915 25.9771 14.2919 26.1375 13.9309L22.1516 11.7039C21.6186 12.3857 20.7885 12.824 19.856 12.824C18.9235 12.824 18.0934 12.3857 17.5604 11.7039L13.5745 13.9309C13.7349 14.2919 13.824 14.6915 13.824 15.112ZM19.856 14.41L24.9898 17.2784V23.0152L19.856 25.8835L14.7222 23.0152V17.2784L19.856 14.41Z" fill="#61D6F2"/>
</svg>
