<svg width="41" height="40" viewBox="0 0 41 40" fill="none" xmlns="http://www.w3.org/2000/svg">
<path d="M20.5 40C31.5457 40 40.5 31.0457 40.5 20C40.5 8.9543 31.5457 0 20.5 0C9.4543 0 0.5 8.9543 0.5 20C0.5 31.0457 9.4543 40 20.5 40Z" fill="#61D6F2"/>
<path d="M28.7143 12.6071C28.7143 10.3384 25.0359 8.5 20.5 8.5C15.9641 8.5 12.2857 10.3384 12.2857 12.6071C12.2857 12.6729 12.3186 12.7336 12.3251 12.7994H12.2857V27.3748L12.3777 27.9613C12.8377 29.9491 16.2762 31.5 20.5 31.5C24.7238 31.5 28.1623 29.9491 28.6223 27.9613L28.7143 27.3748V12.7994H28.6748C28.6814 12.7336 28.7143 12.6729 28.7143 12.6071ZM20.5 10.1954C24.5118 10.1954 27.0714 11.7791 27.0714 12.6071C27.0714 13.4351 24.5118 15.0189 20.5 15.0189C16.4881 15.0189 13.9286 13.4286 13.9286 12.6071C13.9286 11.7857 16.4881 10.1954 20.5 10.1954ZM27.0714 27.3764L27.0221 27.5916C26.8332 28.4049 24.4938 29.8571 20.5 29.8571C16.5062 29.8571 14.1668 28.4049 13.9778 27.5916L13.9286 27.3764V15.055C15.9179 16.2187 18.1966 16.7941 20.5 16.7143C22.804 16.7921 25.0827 16.2144 27.0714 15.0484V27.3764Z" fill="white"/>
</svg>
