<svg width="39" height="38" viewBox="0 0 39 38" fill="none" xmlns="http://www.w3.org/2000/svg">
<path d="M38.25 19C38.25 29.4934 29.7434 38 19.25 38C8.75659 38 0.25 29.4934 0.25 19C0.25 8.50659 8.75659 0 19.25 0C29.7434 0 38.25 8.50659 38.25 19Z" fill="#61D6F2"/>
<path d="M10.2166 19.3037C10.2166 15.3315 12.7946 11.9597 16.3705 10.7735L16.2956 10.7991C12.7603 12.0069 10.2166 15.3574 10.2166 19.3037ZM10.2166 19.3037C10.2166 19.3049 10.2166 19.3061 10.2166 19.3073L10.2166 19.3056L10.2166 19.3038L10.2166 19.3037ZM21.562 10.1319L21.5501 10.6148L21.5674 10.6205L21.3162 11.1241C20.9285 11.9014 20.1266 12.4331 19.2018 12.4331C18.2769 12.4331 17.4751 11.9014 17.0874 11.1241L16.8362 10.6205L16.8535 10.6148L16.8415 10.1319C16.841 10.1121 16.8408 10.0921 16.8408 10.0721C16.8408 8.76815 17.8978 7.7111 19.2018 7.7111C20.5057 7.7111 21.5628 8.76815 21.5628 10.0721C21.5628 10.0921 21.5625 10.1121 21.562 10.1319ZM22.108 10.7991L22.0331 10.7735C25.6089 11.9597 28.187 15.3315 28.187 19.3037C28.187 15.3574 25.6433 12.0069 22.108 10.7991ZM10.2304 19.9715L10.2295 19.9339L10.8442 19.9551C12.1094 19.9987 13.122 21.0386 13.122 22.3147C13.122 23.0218 12.8119 23.6558 12.3181 24.0894L11.8563 24.4951L11.8328 24.4649L11.4105 24.5854C11.2049 24.6441 10.9872 24.6757 10.761 24.6757C9.45705 24.6757 8.4 23.6186 8.4 22.3147C8.4 21.3436 8.9864 20.508 9.82705 20.1454L10.2304 19.9715ZM19.2018 28.2889C16.387 28.2889 13.8746 26.9952 12.2262 24.9676L12.244 24.9894C13.8907 27.0023 16.3962 28.2889 19.2018 28.2889ZM27.0282 24.567L26.5956 24.4306L26.5768 24.455L26.1381 24.05C25.6698 23.6178 25.378 23.0008 25.378 22.3147C25.378 21.0643 26.3505 20.0404 27.5799 19.959L28.1761 19.9195L28.1755 19.9495L28.5982 20.1147C29.4783 20.4588 30.1 21.3149 30.1 22.3147C30.1 23.6186 29.0429 24.6757 27.739 24.6757C27.4903 24.6757 27.2517 24.6375 27.0282 24.567ZM26.2035 24.9353L26.2216 24.9129C24.5742 26.9716 22.0425 28.2885 19.203 28.2889C22.0331 28.2885 24.5578 26.9789 26.2035 24.9353Z" fill="white" stroke="white" stroke-width="1.3"/>
</svg>
