<svg width="39" height="38" viewBox="0 0 39 38" fill="none" xmlns="http://www.w3.org/2000/svg">
<path d="M38.25 19C38.25 29.2173 29.9673 37.5 19.75 37.5C9.53273 37.5 1.25 29.2173 1.25 19C1.25 8.78273 9.53273 0.5 19.75 0.5C29.9673 0.5 38.25 8.78273 38.25 19Z" fill="#BDD0DA" stroke="#BDD0DA"/>
<path d="M10.7166 19.3037C10.7166 15.3315 13.2946 11.9597 16.8705 10.7735L16.7956 10.7991C13.2603 12.0069 10.7166 15.3574 10.7166 19.3037ZM10.7166 19.3037C10.7166 19.3049 10.7166 19.3061 10.7166 19.3073L10.7166 19.3056L10.7166 19.3038L10.7166 19.3037ZM22.062 10.1319L22.0501 10.6148L22.0674 10.6205L21.8162 11.1241C21.4285 11.9014 20.6266 12.4331 19.7018 12.4331C18.7769 12.4331 17.9751 11.9014 17.5874 11.1241L17.3362 10.6205L17.3535 10.6148L17.3415 10.1319C17.341 10.1121 17.3408 10.0921 17.3408 10.0721C17.3408 8.76815 18.3978 7.7111 19.7018 7.7111C21.0057 7.7111 22.0628 8.76815 22.0628 10.0721C22.0628 10.0921 22.0625 10.1121 22.062 10.1319ZM22.608 10.7991L22.5331 10.7735C26.1089 11.9597 28.687 15.3315 28.687 19.3037C28.687 15.3574 26.1433 12.0069 22.608 10.7991ZM10.7304 19.9715L10.7295 19.9339L11.3442 19.9551C12.6094 19.9987 13.622 21.0386 13.622 22.3147C13.622 23.0218 13.3119 23.6558 12.8181 24.0894L12.3563 24.4951L12.3328 24.4649L11.9105 24.5854C11.7049 24.6441 11.4872 24.6757 11.261 24.6757C9.95705 24.6757 8.9 23.6186 8.9 22.3147C8.9 21.3436 9.4864 20.508 10.3271 20.1454L10.7304 19.9715ZM19.7018 28.2889C16.887 28.2889 14.3746 26.9952 12.7262 24.9676L12.744 24.9894C14.3907 27.0023 16.8962 28.2889 19.7018 28.2889ZM27.5282 24.567L27.0956 24.4306L27.0768 24.455L26.6381 24.05C26.1698 23.6178 25.878 23.0008 25.878 22.3147C25.878 21.0643 26.8505 20.0404 28.0799 19.959L28.6761 19.9195L28.6755 19.9495L29.0982 20.1147C29.9783 20.4588 30.6 21.3149 30.6 22.3147C30.6 23.6186 29.5429 24.6757 28.239 24.6757C27.9903 24.6757 27.7517 24.6375 27.5282 24.567ZM26.7035 24.9353L26.7216 24.9129C25.0742 26.9716 22.5425 28.2885 19.703 28.2889C22.5331 28.2885 25.0578 26.9789 26.7035 24.9353Z" fill="white" stroke="white" stroke-width="1.3"/>
</svg>
