<?xml version="1.0" encoding="UTF-8"?>
<!DOCTYPE svg PUBLIC "-//W3C//DTD SVG 1.0//EN" "http://www.w3.org/TR/2001/REC-SVG-20010904/DTD/svg10.dtd">
<!-- Creator: CorelDRAW 2017 -->
<svg xmlns="http://www.w3.org/2000/svg" xml:space="preserve" width="183px" height="183px" version="1.0" style="shape-rendering:geometricPrecision; text-rendering:geometricPrecision; image-rendering:optimizeQuality; fill-rule:evenodd; clip-rule:evenodd"
viewBox="0 0 37.38 37.38"
 xmlns:xlink="http://www.w3.org/1999/xlink">
 <defs>
  <style type="text/css">
   <![CDATA[
    .fil1 {fill:#FEFEFE}
    .fil0 {fill:#61D6F2}
   ]]>
  </style>
 </defs>
 <g id="Слой_x0020_1">
  <metadata id="CorelCorpID_0Corel-Layer"/>
  <circle class="fil0" cx="18.69" cy="18.69" r="18.69"/>
 </g>
 <g id="Слой_x0020_1_0">
  <metadata id="CorelCorpID_1Corel-Layer"/>
  <path class="fil1" d="M8.56 9.52l2.39 0 0 16.28 -2.39 0 0 -16.28zm4.59 0l1.27 0 0 9c-0.68,1.04 -1.08,2.29 -1.08,3.63 0,0.2 0.01,0.4 0.02,0.6l-0.21 0 0 -13.23zm3.48 0l3.09 0 0 6.02c-1.12,0.04 -2.18,0.36 -3.09,0.89l0 -6.91zm5.3 0l1.28 0 0 6.87c-0.41,-0.22 -0.83,-0.41 -1.28,-0.55l0 -6.32zm3.48 0l3.09 0 0 16.28 -3.04 0c0.69,-1.05 1.1,-2.3 1.1,-3.65 0,-1.38 -0.42,-2.66 -1.15,-3.72l0 -8.91z"/>
  <path class="fil1" d="M17.07 26.66l-3.21 5.56c-0.18,0.31 -0.07,0.72 0.24,0.9l0 0c0.32,0.18 0.72,0.07 0.9,-0.24l3.25 -5.63c0.56,0.2 1.16,0.31 1.78,0.31 2.93,0 5.31,-2.38 5.31,-5.32 0,-2.94 -2.38,-5.32 -5.31,-5.32 -2.94,0 -5.32,2.38 -5.32,5.32 0,1.84 0.94,3.46 2.36,4.42z"/>
 </g>
</svg>
