<?xml version="1.0" encoding="UTF-8"?>
<!DOCTYPE svg PUBLIC "-//W3C//DTD SVG 1.0//EN" "http://www.w3.org/TR/2001/REC-SVG-20010904/DTD/svg10.dtd">
<!-- Creator: CorelDRAW 2017 -->
<svg xmlns="http://www.w3.org/2000/svg" xml:space="preserve" width="183px" height="183px" version="1.0" style="shape-rendering:geometricPrecision; text-rendering:geometricPrecision; image-rendering:optimizeQuality; fill-rule:evenodd; clip-rule:evenodd"
viewBox="0 0 125.68 125.68"
 xmlns:xlink="http://www.w3.org/1999/xlink">
 <defs>
  <style type="text/css">
   <![CDATA[
    .fil1 {fill:#FEFEFE}
    .fil0 {fill:#BDD0DA}
   ]]>
  </style>
 </defs>
 <g id="Слой_x0020_1">
  <metadata id="CorelCorpID_0Corel-Layer"/>
  <circle class="fil0" cx="62.84" cy="62.84" r="62.84"/>
 </g>
 <g id="Слой_x0020_1_0">
  <metadata id="CorelCorpID_1Corel-Layer"/>
  <path class="fil1" d="M28.79 31.99l8.01 0 0 54.74 -8.01 0 0 -54.74zm15.43 0l4.26 0 0 30.27c-2.3,3.51 -3.64,7.7 -3.64,12.21 0,0.68 0.03,1.34 0.09,2l-0.71 0 0 -44.48zm11.68 0l10.4 0 0 20.25c-3.78,0.13 -7.32,1.2 -10.4,2.99l0 -23.24zm17.82 0l4.3 0 0 23.13c-1.35,-0.77 -2.79,-1.4 -4.3,-1.88l0 -21.25zm11.72 0l10.39 0 0 54.74 -10.23 0c2.33,-3.51 3.68,-7.73 3.68,-12.26 0,-4.64 -1.41,-8.94 -3.84,-12.51l0 -29.97z"/>
  <path class="fil1" d="M57.38 89.62l-10.79 18.69c-0.61,1.06 -0.24,2.42 0.82,3.03l0 0c1.06,0.62 2.42,0.25 3.03,-0.81l10.92 -18.91c1.87,0.66 3.88,1.02 5.98,1.02 9.87,0 17.87,-8 17.87,-17.87 0,-9.87 -8,-17.87 -17.87,-17.87 -9.87,0 -17.87,8 -17.87,17.87 0,6.19 3.14,11.64 7.91,14.85z"/>
 </g>
</svg>
