<svg width="40" height="40" viewBox="0 0 40 40" fill="none" xmlns="http://www.w3.org/2000/svg">
<path fill-rule="evenodd" clip-rule="evenodd" d="M20 40C31.0457 40 40 31.0457 40 20C40 8.9543 31.0457 0 20 0C8.9543 0 0 8.9543 0 20C0 31.0457 8.9543 40 20 40ZM7.56602 18.3585C8.56511 17.3022 10.2299 17.2559 11.2862 18.255C11.4602 18.4195 11.5966 18.6065 11.7147 18.8015L15.7324 17.5848C15.5902 16.4542 15.9184 15.2723 16.7629 14.3794C17.4835 13.6176 18.4357 13.216 19.4059 13.161L19.5654 11.2038C19.1871 11.0887 18.8263 10.8977 18.5194 10.6075C17.4631 9.6084 17.4168 7.94363 18.4159 6.88732C19.415 5.83101 21.0797 5.78467 22.136 6.78376C23.1923 7.78285 23.2387 9.44763 22.2396 10.5039C21.8599 10.9054 21.3829 11.1588 20.8805 11.2668L20.7141 13.3136C21.3043 13.4824 21.8671 13.7738 22.3432 14.2241C23.2847 15.1147 23.6777 16.3575 23.5378 17.5528L29.2098 19.087C29.2967 18.5969 29.52 18.1253 29.8871 17.7372C30.8862 16.6809 32.5509 16.6345 33.6072 17.6336C34.6635 18.6327 34.7099 20.2975 33.7108 21.3538C32.7117 22.4101 31.0469 22.4564 29.9906 21.4573C29.6952 21.178 29.4877 20.844 29.3503 20.4876L23.1625 18.8132C22.9908 19.1652 22.7815 19.5052 22.4985 19.8044C22.0509 20.2776 21.5098 20.5988 20.9346 20.7991L22.0737 27.4494C22.6475 27.4976 23.2103 27.7221 23.6615 28.1489C24.7179 29.148 24.7642 30.8127 23.7651 31.869C22.766 32.9254 21.1012 32.9717 20.0449 31.9726C18.9886 30.9735 18.9423 29.3087 19.9414 28.2524C20.1855 27.9943 20.4695 27.7993 20.7747 27.6624L19.638 21.0307C18.6616 21.0327 17.683 20.683 16.9182 19.9597C16.5712 19.6315 16.3103 19.2506 16.1091 18.8467L12.1043 20.0593C12.1327 20.7435 11.8979 21.4379 11.3898 21.9751C10.3907 23.0314 8.72589 23.0778 7.66958 22.0787C6.61327 21.0796 6.56693 19.4148 7.56602 18.3585Z" fill="#61D6F2"/>
</svg>
