<svg width="41" height="40" viewBox="0 0 41 40" fill="none" xmlns="http://www.w3.org/2000/svg">
<path d="M40 20C40 30.7696 31.2696 39.5 20.5 39.5C9.73045 39.5 1 30.7696 1 20C1 9.23045 9.73045 0.5 20.5 0.5C31.2696 0.5 40 9.23045 40 20Z" fill="#BDD0DA" stroke="#BDD0DA"/>
<g clip-path="url(#clip0)">
<path fill-rule="evenodd" clip-rule="evenodd" d="M11.0858 11.5858C11.4609 11.2107 11.9696 11 12.5 11H28.5C29.0304 11 29.5391 11.2107 29.9142 11.5858C30.2893 11.9609 30.5 12.4696 30.5 13V26H32.5V27H31.5C32.5 27 32.5 26.9995 32.5 27L32.5 27.0041L32.5 27.0087L32.4998 27.019L32.4992 27.0445C32.4986 27.0637 32.4974 27.0871 32.4955 27.1142C32.4917 27.1681 32.4844 27.2387 32.4708 27.3206C32.4442 27.4799 32.3893 27.7075 32.2694 27.9472C32.1476 28.1908 31.9492 28.4649 31.6328 28.6758C31.3102 28.8909 30.925 29 30.5 29H10.5C10.075 29 9.6898 28.8909 9.36717 28.6758C9.05081 28.4649 8.85239 28.1908 8.73057 27.9472C8.61072 27.7075 8.55577 27.4799 8.52923 27.3206C8.51557 27.2387 8.50835 27.1681 8.50449 27.1142C8.50256 27.0871 8.50144 27.0637 8.5008 27.0445L8.50016 27.019L8.50004 27.0087L8.50001 27.0041L8.5 27.002L8.5 27.001C8.5 27.0005 8.5 27 9.5 27L8.5 27.001L8.5 26H10.5V13C10.5 12.4696 10.7107 11.9609 11.0858 11.5858ZM28.5 25H12.5V13L28.5 13V25ZM10.4445 26.9955C10.4445 26.9954 10.445 26.9956 10.4459 26.9958L10.4445 26.9955ZM30.5555 26.9955C30.5555 26.9955 30.5551 26.9956 30.5541 26.9958L30.5555 26.9955ZM30.5006 26.9718C30.5006 26.9718 30.5006 26.9719 30.5006 26.9718V26.9718Z" fill="white"/>
<rect x="19.5" y="15" width="2" height="5" fill="white"/>
<path d="M20.5 23L17.0359 20H23.9641L20.5 23Z" fill="white"/>
</g>
<defs>
<clipPath id="clip0">
<rect width="24" height="24" fill="white" transform="translate(8.5 8)"/>
</clipPath>
</defs>
</svg>
