<svg width="41" height="41" viewBox="0 0 41 41" fill="none" xmlns="http://www.w3.org/2000/svg">
<path d="M20.0439 40.9759C31.0896 40.9759 40.0439 32.0216 40.0439 20.9759C40.0439 9.9302 31.0896 0.975891 20.0439 0.975891C8.99825 0.975891 0.0439453 9.9302 0.0439453 20.9759C0.0439453 32.0216 8.99825 40.9759 20.0439 40.9759Z" fill="#61D6F2"/>
<g clip-path="url(#clip0)">
<path fill-rule="evenodd" clip-rule="evenodd" d="M10.6297 12.5617C11.0048 12.1866 11.5135 11.9759 12.0439 11.9759H28.0439C28.5744 11.9759 29.0831 12.1866 29.4582 12.5617C29.8332 12.9368 30.0439 13.4455 30.0439 13.9759V26.9759H32.0439V27.9759H31.0439C32.0439 27.9759 32.0439 27.9754 32.0439 27.9759L32.0439 27.98L32.0439 27.9846L32.0438 27.9949L32.0431 28.0204C32.0425 28.0396 32.0414 28.063 32.0395 28.0901C32.0356 28.144 32.0284 28.2145 32.0147 28.2965C31.9882 28.4558 31.9332 28.6834 31.8134 28.9231C31.6916 29.1667 31.4931 29.4408 31.1768 29.6517C30.8542 29.8668 30.4689 29.9759 30.0439 29.9759H10.0439C9.61896 29.9759 9.23374 29.8668 8.91112 29.6517C8.59476 29.4408 8.39633 29.1667 8.27452 28.9231C8.15466 28.6834 8.09972 28.4558 8.07318 28.2965C8.05951 28.2145 8.05229 28.144 8.04844 28.0901C8.0465 28.063 8.04538 28.0396 8.04474 28.0204L8.04411 27.9949L8.04398 27.9846L8.04395 27.98L8.04395 27.9779L8.04395 27.9769C8.04395 27.9764 8.04395 27.9759 9.04395 27.9759L8.04395 27.9769L8.04395 26.9759H10.0439V13.9759C10.0439 13.4455 10.2547 12.9368 10.6297 12.5617ZM28.0439 25.9759H12.0439V13.9759L28.0439 13.9759V25.9759ZM9.98845 27.9713C9.98846 27.9713 9.98894 27.9714 9.98984 27.9717L9.98845 27.9713ZM30.0994 27.9713C30.0994 27.9714 30.099 27.9715 30.0981 27.9717L30.0994 27.9713ZM30.0445 27.9477C30.0445 27.9477 30.0445 27.9478 30.0445 27.9477V27.9477Z" fill="white"/>
<rect x="19.0439" y="15.9759" width="2" height="5" fill="white"/>
<path d="M20.0439 23.9759L16.5798 20.9759H23.508L20.0439 23.9759Z" fill="white"/>
</g>
<defs>
<clipPath id="clip0">
<rect width="24" height="24" fill="white" transform="translate(8.04395 8.97589)"/>
</clipPath>
</defs>
</svg>
