<?xml version="1.0" encoding="UTF-8"?>
<!DOCTYPE svg PUBLIC "-//W3C//DTD SVG 1.1//EN" "http://www.w3.org/Graphics/SVG/1.1/DTD/svg11.dtd">
<!-- Creator: CorelDRAW 2017 -->
<svg xmlns="http://www.w3.org/2000/svg" xml:space="preserve" width="48px" height="48px" version="1.1" style="shape-rendering:geometricPrecision; text-rendering:geometricPrecision; image-rendering:optimizeQuality; fill-rule:evenodd; clip-rule:evenodd"
viewBox="0 0 3.04 3.04"
 xmlns:xlink="http://www.w3.org/1999/xlink">
 <defs>
  <style type="text/css">
   <![CDATA[
    .fil0 {fill:#BDD0DA}
   ]]>
  </style>
 </defs>
 <g id="Слой_x0020_1">
  <metadata id="CorelCorpID_0Corel-Layer"/>
  <path class="fil0" d="M0 1.52c0,-0.84 0.68,-1.52 1.52,-1.52 0.84,0 1.52,0.68 1.52,1.52 0,0.84 -0.68,1.52 -1.52,1.52 -0.84,0 -1.52,-0.68 -1.52,-1.52zm1.08 -0.71c0.08,-0.08 0.18,-0.11 0.28,-0.11l0 0c0.11,0 0.21,0.03 0.28,0.11 0.01,0.01 0.02,0.02 0.03,0.03l-0.08 0.08c0,-0.01 -0.01,-0.02 -0.02,-0.03 -0.06,-0.06 -0.13,-0.09 -0.21,-0.09l0 0c-0.07,0 -0.14,0.03 -0.2,0.09l-0.01 0 -0.07 -0.07 0 -0.01zm-0.14 -0.15c0.12,-0.12 0.27,-0.18 0.43,-0.18 0.16,0 0.32,0.06 0.44,0.18 0.01,0.01 0.02,0.01 0.02,0.02l-0.07 0.07c-0.01,0 -0.01,-0.01 -0.02,-0.02 -0.1,-0.1 -0.24,-0.15 -0.37,-0.15 -0.13,0 -0.26,0.05 -0.36,0.15l-0.01 0 -0.07 -0.07 0.01 0zm-0.03 1.1c0.05,-0.05 0.15,-0.03 0.2,0.01l0.12 0.12 0 -0.76c0,-0.07 0.08,-0.13 0.15,-0.13 0.08,0 0.15,0.06 0.15,0.13l0 0.25c0.02,-0.02 0.05,-0.03 0.08,-0.03 0.04,0 0.07,0.02 0.09,0.04 0.01,0.01 0.02,0.03 0.03,0.04 0.02,-0.02 0.05,-0.03 0.08,-0.03 0.04,0 0.07,0.02 0.1,0.04 0.02,0.02 0.03,0.04 0.03,0.07 0.02,-0.01 0.05,-0.02 0.07,-0.02 0.04,0 0.07,0.02 0.1,0.04 0.02,0.03 0.04,0.06 0.04,0.09 0,0.09 0,0.16 0,0.24 0,0.16 0.01,0.32 -0.01,0.38 -0.01,0.08 -0.06,0.16 -0.12,0.22 -0.06,0.06 -0.13,0.11 -0.19,0.11l-0.26 0c-0.21,0 -0.24,-0.05 -0.28,-0.16 -0.01,-0.02 -0.02,-0.05 -0.03,-0.06 -0.05,-0.12 -0.15,-0.2 -0.24,-0.27 -0.1,-0.05 -0.21,-0.2 -0.11,-0.32z"/>
 </g>
</svg>
