<?xml version="1.0" encoding="UTF-8"?>
<!DOCTYPE svg PUBLIC "-//W3C//DTD SVG 1.1//EN" "http://www.w3.org/Graphics/SVG/1.1/DTD/svg11.dtd">
<!-- Creator: CorelDRAW 2017 -->
<svg xmlns="http://www.w3.org/2000/svg" xml:space="preserve" width="48px" height="48px" version="1.1" style="shape-rendering:geometricPrecision; text-rendering:geometricPrecision; image-rendering:optimizeQuality; fill-rule:evenodd; clip-rule:evenodd"
viewBox="0 0 4.33 4.33"
 xmlns:xlink="http://www.w3.org/1999/xlink">
 <defs>
  <style type="text/css">
   <![CDATA[
    .fil0 {fill:#61D6F2}
   ]]>
  </style>
 </defs>
 <g id="Слой_x0020_1">
  <metadata id="CorelCorpID_0Corel-Layer"/>
  <path class="fil0" d="M0 2.16c0,-1.19 0.97,-2.16 2.16,-2.16 1.2,0 2.17,0.97 2.17,2.16 0,1.2 -0.97,2.17 -2.17,2.17 -1.19,0 -2.16,-0.97 -2.16,-2.17zm1.54 -1.01c0.11,-0.11 0.25,-0.16 0.4,-0.16l0 0c0.14,0 0.29,0.05 0.4,0.16 0.01,0.02 0.02,0.03 0.03,0.04l-0.1 0.11c-0.02,-0.01 -0.03,-0.03 -0.04,-0.04 -0.08,-0.08 -0.19,-0.12 -0.29,-0.12l0 0c-0.11,0 -0.21,0.04 -0.29,0.12l-0.01 0.01 -0.11 -0.11 0.01 -0.01zm-0.21 -0.22c0.17,-0.17 0.4,-0.25 0.62,-0.25 0.23,0 0.45,0.08 0.62,0.25 0.01,0.02 0.03,0.03 0.04,0.04l-0.11 0.1c-0.01,-0.01 -0.02,-0.02 -0.03,-0.03 -0.14,-0.15 -0.33,-0.22 -0.52,-0.22 -0.19,0 -0.37,0.07 -0.52,0.22l-0.01 0 -0.1 -0.1 0.01 -0.01zm-0.04 1.57c0.07,-0.07 0.22,-0.04 0.29,0.02l0.17 0.16 0 -1.07c0,-0.11 0.11,-0.19 0.22,-0.19 0.1,0 0.21,0.08 0.21,0.19l0 0.35c0.03,-0.02 0.07,-0.03 0.11,-0.03 0.05,0 0.1,0.02 0.13,0.05 0.02,0.02 0.03,0.04 0.04,0.06 0.03,-0.03 0.07,-0.05 0.12,-0.05 0.05,0 0.1,0.02 0.13,0.06 0.03,0.03 0.05,0.06 0.05,0.1 0.03,-0.02 0.07,-0.03 0.1,-0.03 0.05,0 0.1,0.02 0.14,0.06 0.03,0.03 0.05,0.08 0.05,0.13 0,0.11 0,0.23 0.01,0.33 0,0.24 0.01,0.46 -0.01,0.55 -0.03,0.11 -0.1,0.22 -0.17,0.3 -0.09,0.1 -0.2,0.16 -0.28,0.16l-0.37 0c-0.29,0 -0.34,-0.07 -0.4,-0.23 -0.01,-0.03 -0.02,-0.06 -0.04,-0.08 -0.07,-0.17 -0.21,-0.28 -0.34,-0.39 -0.14,-0.07 -0.3,-0.28 -0.16,-0.45z"/>
 </g>
</svg>
