<svg width="40" height="40" viewBox="0 0 40 40" fill="none" xmlns="http://www.w3.org/2000/svg">
<path fill-rule="evenodd" clip-rule="evenodd" d="M20 40C31.0457 40 40 31.0457 40 20C40 8.9543 31.0457 0 20 0C8.9543 0 0 8.9543 0 20C0 31.0457 8.9543 40 20 40ZM20 11.5789C23.8316 11.5789 27.021 14.3053 27.7368 17.9368C30.4737 18.1263 32.6316 20.3789 32.6316 23.1579C32.6316 26.0632 30.2737 28.4211 27.3684 28.4211H13.6842C10.2 28.4211 7.36841 25.5895 7.36841 22.1053C7.36841 18.8526 9.83159 16.1684 13 15.8316C14.3158 13.3053 16.9579 11.5789 20 11.5789ZM13.6842 26.3158H27.3684C29.1158 26.3158 30.5263 24.9053 30.5263 23.1579C30.5263 21.4105 29.1158 20 27.3684 20H25.7895V19.4737C25.7895 16.2737 23.2 13.6842 20 13.6842C17.3474 13.6842 15.1263 15.4632 14.4316 17.8947H13.6842C11.3579 17.8947 9.47369 19.7789 9.47369 22.1053C9.47369 24.4316 11.3579 26.3158 13.6842 26.3158Z" fill="#61D6F2"/>
</svg>
