<svg width="38" height="39" viewBox="0 0 38 39" fill="none" xmlns="http://www.w3.org/2000/svg">
<path d="M38 19.9985C38 30.4919 29.4934 38.9985 19 38.9985C8.50659 38.9985 0 30.4919 0 19.9985C0 9.50513 8.50659 0.998535 19 0.998535C29.4934 0.998535 38 9.50513 38 19.9985Z" fill="#BDD0DA"/>
<path fill-rule="evenodd" clip-rule="evenodd" d="M19 37.9985C28.9411 37.9985 37 29.9397 37 19.9985C37 10.0574 28.9411 1.99854 19 1.99854C9.05887 1.99854 1 10.0574 1 19.9985C1 29.9397 9.05887 37.9985 19 37.9985ZM19 38.9985C29.4934 38.9985 38 30.4919 38 19.9985C38 9.50513 29.4934 0.998535 19 0.998535C8.50659 0.998535 0 9.50513 0 19.9985C0 30.4919 8.50659 38.9985 19 38.9985Z" fill="#BDD0DA"/>
<path d="M24.6884 12.4105C24.8124 12.2821 24.9607 12.1796 25.1248 12.1092C25.2888 12.0387 25.4653 12.0016 25.6438 12.0001C25.8223 11.9985 25.9994 12.0325 26.1646 12.1001C26.3298 12.1677 26.48 12.2676 26.6062 12.3938C26.7324 12.52 26.8323 12.6702 26.8999 12.8354C26.9675 13.0006 27.0015 13.1777 26.9999 13.3562C26.9984 13.5347 26.9613 13.7112 26.8908 13.8752C26.8204 14.0393 26.7179 14.1876 26.5895 14.3116L13.2786 27.6226C13.025 27.8675 12.6854 28.003 12.3329 27.9999C11.9803 27.9969 11.6431 27.8555 11.3938 27.6062C11.1445 27.3569 11.0031 27.0197 11.0001 26.6671C10.997 26.3146 11.1325 25.975 11.3774 25.7214L24.6884 12.4105Z" fill="white"/>
<path d="M16.1318 17.165C15.6273 17.6694 14.9432 17.9528 14.2299 17.9528C13.5166 17.9528 12.8325 17.6694 12.3281 17.165C11.8237 16.6606 11.5403 15.9765 11.5403 15.2631C11.5403 14.5498 11.8237 13.8657 12.3281 13.3613C12.8326 12.8567 13.517 12.5732 14.2306 12.5732C14.9442 12.5732 15.6285 12.8567 16.1331 13.3613C16.6377 13.8659 16.9211 14.5502 16.9211 15.2638C16.9211 15.9774 16.6377 16.6618 16.1331 17.1663L16.1318 17.165Z" fill="white"/>
<path d="M21.8354 26.6718C22.3398 27.1762 23.0239 27.4596 23.7372 27.4596C24.4506 27.4596 25.1347 27.1762 25.6391 26.6718C26.1435 26.1674 26.4268 25.4833 26.4268 24.7699C26.4268 24.0566 26.1435 23.3725 25.6391 22.8681C25.1347 22.3637 24.4506 22.0803 23.7372 22.0803C23.0239 22.0803 22.3398 22.3637 21.8354 22.8681C21.331 23.3725 21.0476 24.0566 21.0476 24.7699C21.0476 25.4833 21.331 26.1674 21.8354 26.6718Z" fill="white"/>
</svg>
