<svg width="38" height="38" viewBox="0 0 38 38" fill="none" xmlns="http://www.w3.org/2000/svg">
<path d="M38 19C38 29.4934 29.4934 38 19 38C8.50659 38 0 29.4934 0 19C0 8.50659 8.50659 0 19 0C29.4934 0 38 8.50659 38 19Z" fill="#61D6F2"/>
<path d="M24.6884 11.4119C24.8124 11.2835 24.9607 11.1811 25.1248 11.1106C25.2888 11.0402 25.4653 11.0031 25.6438 11.0015C25.8223 11 25.9994 11.034 26.1646 11.1016C26.3298 11.1692 26.48 11.269 26.6062 11.3953C26.7324 11.5215 26.8323 11.6716 26.8999 11.8369C26.9675 12.0021 27.0015 12.1792 26.9999 12.3577C26.9984 12.5362 26.9613 12.7126 26.8908 12.8767C26.8204 13.0407 26.7179 13.1891 26.5895 13.3131L13.2786 26.624C13.025 26.869 12.6854 27.0045 12.3329 27.0014C11.9803 26.9984 11.6431 26.8569 11.3938 26.6077C11.1445 26.3584 11.0031 26.0211 11.0001 25.6686C10.997 25.3161 11.1325 24.9764 11.3774 24.7229L24.6884 11.4119Z" fill="white"/>
<path d="M16.1318 16.1665C15.6273 16.6709 14.9432 16.9542 14.2299 16.9542C13.5166 16.9542 12.8325 16.6709 12.3281 16.1665C11.8237 15.6621 11.5403 14.9779 11.5403 14.2646C11.5403 13.5513 11.8237 12.8672 12.3281 12.3628C12.8326 11.8582 13.517 11.5747 14.2306 11.5747C14.9442 11.5747 15.6285 11.8582 16.1331 12.3628C16.6377 12.8673 16.9211 13.5517 16.9211 14.2653C16.9211 14.9789 16.6377 15.6632 16.1331 16.1678L16.1318 16.1665Z" fill="white"/>
<path d="M21.8354 25.6733C22.3398 26.1777 23.0239 26.461 23.7372 26.461C24.4506 26.461 25.1347 26.1777 25.6391 25.6733C26.1435 25.1689 26.4268 24.4847 26.4268 23.7714C26.4268 23.0581 26.1435 22.374 25.6391 21.8696C25.1347 21.3652 24.4506 21.0818 23.7372 21.0818C23.0239 21.0818 22.3398 21.3652 21.8354 21.8696C21.331 22.374 21.0476 23.0581 21.0476 23.7714C21.0476 24.4847 21.331 25.1689 21.8354 25.6733Z" fill="white"/>
</svg>
