<svg width="38" height="39" viewBox="0 0 38 39" fill="none" xmlns="http://www.w3.org/2000/svg">
<path d="M38 19.6787C38 30.1721 29.4934 38.6787 19 38.6787C8.50659 38.6787 0 30.1721 0 19.6787C0 9.1853 8.50659 0.678711 19 0.678711C29.4934 0.678711 38 9.1853 38 19.6787Z" fill="#BDD0DA"/>
<path fill-rule="evenodd" clip-rule="evenodd" d="M19 37.6787C28.9411 37.6787 37 29.6198 37 19.6787C37 9.73759 28.9411 1.67871 19 1.67871C9.05887 1.67871 1 9.73759 1 19.6787C1 29.6198 9.05887 37.6787 19 37.6787ZM19 38.6787C29.4934 38.6787 38 30.1721 38 19.6787C38 9.1853 29.4934 0.678711 19 0.678711C8.50659 0.678711 0 9.1853 0 19.6787C0 30.1721 8.50659 38.6787 19 38.6787Z" fill="#BDD0DA"/>
<path fill-rule="evenodd" clip-rule="evenodd" d="M12.25 10.6787H10.75V18.1787H12.25V10.6787ZM19.75 10.6787H18.25V13.6787H19.75V10.6787ZM18.25 19.6787H19.75V28.6787H18.25V19.6787ZM12.25 24.1787H10.75V28.6787H12.25V24.1787ZM27.25 10.6787H25.75V19.6787H27.25V10.6787ZM25.75 25.6787H27.25V28.6787H25.75V25.6787Z" fill="white"/>
<path d="M23.4856 21.9995C23.4856 21.5576 23.8438 21.1995 24.2856 21.1995H28.6851C29.1269 21.1995 29.4851 21.5576 29.4851 21.9995V23.3924C29.4851 23.8342 29.1269 24.1924 28.6851 24.1924H24.2856C23.8438 24.1924 23.4856 23.8342 23.4856 23.3924V21.9995Z" fill="white"/>
<path d="M8.5 20.4787C8.5 20.0369 8.85817 19.6787 9.3 19.6787H13.6995C14.1413 19.6787 14.4995 20.0369 14.4995 20.4787V21.8716C14.4995 22.3134 14.1413 22.6716 13.6995 22.6716H9.3C8.85817 22.6716 8.5 22.3134 8.5 21.8716V20.4787Z" fill="white"/>
<path d="M15.9946 15.9787C15.9946 15.5369 16.3528 15.1787 16.7946 15.1787H21.1941C21.636 15.1787 21.9941 15.5369 21.9941 15.9787V17.3716C21.9941 17.8134 21.636 18.1716 21.1941 18.1716H16.7946C16.3528 18.1716 15.9946 17.8134 15.9946 17.3716V15.9787Z" fill="white"/>
</svg>
