<?xml version="1.0" encoding="UTF-8"?>
<!DOCTYPE svg PUBLIC "-//W3C//DTD SVG 1.1//EN" "http://www.w3.org/Graphics/SVG/1.1/DTD/svg11.dtd">
<!-- Creator: CorelDRAW 2017 -->
<svg xmlns="http://www.w3.org/2000/svg" xml:space="preserve" width="69px" height="69px" version="1.1" style="shape-rendering:geometricPrecision; text-rendering:geometricPrecision; image-rendering:optimizeQuality; fill-rule:evenodd; clip-rule:evenodd"
viewBox="0 0 1.95 1.95"
 xmlns:xlink="http://www.w3.org/1999/xlink">
 <defs>
  <style type="text/css">
   <![CDATA[
    .fil0 {fill:none}
    .fil1 {fill:#46A7EB}
   ]]>
  </style>
 </defs>
 <g id="Слой_x0020_1">
  <metadata id="CorelCorpID_0Corel-Layer"/>
  <g id="_2504255522256">
   <rect class="fil0" width="1.95" height="1.95"/>
   <path class="fil1" d="M0.86 0.48c-0.26,0.05 -0.44,0.13 -0.62,0.28 -0.03,0.03 -0.07,0.06 -0.09,0.08 -0.02,0.02 -0.08,0.07 -0.09,0.09 -0.02,0.06 0.03,0.1 0.05,0.12 0.1,0.11 0.24,0.23 0.4,0.31 0.37,0.19 0.76,0.14 1.09,-0.1 0.07,-0.05 0.18,-0.14 0.24,-0.2 0.05,-0.06 0.09,-0.09 0.02,-0.17 -0.18,-0.18 -0.58,-0.48 -1,-0.41zm0.07 0.14c-0.2,0.03 -0.4,0.17 -0.37,0.4 0.03,0.2 0.23,0.34 0.46,0.32 0.2,-0.02 0.41,-0.18 0.37,-0.4 -0.03,-0.2 -0.23,-0.35 -0.46,-0.32zm0.04 0.12c0.13,0 0.23,0.1 0.23,0.22 0,0.13 -0.1,0.23 -0.23,0.23 -0.12,0 -0.22,-0.1 -0.22,-0.23 0,-0.12 0.1,-0.22 0.22,-0.22z"/>
  </g>
 </g>
</svg>
