<svg width="38" height="38" viewBox="0 0 38 38" fill="none" xmlns="http://www.w3.org/2000/svg">
<path d="M38 19C38 29.4934 29.4934 38 19 38C8.50659 38 0 29.4934 0 19C0 8.50659 8.50659 0 19 0C29.4934 0 38 8.50659 38 19Z" fill="#61D6F2"/>
<path d="M16.9436 19.9336C17.3731 20.5077 17.921 20.9827 18.5502 21.3265C19.1793 21.6703 19.8751 21.8747 20.5903 21.9259C21.3054 21.9771 22.0232 21.8739 22.6949 21.6233C23.3667 21.3728 23.9767 20.9806 24.4836 20.4736L27.4836 17.4736C28.3944 16.5305 28.8984 15.2675 28.887 13.9566C28.8756 12.6456 28.3497 11.3915 27.4227 10.4645C26.4957 9.53743 25.2416 9.01158 23.9306 9.00019C22.6196 8.9888 21.3566 9.49277 20.4136 10.4036L18.6936 12.1136" stroke="white" stroke-width="2" stroke-linecap="round" stroke-linejoin="round"/>
<path d="M20.9436 17.9333C20.5141 17.3592 19.9662 16.8841 19.337 16.5404C18.7078 16.1966 18.0121 15.9922 17.2969 15.941C16.5818 15.8898 15.864 15.993 15.1922 16.2435C14.5205 16.4941 13.9104 16.8863 13.4036 17.3933L10.4036 20.3933C9.49277 21.3363 8.9888 22.5994 9.00019 23.9103C9.01158 25.2213 9.53743 26.4754 10.4645 27.4024C11.3915 28.3295 12.6456 28.8553 13.9566 28.8667C15.2675 28.8781 16.5305 28.3741 17.4736 27.4633L19.1836 25.7533" stroke="white" stroke-width="2" stroke-linecap="round" stroke-linejoin="round"/>
</svg>

