<svg width="39" height="38" viewBox="0 0 39 38" fill="none" xmlns="http://www.w3.org/2000/svg">
<path d="M38 19C38 29.2173 29.7173 37.5 19.5 37.5C9.28273 37.5 1 29.2173 1 19C1 8.78273 9.28273 0.5 19.5 0.5C29.7173 0.5 38 8.78273 38 19Z" fill="#BDD0DA" stroke="#BDD0DA"/>
<path d="M26.85 13.328C26.17 9.7135 23.14 7 19.5 7C16.61 7 14.1 8.7182 12.85 11.2326C9.83999 11.5679 7.5 14.2395 7.5 17.4768C7.5 20.4374 9.46058 22.9245 12.0937 23.5888V21.4015C10.578 20.8055 9.5 19.2736 9.5 17.4768C9.5 15.1614 11.29 13.2861 13.5 13.2861H14.21C14.87 10.8659 16.98 9.09536 19.5 9.09536C22.54 9.09536 25 11.6727 25 14.8576V15.3815H26.5C28.16 15.3815 29.5 16.7853 29.5 18.5245C29.5 19.9446 28.6065 21.1412 27.375 21.5324V23.6828C29.7182 23.249 31.4999 21.1034 31.4999 18.5245C31.4999 15.7586 29.4499 13.5166 26.85 13.328Z" fill="white"/>
<path fill-rule="evenodd" clip-rule="evenodd" d="M16.6868 16.4482C15.7989 16.4482 15.0791 17.168 15.0791 18.0559V29.3095C15.0791 30.1974 15.7989 30.9171 16.6868 30.9171H22.3136C23.2014 30.9171 23.9212 30.1974 23.9212 29.3095V18.0559C23.9212 17.168 23.2014 16.4482 22.3136 16.4482H16.6868ZM22.3136 22.075H16.6868V22.8789H22.3136V22.075ZM16.6868 19.6636H22.3136V20.4674H16.6868V19.6636ZM19.5002 28.5057C20.1661 28.5057 20.7059 27.9658 20.7059 27.2999C20.7059 26.634 20.1661 26.0942 19.5002 26.0942C18.8342 26.0942 18.2944 26.634 18.2944 27.2999C18.2944 27.9658 18.8342 28.5057 19.5002 28.5057Z" fill="white"/>
</svg>
