<svg width="39" height="38" viewBox="0 0 39 38" fill="none" xmlns="http://www.w3.org/2000/svg">
<path d="M38.25 19C38.25 29.4934 29.7434 38 19.25 38C8.75659 38 0.25 29.4934 0.25 19C0.25 8.50659 8.75659 0 19.25 0C29.7434 0 38.25 8.50659 38.25 19Z" fill="#61D6F2"/>
<path d="M23.6276 14.422C22.2407 12.6013 20.0498 11.4261 17.5844 11.4261C13.3916 11.4261 9.99264 14.8251 9.99264 19.0179C9.99264 22.2666 12.0332 25.0387 14.9025 26.1224V27.6794C11.2054 26.536 8.51961 23.0906 8.51961 19.0179C8.51961 14.0115 12.5781 9.95308 17.5844 9.95308C20.9134 9.95308 23.8233 11.7476 25.3995 14.422H23.6276Z" fill="white"/>
<path d="M12.4761 21.8507C12.4761 23.4152 11.2078 24.6834 9.64331 24.6834C8.07882 24.6834 6.81055 23.4152 6.81055 21.8507C6.81055 20.2862 8.07882 19.0179 9.64331 19.0179C11.2078 19.0179 12.4761 20.2862 12.4761 21.8507Z" fill="white"/>
<path d="M20.4172 10.3328C20.4172 11.8973 19.1489 13.1655 17.5844 13.1655C16.02 13.1655 14.7517 11.8973 14.7517 10.3328C14.7517 8.76827 16.02 7.5 17.5844 7.5C19.1489 7.5 20.4172 8.76827 20.4172 10.3328Z" fill="white"/>
<path fill-rule="evenodd" clip-rule="evenodd" d="M17.4435 15.7696H31.2059C31.4721 15.7696 31.6899 15.9991 31.6899 16.2795V19.546C31.6899 19.8264 31.4721 20.0558 31.2059 20.0558H17.4435C17.1773 20.0558 16.9595 19.8264 16.9595 19.546V16.2795C16.9595 15.9991 17.1773 15.7696 17.4435 15.7696ZM28.4472 17.4047H30.3797V18.4207H28.4472V17.4047ZM25.9063 17.4047H27.8422V18.4207H25.9063V17.4047ZM17.4435 20.9917H31.2059C31.4721 20.9917 31.6899 21.2211 31.6899 21.5016V24.7681C31.6899 25.0485 31.4721 25.2779 31.2059 25.2779H17.4435C17.1773 25.2779 16.9595 25.0485 16.9595 24.7681V21.5016C16.9595 21.2211 17.1773 20.9917 17.4435 20.9917ZM17.4435 26.2138H31.2059C31.4721 26.2138 31.6899 26.4432 31.6899 26.7236V29.9902C31.6899 30.2706 31.4721 30.5 31.2059 30.5H17.4435C17.1773 30.5 16.9595 30.2706 16.9595 29.9902V26.7236C16.9595 26.4432 17.1773 26.2138 17.4435 26.2138ZM28.4472 22.6268H30.3797V23.6465H28.4472V22.6268ZM28.4472 27.8489H30.3797V28.8685H28.4472V27.8489Z" fill="white"/>
</svg>
