<svg width="39" height="38" viewBox="0 0 39 38" fill="none" xmlns="http://www.w3.org/2000/svg">
<path d="M38.5 19C38.5 29.4934 29.9934 38 19.5 38C9.00659 38 0.5 29.4934 0.5 19C0.5 8.50659 9.00659 0 19.5 0C29.9934 0 38.5 8.50659 38.5 19Z" fill="#61D6F2"/>
<path d="M26.8504 13.328C26.1704 9.7135 23.1405 7 19.5005 7C16.6105 7 14.1005 8.7182 12.8505 11.2326C9.84048 11.5679 7.50049 14.2395 7.50049 17.4768C7.50049 20.4374 9.46107 22.9245 12.0942 23.5888V21.4015C10.5785 20.8055 9.50048 19.2736 9.50048 17.4768C9.50048 15.1614 11.2905 13.2861 13.5005 13.2861H14.2105C14.8705 10.8659 16.9805 9.09536 19.5005 9.09536C22.5405 9.09536 25.0004 11.6727 25.0004 14.8576V15.3815H26.5004C28.1604 15.3815 29.5004 16.7853 29.5004 18.5245C29.5004 19.9446 28.607 21.1412 27.3754 21.5324V23.6828C29.7187 23.249 31.5004 21.1034 31.5004 18.5245C31.5004 15.7586 29.4504 13.5166 26.8504 13.328Z" fill="white"/>
<path fill-rule="evenodd" clip-rule="evenodd" d="M16.6868 16.4482C15.7989 16.4482 15.0791 17.168 15.0791 18.0559V29.3095C15.0791 30.1974 15.7989 30.9171 16.6868 30.9171H22.3136C23.2014 30.9171 23.9212 30.1974 23.9212 29.3095V18.0559C23.9212 17.168 23.2014 16.4482 22.3136 16.4482H16.6868ZM22.3136 22.075H16.6868V22.8789H22.3136V22.075ZM16.6868 19.6636H22.3136V20.4674H16.6868V19.6636ZM19.5002 28.5057C20.1661 28.5057 20.7059 27.9658 20.7059 27.2999C20.7059 26.634 20.1661 26.0942 19.5002 26.0942C18.8342 26.0942 18.2944 26.634 18.2944 27.2999C18.2944 27.9658 18.8342 28.5057 19.5002 28.5057Z" fill="white"/>
</svg>
