<svg width="39" height="38" viewBox="0 0 39 38" fill="none" xmlns="http://www.w3.org/2000/svg">
<path d="M38.25 19C38.25 29.2173 29.9673 37.5 19.75 37.5C9.53273 37.5 1.25 29.2173 1.25 19C1.25 8.78273 9.53273 0.5 19.75 0.5C29.9673 0.5 38.25 8.78273 38.25 19Z" fill="#BDD0DA" stroke="#BDD0DA"/>
<path d="M24.6276 14.422C23.2407 12.6013 21.0498 11.4261 18.5844 11.4261C14.3916 11.4261 10.9926 14.8251 10.9926 19.0179C10.9926 22.2666 13.0332 25.0387 15.9025 26.1224V27.6794C12.2054 26.536 9.51961 23.0906 9.51961 19.0179C9.51961 14.0115 13.5781 9.95308 18.5844 9.95308C21.9134 9.95308 24.8233 11.7476 26.3995 14.422H24.6276Z" fill="white"/>
<path d="M13.4761 21.8507C13.4761 23.4152 12.2078 24.6834 10.6433 24.6834C9.07882 24.6834 7.81055 23.4152 7.81055 21.8507C7.81055 20.2862 9.07882 19.0179 10.6433 19.0179C12.2078 19.0179 13.4761 20.2862 13.4761 21.8507Z" fill="white"/>
<path d="M21.4172 10.3328C21.4172 11.8973 20.1489 13.1655 18.5844 13.1655C17.02 13.1655 15.7517 11.8973 15.7517 10.3328C15.7517 8.76827 17.02 7.5 18.5844 7.5C20.1489 7.5 21.4172 8.76827 21.4172 10.3328Z" fill="white"/>
<path fill-rule="evenodd" clip-rule="evenodd" d="M18.4435 15.7696H32.2059C32.4721 15.7696 32.6899 15.9991 32.6899 16.2795V19.546C32.6899 19.8264 32.4721 20.0558 32.2059 20.0558H18.4435C18.1773 20.0558 17.9595 19.8264 17.9595 19.546V16.2795C17.9595 15.9991 18.1773 15.7696 18.4435 15.7696ZM29.4472 17.4047H31.3797V18.4207H29.4472V17.4047ZM26.9063 17.4047H28.8422V18.4207H26.9063V17.4047ZM18.4435 20.9917H32.2059C32.4721 20.9917 32.6899 21.2211 32.6899 21.5016V24.7681C32.6899 25.0485 32.4721 25.2779 32.2059 25.2779H18.4435C18.1773 25.2779 17.9595 25.0485 17.9595 24.7681V21.5016C17.9595 21.2211 18.1773 20.9917 18.4435 20.9917ZM18.4435 26.2138H32.2059C32.4721 26.2138 32.6899 26.4432 32.6899 26.7236V29.9902C32.6899 30.2706 32.4721 30.5 32.2059 30.5H18.4435C18.1773 30.5 17.9595 30.2706 17.9595 29.9902V26.7236C17.9595 26.4432 18.1773 26.2138 18.4435 26.2138ZM29.4472 22.6268H31.3797V23.6465H29.4472V22.6268ZM29.4472 27.8489H31.3797V28.8685H29.4472V27.8489Z" fill="white"/>
</svg>
