<?xml version="1.0" encoding="UTF-8"?>
<!DOCTYPE svg PUBLIC "-//W3C//DTD SVG 1.1//EN" "http://www.w3.org/Graphics/SVG/1.1/DTD/svg11.dtd">
<!-- Creator: CorelDRAW 2017 -->
<svg xmlns="http://www.w3.org/2000/svg" xml:space="preserve" width="36px" height="36px" version="1.1" style="shape-rendering:geometricPrecision; text-rendering:geometricPrecision; image-rendering:optimizeQuality; fill-rule:evenodd; clip-rule:evenodd"
viewBox="0 0 0.43 0.43"
 xmlns:xlink="http://www.w3.org/1999/xlink">
 <defs>
  <style type="text/css">
   <![CDATA[
    .fil1 {fill:#FEFEFE}
    .fil0 {fill:#61D6F2}
   ]]>
  </style>
 </defs>
 <g id="Слой_x0020_1">
  <metadata id="CorelCorpID_0Corel-Layer"/>
  <g id="_2428344072592">
   <path class="fil0" d="M0.22 0c0.11,0 0.21,0.1 0.21,0.22 0,0.11 -0.1,0.21 -0.21,0.21 -0.12,0 -0.22,-0.1 -0.22,-0.21 0,-0.12 0.1,-0.22 0.22,-0.22z"/>
   <path class="fil1" d="M0.19 0.1l0 0c0,-0.01 0.01,-0.02 0.03,-0.02 0.01,0 0.02,0.01 0.02,0.02l0.01 0c0,0 0,0 0,0l0 0.04c0,0 0,0 0,0l-0.06 0c-0.01,0 -0.01,0 -0.01,0l0 -0.04c0,0 0,0 0.01,0zm0.03 -0.01c0,0 0,0.01 0,0.01 0,0.01 0,0.01 0,0.01 -0.01,0 -0.01,0 -0.01,-0.01 0,0 0,-0.01 0.01,-0.01zm-0.07 0.02l0.02 0 0 0.03 -0.02 0c-0.01,0 -0.01,0 -0.01,0 0,0 0,0 0,0l0 0.19c0,0 0,0 0,0 0,0 0,0 0.01,0l0.14 0c0,0 0,0 0,0 0,0 0,0 0,0l0 -0.19c0,0 0,0 0,0 0,0 0,0 0,0l-0.03 0 0 -0.03 0.03 0c0,0 0.01,0.01 0.01,0.01 0.01,0.01 0.01,0.01 0.01,0.02l0 0.19c0,0 0,0.01 -0.01,0.02 0,0 -0.01,0 -0.01,0l-0.14 0c-0.01,0 -0.02,0 -0.02,0 -0.01,-0.01 -0.01,-0.02 -0.01,-0.02l0 -0.19c0,-0.01 0,-0.01 0.01,-0.02 0,0 0.01,-0.01 0.02,-0.01zm0.04 0.09c-0.01,0 0,-0.01 0,-0.01 0.01,0 0.01,0 0.01,0l0.01 0.01 0.02 -0.03c0,0 0.01,0 0.01,0 0.01,0 0.01,0.01 0,0.01l-0.03 0.04c0,0 0,0.01 0,0.01 0,0 -0.01,0 -0.01,-0.01l-0.01 -0.02zm0 0.08c-0.01,0 0,-0.01 0,-0.01 0.01,-0.01 0.01,0 0.01,0l0.01 0.01 0.02 -0.03c0,0 0.01,0 0.01,0 0.01,0 0.01,0.01 0,0.01l-0.03 0.04c0,0 0,0 0,0 0,0.01 -0.01,0 -0.01,0l-0.01 -0.02z"/>
  </g>
 </g>
</svg>
