<svg viewBox="0 0 25 24" fill="none" xmlns="http://www.w3.org/2000/svg">
<g clip-path="url(#clip0_61_3660)">
<path d="M23.0637 12C23.0637 18.075 18.1387 23 12.0637 23C5.98872 23 1.06372 18.075 1.06372 12C1.06372 5.925 5.98872 1 12.0637 1C18.1387 1 23.0637 5.925 23.0637 12ZM18.0637 12C18.0637 8.691 15.3727 6 12.0637 6C8.75472 6 6.06372 8.691 6.06372 12C6.06372 15.309 8.75472 18 12.0637 18C15.3727 18 18.0637 15.309 18.0637 12ZM13.0637 12C13.0637 11.7348 12.9584 11.4804 12.7708 11.2929C12.5833 11.1054 12.3289 11 12.0637 11C11.7985 11 11.5442 11.1054 11.3566 11.2929C11.1691 11.4804 11.0637 11.7348 11.0637 12C11.0637 12.2652 11.1691 12.5196 11.3566 12.7071C11.5442 12.8946 11.7985 13 12.0637 13C12.3289 13 12.5833 12.8946 12.7708 12.7071C12.9584 12.5196 13.0637 12.2652 13.0637 12Z" stroke="#61D6F2" stroke-width="2"/>
</g>
<defs>
<clipPath id="clip0_61_3660">
<rect width="24" height="24" fill="white" transform="translate(0.0637207)"/>
</clipPath>
</defs>
</svg>
