<svg width="18" height="18" viewBox="0 0 18 18" fill="none" xmlns="http://www.w3.org/2000/svg">
<path d="M2.61092 0C1.37504 0 0.434956 1.10973 0.638133 2.3288L3.13691 17.3214C3.20217 17.713 3.54096 18 3.93793 18V18C4.38642 18 4.75 17.6364 4.75 17.1879V12H15.75C16.8546 12 17.75 11.1046 17.75 10V2C17.75 0.895431 16.8546 0 15.75 0H2.61092ZM2.75 1.5H5V3.75H7.25V1.5H9.5V3.75H11.75V1.5H14V3.75H16.25V6H14V8.25H16.25V10.5H14V8.25H11.75V10.5H9.5V8.25H7.25V10.5H5V8.25H2.75V6H5V3.75H2.75V1.5ZM5 6V8.25H7.25V6H5ZM7.25 6H9.5V3.75H7.25V6ZM9.5 6V8.25H11.75V6H9.5ZM11.75 6H14V3.75H11.75V6Z" fill="#61D6F2"/>
</svg>
