<svg width="24" height="24" viewBox="0 0 25 24" fill="none" xmlns="http://www.w3.org/2000/svg">
<path d="M5.00024 9.5V7V3C5.00024 2.44772 5.44796 2 6.00024 2H19.0002C19.5525 2 20.0002 2.44772 20.0002 3V7V9.5M20.0002 14.5V17V21C20.0002 21.5523 19.5525 22 19.0002 22H6.00024C5.44796 22 5.00024 21.5523 5.00024 21V17V14.5" stroke="#61D6F2"/>
<path d="M3.84375 11.5C3.56761 11.5 3.34375 11.7239 3.34375 12C3.34375 12.2761 3.56761 12.5 3.84375 12.5V11.5ZM21.1562 12L16.1562 9.11325V14.8868L21.1562 12ZM3.84375 12.5H16.6562V11.5H3.84375V12.5Z" fill="#61D6F2"/>
</svg>
