<svg width="22" height="21" viewBox="0 0 22 21" fill="none" xmlns="http://www.w3.org/2000/svg">
<path fill-rule="evenodd" clip-rule="evenodd" d="M0.625881 16.9632L9.3104 1.86096C9.49319 1.54707 9.75055 1.28755 10.0577 1.10743C10.3648 0.927323 10.7113 0.832703 11.0637 0.832703C11.4162 0.832703 11.7626 0.927323 12.0698 1.10743C12.3769 1.28755 12.6342 1.54707 12.817 1.86096L21.5015 16.9632C21.6806 17.2862 21.7753 17.6524 21.7763 18.0254C21.7773 18.3984 21.6846 18.7651 21.5073 19.0892C21.3299 19.4132 21.0743 19.6832 20.7657 19.8724C20.4571 20.0615 20.1063 20.1632 19.7482 20.1673H2.37919C2.02115 20.1632 1.67037 20.0615 1.36177 19.8724C1.05316 19.6832 0.797482 19.4132 0.620167 19.0892C0.442851 18.7651 0.35008 18.3984 0.351082 18.0254C0.352085 17.6524 0.446826 17.2862 0.625881 16.9632ZM12.4119 7.25076C12.5665 7.02194 12.5063 6.71113 12.2774 6.55656C12.0486 6.40199 11.7378 6.46218 11.5832 6.69101L7.84837 12.2201C7.74484 12.3733 7.73437 12.5712 7.82114 12.7345C7.90791 12.8979 8.07775 12.9999 8.2627 12.9999H12.9239L9.7158 17.7491C9.56123 17.9779 9.62143 18.2887 9.85025 18.4433C10.0791 18.5979 10.3899 18.5377 10.5445 18.3089L14.2793 12.7798C14.3829 12.6266 14.3933 12.4287 14.3066 12.2654C14.2198 12.102 14.05 11.9999 13.865 11.9999H9.20383L12.4119 7.25076Z" fill="#61D6F2"/>
</svg>
