<svg width="25" height="24" viewBox="0 0 25 24" fill="none" xmlns="http://www.w3.org/2000/svg">
	<g clip-path="url(#clip0_393_6122)">
		<path d="M18.6014 4.26208L16.6758 6.99871H19.5642L17.6386 9.73533" stroke="#61D6F2" stroke-linecap="round" stroke-linejoin="round"/>
		<path fill-rule="evenodd" clip-rule="evenodd" d="M2.08008 17.3286C1.52779 17.3286 1.08008 17.7763 1.08008 18.3286V22.3385C1.08008 22.8907 1.52779 23.3385 2.08008 23.3385H16.5773C17.1296 23.3385 17.5773 22.8907 17.5773 22.3385V18.3286C17.5773 17.7763 17.1296 17.3286 16.5773 17.3286H2.08008ZM4.06253 21.1551C4.54206 21.1551 4.9308 20.7873 4.9308 20.3335C4.9308 19.8798 4.54206 19.512 4.06253 19.512C3.58299 19.512 3.19425 19.8798 3.19425 20.3335C3.19425 20.7873 3.58299 21.1551 4.06253 21.1551Z" fill="#61D6F2"/>
		<path d="M17.7147 1.00243C17.9566 0.548019 18.6121 0.548018 18.854 1.00243L23.8445 10.3792C24.0712 10.8052 23.7602 11.3177 23.2749 11.3177H13.2938C12.8085 11.3177 12.4975 10.8052 12.7242 10.3792L17.7147 1.00243Z" stroke="#61D6F2"/>
		<path fill-rule="evenodd" clip-rule="evenodd" d="M11.1 10.1263H2.03174C1.50615 10.1263 1.08008 10.5494 1.08008 11.0712V15.1913C1.08008 15.7132 1.50615 16.1362 2.03174 16.1362H16.6257C17.1513 16.1362 17.5773 15.7132 17.5773 15.1913V12.8H11.7458C11.0261 12.8 10.2694 11.6947 10.61 11.0653L11.1 10.1263ZM4.93079 13.1313C4.93079 13.585 4.54205 13.9529 4.06252 13.9529C3.58298 13.9529 3.19424 13.585 3.19424 13.1313C3.19424 12.6775 3.58298 12.3097 4.06252 12.3097C4.54205 12.3097 4.93079 12.6775 4.93079 13.1313Z" fill="#61D6F2"/>
	</g>
	<defs>
		<clipPath id="clip0_393_6122">
			<rect x="0.5" width="24" height="24" rx="2" fill="white"/>
		</clipPath>
	</defs>
</svg>