<svg xmlns="http://www.w3.org/2000/svg" xmlns:xlink="http://www.w3.org/1999/xlink" preserveAspectRatio="xMidYMid" width="12" height="12" viewBox="0 0 12 12">
  <defs>
    <style>

      .cls-2 {
        fill: #8190a0;
      }
    </style>
  </defs>
  <path d="M-0.000,12.000 C-0.000,12.000 -0.000,10.000 -0.000,10.000 C-0.000,10.000 12.000,10.000 12.000,10.000 C12.000,10.000 12.000,12.000 12.000,12.000 C12.000,12.000 -0.000,12.000 -0.000,12.000 ZM-0.000,5.000 C-0.000,5.000 12.000,5.000 12.000,5.000 C12.000,5.000 12.000,7.000 12.000,7.000 C12.000,7.000 -0.000,7.000 -0.000,7.000 C-0.000,7.000 -0.000,5.000 -0.000,5.000 ZM-0.000,-0.000 C-0.000,-0.000 12.000,-0.000 12.000,-0.000 C12.000,-0.000 12.000,2.000 12.000,2.000 C12.000,2.000 -0.000,2.000 -0.000,2.000 C-0.000,2.000 -0.000,-0.000 -0.000,-0.000 Z" id="path-1" class="cls-2" fill-rule="evenodd"/>
</svg>
