<svg xmlns="http://www.w3.org/2000/svg" xmlns:xlink="http://www.w3.org/1999/xlink" preserveAspectRatio="xMidYMid" width="14" height="14" viewBox="0 0 12 12">
  <defs>
    <style>

      .cls-2 {
        fill: #8394a5;
      }
    </style>
  </defs>
  <path d="M11.313,10.606 C11.313,10.606 10.606,11.313 10.606,11.313 C10.606,11.313 5.646,6.353 5.646,6.353 C5.646,6.353 0.843,11.157 0.843,11.157 C0.843,11.157 0.156,10.469 0.156,10.469 C0.156,10.469 4.959,5.666 4.959,5.666 C4.959,5.666 -0.001,0.706 -0.001,0.706 C-0.001,0.706 0.706,-0.001 0.706,-0.001 C0.706,-0.001 5.666,4.959 5.666,4.959 C5.666,4.959 10.469,0.155 10.469,0.155 C10.469,0.155 11.157,0.843 11.157,0.843 C11.157,0.843 6.353,5.646 6.353,5.646 C6.353,5.646 11.313,10.606 11.313,10.606 Z" id="path-1" class="cls-2" fill-rule="evenodd"/>
</svg>
