<svg width="11" height="12" viewBox="0 0 11 12" fill="none" xmlns="http://www.w3.org/2000/svg">
<path fill-rule="evenodd" clip-rule="evenodd" d="M8.69981 2.46101C7.85724 1.62404 6.56031 1.62367 5.71735 2.45992L4.46193 3.68437C4.33313 3.81 4.33313 4.01367 4.46193 4.1393C4.59073 4.26492 4.79956 4.26492 4.92836 4.1393L6.1848 2.91385L6.18693 2.91175C6.31234 2.78718 6.45106 2.68933 6.59738 2.61822L8.22912 2.91175C8.53968 3.2204 8.67613 3.56521 8.67367 3.89988C8.67121 4.23511 8.52893 4.59017 8.22562 4.91534L6.98108 6.1359C6.97667 6.14023 6.97239 6.14468 6.96824 6.14924C6.71725 6.42513 6.32594 6.59924 5.93491 6.61436C5.55036 6.62924 5.19315 6.49137 4.96413 6.17658C4.85872 6.03169 4.65284 5.99758 4.50429 6.10039C4.35573 6.2032 4.32076 6.40401 4.42617 6.54889C4.80652 7.0717 5.39509 7.27911 5.96104 7.25722C6.51728 7.23571 7.07791 6.99371 7.45509 6.5834L8.69832 5.36412C8.70153 5.36097 8.70468 5.35776 8.70775 5.35448C9.10751 4.92851 9.32947 4.4233 9.33328 3.90449C9.33711 3.3835 9.12046 2.87905 8.69981 2.46101ZM8.22912 2.91175L6.59738 2.61822C7.13285 2.358 7.77016 2.45587 8.22912 2.91175Z" fill="#333333"/>
<path fill-rule="evenodd" clip-rule="evenodd" d="M1.63352 9.53834C2.47609 10.3753 3.77302 10.3757 4.61598 9.53943L5.8714 8.31498C6.0002 8.18935 6.0002 7.98568 5.8714 7.86005C5.7426 7.73443 5.53377 7.73443 5.40497 7.86005L4.14853 9.0855L4.1464 9.0876C4.02099 9.21217 3.88227 9.31002 3.73596 9.38113L2.10421 9.0876C1.79365 8.77895 1.6572 8.43414 1.65966 8.09947C1.66212 7.76424 1.8044 7.40917 2.10771 7.08401L3.35225 5.86344C3.35666 5.85912 3.36094 5.85467 3.36509 5.85011C3.61609 5.57422 4.00739 5.40011 4.39842 5.38499C4.78297 5.37011 5.14018 5.50797 5.3692 5.82277C5.47461 5.96765 5.68049 6.00177 5.82904 5.89896C5.9776 5.79614 6.01257 5.59534 5.90716 5.45045C5.52681 4.92765 4.93824 4.72024 4.37229 4.74213C3.81605 4.76364 3.25542 5.00564 2.87824 5.41595L1.63501 6.63523C1.6318 6.63838 1.62865 6.64159 1.62558 6.64487C1.22582 7.07084 1.00386 7.57605 1.00005 8.09486C0.996221 8.61585 1.21287 9.1203 1.63352 9.53834ZM2.10421 9.0876L3.73596 9.38113C3.20048 9.64135 2.56317 9.54348 2.10421 9.0876Z" fill="#333333"/>
</svg>


