<?xml version="1.0" encoding="UTF-8"?>
<!DOCTYPE svg PUBLIC "-//W3C//DTD SVG 1.1//EN" "http://www.w3.org/Graphics/SVG/1.1/DTD/svg11.dtd">
<!-- Creator: CorelDRAW 2017 -->
<svg xmlns="http://www.w3.org/2000/svg" xml:space="preserve" width="6.7mm" height="6.7mm" version="1.1" style="shape-rendering:geometricPrecision; text-rendering:geometricPrecision; image-rendering:optimizeQuality; fill-rule:evenodd; clip-rule:evenodd"
viewBox="0 0 126.03 126.03"
 xmlns:xlink="http://www.w3.org/1999/xlink">
 <defs>
  <style type="text/css">
   <![CDATA[
    .fil0 {fill:none}
    .fil1 {fill:#BDD0DA;fill-rule:nonzero}
   ]]>
  </style>
 </defs>
 <g id="Слой_x0020_1">
  <metadata id="CorelCorpID_0Corel-Layer"/>
  <rect class="fil0" x="-0" y="-0" width="126.03" height="126.03"/>
  <path class="fil1" d="M44.14 5.21l54.82 0c3,0 5.72,1.23 7.7,3.21l0.02 0.02c1.98,1.98 3.21,4.7 3.21,7.7l0 71.17 -8.4 0 0 -71.17c0,-0.7 -0.28,-1.33 -0.73,-1.79 -0.46,-0.45 -1.09,-0.73 -1.79,-0.73l-54.82 0c-0.2,0 -0.4,0.02 -0.59,0.07l0 -8.46c0.2,-0.01 0.39,-0.02 0.59,-0.02zm-17.07 20.57l54.82 0c3,0 5.72,1.23 7.7,3.21l0.02 0.02c1.98,1.98 3.21,4.7 3.21,7.7l0 73.2c0,3 -1.23,5.72 -3.21,7.7l-0.02 0.02c-1.98,1.98 -4.7,3.21 -7.7,3.21l-54.82 0c-3,0 -5.72,-1.23 -7.7,-3.21l-0.02 -0.02c-1.98,-1.98 -3.21,-4.71 -3.21,-7.7l0 -73.2c0,-3 1.23,-5.72 3.21,-7.7l0.02 -0.02c1.98,-1.98 4.71,-3.21 7.7,-3.21zm54.82 8.4l-54.82 0c-0.7,0 -1.33,0.28 -1.79,0.73 -0.45,0.46 -0.73,1.09 -0.73,1.79l0 73.2c0,0.7 0.28,1.33 0.73,1.79 0.46,0.45 1.09,0.73 1.79,0.73l54.82 0c0.7,0 1.33,-0.28 1.79,-0.73 0.45,-0.46 0.73,-1.09 0.73,-1.79l0 -73.2c0,-0.7 -0.28,-1.33 -0.73,-1.79 -0.46,-0.45 -1.09,-0.73 -1.79,-0.73z"/>
 </g>
</svg>
