<?xml version="1.0" encoding="UTF-8"?>
<!DOCTYPE svg PUBLIC "-//W3C//DTD SVG 1.1//EN" "http://www.w3.org/Graphics/SVG/1.1/DTD/svg11.dtd">
<!-- Creator: CorelDRAW 2017 -->
<svg xmlns="http://www.w3.org/2000/svg" xml:space="preserve" width="6.7mm" height="6.7mm" version="1.1" style="shape-rendering:geometricPrecision; text-rendering:geometricPrecision; image-rendering:optimizeQuality; fill-rule:evenodd; clip-rule:evenodd"
viewBox="0 0 278.18 278.18"
 xmlns:xlink="http://www.w3.org/1999/xlink">
 <defs>
  <style type="text/css">
   <![CDATA[
    .fil0 {fill:none}
    .fil1 {fill:#BDD0DA !important}
   ]]>
  </style>
 </defs>
 <g id="Слой_x0020_1">
  <metadata id="CorelCorpID_0Corel-Layer"/>
  <rect class="fil0" x="-0" y="-0" width="278.18" height="278.18"/>
  <path class="fil1" d="M18.88 208.8l80.26 -67.8c-2.37,-3.72 -7.38,-6.78 -10.52,-9.81l-54.72 -47.9c-5.12,-4.17 -10.06,-8.83 -15.02,-13.15l0 138.65zm12.77 -157.04l214.88 0c4.07,0 7.72,1.94 10.06,4.93 -3.58,3.22 -8.26,6.74 -10.69,8.95 -4.79,4.36 -10.17,8.89 -15.3,13.08 -15.23,12.43 -81.17,71.12 -91.47,78.26l-61.39 -52.43c-0.69,-0.56 -42.34,-35.69 -55.97,-48.09 2.35,-2.87 5.91,-4.71 9.89,-4.71zm227.65 18.92l0 138.59c-1.69,-1.47 -3.22,-2.82 -4.09,-3.54 -16.49,-13.66 -64.93,-56.91 -76.1,-64.71 1.9,-3.12 18.23,-16.59 22.17,-19.87l58.02 -50.46zm-2.53 150.58c-2.33,3.13 -6.06,5.16 -10.24,5.16l-214.88 0c-4.06,0 -7.7,-1.93 -10.05,-4.91l85.82 -73.39c2.82,1.46 12.66,10.6 15.77,13.58l15.93 13.3c1.53,-0.78 6.83,-5.45 8.29,-6.78 3.22,-2.93 4.98,-4.03 7.63,-6.54 3.06,-2.9 13.12,-12.24 15.8,-13.56 5.85,3.35 36.41,31.61 45.17,38.41l40.77 34.72z"/>
 </g>
</svg>
