<?xml version="1.0" encoding="UTF-8"?>
<!DOCTYPE svg PUBLIC "-//W3C//DTD SVG 1.1//EN" "http://www.w3.org/Graphics/SVG/1.1/DTD/svg11.dtd">
<!-- Creator: CorelDRAW 2017 -->
<svg class="downloadIcon" xmlns="http://www.w3.org/2000/svg" xml:space="preserve" width="6.7mm" height="6.7mm" version="1.1" style="shape-rendering:geometricPrecision; text-rendering:geometricPrecision; image-rendering:optimizeQuality; fill-rule:evenodd; clip-rule:evenodd"
viewBox="0 0 170.1 170.1"
 xmlns:xlink="http://www.w3.org/1999/xlink">
 <defs>
  <style type="text/css">
   <![CDATA[
    .fil0 {fill:none}
    .fil1 {fill:#BDD0DA;fill-rule:nonzero}
   ]]>
  </style>
 </defs>
 <g id="Слой_x0020_1">
  <metadata id="CorelCorpID_0Corel-Layer"/>
  <rect class="fil0" x="-0" y="-0" width="170.1" height="170.1"/>
  <path class="fil1" d="M163.82 116.08l0 17.47c0,6.1 -2.51,11.67 -6.55,15.73l-0.03 0.03c-4.06,4.04 -9.63,6.55 -15.73,6.55l-112.91 0c-6.1,0 -11.67,-2.51 -15.73,-6.55l-0.03 -0.03c-4.04,-4.06 -6.55,-9.63 -6.55,-15.73l0 -17.47 18.15 0 0 17.47c0,1.16 0.46,2.2 1.2,2.94l0.03 0.03c0.74,0.74 1.78,1.2 2.94,1.2l112.91 0c1.16,0 2.2,-0.46 2.94,-1.2l0.03 -0.03c0.74,-0.74 1.2,-1.78 1.2,-2.94l0 -17.47 18.15 0zm-87.85 -101.84l13.61 0 0 66.81 23.97 0 -15.38 20.05 -15.39 20.05 -15.39 -20.05 -15.38 -20.05 23.97 0 0 -66.81z"/>
 </g>
</svg>
