<svg xmlns="http://www.w3.org/2000/svg" xmlns:xlink="http://www.w3.org/1999/xlink" preserveAspectRatio="xMidYMid" width="15" height="16" viewBox="0 0 15 16">
  <defs>
    <style>

      .cls-2 {
        fill: #98a6b5;
      }
    </style>
  </defs>
  <path d="M11.000,10.000 C11.000,10.000 12.354,8.764 12.848,8.234 C13.342,7.704 14.331,7.785 14.660,8.071 C14.990,8.356 14.782,8.776 14.000,10.000 C12.158,12.881 9.358,16.000 6.000,16.000 C1.667,16.000 -0.000,6.043 -0.000,4.872 C-0.000,3.687 2.000,3.497 2.000,5.000 C2.000,6.025 2.000,5.279 2.000,6.000 C2.000,6.845 3.000,6.842 3.000,6.000 C3.000,5.470 3.000,2.856 3.000,2.000 C3.000,0.560 5.000,0.563 5.000,2.000 C5.000,2.978 5.000,5.633 5.000,6.000 C5.000,6.367 6.000,6.948 6.000,6.000 C6.000,5.551 6.000,1.367 6.000,1.000 C6.000,-0.203 8.000,-0.437 8.000,1.000 C8.000,2.101 8.000,5.551 8.000,6.000 C8.000,6.448 9.000,6.571 9.000,6.000 C9.000,5.429 9.000,2.489 9.000,2.000 C9.000,0.777 11.000,0.548 11.000,2.000 C11.000,3.101 11.000,10.000 11.000,10.000 Z" id="path-1" class="cls-2" fill-rule="evenodd"/>
</svg>
