<?xml version="1.0" encoding="UTF-8"?>
<!DOCTYPE svg PUBLIC "-//W3C//DTD SVG 1.1//EN" "http://www.w3.org/Graphics/SVG/1.1/DTD/svg11.dtd">
<!-- Creator: CorelDRAW 2017 -->
<svg xmlns="http://www.w3.org/2000/svg" xml:space="preserve" width="6.7mm" height="6.7mm" version="1.1" style="shape-rendering:geometricPrecision; text-rendering:geometricPrecision; image-rendering:optimizeQuality; fill-rule:evenodd; clip-rule:evenodd"
viewBox="0 0 898.18 898.18"
 xmlns:xlink="http://www.w3.org/1999/xlink">
 <defs>
  <style type="text/css">
   <![CDATA[
    .fil0 {fill:none}
    .fil1 {fill:#BDD0DA}
   ]]>
  </style>
 </defs>
 <g id="Слой_x0020_1">
  <metadata id="CorelCorpID_0Corel-Layer"/>
  <rect class="fil0" x="-0" y="-0" width="898.19" height="898.18"/>
  <path class="fil1" d="M98.3 265.09l96.3 0 0 -125.75c0,-14.77 6.07,-28.22 15.81,-37.97l0.11 -0.11c9.76,-9.75 23.22,-15.81 37.97,-15.81l401.2 0c14.77,0 28.22,6.07 37.97,15.81l0.11 0.11c9.74,9.75 15.81,23.2 15.81,37.97l0 125.75 96.31 0c19.76,0 35.92,16.16 35.92,35.92l0 321.11c0,19.76 -16.16,35.92 -35.92,35.92l-90.07 0 0 100.8c0,14.75 -6.06,28.21 -15.81,37.97l-0.11 0.11c-9.75,9.74 -23.2,15.81 -37.97,15.81l-416.79 0c-14.75,0 -28.21,-6.06 -37.97,-15.81l-0.11 -0.11c-9.75,-9.76 -15.81,-23.22 -15.81,-37.97l0 -100.8 -86.95 0c-19.76,0 -35.92,-16.16 -35.92,-35.92l0 -321.11c0,-19.76 16.16,-35.92 35.92,-35.92zm498.41 90.44l97.58 0c5.12,0 9.3,4.18 9.3,9.3l0 26.24c0,5.12 -4.18,9.3 -9.3,9.3l-97.58 0c-5.12,0 -9.3,-4.18 -9.3,-9.3l0 -26.24c0,-5.12 4.18,-9.3 9.3,-9.3zm53.23 217.06l-404.8 0 0 180.25 404.8 0 0 -180.25zm-395.44 -307.5l389.2 0 0 -119.76 -389.2 0 0 119.76zm62.05 339.94l261.97 0 0 37.43 -261.97 0 0 -37.43zm0 77.96l261.97 0 0 37.43 -261.97 0 0 -37.43z"/>
 </g>
</svg>
