<svg
    width="24"
    height="24"
    viewBox="0 0 24 24"
    fill="none"
    xmlns="http://www.w3.org/2000/svg"
  >
    <path
      d="M9.08496 9.00252C9.32006 8.33419 9.78411 7.77063 10.3949 7.41166C11.0057 7.05268 11.7239 6.92146 12.4221 7.04123C13.1204 7.16101 13.7538 7.52405 14.21 8.06605C14.6663 8.60805 14.916 9.29404 14.915 10.0025C14.915 12.0025 11.915 13.0025 11.915 13.0025M21.75 12C21.75 17.3848 17.3848 21.75 12 21.75C6.61522 21.75 2.25 17.3848 2.25 12C2.25 6.61522 6.61522 2.25 12 2.25C17.3848 2.25 21.75 6.61522 21.75 12Z"
      stroke="#2B2A29"
      stroke-linecap="round"
      stroke-linejoin="round"
    />
    <circle cx="12" cy="16.627" r="0.5" fill="#2B2A29" />
 </svg>


