<svg width="39" height="38" viewBox="0 0 39 38" fill="none" xmlns="http://www.w3.org/2000/svg">
<path fill-rule="evenodd" clip-rule="evenodd" d="M17.7836 0.0489914C18.2378 0.0177858 18.697 0.00049619 19.16 0.00049619C19.6193 7.44923e-05 20.0785 0.0165207 20.5369 0.0489914C21.8547 0.143873 22.86 1.11462 23.1484 2.30128L23.7565 4.80574C23.789 4.94068 23.9117 5.10093 24.1449 5.18737C24.5721 5.34172 24.9917 5.51588 25.4024 5.70901C25.6272 5.81444 25.8275 5.78534 25.9464 5.71239L28.1489 4.37223C29.1905 3.73673 30.5859 3.76246 31.5862 4.62609C32.2803 5.22912 32.9335 5.88022 33.5344 6.57602C34.3997 7.5746 34.4238 8.97042 33.7883 10.0137L32.4481 12.2141C32.3756 12.333 32.3478 12.5338 32.4515 12.7581C32.6455 13.1688 32.8201 13.5884 32.9748 14.0156C33.0579 14.2488 33.2203 14.3698 33.3548 14.4044L35.8592 15.0121C37.0459 15.3005 38.0166 16.3058 38.1098 17.6241C38.1364 17.996 38.1524 18.3688 38.1575 18.7416C38.1647 19.2868 38.1491 19.8325 38.1098 20.3773C38.0166 21.6951 37.0459 22.7005 35.8592 22.9889L33.3548 23.5966C33.2945 23.6113 33.2291 23.6442 33.1671 23.6969C33.0912 23.7615 33.0208 23.8568 32.9731 23.9854C32.8192 24.4138 32.6451 24.8334 32.4515 25.2429C32.3461 25.4672 32.3756 25.668 32.4481 25.7869L33.7883 27.9894C34.4238 29.0306 34.3981 30.4264 33.5344 31.4266C32.9318 32.1208 32.2803 32.774 31.5845 33.3749C30.5859 34.2402 29.1905 34.2643 28.1472 33.6288L25.9464 32.2886C25.8275 32.2161 25.6272 32.1882 25.4041 32.292C24.9929 32.4851 24.5734 32.6597 24.1449 32.8153C23.9117 32.898 23.7911 33.0603 23.7565 33.1952L23.1484 35.6997C22.86 36.8864 21.8547 37.8571 20.5369 37.9503C20.0485 37.9853 19.5594 38.0018 19.0706 37.9996C18.6413 37.9975 18.212 37.9811 17.7836 37.9503C16.4654 37.8571 15.4605 36.8864 15.1716 35.6997L14.5639 33.1952C14.531 33.0603 14.4083 32.9001 14.1751 32.8136C13.7467 32.6597 13.3271 32.4851 12.9176 32.292C12.7818 32.2283 12.6545 32.2135 12.5491 32.2283C12.4803 32.238 12.4209 32.2599 12.3736 32.2886L10.1715 33.6288C9.12995 34.2643 7.73413 34.2385 6.73429 33.3749C6.3341 33.0274 5.94782 32.6643 5.57757 32.2861C5.30473 32.0073 5.04075 31.7201 4.78562 31.425C3.9203 30.4264 3.89626 29.0306 4.53176 27.9873L5.87234 25.7869C5.94487 25.668 5.97228 25.4672 5.86854 25.2446C5.6754 24.8334 5.50082 24.4138 5.34521 23.9854C5.26256 23.7522 5.10021 23.6312 4.96527 23.5966L2.4608 22.9889C1.27415 22.7005 0.3034 21.6951 0.208518 20.3773C0.142733 19.4606 0.142733 18.5404 0.208518 17.6241C0.3034 16.3058 1.27415 15.3005 2.4608 15.0121L4.96527 14.4044C5.10021 14.3715 5.26088 14.2488 5.3469 14.0156C5.43757 13.763 5.5354 13.5138 5.63998 13.2679C5.71293 13.0963 5.78926 12.9264 5.86854 12.7581C5.97397 12.5338 5.94487 12.333 5.87234 12.2141L4.53176 10.0116C3.89626 8.97042 3.92199 7.5746 4.78562 6.57434C5.38865 5.88022 6.03975 5.22744 6.73597 4.62609C7.73413 3.76077 9.12995 3.73673 10.1732 4.37223L12.3736 5.71239C12.4453 5.75624 12.5461 5.78365 12.6638 5.77606C12.7422 5.771 12.8278 5.75034 12.9176 5.70901C13.3284 5.51503 13.748 5.34045 14.1751 5.18569C14.4083 5.10303 14.5294 4.94068 14.5639 4.80574L15.1716 2.30128C15.4605 1.11462 16.4654 0.143873 17.7836 0.0489914ZM19.1592 30.2273C25.3598 30.2273 30.3864 25.2007 30.3864 19.0001C30.3864 12.7994 25.3598 7.7728 19.1592 7.7728C12.9585 7.7728 7.93191 12.7994 7.93191 19.0001C7.93191 25.2007 12.9585 30.2273 19.1592 30.2273Z" fill="#BDD0DA"/>
</svg>
