<svg xmlns="http://www.w3.org/2000/svg" width="35" height="35" viewBox="0 0 35 35"><path fill="#C8CACE" d="M22.5 20.586c1-4.5-9.5-8.5-10-3s2 9-3 10c5.5 3.5 14 4 15-1-1.5-1-3-1.5-2-6z"/><path fill="#AEB1B5" d="M25.5 26.586c-4 4.5-12 3.5-15 1s-6-1-6-1c2 5 9 7 14 7s12-4 12-4-3-3-5-3z"/><path fill="#DBDDE1" d="M25.5 10.586c-.5-4.5-4.5-5.5-8-7s-6.5 2-7 7-.53 6.232 1 9c4.47 8.074 7.833 7.166 11 3 2.603-3.425 3.5-7.5 3-12z"/><path fill="#AEB2B5" d="M26.5 8.586c-1.5-4.5-4.5-8-11-7s-9.542 9.02-5 16c1.142-1.582-1.553-5.624 0-8 .848-1.3 1.44-3.17 4-5 1.87.973 1.815.942 4 2 5.166 2.5 6 3.5 7 8s2.5-1.5 1-6z"/></svg>