<?xml version="1.0" encoding="utf-8"?>
<!-- Generator: Adobe Illustrator 16.2.0, SVG Export Plug-In . SVG Version: 6.00 Build 0)  -->
<!DOCTYPE svg PUBLIC "-//W3C//DTD SVG 1.1//EN" "http://www.w3.org/Graphics/SVG/1.1/DTD/svg11.dtd">
<svg version="1.1" id="Layer_1" xmlns="http://www.w3.org/2000/svg" xmlns:xlink="http://www.w3.org/1999/xlink" x="0px" y="0px"
	 width="59px" height="59px" viewBox="0 0 59 59" enable-background="new 0 0 59 59" xml:space="preserve">
<path fill="#C2D0DA" d="M29.5,0.999C45.215,0.999,58,13.785,58,29.5C58,45.215,45.215,58,29.5,58C13.785,58,1,45.215,1,29.5
	C1,13.785,13.785,0.999,29.5,0.999 M29.5-0.001C13.207-0.001,0,13.207,0,29.5C0,45.792,13.207,59,29.5,59S59,45.792,59,29.5
	C59,13.207,45.792-0.001,29.5-0.001L29.5-0.001z"/>
<g>
	<path fill="#E8DAD1" d="M22.677,34.955c0.892,2.898,0.595,6.688-0.743,8.026c2.304,2.899,6.614,5.648,6.837,5.573
		c0.223-0.073,5.054-3.343,7.135-5.424c-1.114-0.893-2.007-4.46-0.966-8.324C32.412,35.104,22.677,34.955,22.677,34.955z"/>
	<path fill="#F2E9E2" d="M20.001,32.429c1.337,3.121,5.425,6.911,8.695,6.911c3.122,0,6.54-1.412,8.919-7.58
		c2.141-5.554,0-14.79,0-14.79H22.156l-2.973,5.945L20.001,32.429z"/>
	<path fill="#999999" d="M34.568,10.579c4.087-0.075,8.918,5.276,8.174,13.823C42,32.948,38.58,36.516,34.939,37.556
		c1.932-2.006,2.602-3.418,2.602-15.681c-4.162,0-10.183,0-10.183,0s0.149-2.452-0.594-4.384c-0.446,1.858-0.446,4.459-0.446,4.459
		h-0.521c0,0-0.074-2.378-0.743-4.459c-0.52,2.081-0.668,3.418-0.668,4.459c-1.412,0-4.088,0-4.088,0s-0.669,11.223,2.229,15.979
		c-3.195-1.04-7.655-3.865-7.655-14.121C14.873,14.22,25.353,2.329,34.568,10.579z"/>
</g>
<path fill="#999999" d="M29.5,58c6.902,0,13.237-2.467,18.174-6.564c-0.296-1.59-0.719-2.982-1.328-3.722
	c-2.205-2.676-4.883-3.298-7.406-4.163c-2.676-0.916-2.403-2.65-4.36-3.17V41c0,0,0.743,1.387-0.471,2.526
	c-0.573,0.538-2.804,2.582-5.089,2.577c-2.421-0.004-4.9-2.09-5.525-2.677c-1.214-1.14-0.471-2.526-0.471-2.526v-0.619
	c-1.957,0.521-1.685,2.255-4.36,3.171c-2.524,0.864-5.202,1.486-7.407,4.161c-0.483,0.586-0.849,1.586-1.127,2.767
	C15.218,55.104,22.025,58,29.5,58z"/>
</svg>
