<?xml version="1.0" encoding="utf-8"?>
<!-- Generator: Adobe Illustrator 16.2.0, SVG Export Plug-In . SVG Version: 6.00 Build 0)  -->
<!DOCTYPE svg PUBLIC "-//W3C//DTD SVG 1.1//EN" "http://www.w3.org/Graphics/SVG/1.1/DTD/svg11.dtd">
<svg version="1.1" id="Layer_1" xmlns="http://www.w3.org/2000/svg" xmlns:xlink="http://www.w3.org/1999/xlink" x="0px" y="0px"
	 width="59px" height="59px" viewBox="0 0 59 59" enable-background="new 0 0 59 59" xml:space="preserve">
<path fill="#C2D0DA" d="M29.5,0.999C45.215,0.999,58,13.785,58,29.5C58,45.215,45.215,58,29.5,58C13.785,58,1,45.215,1,29.5
	C1,13.785,13.785,0.999,29.5,0.999 M29.5-0.001C13.207-0.001,0,13.207,0,29.5C0,45.792,13.207,59,29.5,59S59,45.792,59,29.5
	C59,13.207,45.792-0.001,29.5-0.001L29.5-0.001z"/>
<g>
	<path fill="#C2D0DA" d="M21.449,12.332c-5.275,0.237-8.44,3.435-8.323,12.08c0,2.25-2.931,4.855-0.821,9.118
		c2.11,4.264,4.513,7.758,11.078,6.573c0.703-0.592,1.348-2.112,0.997-4.086c-2.228-1.224-3.751-5.566-3.517-7.935
		c-0.938-0.474-1.523-2.961-1.055-4.026c0.469-1.066,1.055-0.711,1.055-0.711s-1.289-3.908,1.758-9.474
		c4.923-0.355,7.034-0.829,9.847,3.671c2.813,4.5,1.642,6.75,4.688,9.948c-0.352,1.657-0.938,1.776-1.289,1.895
		c-0.352,2.842,0.195,4.145-2.93,6.316c0,4.56,3.15,5.472,5.157,5.526c2.169,0.06,4.454-1.066,6.681-3.79
		c1.446,0.316,2.658-0.276,3.4-1.776c-0.938,0.829-1.759,0.947-2.813,0.355c2.462-0.592,3.399-2.368,3.868-4.382
		c-2.813,2.843-7.893,1.619-9.143-1.185c3.984,0.948,10.041-0.474,11.408-5.329c-3.008,2.448-6.251-0.474-5.782-4.5
		S45.245,8.306,39.853,6.411C34.461,4.516,26.958,2.977,21.449,12.332z"/>
	<path fill="#C2D0DA" d="M29.5,58c7.642,0,14.585-3.029,19.708-7.942c-0.937-3.153-2.631-4.438-5.487-5.276
		c0,0-3.633,6.632-14.652,6.632h-0.82c-11.019,0-14.653-6.632-14.653-6.632c-2.446,0.717-4.039,1.762-5.036,4.026
		C13.771,54.455,21.228,58,29.5,58z"/>
</g>
</svg>
