<?xml version="1.0" encoding="utf-8"?>
<!-- Generator: Adobe Illustrator 16.2.0, SVG Export Plug-In . SVG Version: 6.00 Build 0)  -->
<!DOCTYPE svg PUBLIC "-//W3C//DTD SVG 1.1//EN" "http://www.w3.org/Graphics/SVG/1.1/DTD/svg11.dtd">
<svg version="1.1" id="Layer_1" xmlns="http://www.w3.org/2000/svg" xmlns:xlink="http://www.w3.org/1999/xlink" x="0px" y="0px"
	 width="59px" height="59px" viewBox="0 0 59 59" enable-background="new 0 0 59 59" xml:space="preserve">
<path fill="#C2D0DA" d="M29.5,0.999C45.215,0.999,58,13.785,58,29.5C58,45.215,45.215,58,29.5,58C13.785,58,1,45.215,1,29.5
	C1,13.785,13.785,0.999,29.5,0.999 M29.5-0.001C13.207-0.001,0,13.207,0,29.5C0,45.792,13.207,59,29.5,59S59,45.792,59,29.5
	C59,13.207,45.792-0.001,29.5-0.001L29.5-0.001z"/>
<g>
	<path fill="#E8DAD1" d="M22.481,32.285c0,3.891-0.105,5.89-1.788,7.257c2.84,3.997,5.89,5.995,8.519,5.995
		c2.629,0,8.73-4.839,9.676-6.626c-1.473-0.842-2.419-0.842-2.419-6.837C31.001,38.069,22.481,32.18,22.481,32.285z"/>
	<path fill="#F2E9E2" d="M39.861,20.216l-3.575-8.703h-6.758h-0.237h-6.758l-4.365,7.52c-0.315,0.789-0.315,4.628,0,5.785
		c0.316,1.157,1.367,3.05,1.999,3.418c0.158,1.999,1.363,3.579,2.787,4.996c1.426,1.42,2.807,2.701,4.154,3.733
		c0.305,0.234,1.078,0.605,2.34,0.605c1.341,0,2.027-0.389,2.366-0.632c0.907-0.65,2.662-2.307,4.049-3.707
		c1.415-1.428,2.631-2.997,2.788-4.996c0.631-0.368,1.683-2.262,1.998-3.418S41.439,20.216,39.861,20.216z"/>
	<path fill="#999999" d="M35.629,13.879c-0.999,1.472-4.365,3.418-7.468,3.733c2.261-1.209,4.785-3.313,5.206-4.838
		c-2.419,2.051-6.573,5.311-11.359,5.942c1.84-1.788,2.629-2.156,3.366-4.47c-2.051,1.893-6.048,4.313-3.839,11.727
		c-0.42,0.316-1.157,0.684-1.157,0.684s-0.473-3.997-1.472-5.68c-1-1.683-1.42-2.577-1.21-5.101s0.894-5.417,2.893-7.257
		c1.998-1.84,4.154-3.418,7.362-3.471c3.208-0.053,5.943-0.263,7.31,2.156c2.155,0.421,3.944,1.42,5.206,4.049
		c1.031,2.15,1.42,6.205-0.211,8.993c-0.771,1.316-1.683,6.1-1.683,6.1l-1.104,0.158c0,0,1.209-4.733,0.157-7.1
		C36.574,17.14,37.47,15.194,35.629,13.879z"/>
</g>
<path fill="#999999" d="M43.718,40.173c-3.892-0.946-4.523-2.419-5.049-3.366c-0.525-0.946-1.937-0.709-1.937-0.709
	s0.604,2.183-0.062,3.129c-1.305,1.853-4.223,4.652-6.496,4.917h-1.199v0.001c-2.271-0.263-5.168-3.017-6.495-4.918
	c-0.644-0.923-0.131-3.155-0.131-3.155s-1.341-0.211-1.867,0.735c-0.526,0.947-1.157,2.42-5.049,3.366
	c-3.833,0.932-7.147,3.298-8.753,6.384C11.884,53.499,20.176,58,29.5,58c9.375,0,17.707-4.553,22.904-11.561
	C50.773,43.412,47.501,41.093,43.718,40.173z"/>
</svg>
