<?xml version="1.0" encoding="utf-8"?>
<!-- Generator: Adobe Illustrator 16.2.0, SVG Export Plug-In . SVG Version: 6.00 Build 0)  -->
<!DOCTYPE svg PUBLIC "-//W3C//DTD SVG 1.1//EN" "http://www.w3.org/Graphics/SVG/1.1/DTD/svg11.dtd">
<svg version="1.1" id="Layer_1" xmlns="http://www.w3.org/2000/svg" xmlns:xlink="http://www.w3.org/1999/xlink" x="0px" y="0px"
	 width="59px" height="59px" viewBox="0 0 59 59" enable-background="new 0 0 59 59" xml:space="preserve">
<path fill="#C2D0DA" d="M29.5,0.999C45.215,0.999,58,13.785,58,29.5C58,45.215,45.215,58,29.5,58C13.785,58,1,45.215,1,29.5
	C1,13.785,13.785,0.999,29.5,0.999 M29.5-0.001C13.207-0.001,0,13.207,0,29.5C0,45.792,13.207,59,29.5,59S59,45.792,59,29.5
	C59,13.207,45.792-0.001,29.5-0.001L29.5-0.001z"/>
<g>
	<path fill="#C2D0DA" d="M44.266,45.703c-4.117-0.382-5.771-0.297-5.771-0.297s-3.799,5.404-8.998,6.907
		c-5.198-1.503-8.997-6.907-8.997-6.907s-1.655-0.085-5.772,0.297c-2.595,0.241-4.615,1.596-6.116,3.159
		C13.82,54.477,21.255,58,29.5,58c8.244,0,15.676-3.521,20.885-9.135C48.883,47.301,46.862,45.944,44.266,45.703z"/>
	<path fill="#C2D0DA" d="M29.497,33.429c0.054,0.002,0.085,0.004,0.085,0.004v-0.005c0.476-0.006,1.836,0.048,2.461,0.812
		c0.764,0.935,2.759,1.146,3.48,0.34c0.721-0.807,0.169-2.08,0.169-2.08s-0.382,1.485-1.358,1.358
		c-0.976-0.128-0.934-0.722-1.654-1.528c-0.708-0.791-1.664-1.009-3.183-0.856c-1.519-0.152-2.475,0.065-3.183,0.856
		c-0.722,0.807-0.679,1.4-1.655,1.528c-0.976,0.127-1.358-1.358-1.358-1.358s-0.552,1.273,0.169,2.08s2.716,0.595,3.48-0.34
		c0.625-0.764,1.985-0.817,2.461-0.812v0.005C29.412,33.433,29.442,33.431,29.497,33.429z"/>
	<path fill="#C2D0DA" d="M18.505,12.204c-1.528,0.509-2.504,1.443-2.844,2.887c0.509-0.637,0.637-1.02,1.358-1.316
		c-0.552,1.571-1.019,4.246-0.722,6.199c0.212-0.807,0.255-1.485,0.637-2.335c-0.339,2.08-0.382,3.185-0.127,4.245
		c0.509,0.85,0.722,2.123,0.722,2.123l0.552,1.02c0,0,0.297,0.382,0.339,0.51c0.042,0.127,1.104,2.037,1.104,2.037
		s0.679-2.589,0.722-3.227c0.009-0.142-0.007-0.364-0.034-0.627c0.186,0.433,0.47,1.175,0.628,1.985
		c0.339,1.741,2.503,2.166,4.499,1.996c1.649-0.141,2.588-1.528,3.268-2.718c0.524-0.918,0.794-1.076,0.891-1.101
		c0.097,0.024,0.367,0.183,0.891,1.101c0.679,1.189,1.618,2.577,3.269,2.718c1.994,0.17,4.158-0.255,4.498-1.996
		c0.168-0.86,0.477-1.639,0.658-2.057c-0.004,2.077-0.064,3.84-0.064,3.84s1.443-2.038,1.57-3.057c0.34,1.146,0.51,1.401,0.51,1.401
		s1.697-4.076,0.891-7.303c0.722,0.085,1.783,1.104,1.953,2.42c0.127-1.995,0.509-7.686-0.723-9.469
		c1.613,1.274,1.656,1.401,1.783,1.741c-0.552-1.613-2.972-6.92-9.592-8.194c1.697-0.297,3.141-0.169,3.734,0.128
		c-1.146-0.808-5.177-1.614-9.039,0.467c0.425-1.02,1.4-1.91,2.292-2.123c-2.079,0.255-8.361,1.571-11.162,4.755
		c0.169-1.358,0.424-2.164,0.934-2.717C20.117,7.236,18.632,8.638,18.505,12.204z M25.423,26.937
		c-1.528,0.17-2.887,0.043-3.565-0.849c-0.679-0.892-0.509-1.741-0.509-2.973c0.933-0.764,3.692-1.062,5.305-0.425
		c1.613,0.637,1.91,0.723,1.91,0.723S26.951,26.768,25.423,26.937z M37.136,26.088c-0.679,0.892-2.037,1.019-3.565,0.849
		c-1.527-0.169-3.141-3.523-3.141-3.523s0.298-0.086,1.91-0.723s4.371-0.339,5.305,0.425C37.645,24.347,37.814,25.196,37.136,26.088
		z M22.197,15.601c1.867-0.934,1.74-1.741,5.517-0.765c3.777,0.978,4.922-0.765,6.153-0.849c1.231-0.085,4.414,1.614,4.754,4.501
		c0.131,1.108,0.18,2.693,0.189,4.226c-0.277-0.116-0.902-0.386-1.506-0.702c-1.243-0.654-4.412-0.736-5.644,0.085
		c-0.503,0.335-1.009,0.669-2.165,0.719c-1.156-0.05-1.661-0.384-2.164-0.719c-1.232-0.821-4.401-0.739-5.645-0.085
		c-0.684,0.36-1.394,0.657-1.594,0.739c-0.107-0.824-0.23-1.785-0.23-2.564C19.863,18.743,20.33,16.534,22.197,15.601z"/>
	<path fill="#C2D0DA" d="M20.924,31.479c-0.552,1.699,0.849,3.991,2.462,5.604c1.612,1.614,1.357,3.015,2.503,4.628
		c1.146,1.613,3.606,1.443,3.608,1.443c0.001,0,2.462,0.17,3.606-1.443c1.146-1.613,0.892-3.014,2.504-4.628
		c1.613-1.613,3.014-3.905,2.462-5.604c-0.764,1.784-1.4,3.524-3.183,4.204c-1.783,0.679-2.207,3.609-3.48,3.566
		s-1.867-2.718-0.891-4.246c-0.636,0-1.018,0-1.019,0h0c-0.001,0-0.383,0-1.018,0c0.976,1.528,0.382,4.203-0.891,4.246
		c-1.273,0.043-1.698-2.888-3.48-3.566C22.324,35.004,21.688,33.264,20.924,31.479z"/>
</g>
</svg>
