<?xml version="1.0" encoding="utf-8"?>
<!-- Generator: Adobe Illustrator 16.2.0, SVG Export Plug-In . SVG Version: 6.00 Build 0)  -->
<!DOCTYPE svg PUBLIC "-//W3C//DTD SVG 1.1//EN" "http://www.w3.org/Graphics/SVG/1.1/DTD/svg11.dtd">
<svg version="1.1" id="Layer_1" xmlns="http://www.w3.org/2000/svg" xmlns:xlink="http://www.w3.org/1999/xlink" x="0px" y="0px"
	 width="127px" height="127px" viewBox="0 0 127 127" enable-background="new 0 0 127 127" xml:space="preserve">
<path fill="#C2D0DA" d="M63.5,1C97.963,1,126,29.037,126,63.499C126,97.963,97.963,126,63.5,126C29.038,126,1,97.963,1,63.499
	C1,29.037,29.038,1,63.5,1 M63.5,0C28.43,0,0,28.43,0,63.499C0,98.57,28.43,127,63.5,127c35.07,0,63.5-28.43,63.5-63.501
	C127,28.43,98.57,0,63.5,0L63.5,0z"/>
<g display="none">
	<g display="inline">
		<path fill="#C2D0DA" d="M87.525,45.042c2.271,0,4.113-1.83,4.113-4.087s-1.844-4.086-4.113-4.086
			c-2.271,0-4.113,1.829-4.113,4.086S85.254,45.042,87.525,45.042z M40.338,45.51c2.271,0,4.113-1.83,4.113-4.087
			c0-2.257-1.842-4.086-4.113-4.086s-4.112,1.829-4.112,4.086C36.226,43.681,38.066,45.51,40.338,45.51z M95.294,59.582
			c-2.271,0-4.112,1.828-4.112,4.085s1.842,4.087,4.112,4.087s4.112-1.83,4.112-4.087S97.564,59.582,95.294,59.582z M31.541,59.326
			c-2.271,0-4.112,1.828-4.112,4.085c0,2.257,1.841,4.087,4.112,4.087s4.113-1.83,4.113-4.087
			C35.654,61.154,33.813,59.326,31.541,59.326z M63.932,91.504c-2.271,0-4.111,1.824-4.111,4.076s1.841,4.076,4.111,4.076
			c2.271,0,4.113-1.824,4.113-4.076S66.203,91.504,63.932,91.504z M87.525,82.33c-2.271,0-4.113,1.826-4.113,4.076
			c0,2.252,1.842,4.076,4.113,4.076c2.271,0,4.113-1.824,4.113-4.076C91.639,84.156,89.797,82.33,87.525,82.33z M40.338,81.863
			c-2.271,0-4.112,1.826-4.112,4.078c0,2.25,1.841,4.076,4.112,4.076s4.113-1.826,4.113-4.076
			C44.451,83.689,42.609,81.863,40.338,81.863z"/>
	</g>
</g>
<g>
	<path fill="#C2D0DA" d="M63.588,41.656c-11.877,0-21.5,9.631-21.5,21.502s9.623,21.502,21.5,21.502s21.5-9.631,21.5-21.502
		S75.465,41.656,63.588,41.656z M77.326,74.518c-1.604-3.006-7.082-5.233-13.665-5.233c-6.655,0-12.198,2.276-13.728,5.342
		c-2.621-3.119-4.262-7.084-4.262-11.466c0-9.879,8.037-17.918,17.916-17.918s17.917,8.038,17.917,17.917
		C81.504,67.49,79.896,71.418,77.326,74.518z"/>
	<path fill="#C2D0DA" d="M63.511,49.874c-3.833,0-6.942,4.147-6.942,9.261c0,5.108,3.109,9.254,6.942,9.254
		c3.834,0,6.942-4.145,6.942-9.254C70.453,54.021,67.346,49.874,63.511,49.874z"/>
	<ellipse fill="#C2D0DA" cx="63.598" cy="31.512" rx="4.113" ry="4.087"/>
	<ellipse fill="#C2D0DA" cx="63.598" cy="96.012" rx="4.111" ry="4.086"/>
	<ellipse fill="#C2D0DA" cx="31.347" cy="63.762" rx="4.085" ry="4.112"/>
	<path fill="#C2D0DA" d="M95.848,59.649c-2.257,0-4.084,1.842-4.084,4.113s1.827,4.111,4.084,4.111
		c2.258,0.002,4.088-1.84,4.088-4.111S98.105,59.649,95.848,59.649z"/>
	<path fill="#C2D0DA" d="M37.886,83.659c-1.596,1.597-1.586,4.19,0.02,5.797c1.605,1.604,4.199,1.614,5.796,0.019
		c1.599-1.596,1.59-4.19-0.017-5.798C42.079,82.07,39.482,82.063,37.886,83.659z"/>
	<path fill="#C2D0DA" d="M83.493,38.051c-1.595,1.595-1.585,4.19,0.021,5.796c1.605,1.605,4.199,1.615,5.795,0.02
		c1.599-1.596,1.59-4.192-0.017-5.798C87.688,36.462,85.091,36.454,83.493,38.051z"/>
	
		<ellipse transform="matrix(0.7071 -0.7071 0.7071 0.7071 -17.0135 40.8428)" fill="#C2D0DA" cx="40.795" cy="40.958" rx="4.111" ry="4.087"/>
	
		<ellipse transform="matrix(-0.7072 0.707 -0.707 -0.7072 208.7256 86.7012)" fill="#C2D0DA" cx="86.411" cy="86.569" rx="4.114" ry="4.086"/>
</g>
</svg>
