<?xml version="1.0" encoding="utf-8"?>
<!-- Generator: Adobe Illustrator 16.2.0, SVG Export Plug-In . SVG Version: 6.00 Build 0)  -->
<!DOCTYPE svg PUBLIC "-//W3C//DTD SVG 1.1//EN" "http://www.w3.org/Graphics/SVG/1.1/DTD/svg11.dtd">
<svg version="1.1" id="Layer_1" xmlns="http://www.w3.org/2000/svg" xmlns:xlink="http://www.w3.org/1999/xlink" x="0px" y="0px"
	 width="127px" height="127px" viewBox="0 0 127 127" enable-background="new 0 0 127 127" xml:space="preserve">
<path fill="#C2D0DA" d="M63.5,1C97.963,1,126,29.038,126,63.5c0,34.463-28.037,62.5-62.5,62.5C29.038,126,1,97.963,1,63.5
	C1,29.038,29.038,1,63.5,1 M63.5,0C28.431,0,0,28.43,0,63.5C0,98.57,28.431,127,63.5,127c35.07,0,63.5-28.43,63.5-63.5
	C127,28.43,98.57,0,63.5,0L63.5,0z"/>
<g>
	<path fill="#C2D0DA" d="M93.428,56.898c-0.143,0.613-1.22,1.094-1.584,1.127c-0.363,0.029-0.813-0.435-1.002-1.036
		c-0.188-0.595-1.025-0.88-1.861-0.628c-0.838,0.254-1.371,0.952-1.185,1.552c0.187,0.597-0.493,1.543-0.797,1.749
		c-0.302,0.208-0.931,0.029-1.396-0.399c-0.469-0.425-1.338-0.258-1.934,0.373c-0.598,0.632-0.704,1.499-0.236,1.924
		c0.465,0.427,0.349,1.593,0.194,1.915c-0.153,0.324-0.786,0.475-1.407,0.335s-1.289,0.431-1.484,1.271
		c-0.194,0.84,0.152,1.644,0.773,1.78c0.623,0.142,1.113,1.199,1.146,1.558c0.031,0.36-0.44,0.804-1.053,0.983
		c-0.608,0.188-0.896,1.011-0.639,1.837c0.258,0.821,0.965,1.346,1.576,1.161c0.607-0.188,1.57,0.484,1.779,0.781
		c0.213,0.297,0.029,0.916-0.404,1.375c-0.432,0.457-0.264,1.313,0.377,1.898c0.643,0.588,1.521,0.691,1.957,0.232
		c0.434-0.459,1.618-0.344,1.945-0.191c0.332,0.148,0.484,0.771,0.342,1.385c-0.141,0.611,0.441,1.268,1.295,1.459
		c0.852,0.193,1.668-0.15,1.811-0.763c0.144-0.608,1.219-1.095,1.586-1.124c0.361-0.029,0.813,0.434,1.002,1.031
		c0.188,0.6,1.025,0.885,1.863,0.629c0.838-0.254,1.367-0.947,1.18-1.549c-0.188-0.601,0.496-1.543,0.797-1.752
		c0.304-0.205,0.931-0.024,1.396,0.401c0.469,0.429,1.34,0.259,1.936-0.373c0.598-0.63,0.703-1.495,0.234-1.922
		c-0.467-0.428-0.349-1.592-0.193-1.916c0.152-0.326,0.785-0.474,1.406-0.336c0.618,0.144,1.289-0.431,1.484-1.271
		s-0.152-1.642-0.773-1.779c-0.623-0.143-1.115-1.2-1.146-1.559c-0.03-0.359,0.439-0.805,1.054-0.984
		c0.608-0.186,0.897-1.01,0.638-1.834c-0.256-0.825-0.963-1.347-1.574-1.162c-0.61,0.184-1.57-0.485-1.781-0.784
		c-0.212-0.297-0.029-0.916,0.404-1.371c0.435-0.46,0.266-1.315-0.377-1.903c-0.639-0.586-1.521-0.692-1.955-0.231
		c-0.434,0.459-1.049,0.683-1.363,0.5c-0.316-0.188-1.066-1.081-0.924-1.691c0.143-0.613-0.441-1.269-1.295-1.462
		C94.387,55.944,93.57,56.285,93.428,56.898z M98.063,61.895c3.283,3,3.471,8.048,0.42,11.275c-3.053,3.23-8.188,3.414-11.471,0.415
		c-3.283-3.001-3.473-8.052-0.421-11.279C89.645,59.077,94.779,58.894,98.063,61.895z"/>
	<path fill="#C2D0DA" d="M88.341,48.099c1.847-1.813,1.847-4.752,0-6.566c-1.844-1.813-4.832-1.813-6.678,0
		c-1.845,1.813-1.845,4.752,0.001,6.567C83.509,49.914,86.497,49.914,88.341,48.099z M81.32,45.928
		c-0.08-0.262,0.011-0.526,0.203-0.584c0.193-0.056,0.345-0.198,0.336-0.313c-0.012-0.114-0.168-0.452-0.366-0.497
		c-0.197-0.042-0.308-0.3-0.245-0.566c0.063-0.266,0.273-0.448,0.473-0.404c0.198,0.045,0.397-0.006,0.448-0.106
		c0.047-0.103,0.085-0.474-0.063-0.607c-0.146-0.14-0.114-0.413,0.076-0.615c0.189-0.2,0.465-0.252,0.613-0.118
		c0.148,0.136,0.35,0.192,0.443,0.128c0.098-0.066,0.314-0.367,0.254-0.559c-0.059-0.19,0.111-0.411,0.379-0.493
		c0.264-0.081,0.531,0.012,0.592,0.202s0.201,0.339,0.318,0.328c0.115-0.01,0.457-0.163,0.504-0.357
		c0.046-0.194,0.305-0.307,0.576-0.245c0.271,0.062,0.457,0.272,0.412,0.465c-0.047,0.196,0.19,0.479,0.293,0.538
		c0.102,0.06,0.295-0.012,0.435-0.157c0.138-0.147,0.417-0.114,0.622,0.072c0.203,0.187,0.258,0.46,0.119,0.605
		c-0.139,0.146-0.195,0.343-0.129,0.437c0.066,0.097,0.371,0.309,0.566,0.249c0.193-0.056,0.422,0.108,0.5,0.372
		c0.084,0.262-0.008,0.522-0.201,0.582c-0.194,0.058-0.345,0.202-0.336,0.313c0.012,0.114,0.166,0.454,0.364,0.498
		c0.199,0.045,0.31,0.297,0.247,0.566c-0.063,0.266-0.275,0.448-0.475,0.404c-0.195-0.045-0.398,0.002-0.446,0.106
		c-0.047,0.105-0.086,0.475,0.063,0.611c0.147,0.135,0.115,0.411-0.074,0.611c-0.191,0.2-0.467,0.254-0.616,0.118
		c-0.149-0.136-0.349-0.196-0.444-0.126c-0.095,0.064-0.313,0.365-0.253,0.555s-0.108,0.413-0.376,0.493
		c-0.266,0.082-0.533-0.008-0.592-0.2c-0.061-0.192-0.205-0.338-0.32-0.328c-0.115,0.007-0.459,0.163-0.505,0.356
		c-0.044,0.194-0.303,0.303-0.575,0.245c-0.27-0.062-0.455-0.271-0.41-0.466c0.043-0.198-0.004-0.392-0.109-0.438
		c-0.104-0.05-0.48-0.087-0.618,0.058c-0.14,0.147-0.418,0.114-0.624-0.074c-0.201-0.186-0.257-0.458-0.117-0.605
		c0.137-0.143,0.194-0.343,0.129-0.436c-0.068-0.093-0.373-0.309-0.566-0.249C81.628,46.357,81.402,46.19,81.32,45.928z"/>
	<path fill="#C2D0DA" d="M86.895,46.545c0.971-1.028,0.91-2.634-0.133-3.588c-1.046-0.956-2.681-0.898-3.65,0.128
		c-0.973,1.029-0.91,2.636,0.135,3.59C84.288,47.631,85.922,47.571,86.895,46.545z"/>
	<path fill="#C2D0DA" d="M94.896,69.895c1.213-1.28,1.138-3.287-0.166-4.476c-1.305-1.194-3.344-1.121-4.556,0.159
		c-1.213,1.283-1.138,3.289,0.167,4.479C91.646,71.252,93.686,71.178,94.896,69.895z"/>
	<path fill="#C2D0DA" d="M101.939,41.5h-5.723c0.254,0.857,0.18,1.775-0.222,2.52c-0.077,0.144-0.165,0.279-0.263,0.405
		c0.662,0.733,1.266,1.167,1.266,3.051c1.469,0,6,0,6,0s0,8.998,0,11.006c0.459,0.741,0.643,1.451,0.307,2.618
		c1.244,0.215,2.307,1.191,2.731,2.559c0.438,1.391,0.09,2.778-0.798,3.629c0.238,0.196,0.449,0.437,0.625,0.709
		c0.514,0.802,0.674,1.838,0.439,2.842c-0.324,1.4-1.32,2.448-2.537,2.749c0.105,0.292,0.168,0.605,0.182,0.934
		c0.035,0.947-0.235,2.221-0.949,2.973c0,3.421,0,6.003,0,6.003h-28v-33.02c-0.678-0.632-0.902-1.322-1.199-2.28
		c-0.35-1.105-0.141-2.217,0.471-3c-0.104-0.117-0.201-0.244-0.287-0.38c-0.469-0.731-0.614-1.672-0.402-2.577
		c0.036-0.156,0.102-0.291,0.154-0.435c-2.45,0.763-3.735,3.008-3.735,5.671v38.021c0,3.291,2.209,5.905,5.556,5.905h26.387
		c3.347,0,6.061-2.668,6.061-5.959V47.458C108.001,44.167,105.287,41.5,101.939,41.5z M88.874,89.043
		c-1.081,0-1.957-0.861-1.957-1.924c0-1.061,0.876-1.924,1.957-1.924s1.957,0.863,1.957,1.924
		C90.831,88.182,89.955,89.043,88.874,89.043z"/>
	<path fill="#C2D0DA" d="M88.37,71.84c2.301,2.262,6.032,2.262,8.334-0.003c2.303-2.263,2.303-5.933,0-8.195
		c-2.302-2.263-6.033-2.263-8.336,0C86.066,65.904,86.066,69.574,88.37,71.84z M89.001,66.043c0.06-0.127,0.104-0.59-0.08-0.758
		c-0.185-0.171-0.144-0.514,0.097-0.764c0.235-0.252,0.582-0.316,0.768-0.15c0.184,0.174,0.434,0.242,0.553,0.162
		c0.119-0.082,0.393-0.461,0.316-0.697c-0.074-0.239,0.139-0.516,0.472-0.615c0.33-0.103,0.663,0.014,0.737,0.25
		c0.076,0.236,0.255,0.423,0.398,0.409c0.146-0.014,0.571-0.204,0.629-0.448c0.059-0.241,0.381-0.38,0.721-0.303
		c0.338,0.078,0.57,0.337,0.514,0.582c-0.059,0.24,0.24,0.596,0.366,0.67c0.125,0.072,0.368-0.016,0.542-0.199
		c0.172-0.183,0.521-0.14,0.775,0.092c0.256,0.234,0.323,0.574,0.15,0.756c-0.174,0.184-0.247,0.43-0.161,0.546
		c0.083,0.118,0.464,0.384,0.707,0.311c0.242-0.069,0.522,0.136,0.625,0.464c0.103,0.327-0.012,0.653-0.253,0.727
		c-0.243,0.072-0.43,0.25-0.419,0.391c0.015,0.143,0.209,0.564,0.455,0.621c0.248,0.055,0.387,0.371,0.31,0.706
		c-0.078,0.333-0.346,0.562-0.591,0.507c-0.247-0.057-0.5,0.001-0.56,0.129c-0.061,0.133-0.107,0.594,0.076,0.764
		c0.187,0.17,0.146,0.515-0.094,0.765c-0.236,0.248-0.58,0.315-0.768,0.146c-0.186-0.168-0.434-0.242-0.555-0.158
		c-0.119,0.082-0.392,0.457-0.315,0.695c0.074,0.237-0.136,0.516-0.47,0.613c-0.331,0.104-0.664-0.012-0.739-0.248
		c-0.075-0.24-0.255-0.423-0.399-0.41c-0.144,0.012-0.57,0.203-0.629,0.447c-0.056,0.24-0.379,0.376-0.72,0.303
		c-0.336-0.078-0.567-0.338-0.513-0.582c0.057-0.244-0.004-0.486-0.135-0.547s-0.603-0.107-0.772,0.075
		c-0.173,0.183-0.522,0.14-0.776-0.093c-0.256-0.233-0.322-0.572-0.15-0.756c0.172-0.183,0.244-0.428,0.16-0.545
		s-0.465-0.383-0.705-0.312c-0.243,0.073-0.524-0.135-0.627-0.461c-0.104-0.327,0.013-0.653,0.254-0.729
		c0.242-0.069,0.431-0.246,0.418-0.393c-0.014-0.139-0.209-0.563-0.456-0.615c-0.246-0.057-0.386-0.377-0.308-0.709
		s0.344-0.561,0.59-0.504C88.688,66.23,88.938,66.172,89.001,66.043z"/>
	<path fill="#C2D0DA" d="M76.169,44.112c0.5,0.113,0.894,0.96,0.918,1.25c0.026,0.287-0.354,0.642-0.843,0.785
		c-0.488,0.151-0.721,0.811-0.512,1.471c0.205,0.661,0.772,1.082,1.263,0.931c0.485-0.147,1.258,0.39,1.427,0.628
		c0.169,0.237,0.021,0.733-0.324,1.102c-0.348,0.367-0.211,1.051,0.301,1.521c0.516,0.469,1.221,0.555,1.568,0.186
		c0.348-0.367,1.297-0.275,1.561-0.155c0.264,0.123,0.387,0.621,0.271,1.111c-0.11,0.491,0.354,1.015,1.038,1.168
		c0.684,0.157,1.337-0.12,1.45-0.609c0.112-0.489,0.978-0.876,1.271-0.904c0.291-0.021,0.652,0.351,0.805,0.829
		c0.15,0.481,0.822,0.709,1.492,0.504c0.672-0.204,1.097-0.758,0.945-1.241c-0.15-0.479,0.396-1.235,0.639-1.404
		c0.242-0.163,0.744-0.02,1.119,0.324c0.375,0.341,1.071,0.206,1.549-0.299c0.479-0.504,0.563-1.201,0.188-1.54
		c-0.373-0.345-0.278-1.276-0.155-1.534c0.123-0.262,0.629-0.38,1.129-0.27c0.494,0.112,1.032-0.347,1.188-1.019
		c0.155-0.675-0.123-1.317-0.619-1.428c-0.501-0.112-0.896-0.96-0.921-1.249c-0.023-0.285,0.354-0.642,0.843-0.788
		c0.488-0.147,0.722-0.809,0.513-1.468c-0.205-0.662-0.771-1.081-1.264-0.931c-0.486,0.147-1.258-0.39-1.425-0.628
		c-0.172-0.237-0.024-0.735,0.321-1.1c0.351-0.368,0.214-1.051-0.303-1.524c-0.51-0.467-1.217-0.555-1.563-0.184
		c-0.35,0.369-0.842,0.547-1.096,0.401c-0.252-0.151-0.854-0.867-0.738-1.355c0.113-0.491-0.354-1.015-1.038-1.172
		c-0.685-0.153-1.336,0.121-1.45,0.611c-0.115,0.489-0.979,0.876-1.27,0.904c-0.293,0.021-0.651-0.348-0.803-0.831
		c-0.149-0.479-0.822-0.708-1.492-0.502c-0.672,0.202-1.098,0.76-0.948,1.241c0.149,0.477-0.396,1.235-0.64,1.402
		c-0.239,0.167-0.744,0.023-1.117-0.322c-0.375-0.34-1.07-0.206-1.549,0.298c-0.479,0.508-0.563,1.203-0.188,1.542
		c0.372,0.343,0.279,1.276,0.155,1.534c-0.124,0.26-0.632,0.38-1.128,0.27c-0.497-0.115-1.034,0.345-1.189,1.016
		C75.393,43.358,75.671,44.002,76.169,44.112z M80.238,40.464c2.445-2.587,6.563-2.734,9.191-0.329
		c2.629,2.401,2.779,6.449,0.336,9.033c-2.447,2.589-6.561,2.734-9.19,0.333C77.943,47.096,77.795,43.048,80.238,40.464z"/>
	<rect x="44.999" y="82.495" fill="#C2D0DA" width="4" height="4.002"/>
	<path fill="#C2D0DA" d="M54.986,59.484H19l0.048,15.948h35.909L54.986,59.484z M51.963,72.43H22.038l-0.031-9.942h29.976
		L51.963,72.43z"/>
	<polygon fill="#C2D0DA" points="58.999,72.489 65.999,67.486 58.999,62.484 	"/>
	<rect x="44.999" y="48.476" fill="#C2D0DA" width="4" height="4.002"/>
	<rect x="37.999" y="65.484" fill="#C2D0DA" width="4" height="4.004"/>
	<rect x="44.999" y="65.484" fill="#C2D0DA" width="4" height="4.004"/>
	<path fill="#C2D0DA" d="M48.507,43.474H25.409c-3.687,0-6.405,3.184-6.405,6.102c0,2.097-0.004,6.906-0.004,6.906h35.986
		c0,0,0.013-4.96,0.013-6.906C54.999,46.747,52.455,43.474,48.507,43.474z M51.995,53.479H22l0.003-3.903
		c0-1.234,1.358-3.1,3.406-3.1h23.098c2.326,0,3.493,1.987,3.493,3.1C52,50.488,51.997,52.064,51.995,53.479z"/>
	<path fill="#C2D0DA" d="M19,78.502c0,0,0.004,4.799,0.004,6.896c0,2.918,2.72,6.103,6.405,6.103h23.098
		c3.948,0,6.492-3.272,6.492-6.103c0-1.946-0.013-6.896-0.013-6.896H19z M48.507,88.497H25.409c-2.048,0-3.406-1.865-3.406-3.101
		L22,81.504h29.995C51.997,82.915,52,84.486,52,85.396C52,86.51,50.833,88.497,48.507,88.497z"/>
</g>
</svg>
