<?xml version="1.0" encoding="utf-8"?>
<!-- Generator: Adobe Illustrator 16.2.0, SVG Export Plug-In . SVG Version: 6.00 Build 0)  -->
<!DOCTYPE svg PUBLIC "-//W3C//DTD SVG 1.1//EN" "http://www.w3.org/Graphics/SVG/1.1/DTD/svg11.dtd">
<svg version="1.1" id="Layer_1" xmlns="http://www.w3.org/2000/svg" xmlns:xlink="http://www.w3.org/1999/xlink" x="0px" y="0px"
	 width="127px" height="127px" viewBox="0 0 127 127" enable-background="new 0 0 127 127" xml:space="preserve">
<path fill="#C2D0DA" d="M63.5,1C97.963,1,126,29.038,126,63.5c0,34.463-28.037,62.5-62.5,62.5C29.038,126,1,97.963,1,63.5
	C1,29.038,29.038,1,63.5,1 M63.5,0C28.431,0,0,28.43,0,63.5C0,98.57,28.431,127,63.5,127c35.07,0,63.5-28.43,63.5-63.5
	C127,28.43,98.57,0,63.5,0L63.5,0z"/>
<path fill="#C2D0DA" d="M88.227,93.5c-2.688,0-46.752,0-49.451,0c-3.718,0-7.771-3.512-7.771-8.266c0-4.756,0-27.279,0-32.375
	c0-5.092,4.17-8.377,7.771-8.377c0.77,0,5.596,0,11.955,0c0.182-4.613,1.607-10.982,12.778-10.982
	c10.165,0,12.4,5.282,12.745,10.982c6.367,0,11.201,0,11.973,0c3.603,0,7.771,3.285,7.771,8.377c0,5.095,0,27.619,0,32.375
	C95.997,89.988,91.941,93.5,88.227,93.5z M63.509,36.858c-8.188,0-9.291,3.62-9.44,7.625c6.004,0,12.856,0,18.861,0
	C72.688,40.048,71.219,36.858,63.509,36.858z M93.006,53.489c0-3.109-3.15-6-5-6h-49c-1.85,0-5,1.891-5,5V85.49c0,2.994,3.194,5,5,5
	h49c1.807,0,5-2.006,5-5V53.489z M86.003,85.84v-0.009h-0.188v0.009c-1.295,0-3.056-0.926-2.848-2.988
	c0.206-2.066,1.241-14.344,1.241-14.344l0.798-0.018V52.489h2V68.49l0.604,0.018c0,0,1.037,12.276,1.242,14.344
	C89.059,84.914,87.298,85.84,86.003,85.84z M78.76,69.301c0.772,0.172,1.204,1.189,0.961,2.256
	c-0.242,1.068-1.074,1.795-1.843,1.616c-0.772-0.175-1.56,0.013-1.749,0.425c-0.191,0.413-0.339,1.889,0.243,2.434
	c0.579,0.539,0.448,1.64-0.295,2.439c-0.739,0.803-1.82,1.019-2.399,0.475c-0.582-0.545-1.359-0.771-1.734-0.512
	c-0.377,0.265-1.227,1.463-0.989,2.224c0.229,0.763-0.427,1.646-1.47,1.966c-1.035,0.322-2.076-0.036-2.313-0.798
	c-0.231-0.759-0.793-1.347-1.245-1.312c-0.455,0.041-1.789,0.654-1.969,1.43c-0.174,0.774-1.188,1.214-2.246,0.967
	c-1.063-0.244-1.781-1.073-1.609-1.852c0.18-0.776-0.01-1.566-0.421-1.758c-0.408-0.193-1.879-0.341-2.416,0.244
	c-0.542,0.582-1.635,0.449-2.434-0.297c-0.796-0.744-1.003-1.829-0.467-2.408c0.537-0.585,0.767-1.369,0.504-1.747
	c-0.261-0.377-1.458-1.228-2.213-0.991c-0.756,0.232-1.638-0.434-1.958-1.477c-0.319-1.051,0.039-2.092,0.795-2.331
	c0.76-0.228,1.348-0.79,1.307-1.249c-0.04-0.452-0.651-1.797-1.423-1.977c-0.771-0.176-1.204-1.194-0.961-2.26
	c0.243-1.067,1.07-1.792,1.842-1.614c0.774,0.179,1.558-0.015,1.75-0.425c0.191-0.412,0.338-1.889-0.241-2.43
	c-0.582-0.541-0.45-1.642,0.292-2.444c0.742-0.8,1.82-1.012,2.403-0.473c0.577,0.543,1.356,0.771,1.73,0.509
	c0.378-0.263,1.22-1.463,0.988-2.222c-0.231-0.761,0.433-1.647,1.468-1.971c1.041-0.321,2.083,0.043,2.314,0.797
	c0.235,0.765,0.795,1.354,1.245,1.316c0.455-0.041,1.789-0.654,1.969-1.431c0.179-0.777,1.188-1.21,2.248-0.966
	s1.784,1.077,1.608,1.855c-0.178,0.775,0.753,1.907,1.145,2.146c0.395,0.231,1.158-0.051,1.696-0.637
	c0.54-0.585,1.633-0.449,2.429,0.296c0.797,0.745,1.008,1.829,0.469,2.413c-0.541,0.58-0.766,1.363-0.504,1.742
	c0.264,0.379,1.455,1.227,2.213,0.993c0.76-0.234,1.639,0.43,1.955,1.475c0.324,1.046-0.035,2.094-0.789,2.33
	c-0.765,0.229-1.347,0.795-1.31,1.25C77.375,67.775,77.982,69.117,78.76,69.301z M71.932,60.766
	c-4.076-3.809-10.455-3.577-14.246,0.521c-3.793,4.097-3.556,10.51,0.521,14.318c4.076,3.805,10.454,3.574,14.246-0.525
	C76.24,70.982,76.007,64.572,71.932,60.766z M59.895,73.389c-2.859-2.875-2.859-7.535-0.004-10.405
	c2.859-2.872,7.496-2.872,10.352,0c2.862,2.87,2.862,7.53,0,10.403C67.387,76.262,62.75,76.262,59.895,73.389z M70.889,69.523
	c0.094-0.426-0.076-0.826-0.387-0.896c-0.305-0.073-0.547-0.61-0.564-0.789c-0.014-0.179,0.22-0.403,0.521-0.498
	c0.297-0.09,0.439-0.505,0.313-0.92c-0.125-0.417-0.477-0.678-0.777-0.589c-0.301,0.096-0.771-0.244-0.876-0.395
	c-0.104-0.146-0.017-0.461,0.198-0.691c0.217-0.232,0.133-0.662-0.186-0.962c-0.318-0.29-0.751-0.346-0.966-0.115
	c-0.214,0.234-0.517,0.345-0.671,0.255c-0.158-0.096-0.528-0.546-0.458-0.853c0.071-0.311-0.218-0.642-0.638-0.738
	c-0.418-0.1-0.82,0.077-0.892,0.384c-0.069,0.309-0.603,0.551-0.782,0.569c-0.181,0.016-0.399-0.22-0.494-0.52
	c-0.094-0.301-0.506-0.448-0.917-0.318c-0.412,0.128-0.675,0.479-0.585,0.78c0.096,0.302-0.245,0.78-0.396,0.883
	c-0.146,0.106-0.455,0.018-0.685-0.202c-0.23-0.21-0.657-0.128-0.953,0.188c-0.297,0.318-0.344,0.752-0.119,0.969
	c0.232,0.216,0.173,0.804,0.1,0.963c-0.075,0.164-0.39,0.24-0.696,0.172c-0.307-0.072-0.636,0.22-0.732,0.64
	c-0.098,0.423,0.073,0.828,0.384,0.898c0.307,0.069,0.548,0.604,0.563,0.782c0.018,0.187-0.217,0.41-0.519,0.498
	c-0.301,0.095-0.44,0.51-0.313,0.928c0.127,0.412,0.478,0.675,0.78,0.582c0.297-0.092,0.771,0.246,0.875,0.396
	c0.104,0.147,0.014,0.461-0.202,0.692c-0.212,0.232-0.125,0.662,0.188,0.957c0.32,0.295,0.751,0.352,0.966,0.119
	c0.213-0.232,0.798-0.172,0.959-0.096c0.162,0.075,0.238,0.383,0.167,0.694c-0.068,0.308,0.22,0.638,0.638,0.737
	c0.421,0.091,0.826-0.079,0.896-0.385c0.068-0.312,0.602-0.555,0.779-0.569c0.182-0.017,0.4,0.218,0.494,0.522
	c0.094,0.299,0.51,0.445,0.922,0.314c0.41-0.127,0.674-0.479,0.584-0.781c-0.096-0.299,0.24-0.777,0.392-0.88
	c0.146-0.108,0.458-0.013,0.687,0.2c0.231,0.217,0.66,0.129,0.955-0.188c0.293-0.316,0.348-0.75,0.117-0.972
	c-0.231-0.213-0.172-0.798-0.099-0.965c0.074-0.164,0.388-0.236,0.697-0.166C70.459,70.232,70.787,69.948,70.889,69.523z
	 M62.344,71.127c-1.619-1.51-1.714-4.057-0.208-5.688c1.507-1.625,4.038-1.718,5.656-0.2c1.62,1.511,1.713,4.057,0.208,5.68
	C66.495,72.55,63.962,72.645,62.344,71.127z M46.006,62.489c0,0,0,19.729,0,22.001c0,2.756-4,2.871-4,0c0-1.439,0-22.001,0-22.001
	c-1.786-0.357-3.483-2.655-3.483-4.332c0-3.83,2.857-4.907,2.857-4.907s0,1.557,0,3.591c0,2.036,4.17,2.034,4.17,0.119
	c0-0.839,0-4.068,0-4.068s3.099,1.077,3.099,4.43C48.648,61.031,46.006,62.489,46.006,62.489z"/>
</svg>
