<?xml version="1.0" encoding="utf-8"?>
<!-- Generator: Adobe Illustrator 16.2.0, SVG Export Plug-In . SVG Version: 6.00 Build 0)  -->
<!DOCTYPE svg PUBLIC "-//W3C//DTD SVG 1.1//EN" "http://www.w3.org/Graphics/SVG/1.1/DTD/svg11.dtd">
<svg version="1.1" id="Layer_1" xmlns="http://www.w3.org/2000/svg" xmlns:xlink="http://www.w3.org/1999/xlink" x="0px" y="0px"
	 width="127px" height="127px" viewBox="0 0 127 127" enable-background="new 0 0 127 127" xml:space="preserve">
<path fill="#C2D0DA" d="M63.5,1C97.963,1,126,29.038,126,63.5c0,34.463-28.037,62.5-62.5,62.5C29.038,126,1,97.963,1,63.5
	C1,29.038,29.038,1,63.5,1 M63.5,0C28.43,0,0,28.43,0,63.5C0,98.57,28.43,127,63.5,127c35.07,0,63.5-28.43,63.5-63.5
	C127,28.43,98.57,0,63.5,0L63.5,0z"/>
<g>
	<g>
		<path fill="#C2D0DA" d="M76,90.5c-0.925-2.033-2.611-4-5-4h-6v-6h-3v6h-6c-2.387,0-4.075,1.967-5,4H24v3h27
			c0.493,2.743,2.103,5,5,5h15c2.896,0,4.507-2.257,5-5h27v-3H76z M82,34.599c0-2.827-2.544-6.099-6.492-6.099H50.41
			c-3.685,0-6.405,3.182-6.405,6.099S44,41.501,44,41.501h37.988C81.988,41.501,82,36.544,82,34.599z M78.996,38.5H47l0.003-3.901
			c0-1.233,1.359-3.098,3.406-3.098h25.098c2.326,0,3.493,1.986,3.493,3.098C79.001,35.511,78.998,37.086,78.996,38.5z
			 M81.957,62.441l0.031-16.938H44l0.049,16.938H81.957z M78.982,48.503l-0.02,10.937H47.039l-0.031-10.937H78.982z M50.41,79.5
			h25.098c3.948,0,6.492-3.271,6.492-6.1c0-1.945-0.012-6.893-0.012-6.893H44c0,0,0.005,3.977,0.005,6.893
			C44.005,76.318,46.725,79.5,50.41,79.5z M78.996,69.51c0.002,1.41,0.005,2.98,0.005,3.893c0,1.111-1.167,3.098-3.493,3.098H50.41
			c-2.047,0-3.406-1.864-3.406-3.098L47,69.51H78.996z M74,51.5h-4v4h4V51.5z M67,51.5h-4v4h4V51.5z M70,37.5h4v-4h-4V37.5z
			 M74,70.5h-4v4h4V70.5z"/>
	</g>
</g>
</svg>
