<?xml version="1.0" encoding="utf-8"?>
<!-- Generator: Adobe Illustrator 16.2.0, SVG Export Plug-In . SVG Version: 6.00 Build 0)  -->
<!DOCTYPE svg PUBLIC "-//W3C//DTD SVG 1.1//EN" "http://www.w3.org/Graphics/SVG/1.1/DTD/svg11.dtd">
<svg version="1.1" id="Layer_1" xmlns="http://www.w3.org/2000/svg" xmlns:xlink="http://www.w3.org/1999/xlink" x="0px" y="0px"
	 width="127px" height="127px" viewBox="0 0 127 127" enable-background="new 0 0 127 127" xml:space="preserve">
<path fill="#C2D0DA" d="M63.5,1C97.963,1,126,29.037,126,63.5S97.963,126,63.5,126C29.038,126,1,97.963,1,63.5S29.038,1,63.5,1
	 M63.5,0C28.431,0,0,28.43,0,63.5C0,98.57,28.431,127,63.5,127c35.07,0,63.5-28.43,63.5-63.5C127,28.43,98.57,0,63.5,0L63.5,0z"/>
<path display="none" fill="#C2D0DA" d="M101.632,93.213c-1.683,0-29.256,0-30.944,0c-2.326,0-4.86-2.188-4.86-5.148
	c0-2.959,0-16.989,0-20.166c0-3.17,2.608-5.215,4.86-5.215c1.553,0,29.394,0,30.944,0c2.255,0,4.864,2.045,4.864,5.215
	c0,3.177,0,17.205,0,20.166S103.957,93.213,101.632,93.213z M104.404,67.898c0-1.937-1.615-3.125-2.772-3.125H70.688
	c-1.158,0-2.772,1.188-2.772,3.125v20.166c0,1.867,1.644,3.057,2.772,3.057h30.944c1.132,0,2.772-1.189,2.772-3.057V67.898
	L104.404,67.898z M71.07,68.021h30.181V87.96H71.07V68.021z M86.872,53.99v5.912H85.45v-5.906c-1.986-0.314-3.533-1.911-3.786-3.921
	H68.475v-1.709h13.293c0.508-1.962,2.273-3.418,4.395-3.418c2.516,0,4.555,2.041,4.555,4.558
	C90.716,51.778,89.048,53.646,86.872,53.99z M56.312,59.032c-1.682,0-29.256,0-30.944,0c-2.329,0-4.864-2.187-4.864-5.147
	c0-2.962,0-16.992,0-20.166c0-3.171,2.608-5.217,4.864-5.217c1.552,0,29.39,0,30.944,0c2.252,0,4.861,2.046,4.861,5.217
	c0,3.174,0,17.204,0,20.166C61.173,56.845,58.637,59.032,56.312,59.032z M59.084,33.719c0-1.936-1.615-3.126-2.772-3.126H25.367
	c-1.158,0-2.772,1.19-2.772,3.126v20.166c0,1.866,1.642,3.056,2.772,3.056h30.944c1.128,0,2.772-1.19,2.772-3.056L59.084,33.719
	L59.084,33.719z M25.748,33.84h30.18v19.939h-30.18V33.84z M49.38,64.318H32.296v-2.851H49.38V64.318z M40.127,74.072v-5.449h1.423
	v5.439c1.795,0.283,3.232,1.619,3.683,3.356h14.311v1.707H45.337c-0.283,2.246-2.179,3.988-4.499,3.988
	c-2.516,0-4.555-2.039-4.555-4.558C36.283,76.285,37.951,74.416,40.127,74.072z M94.703,98.498H77.619v-2.85h17.084V98.498z"/>
<g>
	<g>
		<path fill="#C2D0DA" d="M57,28.833c-1.537,0-29.656,0.002-31.189,0.002c-2.229,0-4.809,2.046-4.809,5.217v20.167
			c0,2.96,2.696,4.615,4.998,4.615h30c2.299,0,5-1.414,5-4v-21C61,30.663,59.227,28.833,57,28.833z M59,53.833c0,2.303-1.886,3-3,3
			H26c-1.118,0-3-1.134-3-3v-20c0-1.561,1.855-3,3-3h31c1.145,0,2,1.064,2,3V53.833z M26,53.833h30v-20H26V53.833z M49,61.833H33v2
			h16V61.833z M71,87.833h30v-20H71V87.833z M102,62.833c-1.537,0-29.656,0.002-31.189,0.002c-2.229,0-4.809,2.046-4.809,5.216
			v20.166c0,2.961,2.696,4.615,4.998,4.615h30c2.299,0,5-1.414,5-4v-21C106,64.662,104.227,62.833,102,62.833z M104,87.833
			c0,2.305-1.886,3-3,3H71c-1.118,0-3-1.133-3-3v-20c0-1.561,1.855-3,3-3h31c1.145,0,2,1.064,2,3V87.833z M78,97.833h16v-2H78
			V97.833z M85,54.725v6.109h2v-6.101c2.282-0.463,4-2.48,4-4.899c0-2.761-2.238-5-5-5c-2.419,0-4.436,1.718-4.899,4H69v2h12.101
			C81.498,52.792,83.043,54.326,85,54.725z M42,73.942v-6.109h-2v6.102c-2.282,0.463-4,2.48-4,4.898c0,2.762,2.238,5,5,5
			c2.419,0,4.436-1.717,4.899-4H58v-2H45.899C45.502,75.876,43.957,74.341,42,73.942z"/>
	</g>
</g>
</svg>
