<?xml version="1.0" encoding="utf-8"?>
<!-- Generator: Adobe Illustrator 16.2.0, SVG Export Plug-In . SVG Version: 6.00 Build 0)  -->
<!DOCTYPE svg PUBLIC "-//W3C//DTD SVG 1.1//EN" "http://www.w3.org/Graphics/SVG/1.1/DTD/svg11.dtd">
<svg version="1.1" id="Layer_1" xmlns="http://www.w3.org/2000/svg" xmlns:xlink="http://www.w3.org/1999/xlink" x="0px" y="0px"
	 width="127px" height="127px" viewBox="0 0 127 127" enable-background="new 0 0 127 127" xml:space="preserve">
<path fill="#C2D0DA" d="M63.5,1C97.963,1,126,29.038,126,63.5c0,34.463-28.037,62.5-62.5,62.5C29.038,126,1,97.963,1,63.5
	C1,29.038,29.038,1,63.5,1 M63.5,0C28.43,0,0,28.43,0,63.5C0,98.57,28.43,127,63.5,127S127,98.57,127,63.5C127,28.43,98.57,0,63.5,0
	L63.5,0z"/>
<g>
	<g>
		<path fill="#C2D0DA" d="M82.977,53.633c-2.848,0-5.156,3.08-5.156,6.879c0,3.796,2.31,6.878,5.156,6.878
			c2.846,0,5.154-3.082,5.154-6.878C88.131,56.713,85.822,53.633,82.977,53.633z M83.033,47.527c-8.82,0-15.965,7.154-15.965,15.973
			c0,8.822,7.145,15.976,15.965,15.976S98.998,72.322,98.998,63.5C98.998,54.683,91.854,47.527,83.033,47.527z M93.234,71.941
			c-1.189-2.232-5.26-3.891-10.146-3.891c-4.941,0-9.059,1.693-10.193,3.969c-1.945-2.316-3.164-5.262-3.164-8.519
			c0-7.338,5.969-13.311,13.303-13.311S96.338,56.163,96.338,63.5C96.338,66.721,95.143,69.639,93.234,71.941z M76.33,45.773
			c-0.002-1.752-0.004-4.206-0.004-6.24c0-3.602-3.441-7.533-8.104-7.533h-32.11c-4.663,0-8.104,3.932-8.104,7.533
			c0,3.604-0.006,8.527-0.006,8.527h44.047C73.363,47.124,74.799,46.355,76.33,45.773z M31.006,40c0-2.023,2.418-5,5.009-5h32.304
			c2.592,0,5.01,2.977,5.01,5v5H31.006V40z M67.201,73.93c-0.609-0.924-1.143-1.9-1.586-2.928H31.006V56h34.611
			c0.453-1.051,0.998-2.053,1.627-2.996H28.001l0.062,20.925H67.201z M28.001,78.955c0,0,0.006,4.91,0.006,8.514
			s3.441,7.533,8.104,7.533h32.111c4.661,0,8.104-3.93,8.104-7.533c0-2.037,0.002-4.488,0.004-6.238
			c-1.525-0.578-2.955-1.344-4.266-2.275H28.001L28.001,78.955z M73.328,88.002c0,1.523-2.418,4-5.01,4H36.016
			c-2.591,0-5.009-2.477-5.009-4v-6h42.322L73.328,88.002L73.328,88.002z M60,66.002V61h-5v5.001H60z M52,66.002V61h-5v5.001H52z
			 M63,42h5v-5h-5V42z M68,84.002h-5v5h5V84.002z"/>
	</g>
</g>
</svg>
