<svg width="17" height="16" viewBox="0 0 17 16" fill="none" xmlns="http://www.w3.org/2000/svg">
<path fill-rule="evenodd" clip-rule="evenodd" d="M8.60913 15C12.4751 15 15.6091 11.866 15.6091 8C15.6091 4.13401 12.4751 1 8.60913 1C4.74314 1 1.60913 4.13401 1.60913 8C1.60913 11.866 4.74314 15 8.60913 15ZM11.1805 5.07542C11.0028 4.86407 10.6874 4.83683 10.476 5.01456C10.2647 5.19229 10.2374 5.5077 10.4152 5.71904L10.6621 6.0127L5.48221 6.0127C5.20607 6.0127 4.98221 6.23656 4.98221 6.5127C4.98221 6.78885 5.20607 7.0127 5.48221 7.0127L10.6621 7.0127L10.4152 7.30636C10.2374 7.51771 10.2647 7.83311 10.476 8.01085C10.6874 8.18858 11.0028 8.16133 11.1805 7.94999L12.1186 6.83452C12.275 6.64849 12.275 6.37691 12.1186 6.19089L11.1805 5.07542ZM6.80296 8.69364C6.98069 8.48229 6.95344 8.16689 6.7421 7.98915C6.53076 7.81142 6.21535 7.83867 6.03762 8.05001L5.09954 9.16548C4.9431 9.35151 4.9431 9.62309 5.09954 9.80911L6.03762 10.9246C6.21535 11.1359 6.53076 11.1632 6.7421 10.9854C6.95344 10.8077 6.98069 10.4923 6.80296 10.281L6.556 9.9873H11.736C12.0122 9.9873 12.236 9.76344 12.236 9.4873C12.236 9.21115 12.0122 8.9873 11.736 8.9873H6.556L6.80296 8.69364Z" fill="#B7BABD"/>
</svg>
