<svg width="17" height="16" viewBox="0 0 17 16" fill="none" xmlns="http://www.w3.org/2000/svg">
<path fill-rule="evenodd" clip-rule="evenodd" d="M11.395 3.3435V3.48402C12.1991 3.55755 13 3.66329 13.7957 3.80097C13.8558 3.81138 13.9132 3.83352 13.9647 3.86612C14.0162 3.89872 14.0608 3.94116 14.096 3.991C14.1311 4.04083 14.156 4.0971 14.1694 4.15659C14.1828 4.21607 14.1843 4.27761 14.1739 4.33769C14.1635 4.39777 14.1414 4.4552 14.1088 4.50673C14.0762 4.55825 14.0337 4.60284 13.9839 4.63797C13.9341 4.67309 13.8778 4.69805 13.8183 4.71143C13.7588 4.7248 13.6973 4.72633 13.6372 4.71593L13.5078 4.69426L12.8857 12.7852C12.8498 13.2517 12.6392 13.6875 12.2959 14.0054C11.9526 14.3233 11.502 14.5 11.0341 14.5H6.18509C5.71721 14.5 5.26658 14.3233 4.9233 14.0054C4.58002 13.6875 4.36939 13.2517 4.33352 12.7852L3.71075 4.69426L3.58137 4.71593C3.52129 4.72633 3.45976 4.7248 3.40027 4.71143C3.34078 4.69805 3.28452 4.67309 3.23468 4.63797C3.13402 4.56703 3.06567 4.45902 3.04466 4.33769C3.02364 4.21636 3.05168 4.09165 3.12262 3.991C3.19355 3.89034 3.30156 3.82199 3.42289 3.80097C4.21854 3.66313 5.01941 3.55739 5.82357 3.48402V3.3435C5.82357 2.3753 6.57447 1.54825 7.56681 1.51668C8.26182 1.49444 8.95737 1.49444 9.65239 1.51668C10.6447 1.54825 11.395 2.3753 11.395 3.3435ZM7.59652 2.44464C8.27173 2.42304 8.94746 2.42304 9.62267 2.44464C10.0888 2.45949 10.4664 2.85197 10.4664 3.3435V3.41345C9.22948 3.33833 7.9891 3.33833 6.75214 3.41345V3.3435C6.75214 2.85197 7.12914 2.45949 7.59652 2.44464ZM7.37676 6.12488C7.3744 6.06391 7.36006 6.004 7.33455 5.94858C7.30904 5.89315 7.27286 5.84329 7.22808 5.80184C7.1833 5.7604 7.1308 5.72818 7.07356 5.70702C7.01633 5.68587 6.95549 5.67619 6.89452 5.67855C6.83355 5.68091 6.77364 5.69525 6.71821 5.72076C6.66279 5.74627 6.61293 5.78245 6.57148 5.82723C6.53003 5.87201 6.49781 5.92451 6.47666 5.98175C6.4555 6.03898 6.44583 6.09982 6.44819 6.16079L6.663 11.7322C6.66776 11.8553 6.72121 11.9714 6.81159 12.0551C6.85634 12.0965 6.90881 12.1287 6.966 12.1498C7.0232 12.1709 7.084 12.1806 7.14493 12.1783C7.20586 12.1759 7.26573 12.1616 7.32112 12.1361C7.37651 12.1106 7.42633 12.0744 7.46775 12.0297C7.50917 11.9849 7.54137 11.9324 7.5625 11.8752C7.58364 11.8181 7.59331 11.7573 7.59095 11.6963L7.37676 6.12488ZM10.7692 6.16079C10.7737 6.09865 10.7657 6.03623 10.7456 5.97725C10.7255 5.91827 10.6937 5.86394 10.6522 5.81749C10.6107 5.77104 10.5602 5.73343 10.5038 5.70689C10.4475 5.68036 10.3863 5.66544 10.3241 5.66303C10.2618 5.66062 10.1997 5.67076 10.1414 5.69286C10.0832 5.71496 10.03 5.74856 9.98496 5.79166C9.93996 5.83475 9.9041 5.88647 9.87951 5.94371C9.85491 6.00096 9.84209 6.06258 9.84182 6.12488L9.627 11.6963C9.62224 11.8195 9.66659 11.9394 9.7503 12.0299C9.834 12.1203 9.9502 12.1738 10.0733 12.1786C10.1965 12.1833 10.3165 12.139 10.4069 12.0553C10.4973 11.9716 10.5508 11.8554 10.5556 11.7322L10.7692 6.16079V6.16079Z" fill="#B7BABD"/>
</svg>
