<svg width="15" height="14" viewBox="0 0 15 14" fill="none" xmlns="http://www.w3.org/2000/svg">
<rect x="0.609131" width="14" height="14" rx="7" fill="#43A2E3"/>
<path d="M12.299 6.12075H11.3135C11.2199 5.72563 11.0633 5.34815 10.8498 5.00277L11.5471 4.30543C11.6016 4.25099 11.6448 4.18635 11.6743 4.11521C11.7038 4.04406 11.7189 3.96781 11.7189 3.8908C11.7189 3.8138 11.7038 3.73754 11.6743 3.6664C11.6448 3.59526 11.6016 3.53062 11.5471 3.47618L11.1327 3.0617C11.0227 2.95179 10.8736 2.89005 10.7182 2.89005C10.5627 2.89005 10.4137 2.95179 10.3037 3.0617L9.60637 3.75904C9.26095 3.54566 8.88347 3.38918 8.48839 3.29561V2.31013C8.48839 2.15464 8.42662 2.00553 8.31668 1.89559C8.20674 1.78564 8.05762 1.72388 7.90214 1.72388H7.31589C7.16041 1.72388 7.01129 1.78564 6.90135 1.89559C6.7914 2.00553 6.72964 2.15464 6.72964 2.31013V3.29561C6.33452 3.38923 5.95704 3.54581 5.61166 3.75934L4.91461 3.06199C4.80467 2.95209 4.65558 2.89035 4.50013 2.89035C4.34468 2.89035 4.19559 2.95209 4.08565 3.06199L3.67088 3.47647C3.56099 3.58646 3.49924 3.73556 3.49918 3.89104C3.49913 4.04651 3.56077 4.19566 3.67059 4.30572L4.36793 5.00307C4.15454 5.34838 3.99807 5.72576 3.9045 6.12075H2.91901C2.76353 6.12075 2.61442 6.18252 2.50447 6.29246C2.39453 6.4024 2.33276 6.55152 2.33276 6.707V7.29325C2.33276 7.44874 2.39453 7.59785 2.50447 7.70779C2.61442 7.81774 2.76353 7.8795 2.91901 7.8795H3.9045C3.99817 8.27451 4.15474 8.65189 4.36822 8.99719L3.67088 9.69453C3.44224 9.92317 3.44224 10.2949 3.67117 10.5238L4.08565 10.9383C4.31429 11.1669 4.68568 11.1669 4.91461 10.9383L5.61195 10.2409C5.95727 10.4546 6.33477 10.6112 6.72993 10.7046V11.6901C6.72993 11.8456 6.7917 11.9947 6.90164 12.1047C7.01158 12.2146 7.1607 12.2764 7.31618 12.2764H7.90243C8.05791 12.2764 8.20703 12.2146 8.31697 12.1047C8.42692 11.9947 8.48868 11.8456 8.48868 11.6901V10.7046C8.88369 10.611 9.26107 10.4544 9.60637 10.2409L10.3037 10.9383C10.4137 11.0482 10.5627 11.1099 10.7182 11.1099C10.8736 11.1099 11.0227 11.0482 11.1327 10.9383L11.5471 10.5238C11.6016 10.4693 11.6448 10.4047 11.6743 10.3336C11.7038 10.2624 11.7189 10.1862 11.7189 10.1092C11.7189 10.0322 11.7038 9.9559 11.6743 9.88475C11.6448 9.81361 11.6016 9.74897 11.5471 9.69453L10.8498 8.99719C11.0635 8.65187 11.22 8.27437 11.3135 7.87921H12.299C12.4545 7.87921 12.6036 7.81744 12.7136 7.7075C12.8235 7.59756 12.8853 7.44844 12.8853 7.29296V6.70671C12.8852 6.55128 12.8234 6.40224 12.7135 6.29236C12.6035 6.18248 12.4544 6.12075 12.299 6.12075V6.12075ZM7.60901 9.34513C6.98708 9.34513 6.39062 9.09807 5.95085 8.65829C5.51108 8.21852 5.26401 7.62206 5.26401 7.00013C5.26401 6.37819 5.51108 5.78173 5.95085 5.34196C6.39062 4.90219 6.98708 4.65513 7.60901 4.65513C8.23095 4.65513 8.82741 4.90219 9.26718 5.34196C9.70695 5.78173 9.95401 6.37819 9.95401 7.00013C9.95401 7.62206 9.70695 8.21852 9.26718 8.65829C8.82741 9.09807 8.23095 9.34513 7.60901 9.34513Z" fill="white"/>
</svg>
