<svg width="32" height="32" viewBox="0 0 24 24" fill="none" xmlns="http://www.w3.org/2000/svg">
<path fill-rule="evenodd" clip-rule="evenodd" d="M2.83333 3.57143C2.76387 3.57143 2.69726 3.59902 2.64814 3.64814C2.59902 3.69726 2.57143 3.76387 2.57143 3.83333V16.9286C2.57143 17.0731 2.68876 17.1905 2.83333 17.1905H5.45238C5.66077 17.1905 5.86062 17.2733 6.00797 17.4206C6.15532 17.568 6.2381 17.7678 6.2381 17.9762V21.3181L10.1352 17.421C10.2824 17.2736 10.4822 17.1907 10.6905 17.1905H21.1667C21.2361 17.1905 21.3027 17.1629 21.3519 17.1138C21.401 17.0646 21.4286 16.998 21.4286 16.9286V3.83333C21.4286 3.76387 21.401 3.69726 21.3519 3.64814C21.3027 3.59902 21.2361 3.57143 21.1667 3.57143H2.83333ZM1 3.83333C1 2.82133 1.82133 2 2.83333 2H21.1667C22.1787 2 23 2.82133 23 3.83333V16.9286C23 17.4148 22.8068 17.8811 22.463 18.2249C22.1192 18.5687 21.6529 18.7619 21.1667 18.7619H11.0152L7.2721 22.505C7.05863 22.7184 6.7867 22.8637 6.49068 22.9225C6.19466 22.9814 5.88784 22.9512 5.609 22.8357C5.33016 22.7202 5.09181 22.5246 4.92408 22.2737C4.75635 22.0228 4.66677 21.7278 4.66667 21.426V18.7619H2.83333C2.3471 18.7619 1.88079 18.5687 1.53697 18.2249C1.19315 17.8811 1 17.4148 1 16.9286V3.83333Z" fill="#BDD0DA"/>
<path fill-rule="evenodd" clip-rule="evenodd" d="M12 11V15H13V11H17V10H13V6H12V10H8V11H12Z" fill="#BDD0DA"/>
</svg>
