<svg width="32" height="32" viewBox="0 0 24 24" fill="none" xmlns="http://www.w3.org/2000/svg">
<path fill-rule="evenodd" clip-rule="evenodd" d="M12 24C18.6274 24 24 18.6274 24 12C24 5.37258 18.6274 0 12 0C5.37258 0 0 5.37258 0 12C0 18.6274 5.37258 24 12 24ZM11.2713 18.9707C11.8442 18.9902 12.642 19 13.6648 19C16.4394 19 17.9403 18.4629 18.1676 17.3887C18.2244 17.1348 18.2292 16.8467 18.1818 16.5244C18.7689 16.1045 19.072 15.626 19.0909 15.0889C19.0909 15.0205 19.0862 14.9497 19.0767 14.8765C19.0672 14.8032 19.0554 14.7422 19.0412 14.6934C19.027 14.6445 19.0057 14.5835 18.9773 14.5103C18.9489 14.437 18.9299 14.3906 18.9205 14.3711C19.3655 13.8926 19.5833 13.4238 19.5739 12.9648C19.5644 12.7402 19.5052 12.5376 19.3963 12.3569C19.2874 12.1763 19.1525 12.0029 18.9915 11.8369C19.0862 11.6123 19.1288 11.2852 19.1193 10.8555C19.1098 10.3477 18.9323 9.9375 18.5866 9.625C18.241 9.3125 17.7888 9.15625 17.2301 9.15625C16.6241 9.15625 15.4782 9.16113 13.7926 9.1709C13.8968 8.72168 13.9796 8.25293 14.0412 7.76465C14.1027 7.27637 14.1193 6.74902 14.0909 6.18262C14.0625 5.61621 13.9583 5.18164 13.7784 4.87891C13.6837 4.71289 13.5606 4.56396 13.4091 4.43213C13.2576 4.30029 13.0919 4.19531 12.9119 4.11719C12.732 4.03906 12.5568 4 12.3864 4C12.2727 4 12.1709 4.00732 12.081 4.02197C11.991 4.03662 11.9152 4.05127 11.8537 4.06592C11.7921 4.08057 11.733 4.1123 11.6761 4.16113C11.6193 4.20996 11.5743 4.24658 11.5412 4.271C11.508 4.29541 11.4702 4.34912 11.4276 4.43213C11.3849 4.51514 11.3589 4.57129 11.3494 4.60059C11.34 4.62988 11.3139 4.69824 11.2713 4.80566C11.2287 4.91309 11.1979 4.98145 11.179 5.01074C10.4877 6.71973 9.66619 8.07227 8.71449 9.06836C7.76278 10.0645 6.8892 10.5625 6.09375 10.5625C5.9233 10.5625 5.79072 10.6357 5.69602 10.7822C5.23201 11.5439 5 12.6377 5 14.0635C5 14.4834 5.03314 14.8984 5.09943 15.3086C5.16572 15.7188 5.24384 16.0605 5.33381 16.334C5.42377 16.6074 5.52083 16.8589 5.625 17.0884C5.72917 17.3179 5.80966 17.4814 5.86648 17.5791C5.9233 17.6768 5.96117 17.7402 5.98011 17.7695C6.06534 17.877 6.18371 17.9355 6.33523 17.9453C7.20644 18.0039 7.82907 18.0698 8.20312 18.1431C8.57718 18.2163 8.83523 18.3115 8.97727 18.4287C9.1572 18.5557 9.28741 18.6411 9.3679 18.6851C9.44839 18.729 9.64252 18.7827 9.95028 18.8462C10.258 18.9097 10.6984 18.9512 11.2713 18.9707Z" fill="#BDD0DA"/>
</svg>

