<svg width="32" height="32" viewBox="0 0 24 24" fill="none" xmlns="http://www.w3.org/2000/svg">
<path fill-rule="evenodd" clip-rule="evenodd" d="M12 0C5.37258 0 0 5.37258 0 12C0 18.6274 5.37258 24 12 24C18.6274 24 24 18.6274 24 12C24 5.37258 18.6274 0 12 0ZM12.7287 5.0293C12.1558 5.00977 11.358 5 10.3352 5C7.56061 5 6.05966 5.53711 5.83239 6.61133C5.77557 6.86523 5.77083 7.15332 5.81818 7.47559C5.23106 7.89551 4.92803 8.37402 4.90909 8.91113C4.90909 8.97949 4.91383 9.05029 4.92329 9.12354C4.93276 9.19678 4.9446 9.25781 4.95881 9.30664C4.97301 9.35547 4.99432 9.4165 5.02273 9.48975C5.05114 9.56299 5.07008 9.60937 5.07954 9.62891C4.63447 10.1074 4.41667 10.5762 4.42614 11.0352C4.43561 11.2598 4.49479 11.4624 4.60369 11.6431C4.71259 11.8237 4.84754 11.9971 5.00852 12.1631C4.91383 12.3877 4.87121 12.7148 4.88068 13.1445C4.89015 13.6523 5.06771 14.0625 5.41335 14.375C5.759 14.6875 6.21117 14.8437 6.76989 14.8437C7.37595 14.8437 8.52178 14.8389 10.2074 14.8291C10.1032 15.2783 10.0204 15.7471 9.95881 16.2354C9.89725 16.7236 9.88068 17.251 9.90909 17.8174C9.9375 18.3838 10.0417 18.8184 10.2216 19.1211C10.3163 19.2871 10.4394 19.436 10.5909 19.5679C10.7424 19.6997 10.9081 19.8047 11.0881 19.8828C11.268 19.9609 11.4432 20 11.6136 20C11.7273 20 11.8291 19.9927 11.919 19.978C12.009 19.9634 12.0848 19.9487 12.1463 19.9341C12.2079 19.9194 12.267 19.8877 12.3239 19.8389C12.3807 19.79 12.4257 19.7534 12.4588 19.729C12.492 19.7046 12.5298 19.6509 12.5724 19.5679C12.6151 19.4849 12.6411 19.4287 12.6506 19.3994C12.66 19.3701 12.6861 19.3018 12.7287 19.1943C12.7713 19.0869 12.8021 19.0186 12.821 18.9893C13.5123 17.2803 14.3338 15.9277 15.2855 14.9316C16.2372 13.9355 17.1108 13.4375 17.9062 13.4375C18.0767 13.4375 18.2093 13.3643 18.304 13.2178C18.768 12.4561 19 11.3623 19 9.93652C19 9.5166 18.9669 9.10156 18.9006 8.69141C18.8343 8.28125 18.7562 7.93945 18.6662 7.66602C18.5762 7.39258 18.4792 7.14111 18.375 6.91162C18.2708 6.68213 18.1903 6.51855 18.1335 6.4209C18.0767 6.32324 18.0388 6.25977 18.0199 6.23047C17.9347 6.12305 17.8163 6.06445 17.6648 6.05469C16.7936 5.99609 16.1709 5.93018 15.7969 5.85693C15.4228 5.78369 15.1648 5.68848 15.0227 5.57129C14.8428 5.44434 14.7126 5.35889 14.6321 5.31494C14.5516 5.271 14.3575 5.21729 14.0497 5.15381C13.742 5.09033 13.3016 5.04883 12.7287 5.0293Z" fill="#BDD0DA"/>
</svg>
