<svg width="43" height="43" viewBox="0 0 20 24" fill="none" xmlns="http://www.w3.org/2000/svg">
<path fill-rule="evenodd" clip-rule="evenodd" d="M7 1C7 0.447715 7.44772 0 8 0H12C12.5523 0 13 0.447715 13 1C13 1.55228 12.5523 2 12 2H11V4.04938C12.7615 4.22427 14.3885 4.85625 15.7608 5.82503L17.2929 4.29289C17.6834 3.90237 18.3166 3.90237 18.7071 4.29289C19.0976 4.68342 19.0976 5.31658 18.7071 5.70711L17.2752 7.13905C18.9645 8.92972 20 11.3439 20 14C20 19.5228 15.5228 24 10 24C4.47715 24 0 19.5228 0 14C0 8.81465 3.94668 4.5511 9 4.04938V2H8C7.44772 2 7 1.55228 7 1ZM10 22.5C14.6944 22.5 18.5 18.6944 18.5 14C18.5 9.30558 14.6944 5.5 10 5.5C5.30558 5.5 1.5 9.30558 1.5 14C1.5 18.6944 5.30558 22.5 10 22.5ZM10 14L10.9901 7.06948C10.6666 7.02368 10.3361 7 10 7V14Z" fill="#BDD0DA"/>
</svg>
