<svg width="43" height="43" viewBox="0 0 24 24" fill="none" xmlns="http://www.w3.org/2000/svg">
<path fill-rule="evenodd" clip-rule="evenodd" d="M10 0C9.44772 0 9 0.447715 9 1C9 1.55228 9.44772 2 10 2H11V4.04938C5.94668 4.5511 2 8.81465 2 14C2 19.5228 6.47715 24 12 24C17.5228 24 22 19.5228 22 14C22 11.3439 20.9645 8.92972 19.2752 7.13905L20.7071 5.70711C21.0976 5.31658 21.0976 4.68342 20.7071 4.29289C20.3166 3.90237 19.6834 3.90237 19.2929 4.29289L17.7608 5.82503C16.3885 4.85625 14.7615 4.22427 13 4.04938V2H14C14.5523 2 15 1.55228 15 1C15 0.447715 14.5523 0 14 0H10ZM20.5 14C20.5 18.6944 16.6944 22.5 12 22.5C7.30558 22.5 3.5 18.6944 3.5 14C3.5 9.30558 7.30558 5.5 12 5.5C16.6944 5.5 20.5 9.30558 20.5 14Z" fill="#EFA7A7"/>
<circle cx="12" cy="14" r="7" fill="#EFA7A7"/>
</svg>
