<?xml version="1.0" encoding="utf-8"?>
<!-- Generator: Adobe Illustrator 16.2.0, SVG Export Plug-In . SVG Version: 6.00 Build 0)  -->
<!DOCTYPE svg PUBLIC "-//W3C//DTD SVG 1.1//EN" "http://www.w3.org/Graphics/SVG/1.1/DTD/svg11.dtd">
<svg version="1.1" id="Layer_1" xmlns="http://www.w3.org/2000/svg" xmlns:xlink="http://www.w3.org/1999/xlink" x="0px" y="0px"
	 width="39px" height="27px" viewBox="0 0 39 27" enable-background="new 0 0 39 27" xml:space="preserve">
<rect y="0" fill-rule="evenodd" clip-rule="evenodd" fill="#53B7E8" width="39.124" height="27"/>
<g>
	<g>
		<path id="rect773_8_" fill="#FFF500" d="M21.438,7.474L21.438,7.474c2.419,0,4.383,1.858,4.383,4.151l0,0
			c0,2.293-1.964,4.152-4.383,4.152l0,0c-2.421,0-4.382-1.859-4.382-4.152l0,0C17.056,9.333,19.017,7.474,21.438,7.474z"/>
		<path id="path778_8_" sodipodi:nodetypes="cccc" fill="#FFF500" d="M21.227,4.998c-0.036,0-0.232,1.381-0.309,1.692
			c-0.068,0.692,0.93,0.667,0.766-0.027L21.227,4.998z"/>
		<path id="path779_8_" sodipodi:nodetypes="cccc" fill="#FFF500" d="M21.579,18.375c0.035,0.003,0.333-1.362,0.434-1.669
			c0.117-0.685-0.88-0.724-0.769-0.022L21.579,18.375z"/>
		<path id="path780_8_" sodipodi:nodetypes="cccc" fill="#FFF500" d="M14.597,11.599c-0.003,0.035,1.438,0.325,1.758,0.419
			c0.724,0.116,0.771-0.828,0.03-0.725L14.597,11.599z"/>
		<path id="path781_8_" sodipodi:nodetypes="cccc" fill="#FFF500" d="M28.587,11.767c0-0.036-1.451-0.273-1.776-0.358
			c-0.728-0.088-0.733,0.856,0.005,0.728L28.587,11.767z"/>
		<path id="path782_8_" sodipodi:nodetypes="cccc" fill="#FFF500" d="M16.07,7.227c-0.023,0.025,0.922,1.094,1.113,1.354
			c0.494,0.514,1.147-0.201,0.496-0.553L16.07,7.227z"/>
		<path id="path783_8_" sodipodi:nodetypes="cccc" fill="#FFF500" d="M26.942,16.029c0.021-0.028-1.017-1.014-1.232-1.261
			c-0.539-0.469-1.124,0.298-0.442,0.596L26.942,16.029z"/>
		<path id="path784_8_" sodipodi:nodetypes="cccc" fill="#FFF500" d="M18.242,5.73c-0.032,0.016,0.412,1.347,0.481,1.659
			c0.249,0.651,1.141,0.225,0.682-0.335L18.242,5.73z"/>
		<path id="path785_8_" sodipodi:nodetypes="cccc" fill="#FFF500" d="M24.574,17.693c0.035-0.012-0.311-1.368-0.356-1.684
			c-0.199-0.67-1.121-0.303-0.705,0.289L24.574,17.693z"/>
		<path id="path786_8_" sodipodi:nodetypes="cccc" fill="#FFF500" d="M26.129,6.658c-0.026-0.023-1.169,0.856-1.449,1.031
			c-0.549,0.458,0.195,1.089,0.578,0.48L26.129,6.658z"/>
		<path id="path787_8_" sodipodi:nodetypes="cccc" fill="#FFF500" d="M16.712,16.631c0.024,0.026,1.229-0.775,1.52-0.933
			c0.583-0.424-0.114-1.1-0.542-0.515L16.712,16.631z"/>
		<path id="path788_8_" sodipodi:nodetypes="cccc" fill="#FFF500" d="M14.904,9.208c-0.013,0.032,1.244,0.759,1.513,0.949
			c0.642,0.337,1.019-0.539,0.282-0.676L14.904,9.208z"/>
		<path id="path789_8_" sodipodi:nodetypes="cccc" fill="#FFF500" d="M27.979,14.279c0.016-0.032-1.184-0.839-1.439-1.049
			c-0.613-0.377-1.056,0.474-0.331,0.656L27.979,14.279z"/>
		<path id="path790_8_" sodipodi:nodetypes="cccc" fill="#FFF500" d="M23.823,5.376c-0.035-0.012-0.75,1.205-0.942,1.469
			c-0.328,0.619,0.61,0.942,0.726,0.24L23.823,5.376z"/>
		<path id="path791_8_" sodipodi:nodetypes="cccc" fill="#FFF500" d="M18.993,17.95c0.032,0.016,0.835-1.152,1.044-1.401
			c0.375-0.598-0.538-0.979-0.704-0.287L18.993,17.95z"/>
		<path id="path792_8_" sodipodi:nodetypes="cccc" fill="#FFF500" d="M15.003,14.383c0.014,0.033,1.44-0.308,1.772-0.356
			c0.704-0.196,0.308-1.065-0.311-0.665L15.003,14.383z"/>
		<path id="path793_8_" sodipodi:nodetypes="cccc" fill="#FFF500" d="M27.981,9.104c-0.012-0.033-1.461,0.212-1.795,0.238
			c-0.717,0.15-0.386,1.042,0.261,0.684L27.981,9.104z"/>
		<path id="path794_8_" sodipodi:nodetypes="cccc" fill="#FFF500" d="M22.651,5.089c-0.034-0.007-0.521,1.309-0.662,1.6
			c-0.213,0.663,0.771,0.828,0.758,0.12L22.651,5.089z"/>
		<path id="path795_8_" sodipodi:nodetypes="cccc" fill="#FFF500" d="M20.154,18.26c0.037,0.01,0.617-1.271,0.781-1.551
			c0.26-0.648-0.71-0.88-0.746-0.169L20.154,18.26z"/>
		<path id="path796_8_" sodipodi:nodetypes="cccc" fill="#FFF500" d="M19.653,5.219c-0.036,0.007,0.099,1.396,0.097,1.715
			c0.098,0.689,1.066,0.452,0.743-0.189L19.653,5.219z"/>
		<path id="path797_8_" sodipodi:nodetypes="cccc" fill="#FFF500" d="M23.155,18.182c0.036-0.005,0.005-1.397,0.026-1.717
			c-0.045-0.693-1.027-0.522-0.753,0.141L23.155,18.182z"/>
		<path id="path798_8_" sodipodi:nodetypes="cccc" fill="#FFF500" d="M17.171,6.375c-0.03,0.019,0.656,1.252,0.785,1.547
			c0.368,0.6,1.167,0.032,0.608-0.444L17.171,6.375z"/>
		<path id="path799_8_" sodipodi:nodetypes="cccc" fill="#FFF500" d="M25.658,17.07c0.031-0.018-0.563-1.294-0.671-1.597
			c-0.322-0.621-1.16-0.108-0.637,0.403L25.658,17.07z"/>
		<path id="path800_8_" sodipodi:nodetypes="cccc" fill="#FFF500" d="M15.361,8.102c-0.021,0.029,1.089,0.948,1.319,1.18
			c0.572,0.434,1.1-0.369,0.399-0.624L15.361,8.102z"/>
		<path id="path801_8_" sodipodi:nodetypes="cccc" fill="#FFF500" d="M27.416,15.289c0.024-0.027-1.016-1.016-1.227-1.263
			c-0.539-0.471-1.125,0.295-0.444,0.593L27.416,15.289z"/>
		<path id="path802_8_" sodipodi:nodetypes="cccc" fill="#FFF500" d="M14.566,10.258c-0.01,0.033,1.357,0.555,1.656,0.701
			c0.689,0.233,0.912-0.689,0.16-0.71L14.566,10.258z"/>
		<path id="path803_8_" sodipodi:nodetypes="cccc" fill="#FFF500" d="M28.335,13.235c0.015-0.033-1.311-0.643-1.598-0.809
			c-0.671-0.279-0.959,0.628-0.213,0.699L28.335,13.235z"/>
		<path id="path804_8_" sodipodi:nodetypes="cccc" fill="#FFF500" d="M14.521,12.907c0.006,0.033,1.478,0.013,1.813,0.038
			c0.731-0.038,0.558-0.973-0.143-0.715L14.521,12.907z"/>
		<path id="path805_8_" sodipodi:nodetypes="cccc" fill="#FFF500" d="M28.434,10.589c-0.003-0.033-1.474-0.111-1.806-0.158
			c-0.734-0.01-0.628,0.931,0.089,0.723L28.434,10.589z"/>
		<path id="path806_8_" sodipodi:nodetypes="cccc" fill="#FFF500" d="M15.782,15.659c0.021,0.028,1.335-0.6,1.648-0.717
			c0.641-0.337,0.055-1.104-0.458-0.582L15.782,15.659z"/>
		<path id="path807_8_" sodipodi:nodetypes="cccc" fill="#FFF500" d="M27.226,7.817c-0.016-0.032-1.374,0.508-1.694,0.605
			c-0.665,0.293-0.136,1.097,0.413,0.613L27.226,7.817z"/>
		<path id="path808_8_" sodipodi:nodetypes="cccc" fill="#FFF500" d="M17.926,17.477c0.032,0.021,0.972-1.055,1.212-1.278
			c0.443-0.553-0.417-1.033-0.667-0.361L17.926,17.477z"/>
		<path id="path809_8_" sodipodi:nodetypes="cccc" fill="#FFF500" d="M25.117,5.961c-0.027-0.02-1.044,0.987-1.299,1.195
			c-0.483,0.523,0.339,1.058,0.636,0.406L25.117,5.961z"/>
		<g id="g766_8_" transform="matrix(14.18174,0.000000,0.000000,10.78753,-5406.821,-2660.816)">
			<path id="path760_8_" sodipodi:nodetypes="ccccccccccccccccccccccccccccccccccccc" fill="#FFF500" d="M381.521,249.11
				c0.013,0.017,0.009,0.046,0.045,0.042c0.056,0,0.057-0.045,0.057-0.076c0-0.031-0.083-0.075-0.087-0.121
				c-0.004-0.046,0.019-0.059,0.038-0.059c0.019,0,0.033,0.015,0.033,0.028c0,0.013-0.01,0.016-0.023,0.016
				c-0.014,0,0.006-0.009-0.006-0.016c-0.012-0.008-0.019,0.011-0.019,0.022c0,0.011,0.029,0.015,0.048,0.006
				c0.004,0.025,0.006,0.027-0.021,0.069c0.019-0.017,0.021-0.02,0.042-0.011c-0.021-0.024-0.005-0.073-0.005-0.085
				c0.001-0.013-0.004-0.027-0.013-0.035c-0.015-0.018-0.049-0.019-0.069-0.007c-0.029,0.017-0.031,0.068-0.023,0.085l0.081,0.11
				c0.006,0.013,0.008,0.049-0.027,0.051c-0.036,0.004-0.049-0.062-0.056-0.084c-0.009,0.024-0.018,0.09-0.055,0.086
				c-0.035-0.002-0.041-0.038-0.035-0.051l0.084-0.112c0.008-0.017,0.006-0.068-0.023-0.085c-0.02-0.012-0.054-0.011-0.069,0.007
				c-0.009,0.007-0.013,0.022-0.013,0.035c0.001,0.012,0.017,0.061-0.005,0.085c0.021-0.009,0.023-0.006,0.042,0.011
				c-0.027-0.042-0.025-0.044-0.021-0.069c0.019,0.008,0.048,0.005,0.048-0.006c0-0.011-0.008-0.03-0.019-0.022
				c-0.011,0.007,0.008,0.016-0.006,0.016c-0.014,0-0.023-0.003-0.023-0.016c0-0.013,0.014-0.028,0.033-0.028
				c0.019,0,0.042,0.013,0.039,0.059c-0.004,0.046-0.089,0.096-0.089,0.127c0,0.031,0.006,0.07,0.062,0.07
				C381.504,249.156,381.508,249.127,381.521,249.11z"/>
			<path id="path761_8_" sodipodi:nodetypes="ccccccccccccccccccccccccccccccccccccccccccccccccccccccc" fill="#FFF500" d="
				M381.517,248.454c0.013-0.017,0.024-0.067,0.06-0.063c0.056,0,0.077,0.04,0.077,0.072c0,0.031-0.113,0.287-0.117,0.333
				c-0.004,0.046,0.019,0.059,0.038,0.059c0.019,0,0.033-0.015,0.033-0.028c0-0.013-0.01-0.017-0.023-0.017
				c-0.014,0,0.006,0.009-0.006,0.017c-0.012,0.007-0.019-0.011-0.019-0.022s0.029-0.015,0.048-0.006
				c0.004-0.025,0.006-0.027-0.021-0.069c0.019,0.017,0.021,0.02,0.042,0.011c-0.021,0.024-0.005,0.073-0.005,0.085
				c0.001,0.012-0.004,0.027-0.013,0.034c-0.015,0.018-0.049,0.019-0.069,0.008c-0.029-0.017-0.031-0.068-0.023-0.085l0.11-0.311
				c0.006-0.013-0.01-0.055-0.044-0.057c-0.037-0.004-0.049,0.047-0.055,0.069l0.05-0.005c0,0,0.002,0.01,0,0.017
				c-0.026,0.002-0.05,0.008-0.05,0.008l-0.002,0.033h0.025l-0.002,0.015c0,0-0.021-0.002-0.023,0
				c-0.002,0.002-0.004,0.033-0.004,0.033s-0.004,0.002-0.008,0.002c-0.004,0-0.008-0.002-0.008-0.002s-0.002-0.031-0.004-0.033
				c-0.002-0.002-0.023,0-0.023,0l-0.002-0.015h0.025l-0.002-0.033c0,0-0.024-0.006-0.05-0.008c-0.002-0.007,0-0.017,0-0.017
				l0.05,0.005c-0.007-0.022-0.019-0.072-0.056-0.069c-0.035,0.002-0.05,0.044-0.044,0.057l0.11,0.311
				c0.008,0.016,0.006,0.067-0.023,0.085c-0.02,0.012-0.054,0.011-0.069-0.008c-0.009-0.007-0.013-0.022-0.013-0.034
				c0.001-0.013,0.017-0.061-0.005-0.085c0.021,0.009,0.023,0.005,0.042-0.011c-0.027,0.042-0.025,0.044-0.021,0.069
				c0.019-0.008,0.048-0.005,0.048,0.006s-0.008,0.03-0.019,0.022c-0.011-0.008,0.008-0.017-0.006-0.017
				c-0.014,0-0.023,0.004-0.023,0.017c0,0.013,0.014,0.028,0.033,0.028c0.019,0,0.042-0.013,0.039-0.059
				c-0.004-0.046-0.117-0.302-0.117-0.333c0-0.031,0.021-0.072,0.077-0.072C381.49,248.387,381.504,248.437,381.517,248.454z"/>
			<path id="path762_8_" sodipodi:nodetypes="ccccccccccccccccccccccccccccccccccccccccccccccccccccccc" fill="#FFF500" d="
				M381.517,248.327c0.013,0.017,0.024,0.067,0.06,0.063c0.056,0,0.077-0.041,0.077-0.072s-0.113-0.287-0.117-0.333
				c-0.004-0.046,0.019-0.059,0.038-0.059c0.019,0,0.033,0.015,0.033,0.028c0,0.013-0.01,0.017-0.023,0.017
				c-0.014,0,0.006-0.009-0.006-0.017c-0.012-0.007-0.019,0.011-0.019,0.022s0.029,0.015,0.048,0.007
				c0.004,0.025,0.006,0.027-0.021,0.069c0.019-0.017,0.021-0.02,0.042-0.011c-0.021-0.024-0.005-0.073-0.005-0.085
				c0.001-0.012-0.004-0.027-0.013-0.035c-0.015-0.018-0.049-0.019-0.069-0.007c-0.029,0.017-0.031,0.068-0.023,0.085l0.11,0.311
				c0.006,0.013-0.01,0.055-0.044,0.057c-0.037,0.004-0.049-0.046-0.055-0.068l0.05,0.005c0,0,0.002-0.01,0-0.017
				c-0.026-0.002-0.05-0.008-0.05-0.008l-0.002-0.033h0.025l-0.002-0.014c0,0-0.021,0.002-0.023,0
				c-0.002-0.002-0.004-0.033-0.004-0.033s-0.004-0.002-0.008-0.002c-0.004,0-0.008,0.002-0.008,0.002s-0.002,0.031-0.004,0.033
				c-0.002,0.002-0.023,0-0.023,0l-0.002,0.014h0.025l-0.002,0.033c0,0-0.024,0.006-0.05,0.008c-0.002,0.007,0,0.017,0,0.017
				l0.05-0.005c-0.007,0.022-0.019,0.072-0.056,0.068c-0.035-0.002-0.05-0.044-0.044-0.057l0.11-0.311
				c0.008-0.017,0.006-0.067-0.023-0.085c-0.02-0.012-0.054-0.011-0.069,0.007c-0.009,0.008-0.013,0.022-0.013,0.035
				c0.001,0.012,0.017,0.061-0.005,0.085c0.021-0.009,0.023-0.006,0.042,0.011c-0.027-0.042-0.025-0.044-0.021-0.069
				c0.019,0.008,0.048,0.005,0.048-0.007s-0.008-0.03-0.019-0.022c-0.011,0.007,0.008,0.017-0.006,0.017
				c-0.014,0-0.023-0.004-0.023-0.017c0-0.013,0.014-0.028,0.033-0.028c0.019,0,0.042,0.013,0.039,0.059
				c-0.004,0.046-0.117,0.302-0.117,0.333s0.021,0.072,0.077,0.072C381.49,248.394,381.504,248.344,381.517,248.327z"/>
			<path id="path763_8_" sodipodi:nodetypes="ccccccccccccccccccccccccccccccccccccccccccccccccccccccc" fill="#FFF500" d="
				M381.517,247.485c0.013-0.017,0.024-0.067,0.06-0.063c0.056,0,0.077,0.041,0.077,0.072c0,0.031-0.113,0.287-0.117,0.333
				c-0.004,0.046,0.019,0.059,0.038,0.059c0.019,0,0.033-0.015,0.033-0.028c0-0.013-0.01-0.016-0.023-0.016
				c-0.014,0,0.006,0.009-0.006,0.016c-0.012,0.007-0.019-0.011-0.019-0.022c0-0.011,0.029-0.015,0.048-0.007
				c0.004-0.025,0.006-0.027-0.021-0.069c0.019,0.017,0.021,0.02,0.042,0.011c-0.021,0.024-0.005,0.073-0.005,0.085
				c0.001,0.012-0.004,0.027-0.013,0.035c-0.015,0.018-0.049,0.019-0.069,0.007c-0.029-0.017-0.031-0.068-0.023-0.085l0.11-0.311
				c0.006-0.013-0.01-0.055-0.044-0.057c-0.037-0.004-0.049,0.047-0.055,0.068l0.05-0.005c0,0,0.002,0.01,0,0.017
				c-0.026,0.002-0.05,0.008-0.05,0.008l-0.002,0.033h0.025l-0.002,0.015c0,0-0.021-0.002-0.023,0
				c-0.002,0.002-0.004,0.033-0.004,0.033s-0.004,0.002-0.008,0.002c-0.004,0-0.008-0.002-0.008-0.002s-0.002-0.031-0.004-0.033
				c-0.002-0.002-0.023,0-0.023,0l-0.002-0.015h0.025l-0.002-0.033c0,0-0.024-0.006-0.05-0.008c-0.002-0.007,0-0.017,0-0.017
				l0.05,0.005c-0.007-0.022-0.019-0.072-0.056-0.068c-0.035,0.002-0.05,0.044-0.044,0.057l0.11,0.311
				c0.008,0.016,0.006,0.067-0.023,0.085c-0.02,0.012-0.054,0.011-0.069-0.007c-0.009-0.008-0.013-0.022-0.013-0.035
				c0.001-0.012,0.017-0.061-0.005-0.085c0.021,0.009,0.023,0.005,0.042-0.011c-0.027,0.042-0.025,0.044-0.021,0.069
				c0.019-0.008,0.048-0.005,0.048,0.007c0,0.011-0.008,0.029-0.019,0.022c-0.011-0.007,0.008-0.016-0.006-0.016
				c-0.014,0-0.023,0.004-0.023,0.016c0,0.013,0.014,0.028,0.033,0.028c0.019,0,0.042-0.013,0.039-0.059
				c-0.004-0.046-0.117-0.302-0.117-0.333c0-0.031,0.021-0.072,0.077-0.072C381.49,247.418,381.504,247.468,381.517,247.485z"/>
			<path id="path764_8_" sodipodi:nodetypes="ccccccccccccccccccccccccccccccccccccccccccccccccccccccc" fill="#FFF500" d="
				M381.517,247.358c0.013,0.017,0.024,0.067,0.06,0.063c0.056,0,0.077-0.041,0.077-0.072c0-0.031-0.113-0.287-0.117-0.333
				c-0.004-0.046,0.019-0.059,0.038-0.059c0.019,0,0.033,0.015,0.033,0.028c0,0.013-0.01,0.017-0.023,0.017
				c-0.014,0,0.006-0.009-0.006-0.017c-0.012-0.007-0.019,0.011-0.019,0.022c0,0.011,0.029,0.015,0.048,0.006
				c0.004,0.025,0.006,0.027-0.021,0.069c0.019-0.017,0.021-0.02,0.042-0.011c-0.021-0.024-0.005-0.072-0.005-0.085
				c0.001-0.013-0.004-0.027-0.013-0.035c-0.015-0.018-0.049-0.019-0.069-0.007c-0.029,0.017-0.031,0.068-0.023,0.085l0.11,0.311
				c0.006,0.013-0.01,0.055-0.044,0.057c-0.037,0.004-0.049-0.047-0.055-0.069l0.05,0.005c0,0,0.002-0.01,0-0.017
				c-0.026-0.002-0.05-0.008-0.05-0.008l-0.002-0.033h0.025l-0.002-0.015c0,0-0.021,0.002-0.023,0
				c-0.002-0.002-0.004-0.033-0.004-0.033s-0.004-0.002-0.008-0.002c-0.004,0-0.008,0.002-0.008,0.002s-0.002,0.031-0.004,0.033
				c-0.002,0.002-0.023,0-0.023,0l-0.002,0.015h0.025l-0.002,0.033c0,0-0.024,0.006-0.05,0.008c-0.002,0.006,0,0.017,0,0.017
				l0.05-0.005c-0.007,0.022-0.019,0.072-0.056,0.069c-0.035-0.002-0.05-0.044-0.044-0.057l0.11-0.311
				c0.008-0.017,0.006-0.068-0.023-0.085c-0.02-0.012-0.054-0.011-0.069,0.007c-0.009,0.007-0.013,0.022-0.013,0.035
				c0.001,0.012,0.017,0.061-0.005,0.085c0.021-0.009,0.023-0.006,0.042,0.011c-0.027-0.042-0.025-0.044-0.021-0.069
				c0.019,0.008,0.048,0.005,0.048-0.006c0-0.011-0.008-0.029-0.019-0.022c-0.011,0.007,0.008,0.017-0.006,0.017
				c-0.014,0-0.023-0.004-0.023-0.017c0-0.013,0.014-0.028,0.033-0.028c0.019,0,0.042,0.013,0.039,0.059
				c-0.004,0.046-0.117,0.302-0.117,0.333c0,0.031,0.021,0.072,0.077,0.072C381.49,247.425,381.504,247.375,381.517,247.358z"/>
			<path id="path765_8_" sodipodi:nodetypes="ccccccccccccccccccccccccccccccccccccc" fill="#FFF500" d="M381.521,246.701
				c0.013-0.017,0.009-0.045,0.045-0.042c0.056,0,0.057,0.045,0.057,0.076c0,0.031-0.083,0.075-0.087,0.121
				c-0.004,0.046,0.019,0.059,0.038,0.059c0.019,0,0.033-0.015,0.033-0.028c0-0.013-0.01-0.016-0.023-0.016
				c-0.014,0,0.006,0.009-0.006,0.016c-0.012,0.007-0.019-0.011-0.019-0.022c0-0.011,0.029-0.015,0.048-0.007
				c0.004-0.025,0.006-0.027-0.021-0.069c0.019,0.017,0.021,0.02,0.042,0.011c-0.021,0.024-0.005,0.073-0.005,0.085
				c0.001,0.012-0.004,0.027-0.013,0.035c-0.015,0.018-0.049,0.019-0.069,0.007c-0.029-0.017-0.031-0.068-0.023-0.085l0.081-0.11
				c0.006-0.013,0.008-0.049-0.027-0.051c-0.036-0.004-0.049,0.062-0.056,0.084c-0.009-0.024-0.018-0.089-0.055-0.086
				c-0.035,0.002-0.041,0.038-0.035,0.051l0.084,0.112c0.008,0.017,0.006,0.067-0.023,0.085c-0.02,0.012-0.054,0.011-0.069-0.007
				c-0.009-0.008-0.013-0.022-0.013-0.035c0.001-0.012,0.017-0.061-0.005-0.085c0.021,0.009,0.023,0.006,0.042-0.011
				c-0.027,0.042-0.025,0.044-0.021,0.069c0.019-0.008,0.048-0.005,0.048,0.007c0,0.011-0.008,0.029-0.019,0.022
				c-0.011-0.007,0.008-0.016-0.006-0.016c-0.014,0-0.023,0.004-0.023,0.016c0,0.013,0.014,0.028,0.033,0.028
				c0.019,0,0.042-0.013,0.039-0.059c-0.004-0.046-0.089-0.096-0.089-0.127c0-0.031,0.006-0.07,0.062-0.07
				C381.504,246.656,381.508,246.685,381.521,246.701z"/>
		</g>
		<g id="g852_8_" transform="matrix(2.114387,0.000000,0.000000,1.998628,-392.3909,-248.6073)">
			<path id="path844_8_" sodipodi:nodetypes="ccccccccccccccccccccccc" fill="#FFF500" d="M192.553,131.59
				c0.033,0.132,0.042,0.88,0.788,1.593c0.748,0.714,2.018,0.873,2.018,0.873s0.008,0.099-0.084,0.107
				c-0.091,0.009-0.522-0.083-0.738-0.15s-0.407-0.182-0.432-0.174c-0.025,0.008-0.066,0.084-0.133,0.075
				c-0.066-0.008-0.373-0.332-0.506-0.415c-0.133-0.083-0.581-0.573-0.73-0.814c-0.15-0.24-0.183-0.399-0.233-0.399
				s-0.224,0.116-0.224,0.116s-0.158-0.241-0.299-0.623c-0.141-0.382-0.124-0.605-0.092-0.622c0.033-0.017,0.033,0.282,0.142,0.557
				c0.108,0.275,0.257,0.357,0.257,0.357s-0.099-0.141-0.175-0.498c-0.075-0.358-0.098-0.698-0.049-0.805
				c0.049-0.108,0.1-0.142,0.107-0.134c0.008,0.009-0.091,0.166-0.024,0.573c0.066,0.407,0.257,0.756,0.3,0.739
				c0.04-0.016-0.026-0.099-0.06-0.341c-0.033-0.241,0.033-0.39,0.092-0.407C192.503,131.175,192.544,131.465,192.553,131.59z"/>
			<path id="path845_8_" sodipodi:nodetypes="cccccccccccccccccccccccccccccccc" fill="#FFF500" d="M192.03,132.271
				c-0.142-0.134-0.366-0.599-0.415-0.573c-0.049,0.024,0.365,0.689,0.373,0.748c0.009,0.058,0.1,0.24,0.033,0.215
				c-0.066-0.024-0.565-0.548-0.506-0.448c0.057,0.1,0.432,0.557,0.406,0.58c-0.024,0.025-0.306-0.248-0.314-0.216
				c-0.008,0.034,0.282,0.308,0.274,0.341c-0.009,0.033-0.183-0.174-0.183-0.132s0.183,0.248,0.183,0.281
				c0,0.033-0.158-0.149-0.108-0.049c0.05,0.1,0.191,0.192,0.182,0.224c-0.008,0.033-0.116-0.042-0.116-0.025
				c0,0.017,0.208,0.092,0.257,0.15c0.05,0.058,0.39,0.449,0.648,0.648c0.257,0.199,0.988,0.54,1.038,0.54
				c0.049,0,0.124-0.107,0.108-0.15c-0.016-0.041-0.73-0.282-0.929-0.465c-0.2-0.182-0.69-0.614-0.732-0.639
				c-0.04-0.024-0.149-0.017-0.149-0.041c0-0.025,0.141,0.017,0.133,0c-0.008-0.017-0.198-0.1-0.191-0.116
				c0.008-0.017,0.133,0.033,0.133,0.016c0-0.016-0.223-0.141-0.216-0.166c0.009-0.024,0.167,0.074,0.167,0.058
				c0-0.017-0.217-0.166-0.208-0.192c0.009-0.024,0.167,0.116,0.158,0.083c-0.008-0.033-0.124-0.207-0.124-0.232
				c0-0.024,0.191,0.182,0.207,0.141c0.016-0.041-0.066-0.382-0.058-0.39c0.008-0.008,0.141,0.076,0.165,0.025
				C192.27,132.437,192.148,132.367,192.03,132.271z"/>
			<path id="path846_8_" sodipodi:nodetypes="ccscscc" fill="#FFF500" d="M194.479,134.885c-0.101,0.013-0.145-0.021-0.088-0.103
				c0.079-0.006,0.289-0.073,0.363-0.105c0.074-0.031,0.154-0.074,0.219-0.134c0.066-0.064,0.102,0.042,0.068,0.098
				c-0.027,0.038-0.151,0.107-0.242,0.145C194.67,134.829,194.556,134.889,194.479,134.885z"/>
			<path id="path847_8_" sodipodi:nodetypes="ccccccccccccccccccccccccccccccccccccccccccccccccccccccccccc" fill="#FFF500" d="
				M195.144,134.611c-0.067-0.074-0.009-0.124,0.091-0.182c0.15-0.084,0.108-0.193,0.299-0.282c0.084-0.051,1.271-0.532,1.661-0.79
				c0.39-0.258,1.478-1.08,1.768-1.644c0.291-0.565,0.149-0.607,0.191-0.631c0.042-0.024,0.083,0.083,0.073,0.208
				c-0.006,0.124-0.1,0.499-0.073,0.531c0.024,0.033,0.439-0.29,0.606-0.689c0.165-0.399,0.298-0.814,0.381-0.814
				c0.084,0-0.141,0.681-0.282,0.946c-0.14,0.267-0.307,0.399-0.266,0.457c0.042,0.058,0.457-0.291,0.599-0.547
				c0.141-0.258,0.273-0.491,0.298-0.441c0.025,0.051-0.133,0.599-0.357,0.856c-0.224,0.258-0.49,0.44-0.449,0.482
				c0.041,0.041,0.34,0.082,0.656-0.133c0.315-0.216,0.349-0.532,0.391-0.515c0.041,0.016-0.042,0.449-0.341,0.713
				c-0.299,0.266-0.706,0.291-0.689,0.348c0.017,0.06,0.864-0.24,0.846-0.173c-0.017,0.066-1.096,0.49-1.104,0.532
				c0,0.032,0.183,0.041,0.473-0.025c0.291-0.066,0.565-0.29,0.606-0.241c0.008,0.076-0.207,0.258-0.539,0.341
				c-0.332,0.083-0.498,0.199-0.506,0.225c-0.009,0.024,0.589-0.076,0.589-0.043c0,0.033-0.78,0.183-0.788,0.225
				c-0.008,0.041,0.747-0.15,0.73-0.108c-0.016,0.042-1.021,0.341-1.012,0.357c0.008,0.017,0.838-0.182,0.821-0.15
				c-0.016,0.033-1.403,0.424-1.411,0.45c-0.008,0.024,1.222-0.275,1.213-0.25c-0.008,0.025-0.639,0.183-0.639,0.199
				c0,0.017,0.506-0.083,0.498-0.058c-0.009,0.025-1.279,0.35-1.304,0.399c-0.025,0.05,0.656-0.133,0.648-0.042
				c-0.007,0.092-1.469,0.59-1.477,0.498c-0.009-0.09,0.887-0.323,0.88-0.348c-0.009-0.025-0.515,0.058-0.523,0.008
				c-0.008-0.048,0.332-0.158,0.308-0.182c-0.025-0.024-0.283,0.075-0.258,0.018c0.025-0.059,0.506-0.283,0.499-0.3
				c-0.009-0.017-0.175,0.059-0.159,0c0.018-0.058,1.048-0.357,1.03-0.39c-0.017-0.033-0.473,0.075-0.515,0.083
				c-0.017-0.033,0.639-0.274,0.622-0.315c-0.016-0.042-0.348,0.141-0.365,0.091c-0.016-0.05,0.574-0.282,0.539-0.314
				c-0.033-0.034-0.307,0.09-0.34,0.058c-0.033-0.033,0.557-0.45,0.466-0.457c-0.091-0.009-0.2,0.124-0.216,0.041
				c0.017-0.107,0.464-0.281,0.365-0.365c-0.158-0.05-0.697,0.033-0.921,0.166c-0.224,0.133-0.963,0.871-1.146,0.988
				c-0.182,0.117-0.797,0.375-0.913,0.424c-0.183,0.066-0.216,0.167-0.399,0.257c-0.332,0.092-0.332,0.191-0.49,0.249
				C195.75,134.346,195.151,134.636,195.144,134.611z"/>
			<path id="path848_8_" sodipodi:nodetypes="cccccccccc" fill="#FFF500" d="M194.305,134.985c-0.1,0.049-0.191,0.183-0.133,0.233
				c0.033,0.066,0.133-0.142,0.217-0.133c0.083,0.008,0.198,0.008,0.422,0.026c0.224,0.016,0.34-0.051,0.465-0.042
				c0.126,0.007,0.407-0.066,0.54-0.066s0.158,0.016,0.175-0.042c0.017-0.058-0.415-0.016-0.606-0.026
				c-0.19-0.006-0.431,0.042-0.573,0.042C194.679,134.969,194.446,134.928,194.305,134.985z"/>
			<path id="rect849_8_" fill="#FFF500" d="M194.853,134.845L194.853,134.845c0.051,0,0.091,0.035,0.091,0.078l0,0
				c0,0.043-0.04,0.08-0.091,0.08l0,0c-0.051,0-0.092-0.036-0.092-0.08l0,0C194.762,134.88,194.802,134.845,194.853,134.845z"/>
			<path id="path850_8_" sodipodi:nodetypes="ccccccccccccccccccccccccccccccccccccccc" fill="#FFF500" d="M197.062,134.77
				c0.091-0.018,0.335,0.066,0.503,0.107c0.309,0.117,0.882,0.058,0.882,0.117c0,0.058-0.036,0.133-0.172,0.14
				c-0.136,0.01-0.466-0.049-0.456-0.049c0.009,0,0.264,0.115,0.191,0.15c-0.072,0.034-0.291-0.066-0.327-0.042
				c-0.036,0.024,0.201,0.075,0.164,0.091c-0.036,0.016-0.2-0.024-0.255-0.016c-0.055,0.007,0.046,0.065-0.018,0.089
				c-0.064,0.026-0.172-0.032-0.216-0.016c-0.046,0.016,0.098,0.108,0.034,0.116c-0.064,0.01-0.218-0.041-0.3-0.049
				c-0.083-0.007,0.08,0.082,0.026,0.091c-0.055,0.009-0.204-0.066-0.239-0.066c-0.037,0,0.003,0.1-0.052,0.1
				c-0.055,0-0.119-0.083-0.146-0.083c-0.027,0,0,0.1-0.054,0.1c-0.055,0-0.074-0.108-0.12-0.1
				c-0.054,0.007,0.001,0.142-0.073,0.133c-0.072-0.009-0.083-0.142-0.137-0.133c-0.055,0.007,0.011,0.133-0.044,0.133
				c-0.054,0-0.064-0.126-0.119-0.133c-0.054-0.008-0.027,0.116-0.064,0.116c-0.037,0-0.063-0.116-0.082-0.116
				c-0.018,0,0,0.116-0.064,0.107c-0.064-0.007-0.063-0.133-0.081-0.124s-0.018,0.091-0.064,0.091c-0.045,0-0.045-0.082-0.065-0.074
				c-0.018,0.007-0.082,0.116-0.127,0.1c-0.046-0.017,0.011-0.1-0.007-0.1c-0.017,0-0.074,0.058-0.11,0.049
				c-0.037-0.009,0.001-0.075-0.008-0.075s-0.092,0.043-0.129,0.043c-0.037,0-0.137,0.056-0.164,0.007
				c-0.027-0.051,0.072-0.051,0.09-0.1c0.018-0.049-0.053-0.191,0.02-0.241c0.073-0.049,0.301,0.066,0.637-0.017
				C196.535,134.952,197.013,134.761,197.062,134.77z"/>
		</g>
	</g>
</g>
</svg>
