<?xml version="1.0" encoding="utf-8"?>
<!-- Generator: Adobe Illustrator 16.2.0, SVG Export Plug-In . SVG Version: 6.00 Build 0)  -->
<!DOCTYPE svg PUBLIC "-//W3C//DTD SVG 1.1//EN" "http://www.w3.org/Graphics/SVG/1.1/DTD/svg11.dtd">
<svg version="1.1" id="Layer_1" xmlns="http://www.w3.org/2000/svg" xmlns:xlink="http://www.w3.org/1999/xlink" x="0px" y="0px"
	 width="39px" height="27px" viewBox="0 0 39 27" enable-background="new 0 0 39 27" xml:space="preserve">
<g>
	
		<radialGradient id="SVGID_1_" cx="18.9893" cy="13.4951" r="16.4677" gradientTransform="matrix(1.0307 0 0 1 0 0)" gradientUnits="userSpaceOnUse">
		<stop  offset="0" style="stop-color:#1573FC"/>
		<stop  offset="1" style="stop-color:#5561C7"/>
	</radialGradient>
	<rect x="0.012" y="-0.004" fill-rule="evenodd" clip-rule="evenodd" fill="url(#SVGID_1_)" width="39.121" height="26.998"/>
	<polygon fill-rule="evenodd" clip-rule="evenodd" fill="#FFFFFF" points="39.145,10.093 26.648,10.093 37.055,-0.004 
		29.916,-0.004 23.079,6.629 23.079,-0.004 16.065,-0.004 16.065,7.013 8.498,-0.004 1.215,-0.004 12.095,10.093 0,10.093 0,16.897 
		12.496,16.897 2.083,27 9.222,27 16.065,20.36 16.065,27 23.079,27 23.079,20.057 30.614,27 37.921,27 26.964,16.897 
		39.145,16.897 	"/>
	<polygon fill-rule="evenodd" clip-rule="evenodd" fill="#ED2828" points="39.145,11.572 22.967,11.572 34.898,-0.004 
		32.072,-0.004 21.554,10.201 21.554,-0.004 17.59,-0.004 17.59,10.436 6.235,-0.004 3.354,-0.004 15.94,11.572 0,11.572 0,15.418 
		16.177,15.418 4.239,27 7.064,27 17.59,16.789 17.59,27 21.554,27 21.554,16.653 32.892,27 35.783,27 23.094,15.418 39.145,15.418 
			"/>
</g>
</svg>
