<svg width="24" height="25" viewBox="0 0 24 25" fill="none" xmlns="http://www.w3.org/2000/svg">
<path d="M13.5441 10.956C12.7249 10.1373 11.6142 9.67731 10.4561 9.67731C9.2979 9.67731 8.18716 10.1373 7.36805 10.956L4.27905 14.044C3.45993 14.8631 2.99976 15.9741 2.99976 17.1325C2.99976 18.2909 3.45993 19.4019 4.27905 20.221C5.09818 21.0401 6.20914 21.5003 7.36755 21.5003C8.52597 21.5003 9.63693 21.0401 10.4561 20.221L12.0001 18.677" stroke="#61D6F2" stroke-width="2" stroke-linecap="round" stroke-linejoin="round"/>
<path d="M10.4561 14.044C11.2752 14.8628 12.3859 15.3227 13.5441 15.3227C14.7022 15.3227 15.8129 14.8628 16.6321 14.044L19.7211 10.956C20.5402 10.1369 21.0004 9.02591 21.0004 7.86749C21.0004 6.70908 20.5402 5.59811 19.7211 4.77899C18.9019 3.95987 17.791 3.49969 16.6326 3.49969C15.4741 3.49969 14.3632 3.95987 13.5441 4.77899L12.0001 6.32299" stroke="#61D6F2" stroke-width="2" stroke-linecap="round" stroke-linejoin="round"/>
</svg>
