<?xml version="1.0" encoding="UTF-8"?>
<!DOCTYPE svg PUBLIC "-//W3C//DTD SVG 1.1//EN" "http://www.w3.org/Graphics/SVG/1.1/DTD/svg11.dtd">
<!-- Creator: CorelDRAW 2017 -->
<svg xmlns="http://www.w3.org/2000/svg" xml:space="preserve" width="4.4027mm" height="3.333mm" version="1.1" style="shape-rendering:geometricPrecision; text-rendering:geometricPrecision; image-rendering:optimizeQuality; fill-rule:evenodd; clip-rule:evenodd"
viewBox="0 0 2.02 1.53"
 xmlns:xlink="http://www.w3.org/1999/xlink">
 <defs>
  <style type="text/css">
   <![CDATA[
    .fil0 {fill:none}
    .fil1 {fill:#8FD6F1}
   ]]>
  </style>
 </defs>
 <g id="Слой_x0020_1">
  <metadata id="CorelCorpID_0Corel-Layer"/>
  <rect class="fil0" x="0" y="0" width="2.02" height="1.53"/>
  <path class="fil1" d="M0.5 0.12c-0.04,0.01 -0.08,0.05 -0.08,0.09 -0,0.06 -0,0.12 -0,0.17l0 0.28c0.04,0 0.08,0.01 0.12,0.02l0 -0.49 1.28 0 -0 0.71 -1.02 0c0.04,0.07 0.06,0.14 0.06,0.22 0,0.03 -0,0.06 -0.01,0.08l1.02 0c0.06,0 0.12,0.01 0.14,-0.03 0.02,-0.04 -0.03,-0.14 -0.05,-0.2 -0.01,-0.03 -0.01,-0.04 -0.01,-0.08l0 -0.52c0,-0.06 0,-0.12 -0,-0.17 -0,-0.05 -0.04,-0.09 -0.08,-0.09 -0.03,-0.01 -1.09,-0 -1.2,-0 -0.04,0 -0.14,-0 -0.17,0zm0.56 0.97c-0.04,0.01 -0.03,0.06 -0.02,0.07 0.01,0.03 0.05,0.02 0.08,0.02 0.03,0 0.18,0 0.19,-0 0.02,-0.01 0.03,-0.04 0.02,-0.07 -0.01,-0.02 -0.05,-0.02 -0.08,-0.02 -0.03,0 -0.17,-0 -0.19,0zm-0.66 -0.13c0.1,0 0.17,0.08 0.17,0.17 0,0.1 -0.08,0.17 -0.17,0.17 -0.1,0 -0.17,-0.08 -0.17,-0.17 0,-0.1 0.08,-0.17 0.17,-0.17zm0 0.12c0.03,0 0.05,0.02 0.05,0.05 0,0.03 -0.02,0.05 -0.05,0.05 -0.03,0 -0.05,-0.02 -0.05,-0.05 0,-0.03 0.02,-0.05 0.05,-0.05zm0 -0.08c0.07,0 0.13,0.06 0.13,0.13 0,0.07 -0.06,0.13 -0.13,0.13 -0.07,0 -0.13,-0.06 -0.13,-0.13 0,-0.07 0.06,-0.13 0.13,-0.13zm0 -0.26c0.22,0 0.4,0.18 0.4,0.4 0,0.22 -0.18,0.4 -0.4,0.4 -0.22,0 -0.4,-0.18 -0.4,-0.4 0,-0.22 0.18,-0.4 0.4,-0.4zm-0.12 0.74l0.07 -0.16c0.01,0 0.02,0.01 0.03,0.01 0,0.06 0,0.12 0,0.18 -0.03,-0 -0.07,-0.01 -0.1,-0.02z"/>
 </g>
</svg>
