<?xml version="1.0" encoding="UTF-8"?>
<!DOCTYPE svg PUBLIC "-//W3C//DTD SVG 1.1//EN" "http://www.w3.org/Graphics/SVG/1.1/DTD/svg11.dtd">
<!-- Creator: CorelDRAW 2017 -->
<svg xmlns="http://www.w3.org/2000/svg" xml:space="preserve" width="4.4027mm" height="3.333mm" version="1.1" style="shape-rendering:geometricPrecision; text-rendering:geometricPrecision; image-rendering:optimizeQuality; fill-rule:evenodd; clip-rule:evenodd"
viewBox="0 0 1.97 1.49"
 xmlns:xlink="http://www.w3.org/1999/xlink">
 <defs>
  <style type="text/css">
   <![CDATA[
    .fil0 {fill:none}
    .fil1 {fill:#8FD6F1}
   ]]>
  </style>
 </defs>
 <g id="Слой_x0020_1">
  <metadata id="CorelCorpID_0Corel-Layer"/>
  <rect class="fil0" x="0" y="0" width="1.97" height="1.49"/>
  <path class="fil1" d="M0.46 0.14l0.96 0c0.02,0 0.04,0.02 0.04,0.04l0 0.09 0.05 0c0.02,0 0.03,0.01 0.03,0.03l0 0.17c0,0.02 -0.01,0.03 -0.03,0.03l-0.05 0 0 0.05 0.05 0c0.02,0 0.03,0.01 0.03,0.03l0 0.17c0,0.02 -0.01,0.03 -0.03,0.03l-0.05 0 0 0.05 0.05 0c0.02,0 0.03,0.01 0.03,0.03l0 0.17c0,0.02 -0.01,0.03 -0.03,0.03l-0.05 0 0 0.35c0,0.02 -0.02,0.04 -0.04,0.04l-0.96 0c-0.02,0 -0.04,-0.02 -0.04,-0.04l0 -1.25c0,-0.02 0.02,-0.04 0.04,-0.04zm0.08 0.09l0.81 0c0.01,0 0.01,0.01 0.01,0.01l0 1.12c0,0.01 -0.01,0.01 -0.01,0.01l-0.81 0c-0.01,0 -0.01,-0.01 -0.01,-0.01l0 -1.12c0,-0.01 0,-0.01 0.01,-0.01zm0.14 0.67l0.55 0 0 0.05 -0.55 0 0 -0.05zm0 0.14l0.55 0 0 0.05 -0.55 0 0 -0.05zm0 0.14l0.55 0 0 0.05 -0.55 0 0 -0.05zm0.1 -0.66c-0,0 -0.04,0.01 -0.05,0.01 -0.02,0 -0.02,0.01 -0.02,0.04 0,0.03 -0,0.04 0.02,0.04 0.02,0 0.03,0.01 0.05,0.01 0,0.01 0,0.01 0.01,0.02 0.01,0.02 0.01,0.01 -0,0.03l-0.03 0.04c-0,0.01 0.01,0.02 0.01,0.03 0.01,0.01 0.01,0.01 0.02,0.02 0.02,0.02 0.02,0.01 0.05,-0.01l0.02 -0.01c0.01,-0 0.01,0 0.02,0.01 0.02,0.01 0.01,-0.01 0.02,0.06 0,0.02 0.01,0.02 0.04,0.02 0.03,0 0.04,0 0.04,-0.02 0,-0.02 0.01,-0.03 0.01,-0.05 0.01,-0 0.03,-0.01 0.03,-0.01 0,0 0.04,0.02 0.04,0.03 0.02,0.01 0.02,0.01 0.04,-0.02 0.03,-0.03 0.03,-0.02 0.01,-0.06 -0.03,-0.04 -0.02,-0.02 -0.01,-0.04 0,-0 0,-0.02 0.01,-0.02 0,-0 0,-0 0,-0l0.05 -0.01c0.02,-0 0.02,-0.01 0.02,-0.04 0,-0.03 0,-0.04 -0.02,-0.04 -0.07,-0.01 -0.04,-0 -0.06,-0.03 -0.01,-0.01 -0.01,-0.01 0,-0.02 0.01,-0.01 0.02,-0.02 0.03,-0.04 0.01,-0.01 -0,-0.02 -0.02,-0.04 -0.01,-0.01 -0.01,-0.01 -0.02,-0.02 -0,-0 -0.01,-0.01 -0.02,-0.01l-0.05 0.03c-0.01,0.01 -0.01,-0 -0.03,-0.01 -0.01,-0 -0.01,-0 -0.01,-0.01 -0,-0 -0,-0.01 -0,-0.01 -0,-0.01 -0,-0.02 -0,-0.03 -0,-0.03 -0,-0.02 -0.04,-0.02 -0.05,0 -0.04,-0.01 -0.05,0.06 -0,0 0,0 -0,0.01 -0.01,0 -0.02,0.01 -0.02,0.01 -0.01,0.01 -0.01,0 -0.02,-0l-0.04 -0.03c-0.01,-0.01 -0.02,0 -0.02,0.01l-0.03 0.03c-0.01,0.01 -0.01,0.01 -0,0.02 0.01,0.01 0.02,0.02 0.03,0.04 0.01,0.01 0.01,0.01 0,0.02 -0,0 -0.01,0.02 -0.01,0.02zm0.17 -0.06c0.06,0 0.11,0.05 0.11,0.11 0,0.06 -0.05,0.11 -0.11,0.11 -0.06,0 -0.11,-0.05 -0.11,-0.11 0,-0.06 0.05,-0.11 0.11,-0.11z"/>
 </g>
</svg>
