<svg width="26" height="19" viewBox="0 0 26 19" fill="none" xmlns="http://www.w3.org/2000/svg">
<g clip-path="url(#clip0)">
<path fill-rule="evenodd" clip-rule="evenodd" d="M12.5 0C12.2239 0 12 0.223857 12 0.499999V1.12601C11.2851 1.31002 10.6475 1.68674 10.1459 2.19749L9.60291 1.88399C9.36376 1.74592 9.05797 1.82785 8.9199 2.067L8.4199 2.93303C8.28183 3.17217 8.36376 3.47797 8.60291 3.61604L9.145 3.92901C9.05051 4.26988 9.00001 4.62904 9.00001 5C9.00001 5.37095 9.05051 5.73011 9.145 6.07098L8.6029 6.38396C8.36375 6.52203 8.28181 6.82783 8.41988 7.06697L8.91988 7.933C9.05796 8.17215 9.36375 8.25408 9.6029 8.11601L10.1459 7.80251C10.6475 8.31326 11.2851 8.68998 12 8.87399V9.5C12 9.77614 12.2239 10 12.5 10H13.5C13.7762 10 14 9.77614 14 9.5V8.87398C15.7253 8.42996 17 6.86386 17 5C17 3.13617 15.7253 1.57007 14 1.12602V0.499999C14 0.223857 13.7762 0 13.5 0H12.5ZM15.5 5C15.5 6.38071 14.3807 7.5 13 7.5C11.6193 7.5 10.5 6.38071 10.5 5C10.5 3.61929 11.6193 2.5 13 2.5C14.3807 2.5 15.5 3.61929 15.5 5Z" fill="#BFE9F9"/>
<path d="M16.3971 8.11604L15.8541 7.80253C16.322 7.32611 16.6715 6.73306 16.855 6.07101L17.3971 6.38399C17.6363 6.52206 17.7182 6.82785 17.5801 7.067L17.0801 7.93303C16.9421 8.17217 16.6363 8.25411 16.3971 8.11604Z" fill="#BFE9F9"/>
<path d="M17.3971 3.61601L16.855 3.92899C16.6715 3.26693 16.322 2.67388 15.8541 2.19746L16.3971 1.88396C16.6363 1.74589 16.9421 1.82783 17.0801 2.06697L17.5801 2.933C17.7182 3.17215 17.6363 3.47794 17.3971 3.61601Z" fill="#BFE9F9"/>
<path d="M6 11.0089C5.44772 11.0089 5 11.4566 5 12.0089V15.0089H6.43054V12.4141H12.2927V15.0089H13.6963V12.4141H19.5861V15.0089H21V12.0089C21 11.4566 20.5523 11.0089 20 11.0089H6Z" fill="#BFE9F9"/>
<path d="M5.81757 19C6.64599 19 7.31757 18.3284 7.31757 17.5C7.31757 16.6716 6.64599 16 5.81757 16C4.98914 16 4.31757 16.6716 4.31757 17.5C4.31757 18.3284 4.98914 19 5.81757 19Z" fill="#BFE9F9"/>
<path d="M14.5 17.5178C14.5 18.3462 13.8285 19.0178 13 19.0178C12.1716 19.0178 11.5 18.3462 11.5 17.5178C11.5 16.6894 12.1716 16.0178 13 16.0178C13.8285 16.0178 14.5 16.6894 14.5 17.5178Z" fill="#BFE9F9"/>
<path d="M20.5406 19C21.369 19 22.0406 18.3284 22.0406 17.5C22.0406 16.6716 21.369 16 20.5406 16C19.7122 16 19.0406 16.6716 19.0406 17.5C19.0406 18.3284 19.7122 19 20.5406 19Z" fill="#BFE9F9"/>
</g>
<defs>
<clipPath id="clip0">
<rect width="25" height="19" fill="white" transform="translate(0.5)"/>
</clipPath>
</defs>
</svg>
