<?xml version="1.0" encoding="UTF-8"?>
<!DOCTYPE svg PUBLIC "-//W3C//DTD SVG 1.1//EN" "http://www.w3.org/Graphics/SVG/1.1/DTD/svg11.dtd">
<!-- Creator: CorelDRAW 2017 -->
<svg xmlns="http://www.w3.org/2000/svg" xml:space="preserve" width="2.679mm" height="2.051mm" version="1.1" style="shape-rendering:geometricPrecision; text-rendering:geometricPrecision; image-rendering:optimizeQuality; fill-rule:evenodd; clip-rule:evenodd"
viewBox="0 0 651 498"
 xmlns:xlink="http://www.w3.org/1999/xlink">
 <defs>
  <style type="text/css">
   <![CDATA[
    .fil0 {fill:none}
    .fil1 {fill:#BFE9F9}
   ]]>
  </style>
 </defs>
 <g id="Слой_x0020_1">
  <metadata id="CorelCorpID_0Corel-Layer"/>
  <rect class="fil0" width="651" height="498"/>
  <path class="fil1" d="M561 441c-69,80 -133,64 -254,7 -44,-25 -74,-44 -105,-76 -32,-30 -51,-61 -76,-105 -57,-121 -73,-185 6,-254 18,-14 37,-15 48,-1l63 84c7,19 8,39 -18,59l-21 15c-21,14 -15,40 -4,58 9,17 37,50 66,79 29,29 61,57 79,66 17,11 44,17 58,-4l15 -21c20,-26 40,-25 59,-18l84 63c14,11 13,30 -1,48z"/>
 </g>
</svg>
