<?xml version="1.0" encoding="UTF-8"?>
<!DOCTYPE svg PUBLIC "-//W3C//DTD SVG 1.1//EN" "http://www.w3.org/Graphics/SVG/1.1/DTD/svg11.dtd">
<!-- Creator: CorelDRAW 2017 -->
<svg xmlns="http://www.w3.org/2000/svg" xml:space="preserve" width="2.679mm" height="2.051mm" version="1.1" style="shape-rendering:geometricPrecision; text-rendering:geometricPrecision; image-rendering:optimizeQuality; fill-rule:evenodd; clip-rule:evenodd"
viewBox="0 0 651 498"
 xmlns:xlink="http://www.w3.org/1999/xlink">
 <defs>
  <style type="text/css">
   <![CDATA[
    .fil0 {fill:none}
    .fil1 {fill:#BFE9F9}
   ]]>
  </style>
 </defs>
 <g id="Слой_x0020_1">
  <metadata id="CorelCorpID_0Corel-Layer"/>
  <rect class="fil0" width="651" height="498"/>
  <path class="fil1" d="M129 195l-48 -16 5 -15 48 16 -5 15zm6 32l-49 25 -7 -14 49 -25 7 14zm31 15l-11 60 -16 -3 11 -60 16 3zm23 -26l48 38 -10 13 -48 -38 10 -13zm-3 -31l48 -16 5 15 -48 16 -5 -15zm164 -68c57,-29 129,-19 177,29 60,60 60,157 0,217 -60,60 -157,60 -217,0 -48,-48 -57,-120 -29,-177l-26 -26 24 -24c-15,-12 -30,-18 -43,-21 -13,-2 -24,0 -34,5 -10,5 -18,14 -23,24 -8,15 -11,34 -8,54l-24 4c-4,-25 0,-50 11,-69 8,-15 19,-27 33,-34 14,-8 31,-11 49,-8 18,3 36,11 56,27l28 -28 26 26z"/>
 </g>
</svg>
