<svg width="22" height="20" viewBox="0 0 22 20" fill="none" xmlns="http://www.w3.org/2000/svg">
<path fill-rule="evenodd" clip-rule="evenodd" d="M0.625637 16.4632L9.31016 1.36096C9.49294 1.04707 9.75031 0.787546 10.0574 0.607434C10.3645 0.427323 10.711 0.332703 11.0635 0.332703C11.4159 0.332703 11.7624 0.427323 12.0695 0.607434C12.3766 0.787546 12.634 1.04707 12.8168 1.36096L21.5013 16.4632C21.6804 16.7862 21.7751 17.1524 21.7761 17.5254C21.7771 17.8984 21.6843 18.2651 21.507 18.5892C21.3297 18.9132 21.074 19.1832 20.7654 19.3724C20.4568 19.5615 20.106 19.6632 19.748 19.6673H2.37895C2.0209 19.6632 1.67013 19.5615 1.36152 19.3724C1.05292 19.1832 0.797238 18.9132 0.619923 18.5892C0.442607 18.2651 0.349836 17.8984 0.350838 17.5254C0.351841 17.1524 0.446582 16.7862 0.625637 16.4632ZM12.4117 6.75076C12.5662 6.52194 12.506 6.21113 12.2772 6.05656C12.0484 5.90199 11.7376 5.96218 11.583 6.19101L7.84812 11.7201C7.7446 11.8733 7.73413 12.0712 7.8209 12.2345C7.90767 12.3979 8.07751 12.4999 8.26245 12.4999H12.9236L9.71556 17.2491C9.56099 17.4779 9.62118 17.7887 9.85001 17.9433C10.0788 18.0979 10.3896 18.0377 10.5442 17.8089L14.2791 12.2798C14.3826 12.1266 14.3931 11.9287 14.3063 11.7654C14.2195 11.602 14.0497 11.4999 13.8648 11.4999H9.20359L12.4117 6.75076Z" fill="#8FD6F1"/>
</svg>
