<?xml version="1.0" encoding="UTF-8"?>
<!DOCTYPE svg PUBLIC "-//W3C//DTD SVG 1.1//EN" "http://www.w3.org/Graphics/SVG/1.1/DTD/svg11.dtd">
<!-- Creator: CorelDRAW 2017 -->
<svg xmlns="http://www.w3.org/2000/svg" xml:space="preserve" width="2.679mm" height="2.051mm" version="1.1" style="shape-rendering:geometricPrecision; text-rendering:geometricPrecision; image-rendering:optimizeQuality; fill-rule:evenodd; clip-rule:evenodd"
viewBox="0 0 651 498"
 xmlns:xlink="http://www.w3.org/1999/xlink">
 <defs>
  <style type="text/css">
   <![CDATA[
    .fil0 {fill:none}
    .fil1 {fill:#BFE9F9}
   ]]>
  </style>
 </defs>
 <g id="Слой_x0020_1">
  <metadata id="CorelCorpID_0Corel-Layer"/>
  <g id="_1607617072992">
   <rect class="fil0" width="651" height="498"/>
   <path class="fil1" d="M182 150l192 192 -57 57 61 61c47,47 120,49 163,5l0 0c44,-43 41,-117 -5,-163l-61 -61 -57 57 -192 -192c8,-24 2,-53 -16,-74l0 0 -29 -29 -102 102 15 15 0 0 10 10c1,1 2,2 3,3l1 1 0 0c21,19 50,24 74,16zm-60 -31c22,20 54,20 74,1 20,-20 19,-52 -1,-74l-73 73z"/>
  </g>
 </g>
</svg>
