<?xml version="1.0" encoding="UTF-8"?>
<!DOCTYPE svg PUBLIC "-//W3C//DTD SVG 1.1//EN" "http://www.w3.org/Graphics/SVG/1.1/DTD/svg11.dtd">
<!-- Creator: CorelDRAW 2017 -->
<svg xmlns="http://www.w3.org/2000/svg" xml:space="preserve" width="2.679mm" height="2.051mm" version="1.1" style="shape-rendering:geometricPrecision; text-rendering:geometricPrecision; image-rendering:optimizeQuality; fill-rule:evenodd; clip-rule:evenodd"
viewBox="0 0 645 494"
 xmlns:xlink="http://www.w3.org/1999/xlink">
 <defs>
  <style type="text/css">
   <![CDATA[
    .fil0 {fill:none}
    .fil1 {fill:#8FD6F1}
   ]]>
  </style>
 </defs>
 <g id="Слой_x0020_1">
  <metadata id="CorelCorpID_0Corel-Layer"/>
  <rect class="fil0" width="645" height="494"/>
  <path class="fil1" d="M127 193l-48 -16 5 -15 48 16 -5 15zm6 32l-48 24 -7 -14 48 -24 7 14zm31 15l-11 60 -16 -3 11 -60 16 3zm22 -25l48 38 -10 12 -48 -38 10 -12zm-3 -30l48 -16 5 15 -48 16 -5 -15zm163 -68c57,-28 128,-19 175,28 59,59 59,156 0,215 -59,59 -156,59 -215,0 -47,-47 -57,-119 -28,-175l-26 -26 24 -23c-15,-12 -29,-18 -42,-20 -13,-2 -24,0 -34,5 -10,5 -18,14 -23,24 -8,15 -11,33 -8,53l-24 4c-4,-25 0,-49 10,-68 8,-15 19,-27 33,-34 14,-8 31,-11 49,-8 17,3 36,11 55,27l27 -27 26 26z"/>
 </g>
</svg>
