<svg width="24" height="25" viewBox="0 0 24 25" fill="none" xmlns="http://www.w3.org/2000/svg">
<path d="M7.63636 7.45455C7.63636 7.1784 7.86022 6.95455 8.13636 6.95455H18.5455V10.2273L24 5.86364L18.5455 1.5V4.77273H7.45455C6.34998 4.77273 5.45455 5.66816 5.45455 6.77273V10.3182C5.45455 10.8705 5.90226 11.3182 6.45455 11.3182H6.63636C7.18865 11.3182 7.63636 10.8705 7.63636 10.3182V7.45455ZM16.3636 17.3636C16.3636 17.6398 16.1398 17.8636 15.8636 17.8636H5.45455V14.5909L0 18.9545L5.45455 23.3182V20.0455H16.5455C17.65 20.0455 18.5455 19.15 18.5455 18.0455V14.5C18.5455 13.9477 18.0977 13.5 17.5455 13.5H17.3636C16.8114 13.5 16.3636 13.9477 16.3636 14.5V17.3636Z" fill="#BFE9F9"/>
</svg>
