<?xml version="1.0" encoding="UTF-8"?>
<!DOCTYPE svg PUBLIC "-//W3C//DTD SVG 1.1//EN" "http://www.w3.org/Graphics/SVG/1.1/DTD/svg11.dtd">
<!-- Creator: CorelDRAW 2017 -->
<svg xmlns="http://www.w3.org/2000/svg" xml:space="preserve" width="2123px" height="1936px" version="1.1" style="shape-rendering:geometricPrecision; text-rendering:geometricPrecision; image-rendering:optimizeQuality; fill-rule:evenodd; clip-rule:evenodd"
viewBox="0 0 1126.22 1027"
 xmlns:xlink="http://www.w3.org/1999/xlink">
 <defs>
  <style type="text/css">
   <![CDATA[
    .fil0 {fill:white}
   ]]>
  </style>
 </defs>
 <g id="Слой_x0020_1">
  <metadata id="CorelCorpID_0Corel-Layer"/>
  <path class="fil0" d="M1107.35 887.74c-133.79,185.81 -275.61,163.45 -547.74,62.14 -99.27,-46.14 -169.11,-81.78 -240.66,-145.41 -74.93,-59.19 -122.18,-121.91 -184.9,-211.71 -147.17,-250.46 -193.73,-386.13 -34.04,-550.16 36.66,-33.98 76.8,-39.44 103.72,-10.86l153 170.13c19.32,40.72 24.35,83.06 -27.19,130.95l-43.19 35.97c-41.95,33.18 -25.58,90.17 2.47,125.44 23.44,35.54 89.9,100.51 158.14,157.72 68.23,57.31 143.8,111.47 182.86,128.33 39.55,21.51 98.53,27.78 123.95,-19.37l27.88 -48.76c38.21,-59.08 80.81,-61.49 124.26,-49.5l194.11 121.16c32.75,21.52 34.35,61.92 7.33,103.93zm-274.86 -396.61l0 -203.48 -202.45 0 0 -85.14 202.45 0 0 -202.51 86.16 0 0 202.51 202.5 0 0 85.14 -202.5 0 0 203.48 -86.16 0z"/>
 </g>
</svg>
