<?xml version="1.0" encoding="UTF-8"?>
<!DOCTYPE svg PUBLIC "-//W3C//DTD SVG 1.1//EN" "http://www.w3.org/Graphics/SVG/1.1/DTD/svg11.dtd">
<!-- Creator: CorelDRAW 2017 -->
<svg xmlns="http://www.w3.org/2000/svg" xml:space="preserve" width="2.679mm" height="2.051mm" version="1.1" style="shape-rendering:geometricPrecision; text-rendering:geometricPrecision; image-rendering:optimizeQuality; fill-rule:evenodd; clip-rule:evenodd"
viewBox="0 0 645 494"
 xmlns:xlink="http://www.w3.org/1999/xlink">
 <defs>
  <style type="text/css">
   <![CDATA[
    .fil0 {fill:none}
    .fil1 {fill:#8FD6F1}
   ]]>
  </style>
 </defs>
 <g id="Слой_x0020_1">
  <metadata id="CorelCorpID_0Corel-Layer"/>
  <g id="_1607839434288">
   <rect class="fil0" width="645" height="494"/>
   <path class="fil1" d="M180 148l190 190 -56 56 61 61c46,46 119,49 162,5l0 0c43,-43 41,-115 -5,-162l-61 -61 -56 56 -190 -190c8,-24 2,-52 -16,-74l0 0 -29 -29 -101 101 14 14 0 0 10 10c1,1 2,2 3,3l1 1 0 0c21,19 50,24 74,16zm-59 -30c21,20 53,20 73,1 19,-19 19,-51 -1,-73l-72 72z"/>
  </g>
 </g>
</svg>
