<?xml version="1.0" encoding="UTF-8"?>
<!DOCTYPE svg PUBLIC "-//W3C//DTD SVG 1.1//EN" "http://www.w3.org/Graphics/SVG/1.1/DTD/svg11.dtd">
<!-- Creator: CorelDRAW 2017 -->
<svg xmlns="http://www.w3.org/2000/svg" xml:space="preserve" width="2.679mm" height="2.051mm" version="1.1" style="shape-rendering:geometricPrecision; text-rendering:geometricPrecision; image-rendering:optimizeQuality; fill-rule:evenodd; clip-rule:evenodd"
viewBox="0 0 645 494"
 xmlns:xlink="http://www.w3.org/1999/xlink">
 <defs>
  <style type="text/css">
   <![CDATA[
    .fil0 {fill:none}
    .fil1 {fill:#8FD6F1}
   ]]>
  </style>
 </defs>
 <g id="Слой_x0020_1">
  <metadata id="CorelCorpID_0Corel-Layer"/>
  <rect class="fil0" width="645" height="494"/>
  <path class="fil1" d="M556 437c-68,79 -132,63 -251,6 -43,-25 -74,-44 -104,-76 -32,-30 -51,-60 -76,-104 -57,-120 -73,-183 6,-251 18,-14 36,-15 48,-1l63 83c7,19 8,39 -18,58l-21 15c-20,13 -15,40 -4,57 9,17 37,49 66,78 29,29 61,56 78,66 17,11 44,17 57,-4l15 -21c20,-25 39,-25 58,-18l83 63c14,11 13,29 -1,47z"/>
 </g>
</svg>
