<?xml version="1.0" encoding="UTF-8"?>
<!DOCTYPE svg PUBLIC "-//W3C//DTD SVG 1.1//EN" "http://www.w3.org/Graphics/SVG/1.1/DTD/svg11.dtd">
<!-- Creator: CorelDRAW 2017 -->
<svg xmlns="http://www.w3.org/2000/svg" xml:space="preserve" width="316px" height="231px" version="1.1" style="shape-rendering:geometricPrecision; text-rendering:geometricPrecision; image-rendering:optimizeQuality; fill-rule:evenodd; clip-rule:evenodd"
viewBox="0 0 7.37 5.39"
 xmlns:xlink="http://www.w3.org/1999/xlink">
 <defs>
  <style type="text/css">
   <![CDATA[
    .fil0 {fill:none}
    .fil1 {fill:#BFE9F9}
   ]]>
  </style>
 </defs>
 <g id="Слой_x0020_1">
  <metadata id="CorelCorpID_0Corel-Layer"/>
  <rect class="fil0" width="7.37" height="5.39"/>
  <path class="fil1" d="M5.98 2.99c0.33,0 0.6,0.27 0.6,0.6 0,0.33 -0.27,0.6 -0.6,0.6 -0.33,0 -0.6,-0.27 -0.6,-0.6 0,-0.33 0.27,-0.6 0.6,-0.6zm-0.29 -0.87l0.57 0c0.05,0 0.09,0.04 0.09,0.09l0 0.35c0.13,0.05 0.25,0.12 0.35,0.21l0.3 -0.18c0.04,-0.02 0.09,-0.01 0.12,0.04l0.24 0.41c0.02,0.04 0.01,0.1 -0.03,0.12l-0.29 0.17c0.02,0.08 0.03,0.17 0.03,0.26 0,0.07 -0.01,0.15 -0.02,0.22l0.28 0.16c0.04,0.02 0.05,0.08 0.03,0.12l-0.24 0.41c-0.03,0.04 -0.08,0.06 -0.12,0.04l-0.27 -0.16c-0.11,0.1 -0.24,0.18 -0.38,0.23l0 0.35c0,0.05 -0.04,0.09 -0.09,0.09l-0.57 0c-0.04,0 -0.08,-0.04 -0.08,-0.09l0 -0.35c-0.15,-0.05 -0.27,-0.13 -0.38,-0.23l-0.27 0.16c-0.04,0.02 -0.1,0 -0.12,-0.04l-0.24 -0.41c-0.03,-0.04 -0.01,-0.1 0.03,-0.12l0.28 -0.16c-0.01,-0.07 -0.02,-0.15 -0.02,-0.22 0,-0.09 0.01,-0.18 0.03,-0.26l-0.29 -0.17c-0.04,-0.02 -0.06,-0.08 -0.03,-0.12l0.24 -0.41c0.02,-0.05 0.08,-0.06 0.12,-0.04l0.3 0.18c0.1,-0.09 0.22,-0.16 0.35,-0.21l0 -0.35c0,-0.05 0.04,-0.09 0.08,-0.09zm-4.27 1.47l2.57 0c0,0.13 0.02,0.26 0.04,0.39l-2.61 0 0 -0.39zm-0.94 -0.28c0.26,0 0.47,0.21 0.47,0.47 0,0.27 -0.21,0.48 -0.47,0.48 -0.27,0 -0.48,-0.21 -0.48,-0.48 0,-0.26 0.21,-0.47 0.48,-0.47zm0 -1.49c0.26,0 0.47,0.22 0.47,0.48 0,0.26 -0.21,0.47 -0.47,0.47 -0.27,0 -0.48,-0.21 -0.48,-0.47 0,-0.26 0.21,-0.48 0.48,-0.48zm0.94 0.28l3.25 0c-0.14,0.12 -0.25,0.25 -0.35,0.4l-2.9 0 0 -0.4zm0 -1.49l4.56 0 0 0.4 -4.56 0 0 -0.4zm-0.94 -0.27c0.26,0 0.47,0.21 0.47,0.47 0,0.27 -0.21,0.48 -0.47,0.48 -0.27,0 -0.48,-0.21 -0.48,-0.48 0,-0.26 0.21,-0.47 0.48,-0.47z"/>
 </g>
</svg>
