<?xml version="1.0" encoding="UTF-8"?>
<!DOCTYPE svg PUBLIC "-//W3C//DTD SVG 1.1//EN" "http://www.w3.org/Graphics/SVG/1.1/DTD/svg11.dtd">
<!-- Creator: CorelDRAW 2017 -->
<svg xmlns="http://www.w3.org/2000/svg" xml:space="preserve" width="1588px" height="1212px" version="1.1" style="shape-rendering:geometricPrecision; text-rendering:geometricPrecision; image-rendering:optimizeQuality; fill-rule:evenodd; clip-rule:evenodd"
viewBox="0 0 304.9 232.71"
 xmlns:xlink="http://www.w3.org/1999/xlink">
 <defs>
  <style type="text/css">
   <![CDATA[
    .fil0 {fill:#BFE9F9;fill-rule:nonzero}
   ]]>
  </style>
 </defs>
 <g id="Слой_x0020_1">
  <metadata id="CorelCorpID_0Corel-Layer"/>
  <path class="fil0" d="M99.86 113.31l34.14 0c11.33,0 19.32,-2.09 24.09,-6.3 4.74,-4.22 7.11,-10.13 7.11,-17.78 0,-5.52 -1.39,-10.24 -4.19,-14.19 -2.8,-3.93 -6.49,-6.55 -11.04,-7.81 -2.95,-0.77 -8.4,-1.17 -16.31,-1.17l-33.8 0 0 47.25zm-49.75 30.52l32.14 0 0 15.48 -32.14 0 0 -15.48zm0 -30.52l32.14 0 0 15.48 -32.14 0 0 -15.48zm32.21 69.4l0 -132.16 49.9 0c8.77,0 15.48,0.43 20.12,1.27 6.49,1.08 11.94,3.14 16.34,6.14 4.38,3.05 7.92,7.29 10.61,12.75 2.66,5.44 3.99,11.45 3.99,17.98 0,11.21 -3.56,20.71 -10.73,28.46 -7.14,7.78 -20.08,11.66 -38.79,11.66l-33.9 0 0 15.02 32.14 0 0 15.48 -32.14 0 0 23.4 -17.54 0zm105.81 -137.03c-18.26,-18.15 -43.52,-29.39 -71.43,-29.39 -27.91,0 -53.18,11.24 -71.43,29.39 -18.24,18.14 -29.54,43.23 -29.54,70.95 0,27.72 11.3,52.82 29.54,70.96 18.25,18.15 43.52,29.39 71.43,29.39 27.91,0 53.17,-11.24 71.43,-29.4 18.24,-18.13 29.54,-43.23 29.54,-70.95 0,-27.72 -11.3,-52.82 -29.54,-70.95zm-71.43 -45.12c32.18,0 61.36,12.99 82.49,34 21.13,21.01 34.21,50.04 34.21,82.07 0,32.04 -13.08,61.07 -34.21,82.08 -21.13,21.01 -50.31,34 -82.49,34 -32.2,0 -61.37,-13 -82.49,-34 -21.13,-21.01 -34.21,-50.04 -34.21,-82.08 0,-32.03 13.08,-61.06 34.21,-82.08 21.12,-20.99 50.29,-33.99 82.49,-33.99zm187.83 163.93c0.74,-5.77 0.45,-19.8 -1.47,-24.35 -0.37,-0.85 -0.78,-1.69 -1.26,-2.51 -1.25,2.58 -2.86,4.88 -4.74,6.93 5.85,21.55 -37.83,40.36 -84.07,37.63 -4.09,5.93 -8.69,11.43 -13.8,16.52l-1.12 1.09c20.01,2.58 42,1.44 61.44,-2.42 18.74,-3.74 42.21,-10.53 45.02,-32.89zm0 -36.22c0.74,-5.78 0.45,-19.8 -1.47,-24.35 -0.37,-0.87 -0.81,-1.72 -1.29,-2.56 -1.26,2.57 -2.85,4.85 -4.73,6.89l0 0.01c5.26,18.95 -27.88,35.81 -67.41,37.78 -1.72,6.57 -4.01,12.9 -6.81,18.91 12.49,-0.15 25.05,-1.48 36.69,-3.8 18.74,-3.72 42.21,-10.53 45.02,-32.88zm-7.92 -19.57l-1.34 1.33c0.46,-0.43 0.9,-0.87 1.34,-1.33zm7.92 -16.77c0.74,-5.79 0.45,-19.82 -1.47,-24.35 -0.37,-0.86 -0.79,-1.69 -1.26,-2.52 -1.25,2.58 -2.85,4.88 -4.73,6.93 5,18.36 -26,34.72 -63.89,37.49 0.15,2.36 0.22,4.75 0.22,7.15 0,3.92 -0.2,7.79 -0.58,11.61 9.13,-0.57 18.16,-1.74 26.69,-3.43 18.74,-3.73 42.21,-10.53 45.02,-32.88zm0 -36.23c0.74,-5.78 0.45,-19.79 -1.47,-24.35 -13.23,-31.11 -97.42,-40.85 -139.64,-21.1 2.99,1.3 5.92,2.72 8.77,4.26 12.55,-5.28 25.96,-7.95 41.33,-8.92 16.21,-1.01 34.2,0.76 48.76,5.2 13.78,4.21 28.17,11.58 33.36,21.4 11.1,21.06 -26.59,40.54 -70.52,41.44 2.39,5.94 4.33,12.11 5.67,18.49 9.83,-0.5 19.56,-1.72 28.72,-3.54 18.74,-3.73 42.21,-10.52 45.02,-32.88zm-97.39 -12.38l0.36 -8.09c0.24,-5.66 0.47,-10.92 0.68,-15.8 7.41,0.11 14.8,0.23 22.16,0.32 3.86,0.06 6.83,0.2 8.92,0.4 2.87,0.28 5.38,0.76 7.48,1.44 2.1,0.67 3.93,1.64 5.48,2.89 1.53,1.25 2.55,2.65 3,4.21 0.79,2.74 -0.23,5.12 -3.14,7.12 -3.01,2.05 -9.23,3.08 -18.64,3 -5.68,-0.06 -11.41,-0.1 -17.15,-0.17 0.02,1.42 0.04,2.87 0.08,4.31 5.58,0.04 11.15,0.1 16.73,0.14 0.18,1.54 0.36,3.1 0.56,4.7 -5.74,-0.04 -11.47,-0.08 -17.24,-0.12 0.04,2.49 0.06,5.05 0.1,7.68l-0.71 0c-2.63,-4.2 -5.53,-8.22 -8.67,-12.03zm-8.26 -9.06l8.62 0.09c-0.06,1.38 -0.12,2.78 -0.2,4.21l-4.31 -0.04c-1.23,-1.35 -2.51,-2.67 -3.8,-3.96l-0.31 -0.3zm7.91 8.63l0.33 0 -0.02 0.38 -0.31 -0.38zm9.44 -8.44c5.61,0.05 11.23,0.12 16.8,0.17 5.55,0.05 9.35,-0.45 11.43,-1.51 2.03,-1.05 2.81,-2.54 2.39,-4.4 -0.3,-1.31 -1.2,-2.43 -2.68,-3.36 -1.45,-0.91 -3.25,-1.54 -5.35,-1.84 -1.35,-0.2 -3.84,-0.32 -7.41,-0.35 -5.11,-0.08 -10.22,-0.15 -15.34,-0.22 0.04,3.63 0.11,7.46 0.16,11.51z"/>
 </g>
</svg>
