<?xml version="1.0" encoding="UTF-8"?>
<!DOCTYPE svg PUBLIC "-//W3C//DTD SVG 1.1//EN" "http://www.w3.org/Graphics/SVG/1.1/DTD/svg11.dtd">
<!-- Creator: CorelDRAW 2017 -->
<svg xmlns="http://www.w3.org/2000/svg" xml:space="preserve" width="1588px" height="1212px" version="1.1" style="shape-rendering:geometricPrecision; text-rendering:geometricPrecision; image-rendering:optimizeQuality; fill-rule:evenodd; clip-rule:evenodd"
viewBox="0 0 945.99 722"
 xmlns:xlink="http://www.w3.org/1999/xlink">
 <defs>
  <style type="text/css">
   <![CDATA[
    .fil0 {fill:#8FD6F1;fill-rule:nonzero}
   ]]>
  </style>
 </defs>
 <g id="Слой_x0020_1">
  <metadata id="CorelCorpID_0Corel-Layer"/>
  <path class="fil0" d="M309.84 351.57l105.92 0c35.14,0 59.93,-6.5 74.72,-19.58 14.72,-13.08 22.06,-31.4 22.06,-55.15 0,-17.11 -4.29,-31.78 -12.98,-44.03 -8.69,-12.17 -20.13,-20.32 -34.26,-24.23 -9.16,-2.37 -26.07,-3.64 -50.62,-3.64l-104.84 0 0 146.63zm-154.38 94.69l99.71 0 0 48 -99.71 0 0 -48zm0 -94.69l99.71 0 0 48.02 -99.71 0 0 -48.02zm99.96 215.29l0 -410.02 154.8 0c27.21,0 48.02,1.35 62.42,3.93 20.16,3.37 37.05,9.74 50.69,19.06 13.62,9.47 24.6,22.62 32.92,39.56 8.27,16.87 12.4,35.51 12.4,55.79 0,34.78 -11.06,64.26 -33.29,88.3 -22.16,24.13 -62.3,36.16 -120.36,36.16l-105.16 0 0 46.62 99.69 0 0 48 -99.69 0 0 72.6 -54.42 0zm328.26 -425.12c-56.64,-56.33 -135.03,-91.2 -221.61,-91.2 -86.59,0 -164.98,34.87 -221.62,91.17 -56.6,56.3 -91.64,134.15 -91.64,220.15 0,86.01 35.07,163.88 91.64,220.16 56.64,56.3 135.03,91.17 221.62,91.17 86.58,0 164.97,-34.87 221.61,-91.2 56.6,-56.25 91.67,-134.12 91.67,-220.13 0,-86 -35.07,-163.87 -91.67,-220.12zm-221.61 -140.01c99.86,0 190.37,40.31 255.93,105.5 65.57,65.18 106.16,155.24 106.16,254.63 0,99.4 -40.59,189.46 -106.16,254.64 -65.56,65.19 -156.07,105.5 -255.93,105.5 -99.89,0 -190.41,-40.34 -255.93,-105.47 -65.56,-65.21 -106.14,-155.27 -106.14,-254.67 0,-99.39 40.58,-189.45 106.14,-254.66 65.52,-65.13 156.04,-105.47 255.93,-105.47zm582.77 508.61c2.27,-17.91 1.4,-61.42 -4.58,-75.53 -1.13,-2.66 -2.42,-5.25 -3.88,-7.81 -3.91,8.03 -8.89,15.16 -14.72,21.53 18.16,66.84 -117.38,125.19 -260.84,116.72 -12.69,18.4 -26.96,35.49 -42.82,51.25l-3.47 3.39c62.09,8.01 130.32,4.47 190.62,-7.51 58.14,-11.59 130.96,-32.66 139.69,-102.04zm0 -112.38c2.27,-17.91 1.4,-61.43 -4.58,-75.53 -1.15,-2.71 -2.49,-5.35 -3.98,-7.96 -3.91,7.98 -8.86,15.06 -14.69,21.38l0 0.02c16.32,58.82 -86.49,111.12 -209.15,117.22 -5.32,20.4 -12.42,40.02 -21.11,58.67 38.76,-0.47 77.7,-4.57 113.82,-11.77 58.14,-11.56 130.96,-32.67 139.69,-102.03zm-24.59 -60.69l-4.15 4.09c1.44,-1.31 2.8,-2.68 4.15,-4.09zm24.59 -52.06c2.27,-17.96 1.4,-61.47 -4.58,-75.53 -1.13,-2.66 -2.44,-5.25 -3.88,-7.81 -3.88,8 -8.86,15.13 -14.69,21.5 15.52,56.96 -80.66,107.72 -198.22,116.29 0.47,7.34 0.69,14.74 0.69,22.2 0,12.16 -0.64,24.17 -1.81,36 28.33,-1.76 56.35,-5.37 82.8,-10.64 58.14,-11.57 130.96,-32.65 139.69,-102.01zm0 -112.38c2.27,-17.96 1.4,-61.43 -4.58,-75.56 -41.03,-96.52 -302.25,-126.76 -433.23,-65.48 9.27,4.06 18.35,8.45 27.21,13.23 38.92,-16.37 80.53,-24.67 128.22,-27.67 50.3,-3.15 106.11,2.36 151.28,16.13 42.76,13.05 87.42,35.92 103.5,66.38 34.46,65.35 -82.48,125.8 -218.78,128.59 7.42,18.42 13.42,37.58 17.59,57.37 30.48,-1.56 60.67,-5.34 89.1,-11.01 58.14,-11.56 130.96,-32.62 139.69,-101.98zm-302.17 -38.44l1.12 -25.09c0.76,-17.57 1.47,-33.87 2.1,-49.03 23.01,0.35 45.93,0.71 68.77,1.01 11.96,0.19 21.18,0.63 27.65,1.24 8.93,0.88 16.69,2.34 23.21,4.47 6.54,2.07 12.2,5.1 17.01,8.95 4.76,3.88 7.91,8.23 9.3,13.08 2.46,8.5 -0.68,15.89 -9.74,22.09 -9.32,6.37 -28.63,9.54 -57.81,9.3 -17.65,-0.17 -35.41,-0.32 -53.23,-0.52 0.07,4.4 0.12,8.89 0.25,13.35 17.32,0.15 34.6,0.32 51.93,0.44 0.53,4.79 1.1,9.62 1.73,14.6 -17.82,-0.13 -35.61,-0.25 -53.49,-0.37 0.12,7.71 0.19,15.64 0.31,23.82l-2.22 0c-8.15,-13.03 -17.15,-25.5 -26.89,-37.34zm-25.63 -28.09l26.75 0.27c-0.19,4.29 -0.37,8.64 -0.61,13.06l-13.4 -0.13c-3.8,-4.17 -7.76,-8.27 -11.78,-12.27l-0.96 -0.93zm24.55 26.77l1.01 0 -0.05 1.17 -0.96 -1.17zm29.29 -26.18c17.4,0.14 34.83,0.36 52.13,0.51 17.2,0.17 28.99,-1.39 35.46,-4.66 6.29,-3.27 8.71,-7.88 7.42,-13.67 -0.93,-4.07 -3.74,-7.54 -8.33,-10.42 -4.51,-2.83 -10.07,-4.78 -16.59,-5.71 -4.2,-0.61 -11.91,-1 -23.01,-1.1 -15.84,-0.24 -31.71,-0.44 -47.59,-0.66 0.14,11.25 0.34,23.14 0.51,35.71z"/>
 </g>
</svg>
