<?xml version="1.0" encoding="UTF-8"?>
<!DOCTYPE svg PUBLIC "-//W3C//DTD SVG 1.1//EN" "http://www.w3.org/Graphics/SVG/1.1/DTD/svg11.dtd">
<!-- Creator: CorelDRAW 2017 -->
<svg xmlns="http://www.w3.org/2000/svg" xml:space="preserve" width="1951px" height="2495px" version="1.1" style="shape-rendering:geometricPrecision; text-rendering:geometricPrecision; image-rendering:optimizeQuality; fill-rule:evenodd; clip-rule:evenodd"
viewBox="0 0 425.95 544.73"
 xmlns:xlink="http://www.w3.org/1999/xlink">
 <defs>
  <style type="text/css">
   <![CDATA[
    .fil0 {fill:white}
   ]]>
  </style>
 </defs>
 <g id="Слой_x0020_1">
  <metadata id="CorelCorpID_0Corel-Layer"/>
  <path class="fil0" d="M156.58 239.93c-56.55,42.24 3,15.06 -91.69,53.89 -49.44,20.28 -65.2,24.37 -64.89,83.4l103.95 -0.02c12.11,-50.75 57.75,-88.49 112.2,-88.49 54.47,0 100.11,37.75 112.21,88.51l97.53 0.02c0.28,-44.69 2.21,-56.04 -64.75,-83.42 -91.8,-37.53 -35.13,-10.82 -91.73,-53.83 13.97,-73.8 43.82,-44.89 36.05,-101.45 -2.43,-17.74 0.73,-22.87 1.88,-42.39 3.72,-63.32 -32.21,-96.11 -94.32,-96.15 -122.83,-0.09 -88.82,112.16 -91.96,135.29 -8.67,63.75 22.08,28.61 35.52,104.64zm58.62 69.6c-46.44,0 -84.1,38.03 -84.1,84.95 0,46.91 37.66,84.94 84.1,84.94 9.87,0 19.33,-1.72 28.12,-4.87l32.41 66.17c2.52,5.15 8.51,3.87 14.29,3.87l0 0c5.77,0 6.36,-9.26 3.83,-14.43l-31.8 -65.12c22.48,-15.25 37.27,-41.16 37.27,-70.56 0,-46.92 -37.66,-84.95 -84.12,-84.95zm0 18.2c-36.49,0 -66.08,29.88 -66.08,66.75 0,36.86 29.59,66.74 66.08,66.74 36.5,0 66.09,-29.88 66.09,-66.74 0,-36.87 -29.59,-66.75 -66.09,-66.75z"/>
 </g>
</svg>
