<?xml version="1.0" encoding="UTF-8"?>
<!DOCTYPE svg PUBLIC "-//W3C//DTD SVG 1.1//EN" "http://www.w3.org/Graphics/SVG/1.1/DTD/svg11.dtd">
<!-- Creator: CorelDRAW 2017 -->
<svg xmlns="http://www.w3.org/2000/svg" xml:space="preserve" width="4.4524mm" height="3.333mm" version="1.1" style="shape-rendering:geometricPrecision; text-rendering:geometricPrecision; image-rendering:optimizeQuality; fill-rule:evenodd; clip-rule:evenodd"
viewBox="0 0 2.11 1.58"
 xmlns:xlink="http://www.w3.org/1999/xlink">
 <defs>
  <style type="text/css">
   <![CDATA[
    .fil0 {fill:none}
    .fil1 {fill:#8FD6F1}
   ]]>
  </style>
 </defs>
 <g id="Слой_x0020_1">
  <metadata id="CorelCorpID_0Corel-Layer"/>
  <rect class="fil0" x="0.01" y="0" width="2.09" height="1.58"/>
  <path class="fil1" d="M-0 0.63l1.06 -0.5 1.05 0.5 -1.06 0.49 -0.58 -0.27 0.68 -0.32 -0.11 -0.06 -0.68 0.32 -0.36 -0.17zm0.54 0.45c0,0.11 -0.01,0.14 0.04,0.23 0.06,0.11 0.18,0.18 0.28,0.22 0.17,0.06 0.22,0.06 0.39,0 0.11,-0.04 0.22,-0.11 0.28,-0.22 0.05,-0.08 0.04,-0.13 0.04,-0.24l-0 -0.12c-0.08,0.03 -0.49,0.24 -0.52,0.24 -0.03,0 -0.44,-0.21 -0.52,-0.24l-0 0.13zm-0.17 -0.28l0.11 0.05 0 0.69 -0.06 -0.11 -0.06 0.05 -0 -0.69z"/>
 </g>
</svg>
