<svg width="16" height="17" viewBox="0 0 56 57" fill="none" xmlns="http://www.w3.org/2000/svg"><path fill-rule="evenodd" clip-rule="evenodd" d="M38.684 24.328v2.235c-.086-.258-.086-.602-.086-.946v-.172c0-.344 0-.688.086-1.117zM38.77 23.468v3.869l-.086-.43v-3.095c.086-.086.086-.172.086-.344z" fill="#B8E0ED"/><path fill-rule="evenodd" clip-rule="evenodd" d="M38.855 23.124v4.556l-.085-.344v-3.868c0-.086.085-.172.085-.344zM38.942 22.866v5.158l-.086-.344v-4.556c0-.086 0-.172.086-.258zM39.028 22.35v6.362l-.086-.344v-5.76l.086-.257zM39.114 22.179v6.963l-.086-.43v-6.361c0-.086.086-.086.086-.172zM39.2 21.92v7.566l-.086-.344v-6.963l.086-.258z" fill="#B8E0ED"/><path fill-rule="evenodd" clip-rule="evenodd" d="M39.286 21.749v8.08l-.086-.343V21.92l.086-.172zM39.372 21.405v9.112l-.086-.343v-8.597l.086-.172zM39.458 21.233v9.628l-.086-.344v-9.112l.086-.172zM39.544 21.147v10.144l-.086-.43v-9.628l.086-.086zM39.63 20.803V31.98l-.086-.344v-10.66l.086-.172zM39.716 20.717v11.605l-.086-.343V20.803l.086-.086zM39.802 20.545v12.207l-.086-.43V20.717l.086-.172zM39.888 20.373v13.153l-.086-.43V20.46l.086-.087zM39.974 20.202V33.87l-.086-.344V20.374l.086-.172zM40.06 20.116V34.3l-.085-.43V20.202l.086-.086z" fill="#BBE1ED"/><path fill-rule="evenodd" clip-rule="evenodd" d="M40.147 19.943v15.13l-.087-.43V20.03l.087-.086zM40.233 19.771v15.732l-.086-.43v-15.13l.086-.172z" fill="#BBE1ED"/><path fill-rule="evenodd" clip-rule="evenodd" d="M40.318 19.686v16.247l-.086-.43V19.77l.086-.085zM40.404 19.6v16.849l-.086-.516V19.686l.086-.086zM40.49 19.428v17.966l-.085-.515V19.514l.086-.086z" fill="#BBE1ED"/><path fill-rule="evenodd" clip-rule="evenodd" d="M40.577 19.342v18.654l-.086-.602V19.428l.086-.086zM40.663 19.256v19.256c-.086-.172-.086-.344-.086-.516V19.342l.086-.086zM40.749 19.084v20.89c0-.259 0-.516-.086-.774V19.17l.086-.086zM40.835 19.084v21.749c0-.344-.086-.602-.086-.86V19.084h.086zM40.92 18.998V41.95c-.085-.43-.085-.773-.085-1.117V19.084l.086-.086zM41.007 18.826v22.609c0 .258 0 .515-.086.773V18.912l.086-.086zM41.093 18.74V40.92c0 .172-.086.344-.086.516V18.826l.086-.086zM41.179 18.654v21.921c-.086.086-.086.258-.086.344V18.74l.086-.086zM41.265 18.654v21.663c-.086.086-.086.172-.086.258v-21.92h.086z" fill="#BDE2F0"/><path fill-rule="evenodd" clip-rule="evenodd" d="M41.351 18.482v21.32c0 .086 0 .172-.086.172V18.568l.086-.086zM41.437 18.482v21.062c0 .086-.086.172-.086.258v-21.32h.086zM41.523 18.396v20.976c-.086.086-.086.172-.086.172V18.483l.086-.087zM41.609 18.31v20.718l-.086.172V18.31h.086zM41.695 18.225v20.717l-.086.086V18.31l.086-.086zM41.781 18.139V38.77l-.086.172V18.225l.086-.086zM41.867 18.052v20.46l-.086.172V18.138l.086-.086zM41.953 18.052v20.374l-.086.086v-20.46h.086z" fill="#C0E3F0"/><path fill-rule="evenodd" clip-rule="evenodd" d="M42.04 17.966v20.288l-.087.172V18.052l.086-.086zM42.126 17.88v20.202l-.086.086V17.966l.086-.086z" fill="#C0E3F0"/><path fill-rule="evenodd" clip-rule="evenodd" d="M42.212 17.88v20.116l-.087.086V17.88h.087z" fill="#C0E3F0"/><path fill-rule="evenodd" clip-rule="evenodd" d="M42.297 17.794V37.91l-.086.086V17.88l.086-.086zM42.383 17.794v20.03l-.086.086V17.794h.086z" fill="#C0E3F0"/><path fill-rule="evenodd" clip-rule="evenodd" d="M42.47 17.709v19.943l-.086.086v-20.03h.086zM42.556 17.623v19.943l-.086.086V17.708l.086-.085zM42.642 17.623V37.48h-.086v.086-19.943h.086z" fill="#BFE4F1"/><path fill-rule="evenodd" clip-rule="evenodd" d="M42.728 17.537v19.771l-.086.086V17.537h.086zM42.814 17.537v19.685l-.086.086V17.537h.086zM42.9 17.45v19.772h-.086V17.537l.086-.086zM42.986 17.45v19.6l-.086.087V17.45h.086zM43.072 17.365v19.6l-.086.085v-19.6l.086-.085zM43.158 17.365v19.6h-.086v-19.6h.086zM43.244 17.365v19.514l-.086.086v-19.6h.086zM43.33 17.279v19.514h-.086V17.279h.086zM43.416 17.279v19.428l-.086.086V17.279h.086zM43.502 17.193v19.514h-.086V17.279l.086-.086z" fill="#C2E5F1"/><path fill-rule="evenodd" clip-rule="evenodd" d="M43.588 17.193v19.342l-.086.086V17.193h.086zM43.674 17.193v19.342h-.086V17.193h.086zM43.76 17.107v19.342l-.086.086V17.107h.086zM43.846 17.107v19.256l-.086.086V17.107h.086zM43.933 17.107v19.256h-.086V17.107h.086zM44.019 17.021v19.256l-.086.086V17.107l.086-.086zM44.105 17.021v19.256h-.086V17.021h.086zM44.19 17.021v19.17h-.085v-19.17h.086z" fill="#C4E5F2"/><path fill-rule="evenodd" clip-rule="evenodd" d="M44.276 16.935v19.17l-.086.086v-19.17l.086-.086zM44.363 16.935v19.17h-.086v-19.17h.086zM44.449 16.935V36.02h-.086V16.935h.086zM44.535 16.935v18.998l-.086.086V16.935h.086z" fill="#C4E5F2"/><path fill-rule="evenodd" clip-rule="evenodd" d="M44.62 16.85v19.083h-.085V16.935l.086-.086zM44.707 16.85v18.997h-.086V16.85h.086zM44.793 16.85v18.997h-.086V16.85h.086zM44.879 16.85V35.76l-.086.086V16.85h.086zM44.965 16.763v18.912l-.086.086V16.849l.086-.086zM45.051 16.763v18.912h-.086V16.763h.086zM45.137 16.763v18.826l-.086.086V16.763h.086zM45.223 16.763v18.826h-.086V16.763h.086zM45.31 16.763v18.74l-.087.086V16.763h.086z" fill="#C7E7F4"/><path fill-rule="evenodd" clip-rule="evenodd" d="M45.395 16.763v18.74h-.086v-18.74h.086zM45.481 16.763v18.654l-.086.086v-18.74h.086zM45.567 16.677V35.33l-.086.086V16.763l.086-.086z" fill="#C7E7F4"/><path fill-rule="evenodd" clip-rule="evenodd" d="M45.653 16.677V35.33h-.086V16.677h.086zM45.74 16.677V35.33h-.087V16.677h.086zM45.826 16.677v18.568h-.086V16.677h.086zM45.912 16.677v18.482l-.086.086V16.677h.086zM45.998 16.677v18.482h-.086V16.677h.086zM46.084 16.677v18.482h-.086V16.677h.086zM46.17 16.677v18.396h-.086V16.677h.086zM46.256 16.677v18.396h-.086V16.677h.086zM46.342 16.677v18.31l-.086.086V16.677h.086zM46.428 16.677V34.9l-.086.086v-18.31h.086zM46.514 16.677V34.9h-.086V16.677h.086zM46.6 16.677V34.9h-.086V16.677h.086z" fill="#C9E7F4"/><path fill-rule="evenodd" clip-rule="evenodd" d="M46.686 16.677v18.138H46.6V16.677h.086zM46.772 16.677v18.138h-.086V16.677h.086zM46.858 16.677v18.052l-.086.086V16.677h.086z" fill="#CBE8F4"/><path fill-rule="evenodd" clip-rule="evenodd" d="M46.944 16.677v18.052h-.086V16.677h.086zM47.03 16.677v17.966l-.086.086V16.677h.086zM47.116 16.677v17.966h-.086V16.677h.086zM47.202 16.677v17.88l-.086.086V16.677h.086zM47.289 16.677v17.88h-.086v-17.88h.086zM47.374 16.677V34.47l-.085.086v-17.88h.085zM47.46 16.677V34.47h-.086V16.677h.087z" fill="#CBE9F6"/><path fill-rule="evenodd" clip-rule="evenodd" d="M47.546 16.677v17.708l-.086.086V16.677h.086zM47.632 16.677v17.708h-.086V16.677h.086zM47.719 16.677v17.708h-.086V16.677h.086zM47.805 16.677v17.622h-.086V16.677h.086zM47.89 16.763v17.536h-.085V16.677l.086.086zM47.977 16.763v17.45l-.086.086V16.763h.086zM48.063 16.763v17.45h-.086v-17.45h.086z" fill="#CBE9F6"/><path fill-rule="evenodd" clip-rule="evenodd" d="M48.149 16.763v17.364l-.086.086v-17.45h.086zM48.235 16.763v17.364h-.086V16.763h.086zM48.32 16.763v17.364h-.085V16.763h.086zM48.407 16.849V34.04h-.086V16.764l.086.086zM48.493 16.85v17.192h-.086V16.849h.086z" fill="#CDE9F6"/><path fill-rule="evenodd" clip-rule="evenodd" d="M48.58 16.85v17.192h-.087V16.849h.086z" fill="#CDE9F6"/><path fill-rule="evenodd" clip-rule="evenodd" d="M48.665 16.85v17.106h-.086V16.849h.086zM48.751 16.85v17.106h-.086V16.849h.086zM48.837 16.935V33.87l-.086.086V16.849l.086.086z" fill="#CDE9F8"/><path fill-rule="evenodd" clip-rule="evenodd" d="M48.923 16.935V33.87h-.086V16.935h.086z" fill="#D0EAF8"/><path fill-rule="evenodd" clip-rule="evenodd" d="M49.01 16.935v16.849l-.087.086V16.935h.086z" fill="#D0EAF8"/><path fill-rule="evenodd" clip-rule="evenodd" d="M49.095 16.935v16.849h-.086V16.935h.086zM49.182 17.021v16.763h-.086V16.935l.086.086zM49.268 17.021v16.677h-.086V17.021h.086zM49.353 17.021v16.677h-.085V17.021h.085z" fill="#D0EAF8"/><path fill-rule="evenodd" clip-rule="evenodd" d="M49.44 17.107v16.591h-.087V17.021l.087.086zM49.525 17.107v16.505h-.085V17.107h.085zM49.612 17.107v16.505h-.086V17.107h.086zM49.698 17.193v16.333l-.086.086V17.107l.086.086zM49.784 17.193v16.333h-.086V17.193h.086zM49.87 17.193v16.333h-.086V17.193h.086zM49.956 17.279V33.44l-.086.086V17.193l.086.086zM50.042 17.279V33.44h-.086V17.28h.086zM50.128 17.365v15.99l-.086.085V17.28l.086.086z" fill="#D0EAF8"/><path fill-rule="evenodd" clip-rule="evenodd" d="M50.214 17.365v15.99h-.086v-15.99h.086zM50.3 17.365v15.99h-.086v-15.99h.086zM50.386 17.45v15.818H50.3V17.451h.086zM50.472 17.45v15.818h-.086V17.451h.086zM50.558 17.537v15.645l-.086.086V17.451l.086.086zM50.644 17.537v15.56l-.086.085V17.537h.086z" fill="#D2EBF8"/><path fill-rule="evenodd" clip-rule="evenodd" d="M50.73 17.623v15.473h-.086v-15.56l.086.087zM50.816 17.623v15.473h-.086V17.623h.086zM50.902 17.709V33.01l-.086.086V17.623l.086.085zM50.988 17.709v15.215l-.086.086V17.71h.086zM51.074 17.794v15.13h-.086V17.71l.086.085zM51.16 17.794v15.13h-.085v-15.13h.086zM51.247 17.88v14.958h-.086V17.88h.086zM51.333 17.966v14.786l-.086.086V17.88l.086.086zM51.419 17.966v14.786h-.086V17.966h.086zM51.504 18.052v14.614h-.085V18.052h.085zM51.59 18.138V32.58l-.085.086V18.052l.086.086zM51.677 18.139V32.58h-.086V18.139h.086zM51.763 18.225v14.27h-.086v-14.27h.086zM51.849 18.31V32.41l-.086.086v-14.27l.086.086zM51.935 18.31V32.41h-.086V18.31h.086zM52.021 18.396v13.927l-.086.086V18.31l.086.085z" fill="#D4ECFA"/><path fill-rule="evenodd" clip-rule="evenodd" d="M52.107 18.483v13.754h-.086v-13.84l.086.086zM52.193 18.482v13.669l-.086.086V18.482h.086zM52.28 18.568v13.583h-.087V18.482l.086.086z" fill="#D7EDFA"/><path fill-rule="evenodd" clip-rule="evenodd" d="M52.365 18.654V31.98l-.086.086v-13.41h.086zM52.451 18.74V31.98h-.086V18.654l.086.086zM52.537 18.826v13.067l-.086.086V18.74l.086.086zM52.623 18.912v12.895h-.086v-12.98l.086.085zM52.71 18.998v12.723l-.087.086V18.912l.087.086z" fill="#D7EEFC"/><path fill-rule="evenodd" clip-rule="evenodd" d="M52.795 18.998v12.637l-.086.086V18.998h.086zM52.881 19.084v12.465l-.086.086V18.998l.086.086z" fill="#D7EEFC"/><path fill-rule="evenodd" clip-rule="evenodd" d="M52.967 19.256v12.207l-.086.086v-12.38l.086.087zM53.054 19.256v12.12l-.086.087V19.256h.086zM53.14 19.342V31.29l-.086.086V19.256l.086.086zM53.226 19.514v11.69l-.086.087V19.428l.086.086zM53.312 19.6v11.519l-.086.086V19.514l.086.086zM53.398 19.686v11.347l-.086.086v-11.52l.086.087zM53.484 19.771v11.09l-.086.086V19.686l.086.085zM53.57 19.857v10.918l-.086.086V19.77l.086.086zM53.656 19.943V30.69l-.086.086V19.857l.086.086zM53.742 20.116v10.401l-.086.086V20.03l.086.086zM53.828 20.202v10.23l-.086.085V20.116l.086.086zM53.914 20.288v10.057l-.086.086v-10.23l.086.087z" fill="#D8EEFC"/><path fill-rule="evenodd" clip-rule="evenodd" d="M54 20.46v9.8l-.086.085V20.288l.086.171zM54.086 20.631v9.456l-.086.086v-9.628l.086.086zM54.172 20.717v9.199l-.086.171v-9.456l.086.086zM54.258 20.803v9.026l-.086.087v-9.199l.086.086zM54.344 21.061v8.51l-.086.172v-8.768l.086.086zM54.43 21.147v8.338l-.086.087V21.06l.086.086z" fill="#DBF0FC"/><path fill-rule="evenodd" clip-rule="evenodd" d="M54.517 21.319v8.08l-.086.086v-8.338l.086.172zM54.603 21.577v7.565l-.086.086v-7.823l.086.172z" fill="#DCF0FC"/><path fill-rule="evenodd" clip-rule="evenodd" d="M54.688 21.75v7.22l-.086.172v-7.565l.087.172z" fill="#DCF0FC"/><path fill-rule="evenodd" clip-rule="evenodd" d="M54.774 21.835v6.963l-.086.172v-7.221l.086.086zM54.86 22.007v6.62l-.086.171v-6.963l.086.172zM54.947 22.35v5.932l-.086.172V22.18l.086.172zM55.033 22.523v5.587l-.086.172v-5.931c0 .086.086.172.086.172zM55.119 22.78v5.158c-.086.086-.086.086-.086.172v-5.587c0 .085 0 .171.086.257zM55.205 23.21v4.212c0 .086 0 .172-.086.258v-4.728c.086.086.086.172.086.258zM55.291 23.468v3.697c0 .086-.086.172-.086.258V23.21c0 .086.086.172.086.258zM55.377 23.812v3.009c-.086.172-.086.258-.086.344v-3.697c0 .172 0 .258.086.344zM55.377 26.39v-2.148c.086.344.086.687.086 1.031 0 .43 0 .774-.086 1.118z" fill="#DCF0FC"/><path fill-rule="evenodd" clip-rule="evenodd" d="M30.509 48.484l1.204 1.203a7.97 7.97 0 01-1.204-1.203zM30.337 48.226l1.635 1.633c-.086-.086-.172-.172-.258-.172l-1.205-1.203c0-.087-.086-.172-.172-.258z" fill="#489ED7"/><path fill-rule="evenodd" clip-rule="evenodd" d="M30.165 47.968l2.065 2.063c-.086-.086-.172-.086-.258-.172l-1.635-1.633c0-.086-.086-.172-.172-.258z" fill="#489ED7"/><path fill-rule="evenodd" clip-rule="evenodd" d="M30.079 47.796l2.323 2.32c-.086-.085-.172-.085-.172-.085l-2.065-2.063s0-.086-.086-.172z" fill="#489ED7"/><path fill-rule="evenodd" clip-rule="evenodd" d="M29.993 47.624l2.581 2.579c-.086 0-.086-.086-.172-.086l-2.323-2.321c0-.086 0-.086-.086-.172z" fill="#489ED7"/><path fill-rule="evenodd" clip-rule="evenodd" d="M29.907 47.452l2.84 2.837c-.087 0-.087-.086-.173-.086l-2.581-2.579c0-.086 0-.086-.086-.172z" fill="#489ED7"/><path fill-rule="evenodd" clip-rule="evenodd" d="M29.82 47.28l3.099 3.095-.173-.086-2.84-2.837s0-.086-.085-.172z" fill="#489ED7"/><path fill-rule="evenodd" clip-rule="evenodd" d="M29.82 47.194l3.185 3.181h-.086L29.82 47.28v-.086z" fill="#489ED7"/><path fill-rule="evenodd" clip-rule="evenodd" d="M29.734 47.023l3.442 3.438-.172-.086-3.184-3.18-.086-.172z" fill="#489ED7"/><path fill-rule="evenodd" clip-rule="evenodd" d="M29.734 46.937l3.528 3.61-.086-.086-3.442-3.438v-.087zM29.648 46.765l3.787 3.782h-.172l-3.528-3.61-.087-.172z" fill="#479FD8"/><path fill-rule="evenodd" clip-rule="evenodd" d="M29.648 46.679l3.873 3.868h-.086l-3.787-3.782v-.086zM29.563 46.593l4.13 4.04-.172-.086-3.872-3.868-.087-.086z" fill="#479FD8"/><path fill-rule="evenodd" clip-rule="evenodd" d="M29.563 46.42l4.216 4.213h-.086l-4.13-4.04v-.172z" fill="#479FD8"/><path fill-rule="evenodd" clip-rule="evenodd" d="M29.563 46.334l4.302 4.299h-.086l-4.217-4.213v-.086z" fill="#479FD8"/><path fill-rule="evenodd" clip-rule="evenodd" d="M29.563 46.248l4.388 4.47-.086-.085-4.303-4.299v-.086z" fill="#479FD8"/><path fill-rule="evenodd" clip-rule="evenodd" d="M29.477 46.163l4.646 4.556h-.172l-4.388-4.47-.086-.086z" fill="#479FD8"/><path fill-rule="evenodd" clip-rule="evenodd" d="M29.477 45.99l4.732 4.729h-.086l-4.646-4.556v-.172z" fill="#46A0D9"/><path fill-rule="evenodd" clip-rule="evenodd" d="M29.477 45.905l4.818 4.814h-.086l-4.732-4.728v-.086zM29.477 45.819l4.904 4.986-.086-.086-4.818-4.814v-.086z" fill="#46A0D9"/><path fill-rule="evenodd" clip-rule="evenodd" d="M29.477 45.733l4.99 5.072h-.086l-4.904-4.986v-.086z" fill="#46A0D9"/><path fill-rule="evenodd" clip-rule="evenodd" d="M29.477 45.647l5.076 5.158h-.086l-4.99-5.072v-.086z" fill="#4BA1D9"/><path fill-rule="evenodd" clip-rule="evenodd" d="M29.39 45.561l5.25 5.244h-.087l-5.077-5.158-.086-.086z" fill="#4BA1D9"/><path fill-rule="evenodd" clip-rule="evenodd" d="M29.39 45.475l5.421 5.33h-.172L29.39 45.56v-.086z" fill="#4BA1D9"/><path fill-rule="evenodd" clip-rule="evenodd" d="M29.39 45.39l5.507 5.415h-.086l-5.42-5.33v-.086z" fill="#4BA1D9"/><path fill-rule="evenodd" clip-rule="evenodd" d="M29.39 45.303l5.593 5.502h-.086l-5.507-5.416v-.086z" fill="#4AA3DA"/><path fill-rule="evenodd" clip-rule="evenodd" d="M29.39 45.217l5.68 5.588h-.087l-5.593-5.502v-.086zM29.39 45.13l5.765 5.674h-.086l-5.679-5.587v-.086z" fill="#4AA3DA"/><path fill-rule="evenodd" clip-rule="evenodd" d="M29.39 45.045l5.851 5.76h-.086L29.39 45.13v-.086zM29.39 44.959l5.851 5.845-5.85-5.76v-.085z" fill="#4AA3DA"/><path fill-rule="evenodd" clip-rule="evenodd" d="M29.39 44.873l5.938 5.932h-.087l-5.85-5.846v-.086z" fill="#4AA3DA"/><path fill-rule="evenodd" clip-rule="evenodd" d="M29.39 44.787l6.023 6.018h-.085l-5.938-5.932v-.086z" fill="#4AA3DA"/><path fill-rule="evenodd" clip-rule="evenodd" d="M29.476 44.701l6.024 6.104h-.087l-6.023-6.018.086-.086z" fill="#4AA3DA"/><path fill-rule="evenodd" clip-rule="evenodd" d="M29.477 44.615l6.109 6.19H35.5L29.477 44.7v-.086z" fill="#49A4DB"/><path fill-rule="evenodd" clip-rule="evenodd" d="M29.477 44.615l6.195 6.19h-.086l-6.11-6.19zM29.477 44.53l6.281 6.275h-.086l-6.195-6.19v-.086zM29.477 44.443l6.367 6.362h-.086l-6.281-6.276v-.086z" fill="#49A4DB"/><path fill-rule="evenodd" clip-rule="evenodd" d="M29.477 44.357l6.453 6.448h-.086l-6.367-6.362v-.086z" fill="#4DA6DD"/><path fill-rule="evenodd" clip-rule="evenodd" d="M29.477 44.272l6.54 6.533h-.087l-6.453-6.447v-.086zM29.477 44.185l6.54 6.534v.086l-6.54-6.533v-.087z" fill="#4DA6DD"/><path fill-rule="evenodd" clip-rule="evenodd" d="M29.477 44.185l6.625 6.534h-.086l-6.54-6.534z" fill="#4DA6DD"/><path fill-rule="evenodd" clip-rule="evenodd" d="M29.563 44.1l6.625 6.619h-.086l-6.625-6.533.086-.086zM29.563 44.014l6.711 6.705h-.086l-6.626-6.62v-.085z" fill="#4DA6DD"/><path fill-rule="evenodd" clip-rule="evenodd" d="M29.563 43.928l6.797 6.79h-.086l-6.712-6.704v-.086z" fill="#4DA6DD"/><path fill-rule="evenodd" clip-rule="evenodd" d="M29.563 43.842l6.883 6.877h-.086l-6.797-6.791v-.086z" fill="#4DA6DD"/><path fill-rule="evenodd" clip-rule="evenodd" d="M29.563 43.842l6.883 6.791v.086l-6.883-6.877z" fill="#4CA8DE"/><path fill-rule="evenodd" clip-rule="evenodd" d="M29.649 43.756l6.883 6.877h-.086l-6.883-6.791.086-.086z" fill="#4CA8DE"/><path fill-rule="evenodd" clip-rule="evenodd" d="M29.648 43.67l6.97 6.963h-.086l-6.884-6.877v-.086z" fill="#4CA8DE"/><path fill-rule="evenodd" clip-rule="evenodd" d="M29.648 43.584l7.056 7.05h-.086l-6.97-6.964v-.086zM29.648 43.584l7.056 7.05-7.056-7.05z" fill="#4CA8DE"/><path fill-rule="evenodd" clip-rule="evenodd" d="M29.648 43.498l7.143 7.05-.087.085-7.056-7.049v-.086z" fill="#4CA8DE"/><path fill-rule="evenodd" clip-rule="evenodd" d="M29.735 43.412l7.142 7.135h-.087l-7.142-7.049.087-.086z" fill="#4BA8DE"/><path fill-rule="evenodd" clip-rule="evenodd" d="M29.734 43.326l7.228 7.221h-.086l-7.142-7.135v-.086z" fill="#4BA8DE"/><path fill-rule="evenodd" clip-rule="evenodd" d="M29.734 43.326l7.228 7.221-7.228-7.22z" fill="#4FA9DF"/><path fill-rule="evenodd" clip-rule="evenodd" d="M29.734 43.24l7.314 7.307h-.086l-7.228-7.22v-.087z" fill="#4FA9DF"/><path fill-rule="evenodd" clip-rule="evenodd" d="M29.82 43.154l7.315 7.307-.087.086-7.314-7.307.086-.086zM29.82 43.154l7.401 7.307h-.086l-7.314-7.307zM29.82 43.068l7.401 7.393-7.4-7.307v-.086z" fill="#4FA9DF"/><path fill-rule="evenodd" clip-rule="evenodd" d="M29.907 42.982l7.4 7.479h-.086l-7.4-7.393.086-.086z" fill="#4FA9DF"/><path fill-rule="evenodd" clip-rule="evenodd" d="M29.907 42.896l7.486 7.479-.086.086-7.4-7.479v-.086zM29.907 42.896l7.486 7.479-7.486-7.479z" fill="#4EABE0"/><path fill-rule="evenodd" clip-rule="evenodd" d="M29.907 42.81l7.572 7.565h-.086l-7.486-7.479v-.086zM29.993 42.724l7.572 7.565-.086.086-7.572-7.565.086-.086zM29.993 42.724l7.572 7.565-7.572-7.565z" fill="#4EABE0"/><path fill-rule="evenodd" clip-rule="evenodd" d="M29.993 42.638l7.658 7.651h-.086l-7.572-7.565v-.086z" fill="#4EABE0"/><path fill-rule="evenodd" clip-rule="evenodd" d="M30.079 42.552l7.658 7.651-.086.086-7.658-7.65.086-.087z" fill="#4DACE1"/><path fill-rule="evenodd" clip-rule="evenodd" d="M30.079 42.552l7.658 7.651-7.658-7.65z" fill="#4DACE1"/><path fill-rule="evenodd" clip-rule="evenodd" d="M30.079 42.466l7.744 7.737h-.086l-7.658-7.65v-.087z" fill="#4DACE1"/><path fill-rule="evenodd" clip-rule="evenodd" d="M30.165 42.466l7.744 7.651-.086.086-7.744-7.737h.086z" fill="#4DACE1"/><path fill-rule="evenodd" clip-rule="evenodd" d="M30.165 42.38l7.744 7.737-7.744-7.65v-.087zM30.165 42.294l7.83 7.823h-.086l-7.744-7.737v-.086zM30.251 42.294l7.744 7.737v.086l-7.83-7.823h.086z" fill="#4DACE1"/><path fill-rule="evenodd" clip-rule="evenodd" d="M30.251 42.209l7.83 7.822h-.086l-7.744-7.736v-.087z" fill="#4DACE1"/><path fill-rule="evenodd" clip-rule="evenodd" d="M30.251 42.123l7.916 7.908h-.086l-7.83-7.822v-.086z" fill="#51AEE2"/><path fill-rule="evenodd" clip-rule="evenodd" d="M30.337 42.123l7.83 7.822v.086l-7.916-7.908h.086zM30.337 42.036l7.916 7.909h-.086l-7.83-7.823v-.086z" fill="#51AEE2"/><path fill-rule="evenodd" clip-rule="evenodd" d="M30.423 42.036l7.916 7.909h-.086l-7.916-7.909h.086z" fill="#51AEE2"/><path fill-rule="evenodd" clip-rule="evenodd" d="M30.423 41.95l7.916 7.909v.086l-7.916-7.909v-.086zM30.423 41.864l8.002 7.995h-.086l-7.916-7.909v-.086z" fill="#51AEE2"/><path fill-rule="evenodd" clip-rule="evenodd" d="M30.509 41.864l7.916 7.909v.086l-8.002-7.995h.086zM30.509 41.778l8.002 7.995h-.086l-7.916-7.909v-.086zM30.509 41.778l8.002 7.995-8.002-7.995z" fill="#51AEE2"/><path fill-rule="evenodd" clip-rule="evenodd" d="M30.595 41.692l8.002 7.995-.086.086-8.002-7.995.086-.086z" fill="#51AEE2"/><path fill-rule="evenodd" clip-rule="evenodd" d="M30.595 41.692l8.089 7.995h-.086l-8.003-7.995z" fill="#50AFE3"/><path fill-rule="evenodd" clip-rule="evenodd" d="M30.681 41.606l8.003 7.995v.086l-8.089-7.995.086-.086zM30.681 41.52l8.089 8.081h-.086l-8.003-7.995v-.086z" fill="#50AFE3"/><path fill-rule="evenodd" clip-rule="evenodd" d="M30.681 41.52l8.089 8.081-8.089-8.08z" fill="#50AFE3"/><path fill-rule="evenodd" clip-rule="evenodd" d="M30.767 41.435l8.089 8.08-.086.086-8.089-8.08.086-.086z" fill="#50AFE3"/><path fill-rule="evenodd" clip-rule="evenodd" d="M30.767 41.435l8.089 8.08-8.089-8.08z" fill="#50AFE3"/><path fill-rule="evenodd" clip-rule="evenodd" d="M30.853 41.349l8.089 8.08-.086.086-8.089-8.08.086-.086zM30.853 41.349l8.089 8.08-8.089-8.08z" fill="#53B1E4"/><path fill-rule="evenodd" clip-rule="evenodd" d="M30.94 41.263l8.088 8.08-.086.086-8.089-8.08.086-.086z" fill="#53B1E4"/><path fill-rule="evenodd" clip-rule="evenodd" d="M30.94 41.263l8.088 8.08-8.088-8.08z" fill="#53B1E4"/><path fill-rule="evenodd" clip-rule="evenodd" d="M31.026 41.177l8.088 8.08-.086.086-8.088-8.08.085-.086zM31.025 41.177l8.089 8.08-8.089-8.08z" fill="#53B1E4"/><path fill-rule="evenodd" clip-rule="evenodd" d="M31.025 41.09l8.175 8.167h-.086l-8.089-8.08v-.086z" fill="#53B1E4"/><path fill-rule="evenodd" clip-rule="evenodd" d="M31.111 41.09l8.089 8.081v.086l-8.175-8.166h.086z" fill="#53B1E4"/><path fill-rule="evenodd" clip-rule="evenodd" d="M31.111 41.005l8.175 8.166H39.2l-8.089-8.08v-.086z" fill="#52B2E5"/><path fill-rule="evenodd" clip-rule="evenodd" d="M31.197 41.005l8.089 8.08v.087l-8.175-8.167h.086z" fill="#52B2E5"/><path fill-rule="evenodd" clip-rule="evenodd" d="M31.197 40.919l8.175 8.167h-.086l-8.089-8.081v-.086z" fill="#52B2E5"/><path fill-rule="evenodd" clip-rule="evenodd" d="M31.283 40.919l8.089 8.08v.087l-8.175-8.167h.086z" fill="#52B2E5"/><path fill-rule="evenodd" clip-rule="evenodd" d="M31.283 40.833L39.458 49h-.086l-8.089-8.081v-.086z" fill="#52B2E5"/><path fill-rule="evenodd" clip-rule="evenodd" d="M31.37 40.833l8.088 8.08V49l-8.175-8.167h.086z" fill="#51B4E6"/><path fill-rule="evenodd" clip-rule="evenodd" d="M31.37 40.747l8.174 8.167h-.086l-8.088-8.081v-.086z" fill="#51B4E6"/><path fill-rule="evenodd" clip-rule="evenodd" d="M31.456 40.747l8.088 8.08v.087l-8.174-8.167h.086z" fill="#51B4E6"/><path fill-rule="evenodd" clip-rule="evenodd" d="M31.456 40.661l8.174 8.167h-.086l-8.088-8.08v-.087zM31.542 40.661l8.088 8.08v.087l-8.174-8.167h.086z" fill="#51B4E6"/><path fill-rule="evenodd" clip-rule="evenodd" d="M31.541 40.575l8.09 8.08v.087l-8.09-8.08v-.087z" fill="#51B4E6"/><path fill-rule="evenodd" clip-rule="evenodd" d="M31.628 40.575l8.088 8.08h-.086l-8.089-8.08h.087z" fill="#51B4E6"/><path fill-rule="evenodd" clip-rule="evenodd" d="M31.627 40.49l8.089 8.08v.086l-8.089-8.08v-.087z" fill="#51B4E6"/><path fill-rule="evenodd" clip-rule="evenodd" d="M31.713 40.49l8.09 8.08h-.087l-8.089-8.08h.087z" fill="#55B6E7"/><path fill-rule="evenodd" clip-rule="evenodd" d="M31.713 40.403l8.089 8.081v.086l-8.089-8.08v-.087z" fill="#55B6E7"/><path fill-rule="evenodd" clip-rule="evenodd" d="M31.8 40.403l8.088 8.08h-.086l-8.089-8.08h.086z" fill="#55B6E7"/><path fill-rule="evenodd" clip-rule="evenodd" d="M31.8 40.317l8.088 8.081v.086l-8.088-8.08v-.087z" fill="#55B6E7"/><path fill-rule="evenodd" clip-rule="evenodd" d="M31.886 40.317l8.002 8.081-8.088-8.08h.086z" fill="#54B7E8"/><path fill-rule="evenodd" clip-rule="evenodd" d="M31.886 40.317l8.088 7.995-.086.086-8.002-8.08zM31.972 40.231l8.002 7.995v.086l-8.088-7.995.086-.086z" fill="#54B7E8"/><path fill-rule="evenodd" clip-rule="evenodd" d="M31.972 40.231l8.088 7.995h-.086l-8.002-7.995z" fill="#54B7E8"/><path fill-rule="evenodd" clip-rule="evenodd" d="M32.058 40.145l8.002 7.995v.086l-8.088-7.995.086-.086zM32.058 40.145l8.002 7.995-8.002-7.995z" fill="#54B7E8"/><path fill-rule="evenodd" clip-rule="evenodd" d="M32.144 40.06l8.002 7.994-.086.086-8.002-7.995h.086v-.086zM32.23 40.06l7.917 7.994-8.003-7.995h.086z" fill="#54B7E8"/><path fill-rule="evenodd" clip-rule="evenodd" d="M32.23 40.06l7.916 7.908v.086l-7.916-7.995zM32.316 39.973l7.916 7.909-.086.086-7.916-7.909.086-.086zM32.316 39.973l7.916 7.909-7.916-7.909z" fill="#53B8E9"/><path fill-rule="evenodd" clip-rule="evenodd" d="M32.402 39.887l7.83 7.909v.086l-7.916-7.909.086-.086z" fill="#53B8E9"/><path fill-rule="evenodd" clip-rule="evenodd" d="M32.402 39.887l7.916 7.823-.086.086-7.83-7.909z" fill="#56B9EA"/><path fill-rule="evenodd" clip-rule="evenodd" d="M32.488 39.887l7.83 7.823-7.916-7.823h.086z" fill="#56B9EA"/><path fill-rule="evenodd" clip-rule="evenodd" d="M32.488 39.801l7.83 7.823v.086l-7.83-7.823v-.086zM32.574 39.801l7.83 7.737-.085.086-7.83-7.823h.085z" fill="#55BAEA"/><path fill-rule="evenodd" clip-rule="evenodd" d="M32.574 39.715l7.83 7.823-7.83-7.737v-.086zM32.66 39.715l7.745 7.737v.086l-7.83-7.823h.085z" fill="#55BAEA"/><path fill-rule="evenodd" clip-rule="evenodd" d="M32.746 39.63l7.745 7.822h-.087l-7.744-7.737.086-.086z" fill="#55BAEA"/><path fill-rule="evenodd" clip-rule="evenodd" d="M32.746 39.63l7.744 7.736v.086l-7.744-7.823z" fill="#55BAEA"/><path fill-rule="evenodd" clip-rule="evenodd" d="M32.832 39.63l7.658 7.65v.086l-7.744-7.737h.086z" fill="#55BAEA"/><path fill-rule="evenodd" clip-rule="evenodd" d="M32.832 39.544l7.744 7.65-.086.086-7.658-7.65v-.087z" fill="#55BAEA"/><path fill-rule="evenodd" clip-rule="evenodd" d="M32.918 39.544l7.658 7.65-7.744-7.65h.086zM32.919 39.458l7.658 7.65v.086l-7.658-7.65v-.086zM33.005 39.458l7.572 7.564v.086l-7.658-7.65h.086z" fill="#54BCEB"/><path fill-rule="evenodd" clip-rule="evenodd" d="M33.004 39.458l7.659 7.564h-.086l-7.573-7.564zM33.09 39.372l7.573 7.564v.086l-7.659-7.564.086-.086z" fill="#54BCEB"/><path fill-rule="evenodd" clip-rule="evenodd" d="M33.176 39.372l7.487 7.478v.086l-7.573-7.564h.086z" fill="#54BCEB"/><path fill-rule="evenodd" clip-rule="evenodd" d="M33.176 39.286l7.486 7.564-7.486-7.478v-.086z" fill="#54BCEC"/><path fill-rule="evenodd" clip-rule="evenodd" d="M33.262 39.286l7.486 7.478-.085.086-7.487-7.564h.086zM33.263 39.2l7.486 7.479v.085l-7.486-7.478V39.2zM33.349 39.2l7.4 7.393v.086l-7.486-7.48h.086z" fill="#54BCEC"/><path fill-rule="evenodd" clip-rule="evenodd" d="M33.349 39.2l7.4 7.393-7.4-7.393zM33.435 39.114l7.314 7.393v.086l-7.4-7.393.086-.086z" fill="#59BEEC"/><path fill-rule="evenodd" clip-rule="evenodd" d="M33.435 39.114l7.4 7.307-.086.086-7.314-7.393z" fill="#59BEEC"/><path fill-rule="evenodd" clip-rule="evenodd" d="M33.52 39.028l7.315 7.307v.086l-7.4-7.307.086-.086z" fill="#59BEEC"/><path fill-rule="evenodd" clip-rule="evenodd" d="M33.52 39.028l7.315 7.22v.087l-7.315-7.307z" fill="#58BFED"/><path fill-rule="evenodd" clip-rule="evenodd" d="M33.607 38.942l7.228 7.307-7.315-7.221.087-.086z" fill="#58BFED"/><path fill-rule="evenodd" clip-rule="evenodd" d="M33.693 38.942l7.142 7.22v.087l-7.229-7.307h.087z" fill="#58BFED"/><path fill-rule="evenodd" clip-rule="evenodd" d="M33.693 38.942l7.142 7.135v.086l-7.142-7.221zM33.779 38.855l7.142 7.136-.086.085-7.142-7.135.086-.086zM33.779 38.855l7.142 7.05v.085l-7.142-7.135z" fill="#58BFED"/><path fill-rule="evenodd" clip-rule="evenodd" d="M33.865 38.77l7.056 7.049v.085l-7.142-7.049.086-.085z" fill="#58BFED"/><path fill-rule="evenodd" clip-rule="evenodd" d="M33.865 38.77l7.056 7.049-7.056-7.05z" fill="#58BFED"/><path fill-rule="evenodd" clip-rule="evenodd" d="M33.95 38.684l6.97 7.049v.086l-7.055-7.05.086-.085z" fill="#58C0EE"/><path fill-rule="evenodd" clip-rule="evenodd" d="M33.95 38.684l6.97 6.963v.086l-6.97-7.05z" fill="#58C0EE"/><path fill-rule="evenodd" clip-rule="evenodd" d="M34.037 38.684l6.884 6.877v.086l-6.97-6.963h.086z" fill="#58C0EE"/><path fill-rule="evenodd" clip-rule="evenodd" d="M34.037 38.598l6.884 6.877v.086l-6.884-6.877v-.086z" fill="#58C0EE"/><path fill-rule="evenodd" clip-rule="evenodd" d="M34.123 38.598l6.798 6.79v.087l-6.884-6.877h.086z" fill="#58C0EE"/><path fill-rule="evenodd" clip-rule="evenodd" d="M34.123 38.512l6.798 6.79v.087l-6.798-6.791v-.086z" fill="#58C0EE"/><path fill-rule="evenodd" clip-rule="evenodd" d="M34.21 38.512l6.797 6.705-.086.086-6.798-6.791h.086z" fill="#57C1EF"/><path fill-rule="evenodd" clip-rule="evenodd" d="M34.295 38.426l6.712 6.705v.086l-6.798-6.705.086-.086z" fill="#57C1EF"/><path fill-rule="evenodd" clip-rule="evenodd" d="M34.295 38.426l6.712 6.619v.086l-6.712-6.705z" fill="#57C1EF"/><path fill-rule="evenodd" clip-rule="evenodd" d="M34.381 38.426l6.626 6.619-6.712-6.62h.086z" fill="#57C1EF"/><path fill-rule="evenodd" clip-rule="evenodd" d="M34.381 38.34l6.626 6.62v.085l-6.626-6.62v-.085zM34.467 38.34l6.54 6.533v.086l-6.626-6.62h.086z" fill="#57C1EF"/><path fill-rule="evenodd" clip-rule="evenodd" d="M34.467 38.254l6.54 6.533v.086l-6.54-6.533v-.086z" fill="#57C1EF"/><path fill-rule="evenodd" clip-rule="evenodd" d="M34.553 38.254l6.454 6.447v.086l-6.54-6.533h.086z" fill="#57C1EF"/><path fill-rule="evenodd" clip-rule="evenodd" d="M34.553 38.168l6.368 6.447.086.086-6.454-6.447v-.086z" fill="#57C1EF"/><path fill-rule="evenodd" clip-rule="evenodd" d="M34.64 38.168l6.28 6.361v.086l-6.367-6.447h.086z" fill="#57C1EF"/><path fill-rule="evenodd" clip-rule="evenodd" d="M34.64 38.082l6.28 6.361v.086l-6.28-6.361v-.086z" fill="#5AC3F0"/><path fill-rule="evenodd" clip-rule="evenodd" d="M34.725 38.082l6.196 6.275v.086l-6.282-6.361h.086z" fill="#5AC3F0"/><path fill-rule="evenodd" clip-rule="evenodd" d="M34.725 38.082l6.196 6.103v.172l-6.196-6.275z" fill="#5AC3F0"/><path fill-rule="evenodd" clip-rule="evenodd" d="M34.811 37.996l6.11 6.104v.085l-6.196-6.103.086-.086zM34.812 37.996l6.109 6.018v.085l-6.11-6.103z" fill="#5AC3F0"/><path fill-rule="evenodd" clip-rule="evenodd" d="M34.898 37.91l6.023 6.018v.086l-6.11-6.018.087-.086z" fill="#5AC3F0"/><path fill-rule="evenodd" clip-rule="evenodd" d="M34.983 37.91l5.938 5.932v.086l-6.023-6.018h.085z" fill="#5AC3F0"/><path fill-rule="evenodd" clip-rule="evenodd" d="M34.983 37.824l5.938 5.932v.086l-5.938-5.932v-.086z" fill="#5AC3F0"/><path fill-rule="evenodd" clip-rule="evenodd" d="M35.07 37.824l5.85 5.846v.086l-5.937-5.932h.086zM35.07 37.824l5.85 5.76v.086l-5.85-5.846z" fill="#58C4F1"/><path fill-rule="evenodd" clip-rule="evenodd" d="M35.155 37.738l5.766 5.76v.086l-5.852-5.76.086-.086zM35.156 37.738l5.679 5.674.086.086-5.765-5.76z" fill="#58C4F1"/><path fill-rule="evenodd" clip-rule="evenodd" d="M35.242 37.652l5.593 5.674v.086l-5.68-5.674.087-.086z" fill="#58C4F1"/><path fill-rule="evenodd" clip-rule="evenodd" d="M35.242 37.652l5.593 5.588v.086l-5.593-5.674zM35.328 37.566l5.507 5.502v.172l-5.593-5.588.086-.086zM35.328 37.566l5.507 5.416v.086l-5.507-5.502z" fill="#58C4F1"/><path fill-rule="evenodd" clip-rule="evenodd" d="M35.414 37.48l5.42 5.416v.086l-5.506-5.416.086-.086zM35.414 37.48l5.335 5.33.086.086-5.421-5.416z" fill="#5FC6F1"/><path fill-rule="evenodd" clip-rule="evenodd" d="M35.5 37.395l5.249 5.33v.085l-5.335-5.33.086-.085zM35.5 37.395l5.249 5.243v.086l-5.249-5.33z" fill="#5FC6F1"/><path fill-rule="evenodd" clip-rule="evenodd" d="M35.586 37.395l5.163 5.157v.086L35.5 37.395h.086zM35.586 37.309l5.163 5.072v.171l-5.163-5.157v-.086zM35.672 37.309l4.99 4.986.087.085-5.163-5.071h.086z" fill="#5FC6F1"/><path fill-rule="evenodd" clip-rule="evenodd" d="M35.672 37.223l4.99 4.986v.085l-4.99-4.985v-.086zM35.758 37.223l4.905 4.9v.086l-4.991-4.986h.086z" fill="#5FC6F1"/><path fill-rule="evenodd" clip-rule="evenodd" d="M35.758 37.137l4.905 4.9v.086l-4.905-4.9v-.086z" fill="#5FC6F1"/><path fill-rule="evenodd" clip-rule="evenodd" d="M35.844 37.137l4.733 4.728.086.172-4.905-4.9h.086z" fill="#5FC6F1"/><path fill-rule="evenodd" clip-rule="evenodd" d="M35.844 37.05l4.732 4.729v.086l-4.732-4.728v-.086z" fill="#5FC6F1"/><path fill-rule="evenodd" clip-rule="evenodd" d="M35.93 37.05l4.646 4.643v.086l-4.732-4.728h.086zM35.93 36.965l4.647 4.642v.086L35.93 37.05v-.086z" fill="#5FC6F1"/><path fill-rule="evenodd" clip-rule="evenodd" d="M36.016 36.965l4.475 4.47.086.172-4.647-4.642h.086z" fill="#5FC6F1"/><path fill-rule="evenodd" clip-rule="evenodd" d="M36.016 36.878l4.475 4.47v.087l-4.475-4.47v-.087z" fill="#5FC6F1"/><path fill-rule="evenodd" clip-rule="evenodd" d="M36.102 36.878l4.389 4.385v.086l-4.475-4.47h.086z" fill="#5FC6F1"/><path fill-rule="evenodd" clip-rule="evenodd" d="M36.102 36.878l4.303 4.213.085.172-4.388-4.385z" fill="#5FC6F1"/><path fill-rule="evenodd" clip-rule="evenodd" d="M36.188 36.792l4.216 4.213v.086l-4.302-4.213.086-.086z" fill="#5FC6F1"/><path fill-rule="evenodd" clip-rule="evenodd" d="M36.188 36.792l4.216 4.127v.086l-4.216-4.213z" fill="#5FC6F1"/><path fill-rule="evenodd" clip-rule="evenodd" d="M36.274 36.706l4.044 4.04.086.173-4.216-4.127.086-.086z" fill="#5FC6F1"/><path fill-rule="evenodd" clip-rule="evenodd" d="M36.274 36.706l4.045 3.955v.086l-4.045-4.04z" fill="#63C7F2"/><path fill-rule="evenodd" clip-rule="evenodd" d="M36.36 36.62l3.873 3.955.086.086-4.045-3.954.087-.086z" fill="#63C7F2"/><path fill-rule="evenodd" clip-rule="evenodd" d="M36.36 36.62l3.873 3.783v.172l-3.873-3.954z" fill="#63C7F2"/><path fill-rule="evenodd" clip-rule="evenodd" d="M36.446 36.535l3.787 3.782v.086l-3.873-3.782.086-.086z" fill="#63C7F2"/><path fill-rule="evenodd" clip-rule="evenodd" d="M36.446 36.535l3.7 3.696.086.086-3.786-3.782z" fill="#63C7F2"/><path fill-rule="evenodd" clip-rule="evenodd" d="M36.532 36.449l3.614 3.61v.172l-3.7-3.696.086-.086z" fill="#63C7F2"/><path fill-rule="evenodd" clip-rule="evenodd" d="M36.532 36.449l3.528 3.524.086.086-3.614-3.61zM36.618 36.363L40.06 39.8v.172l-3.528-3.524.086-.086z" fill="#63C7F2"/><path fill-rule="evenodd" clip-rule="evenodd" d="M36.619 36.363l3.355 3.352.087.086-3.442-3.438z" fill="#66C8F2"/><path fill-rule="evenodd" clip-rule="evenodd" d="M36.619 36.277l3.355 3.352v.086l-3.355-3.352v-.086z" fill="#66C8F2"/><path fill-rule="evenodd" clip-rule="evenodd" d="M36.705 36.19l3.184 3.268.085.172-3.355-3.353.086-.086z" fill="#66C8F2"/><path fill-rule="evenodd" clip-rule="evenodd" d="M36.705 36.19l3.183 3.182v.086l-3.183-3.267z" fill="#66C8F2"/><path fill-rule="evenodd" clip-rule="evenodd" d="M36.79 36.105l3.012 3.095.086.172-3.183-3.181.086-.086z" fill="#66C8F2"/><path fill-rule="evenodd" clip-rule="evenodd" d="M36.79 36.105l3.012 3.009v.086l-3.011-3.095z" fill="#66C8F2"/><path fill-rule="evenodd" clip-rule="evenodd" d="M36.877 36.019l2.84 2.923.085.172-3.011-3.009.086-.086z" fill="#66C8F2"/><path fill-rule="evenodd" clip-rule="evenodd" d="M36.877 36.019l2.84 2.837v.086l-2.84-2.923z" fill="#66C8F2"/><path fill-rule="evenodd" clip-rule="evenodd" d="M36.877 35.933l2.753 2.75.086.173-2.84-2.837v-.086z" fill="#66C8F2"/><path fill-rule="evenodd" clip-rule="evenodd" d="M36.962 35.933l2.668 2.579v.172l-2.754-2.75h.087z" fill="#66C8F2"/><path fill-rule="evenodd" clip-rule="evenodd" d="M36.962 35.847l2.582 2.58.086.085-2.668-2.579v-.086z" fill="#66C8F2"/><path fill-rule="evenodd" clip-rule="evenodd" d="M37.048 35.761l2.41 2.493.086.172-2.582-2.579.086-.086zM37.049 35.761l2.41 2.407v.086l-2.41-2.493z" fill="#66C8F2"/><path fill-rule="evenodd" clip-rule="evenodd" d="M37.049 35.675l2.323 2.32.086.173-2.41-2.407v-.086z" fill="#66C8F2"/><path fill-rule="evenodd" clip-rule="evenodd" d="M37.135 35.675l2.237 2.149v.172l-2.323-2.321h.086zM37.135 35.589l2.151 2.149.086.086-2.237-2.15v-.085z" fill="#66C8F2"/><path fill-rule="evenodd" clip-rule="evenodd" d="M37.135 35.503l2.065 2.063.086.172-2.151-2.15v-.085zM37.22 35.503l1.894 1.891.086.172-2.065-2.063h.086z" fill="#66C8F2"/><path fill-rule="evenodd" clip-rule="evenodd" d="M37.22 35.417l1.894 1.891v.086l-1.893-1.891v-.086z" fill="#66C8F2"/><path fill-rule="evenodd" clip-rule="evenodd" d="M37.22 35.331l1.808 1.805.086.172-1.893-1.891v-.086z" fill="#66C8F2"/><path fill-rule="evenodd" clip-rule="evenodd" d="M37.22 35.331l1.722 1.633.086.172-1.807-1.805zM37.307 35.245l1.549 1.633.086.086-1.721-1.633.086-.086z" fill="#6BC9F2"/><path fill-rule="evenodd" clip-rule="evenodd" d="M37.307 35.16l1.548 1.547v.172l-1.548-1.634v-.086z" fill="#6BC9F2"/><path fill-rule="evenodd" clip-rule="evenodd" d="M37.307 35.16l1.462 1.375.087.172-1.55-1.548z" fill="#6BC9F2"/><path fill-rule="evenodd" clip-rule="evenodd" d="M37.393 35.073l1.29 1.29.087.172-1.463-1.376.086-.086zM37.393 34.987l1.205 1.204.086.172-1.29-1.29v-.086z" fill="#6BC9F1"/><path fill-rule="evenodd" clip-rule="evenodd" d="M37.393 34.901l1.119 1.204.086.086-1.205-1.204v-.086z" fill="#6BC9F1"/><path fill-rule="evenodd" clip-rule="evenodd" d="M37.393 34.901l1.033 1.032.086.172-1.119-1.204zM37.48 34.815l.86.946.086.172-1.033-1.032.086-.086z" fill="#6BC9F1"/><path fill-rule="evenodd" clip-rule="evenodd" d="M37.479 34.73l.774.86.086.171-.86-.946v-.085zM37.479 34.73l.688.687.086.172-.774-.86z" fill="#6BC9F1"/><path fill-rule="evenodd" clip-rule="evenodd" d="M37.565 34.644l.516.601.086.172-.688-.688.086-.085z" fill="#6BC9F1"/><path fill-rule="evenodd" clip-rule="evenodd" d="M37.565 34.558l.43.515.086.172-.516-.601v-.086z" fill="#6ECAF1"/><path fill-rule="evenodd" clip-rule="evenodd" d="M37.565 34.558l.344.343.086.172-.43-.515z" fill="#6ECAF1"/><path fill-rule="evenodd" clip-rule="evenodd" d="M37.565 34.472l.258.258.086.172-.344-.344v-.086zM37.65 34.386l.087.172.086.172-.258-.258.086-.086z" fill="#6ECAF1"/><path fill-rule="evenodd" clip-rule="evenodd" d="M37.65 34.386l.087.172-.086-.172z" fill="#6ECAF1"/><path fill-rule="evenodd" clip-rule="evenodd" d="M2.629 7.22v2.752c-.086-.43-.086-.946-.086-1.462 0-.43 0-.86.086-1.29zM2.715 6.705v3.868c0-.171 0-.43-.086-.601V7.22c.086-.172.086-.344.086-.516zM2.887 6.275v4.728c-.086-.171-.086-.343-.172-.43V6.706c.086-.172.086-.258.172-.43zM2.973 5.932v5.415c-.086-.086-.086-.258-.086-.343V6.276c0-.086 0-.258.086-.344zM3.06 5.588v6.103c0-.172-.086-.258-.086-.344V5.933c0-.086.086-.172.086-.344zM3.146 5.33v6.619c0-.086 0-.172-.086-.258V5.587c.086-.085.086-.171.086-.257zM3.317 5.072v7.135c-.086-.086-.086-.172-.171-.258v-6.62c.085-.085.085-.171.171-.257zM3.403 4.9v7.565c-.086-.086-.086-.172-.086-.258V5.072c0-.086 0-.086.086-.172zM3.49 4.642v7.995c0-.086-.086-.172-.086-.172V4.9c0-.086.086-.172.086-.258z" fill="#B8E0ED"/><path fill-rule="evenodd" clip-rule="evenodd" d="M3.576 4.47v8.425c0-.086-.086-.172-.086-.258V4.642c0-.086.086-.086.086-.172zM3.748 4.298v8.769c-.086-.086-.086-.172-.172-.172V4.47c.086-.086.086-.172.172-.172zM3.834 4.126v9.112c-.086-.086-.086-.172-.086-.172V4.298c0-.086 0-.172.086-.172zM3.92 3.954v9.456c0-.086-.086-.086-.086-.172V4.126c0-.086.086-.172.086-.172zM4.006 3.782v9.8l-.086-.172V3.954l.086-.172z" fill="#BBE1ED"/><path fill-rule="evenodd" clip-rule="evenodd" d="M4.092 3.61v10.144l-.086-.172v-9.8l.086-.172zM4.264 3.438V13.84l-.172-.086V3.61c.086 0 .086-.086.172-.172z" fill="#BBE1ED"/><path fill-rule="evenodd" clip-rule="evenodd" d="M4.35 3.353v10.66l-.086-.173V3.44l.086-.086zM4.436 3.18v11.004l-.086-.172V3.352l.086-.171zM4.522 3.095V14.27l-.086-.086V3.181l.086-.086zM4.694 2.923v11.52l-.172-.173V3.095l.172-.172zM4.78 2.837v11.691l-.086-.086V2.922l.086-.085z" fill="#BBE1ED"/><path fill-rule="evenodd" clip-rule="evenodd" d="M4.866 2.751V14.7v-.086l-.086-.086V2.837l.086-.086zM4.953 2.58v12.206l-.086-.086V2.751l.086-.172zM5.125 2.493v12.379l-.172-.086V2.579l.172-.086zM5.21 2.407v12.637l-.085-.172V2.493l.085-.086zM5.297 2.32v12.81l-.086-.087V2.408l.086-.086zM5.383 2.235v12.98l-.086-.085V2.32l.086-.085zM5.469 2.149V15.3l-.086-.085V2.235l.086-.086z" fill="#BBE1ED"/><path fill-rule="evenodd" clip-rule="evenodd" d="M5.64 1.977v13.41l-.171-.085V2.149l.172-.172z" fill="#BBE1ED"/><path fill-rule="evenodd" clip-rule="evenodd" d="M5.727 1.891v13.582l-.086-.086V1.977l.086-.086z" fill="#BDE2F0"/><path fill-rule="evenodd" clip-rule="evenodd" d="M5.813 1.805V15.56l-.086-.085V1.89l.086-.086zM5.899 1.805v13.84l-.086-.086V1.805h.086zM6.07 1.72V15.73l-.171-.086V1.805l.172-.086zM6.157 1.633v14.184l-.086-.086V1.72l.086-.086zM6.243 1.547v14.356l-.086-.086V1.633l.086-.086zM6.33 1.461v14.442h-.087V1.547l.086-.086zM6.502 1.375V15.99c-.086 0-.086 0-.172-.086V1.461l.172-.086z" fill="#BDE2F0"/><path fill-rule="evenodd" clip-rule="evenodd" d="M6.587 1.29v14.785l-.086-.086V1.376l.086-.086zM6.673 1.29v14.785h-.086V1.29h.086zM6.76 1.204V16.16l-.087-.086V1.29l.086-.086zM6.846 1.117v15.13l-.086-.086V1.203l.086-.086z" fill="#BDE2F0"/><path fill-rule="evenodd" clip-rule="evenodd" d="M7.018 1.031v15.216h-.172V1.117l.172-.086zM7.104 1.031v15.302l-.086-.086V1.03h.086zM7.19.945v15.388h-.086V1.03L7.19.945z" fill="#C0E3F0"/><path fill-rule="evenodd" clip-rule="evenodd" d="M7.276.86v15.559l-.086-.086V.945L7.276.86zM7.448.86v15.559h-.172V.859h.172z" fill="#C0E3F0"/><path fill-rule="evenodd" clip-rule="evenodd" d="M7.534.773v15.732l-.086-.086V.859l.086-.086zM7.62.773v15.732h-.086V.773h.086zM7.706.688V16.59l-.086-.086V.773l.086-.086zM7.878.688V16.59h-.172V.687h.172zM7.964.602v16.075l-.086-.086V.688l.086-.086zM8.05.602v16.075h-.086V.602h.086zM8.136.516v16.16H8.05V.603l.086-.086z" fill="#C0E3F0"/><path fill-rule="evenodd" clip-rule="evenodd" d="M8.222.516v16.247l-.086-.086V.516h.086zM8.395.43v16.333h-.172V.516L8.395.43zM8.48.43v16.333h-.085V.43h.085zM8.566.344v16.419H8.48V.43l.086-.086z" fill="#C0E3F0"/><path fill-rule="evenodd" clip-rule="evenodd" d="M8.652.344v16.505l-.086-.086V.343h.086zM8.825.344v16.505h-.172V.344h.172zM8.91.258v16.59h-.085V.345L8.91.258zM8.997.258v16.59H8.91V.259h.086z" fill="#BFE4F1"/><path fill-rule="evenodd" clip-rule="evenodd" d="M9.083.258v16.677l-.086-.086V.258h.086zM9.255.172v16.763h-.172V.258l.172-.086z" fill="#C2E5F1"/><path fill-rule="evenodd" clip-rule="evenodd" d="M9.34.172v16.763h-.085V.172h.086zM9.427.172v16.763h-.086V.172h.086zM9.513.172v16.763h-.086V.172h.086zM9.6.086v16.849h-.087V.172L9.6.086zM9.771.086v16.849H9.6V.085h.172z" fill="#C2E5F1"/><path fill-rule="evenodd" clip-rule="evenodd" d="M9.857.086v16.849h-.086V.085h.086zM9.943.086v16.849h-.086V.085h.086zM10.03 0v16.935h-.087V.086L10.03 0z" fill="#C2E5F1"/><path fill-rule="evenodd" clip-rule="evenodd" d="M10.201 0v17.02l-.172-.085V0h.172zM10.288 0v17.02h-.086V0h.086zM10.374 0v17.02h-.086V0h.086z" fill="#C2E5F1"/><path fill-rule="evenodd" clip-rule="evenodd" d="M10.46 0v17.02h-.087V0h.087zM10.631 0v17.02h-.171V0h.171zM10.718 0v16.935l-.086.086V0h.086zM10.804 0v16.935h-.086V0h.086zM10.89 0v16.935h-.086V0h.086zM10.976 0v16.935h-.086V0h.086z" fill="#C4E5F2"/><path fill-rule="evenodd" clip-rule="evenodd" d="M11.148 0v16.935h-.172V0h.172zM11.234 0v16.935h-.086V0h.086zM11.32 0v16.935h-.086V0h.086zM11.406 0v16.935h-.086V0h.086z" fill="#C4E5F2"/><path fill-rule="evenodd" clip-rule="evenodd" d="M11.578 0v16.935h-.172V0h.172zM11.664 0v16.935h-.086V0h.086zM11.75 0v16.849l-.085.086V0h.086zM11.836 0v16.849h-.085V0h.085z" fill="#C4E5F2"/><path fill-rule="evenodd" clip-rule="evenodd" d="M12.008 0v16.849h-.172V0h.172zM12.094 0v16.849h-.086V0h.086z" fill="#C4E5F2"/><path fill-rule="evenodd" clip-rule="evenodd" d="M12.18 0v16.849h-.085V0h.086zM12.267 0v16.763l-.086.086V0h.086zM12.353 0v16.763h-.086V0h.086zM12.524.086v16.677h-.171V0l.171.086zM12.61.086v16.677h-.085V.086h.086zM12.697.086v16.591l-.086.086V.086h.086zM12.783.086v16.591h-.086V.086h.086zM12.955.086v16.591h-.172V.086h.172zM13.041.172v16.505h-.086V.086l.086.086zM13.127.172V16.59l-.086.086V.172h.086z" fill="#C7E7F4"/><path fill-rule="evenodd" clip-rule="evenodd" d="M13.213.172V16.59h-.086V.171h.086zM13.385.258V16.59h-.172V.171l.172.087zM13.471.258v16.247l-.086.086V.258h.086zM13.557.258v16.247h-.086V.258h.086zM13.644.344v16.075l-.086.086V.258l.086.086zM13.73.344v16.075h-.086V.344h.085z" fill="#C7E7F4"/><path fill-rule="evenodd" clip-rule="evenodd" d="M13.901.344v16.075h-.171V.344h.171zM13.987.43v15.903l-.086.086V.344l.086.086zM14.074.43v15.903h-.086V.43h.086zM14.16.43v15.817l-.086.086V.43h.086zM14.332.516v15.731h-.172V.43l.172.086z" fill="#C9E7F4"/><path fill-rule="evenodd" clip-rule="evenodd" d="M14.418.516V16.16l-.086.086V.516h.086zM14.504.602v15.56h-.086V.515l.086.086zM14.59.602v15.473l-.086.086V.601h.086zM14.762.688v15.387h-.172V.602l.172.086zM14.848.688v15.301l-.086.086V.688h.086z" fill="#C9E7F4"/><path fill-rule="evenodd" clip-rule="evenodd" d="M14.934.773V15.99h-.086V.687l.086.086zM15.02.86v15.043l-.086.086V.773l.086.086zM15.106.86v15.043h-.086V.86h.086zM15.278.945v14.872l-.172.086V.86l.172.086zM15.364.945v14.786l-.086.086V.945h.086z" fill="#C9E7F4"/><path fill-rule="evenodd" clip-rule="evenodd" d="M15.45 1.031v14.7h-.086V.945l.086.086z" fill="#C9E7F4"/><path fill-rule="evenodd" clip-rule="evenodd" d="M15.537 1.117v14.528l-.086.086v-14.7l.086.086z" fill="#CBE8F4"/><path fill-rule="evenodd" clip-rule="evenodd" d="M15.709 1.203V15.56h-.086l-.086.086V1.117l.171.086zM15.794 1.204v14.27l-.085.086V1.204h.085zM15.88 1.29v14.098l-.086.086V1.204l.086.086z" fill="#CBE8F4"/><path fill-rule="evenodd" clip-rule="evenodd" d="M15.967 1.376v14.012h-.086V1.29l.086.086z" fill="#CBE9F6"/><path fill-rule="evenodd" clip-rule="evenodd" d="M16.139 1.461v13.84l-.172.087V1.375l.172.086zM16.225 1.461v13.755l-.086.086V1.462h.086zM16.311 1.547V15.13l-.086.086V1.46l.086.086zM16.397 1.633v13.41l-.086.087V1.547l.086.086zM16.569 1.72v13.324h-.172V1.634l.172.085zM16.655 1.805v13.153l-.086.086V1.719l.086.086zM16.741 1.891v12.98l-.086.087V1.805l.086.086zM16.827 1.977v12.809l-.086.086V1.892l.086.085zM16.913 2.063V14.7l-.086.086V1.977l.086.086zM17.085 2.149v12.55h-.171V2.064l.171.086zM17.171 2.235v12.379l-.086.086V2.149l.086.086zM17.257 2.407v12.12l-.086.087V2.234l.086.173zM17.343 2.493v11.95l-.086.085V2.408l.086.085zM17.516 2.58v11.776l-.172.086V2.493l.172.086zM17.602 2.665v11.691h-.086V2.58l.086.086zM17.688 2.837V14.27l-.086.086V2.665l.085.086v.086z" fill="#CBE9F6"/><path fill-rule="evenodd" clip-rule="evenodd" d="M17.774 2.923v11.261l-.086.086V2.837l.086.086zM17.946 3.009v11.09l-.172.085V2.923l.172.086zM18.032 3.095v10.917l-.086.086V3.008l.086.087zM18.118 3.267v10.745h-.086V3.095l.086.172zM18.204 3.353v10.573l-.086.086V3.267l.086.086zM18.29 3.439V13.84l-.086.086V3.353l.086.086zM18.462 3.524v10.23l-.172.086V3.438l.172.086zM18.548 3.696v9.972l-.086.086V3.524l.086.172z" fill="#CDE9F6"/><path fill-rule="evenodd" clip-rule="evenodd" d="M18.634 3.782v9.886h-.086V3.696l.086.086zM18.72 3.868v9.714l-.086.086V3.782l.086.086zM18.892 3.954v9.542l-.172.086V3.868l.172.086zM18.979 4.126v9.284l-.086.086V3.954l.085.172z" fill="#CDE9F8"/><path fill-rule="evenodd" clip-rule="evenodd" d="M19.064 4.212v9.112l-.085.086V4.126l.085.086zM19.15 4.298v9.026h-.085V4.212l.085.086zM19.322 4.384v8.855l-.172.086V4.298l.172.086zM19.409 4.47v8.683l-.086.086V4.384l.086.086zM19.495 4.556v8.51l-.086.087V4.47l.086.086z" fill="#D0EAF8"/><path fill-rule="evenodd" clip-rule="evenodd" d="M19.58 4.728v8.253l-.085.086v-8.51l.086.171zM19.667 4.814v8.167h-.086V4.728l.086.086z" fill="#D0EAF8"/><path fill-rule="evenodd" clip-rule="evenodd" d="M19.839 4.9v7.995l-.172.086V4.814l.172.086zM19.925 4.986v7.823l-.086.086V4.9l.086.086zM20.011 5.072v7.65l-.086.087V4.986l.086.086zM20.097 5.158v7.479l-.086.086V5.072l.086.086zM20.27 5.244v7.393h-.173v-7.48l.172.087z" fill="#D0EAF8"/><path fill-rule="evenodd" clip-rule="evenodd" d="M20.355 5.33v7.22l-.086.087V5.244l.086.086zM20.441 5.502v6.963l-.085.086V5.33l.085.172zM20.527 5.588v6.791l-.086.086V5.502l.086.086zM20.7 5.674v6.705h-.173V5.588l.172.086zM20.786 5.76v6.533l-.086.086V5.674l.086.086zM20.872 5.846v6.361l-.086.086V5.76l.086.086zM20.958 5.932v6.19l-.086.085V5.846l.086.086z" fill="#D0EAF8"/><path fill-rule="evenodd" clip-rule="evenodd" d="M21.044 6.018v6.017l-.087.086v-6.19l.087.087z" fill="#D0EAF8"/><path fill-rule="evenodd" clip-rule="evenodd" d="M21.215 6.104v5.931h-.171V6.018l.171.086zM21.302 6.19v5.76l-.086.085V6.104l.086.085zM21.388 6.275v5.588l-.086.086V6.19l.086.086zM21.474 6.361v5.416l-.086.086V6.275l.086.086zM21.646 6.447v5.244l-.172.086V6.361l.172.086zM21.732 6.533v5.158h-.086V6.447l.086.086zM21.818 6.62v4.985l-.086.086V6.533l.086.086zM21.904 6.62v4.9l-.086.085V6.62h.086z" fill="#D2EBF8"/><path fill-rule="evenodd" clip-rule="evenodd" d="M22.076 6.705v4.728l-.172.086v-4.9l.172.086zM22.162 6.791v4.642h-.086V6.705l.086.086zM22.248 6.877v4.47l-.086.086V6.791l.086.086zM22.334 6.963v4.298l-.086.086v-4.47l.086.086zM22.42 7.049v4.126l-.086.086V6.963l.086.086z" fill="#D4ECFA"/><path fill-rule="evenodd" clip-rule="evenodd" d="M22.592 7.135v4.04h-.172V7.05l.172.086zM22.678 7.135v3.954l-.086.086v-4.04h.086zM22.765 7.22v3.783l-.086.086V7.135l.086.086zM22.85 7.307v3.61l-.085.086V7.221l.086.086zM23.023 7.393v3.524h-.172v-3.61l.172.086zM23.109 7.393v3.438l-.086.086V7.393h.086zM23.195 7.479v3.266l-.086.086V7.393l.086.086zM23.28 7.565v3.095l-.085.086V7.479l.086.086zM23.453 7.565v3.095h-.172V7.565h.172zM23.54 7.65v2.924l-.087.086V7.565l.086.086z" fill="#D4ECFA"/><path fill-rule="evenodd" clip-rule="evenodd" d="M23.625 7.65v2.838l-.086.086V7.65h.086zM23.711 7.737v2.665l-.086.086V7.65l.086.086zM23.797 7.737v2.665h-.086V7.737h.086zM23.97 7.823v2.493l-.173.086V7.737l.172.086z" fill="#D4ECFA"/><path fill-rule="evenodd" clip-rule="evenodd" d="M24.055 7.823v2.407l-.086.086V7.823h.086zM24.141 7.909v2.235l-.086.086V7.823l.086.086z" fill="#D4ECFA"/><path fill-rule="evenodd" clip-rule="evenodd" d="M24.227 7.909v2.235h-.086V7.909h.086zM24.4 7.909v2.149l-.172.086V7.909h.171z" fill="#D7EDFA"/><path fill-rule="evenodd" clip-rule="evenodd" d="M24.485 7.995v1.977l-.086.086v-2.15l.086.087zM24.571 7.995v1.977h-.086V7.995h.086z" fill="#D7EDFA"/><path fill-rule="evenodd" clip-rule="evenodd" d="M24.658 7.995v1.89l-.086.087V7.995h.086z" fill="#D7EEFC"/><path fill-rule="evenodd" clip-rule="evenodd" d="M24.83 7.995V9.8l-.172.086V7.995h.172zM24.916 8.08V9.8h-.086V7.995l.086.086zM25.002 8.08v1.634l-.086.086V8.08h.086zM25.088 8.08v1.548l-.086.086V8.08h.086zM25.174 8.08v1.462l-.086.086V8.08h.086zM25.346 8.08v1.462h-.172V8.081h.172zM25.432 8.08v1.376l-.086.086V8.081h.086z" fill="#D7EEFC"/><path fill-rule="evenodd" clip-rule="evenodd" d="M25.518 8.167V9.37l-.086.086V8.081l.086.086zM25.604 8.166V9.37h-.086V8.166h.086zM25.776 8.166v1.118l-.172.086V8.166h.172zM25.862 8.166v1.032l-.086.086V8.166h.086zM25.948 8.166v1.032h-.086V8.166h.086zM26.034 8.166v.946l-.086.086V8.166h.086zM26.207 8.166v.86l-.172.086v-.946h.172z" fill="#D8EEFC"/><path fill-rule="evenodd" clip-rule="evenodd" d="M26.293 8.166v.86h-.087v-.86h.087zM26.378 8.166v.774l-.085.086v-.86h.085zM26.464 8.166v.688l-.086.086v-.774h.086zM26.55 8.08v.774h-.085v-.687l.086-.086zM26.723 8.08v.688l-.172.086v-.773h.172zM26.809 8.08v.602l-.086.086v-.687h.086zM26.895 8.08v.602h-.086v-.601h.086zM26.981 8.08v.516l-.086.086v-.601h.086z" fill="#D8EEFC"/><path fill-rule="evenodd" clip-rule="evenodd" d="M27.153 8.08v.516h-.172v-.515h.172z" fill="#D8EEFC"/><path fill-rule="evenodd" clip-rule="evenodd" d="M27.24 7.995v.515l-.087.086v-.515l.086-.086z" fill="#DBF0FC"/><path fill-rule="evenodd" clip-rule="evenodd" d="M27.325 7.995v.43l-.086.085v-.515h.086zM27.411 7.995v.43h-.086v-.43h.086z" fill="#DBF0FC"/><path fill-rule="evenodd" clip-rule="evenodd" d="M27.583 7.995v.343l-.172.086v-.43h.172zM27.67 7.909v.344l-.087.086v-.344l.087-.086z" fill="#DBF0FC"/><path fill-rule="evenodd" clip-rule="evenodd" d="M27.755 7.909v.344h-.086v-.344h.086zM27.841 7.909v.258l-.086.086v-.344h.086zM27.927 7.909v.258h-.086v-.258h.086z" fill="#DBF0FC"/><path fill-rule="evenodd" clip-rule="evenodd" d="M28.1 7.823v.258l-.172.086v-.258l.172-.086zM28.186 7.823v.172l-.086.086v-.258h.086zM28.271 7.823v.172h-.085v-.172h.085zM28.358 7.737v.172l-.086.086v-.172l.086-.086zM28.53 7.737v.172h-.172v-.172h.172zM28.616 7.65v.173l-.086.086v-.172l.086-.086zM28.702 7.65v.087l-.086.086V7.65h.086zM28.788 7.65v.087h-.086V7.65h.086zM28.96 7.565v.086l-.172.086V7.65l.172-.086zM29.046 7.565v.086h-.086v-.086h.086zM29.132 7.479v.086l-.086.086v-.086l.086-.086zM29.218 7.479l-.086.086v-.086h.086zM29.476 7.393l-.172.086.172-.086zM29.563 7.393l.085-.086-.085.086z" fill="#DCF0FC"/><path fill-rule="evenodd" clip-rule="evenodd" d="M23.195 13.41v.172h-.086v-.086l.086-.086zM23.28 13.324v.258h-.085v-.172l.086-.086zM23.367 13.324v.258h-.086v-.258h.086zM23.453 13.152v.43h-.086v-.344l.086-.086zM23.54 13.066v.516h-.087v-.43l.086-.086z" fill="#F59D0E"/><path fill-rule="evenodd" clip-rule="evenodd" d="M23.625 12.98v.602h-.086v-.516l.086-.086zM23.711 12.809v.773h-.086v-.687l.086-.086zM23.797 12.723v.86h-.086v-.774l.086-.086zM23.883 12.637v.945h-.086v-.86l.086-.085z" fill="#F59D0E"/><path fill-rule="evenodd" clip-rule="evenodd" d="M23.97 12.55v1.032h-.087v-.945l.086-.086z" fill="#F49B0F"/><path fill-rule="evenodd" clip-rule="evenodd" d="M24.055 12.465v1.117h-.086v-1.031l.086-.086zM24.141 12.379v1.203h-.086v-1.117l.086-.086z" fill="#F49B0F"/><path fill-rule="evenodd" clip-rule="evenodd" d="M24.227 12.207v1.375h-.086v-1.289l.086-.086zM24.314 12.121v1.461h-.087v-1.375l.087-.086zM24.4 12.121v1.461h-.086v-1.46h.085z" fill="#F49911"/><path fill-rule="evenodd" clip-rule="evenodd" d="M24.485 11.95v1.719l-.086-.087v-1.547l.086-.086zM24.571 11.863v1.806h-.086v-1.72l.086-.086zM24.658 11.777v1.892h-.086v-1.806l.086-.086zM24.744 11.69v1.978h-.086v-1.977h.086zM24.83 11.605v2.063h-.086v-1.977l.086-.086zM24.916 11.519v2.15h-.086v-2.064l.086-.086z" fill="#F49911"/><path fill-rule="evenodd" clip-rule="evenodd" d="M25.002 11.347v2.407h-.086v-2.32l.086-.087zM25.088 11.347v2.407h-.086v-2.407h.086zM25.174 11.261v2.493h-.086v-2.407l.086-.086zM25.26 11.09v2.75l-.086-.086v-2.579l.086-.086zM25.346 11.003v2.837h-.086v-2.75l.086-.087z" fill="#F49712"/><path fill-rule="evenodd" clip-rule="evenodd" d="M25.432 11.003v2.837h-.086v-2.837h.086zM25.518 10.918v2.922h-.086v-2.837l.086-.085zM25.604 10.746v3.18h-.086v-3.094l.086-.086zM25.69 10.746v3.18h-.086v-3.18h.086zM25.776 10.66v3.352l-.086-.086v-3.18l.086-.086zM25.862 10.487v3.525h-.086v-3.439l.086-.086zM25.948 10.487v3.525h-.086v-3.525h.086zM26.034 10.401v3.697l-.086-.086v-3.525l.086-.086z" fill="#F39513"/><path fill-rule="evenodd" clip-rule="evenodd" d="M26.12 10.315v3.783h-.085v-3.783h.086zM26.207 10.23v3.954l-.086-.086v-3.783l.086-.085z" fill="#F39314"/><path fill-rule="evenodd" clip-rule="evenodd" d="M26.293 10.144v4.04h-.087V10.23l.087-.086z" fill="#F39314"/><path fill-rule="evenodd" clip-rule="evenodd" d="M26.378 10.058v4.212l-.085-.086v-4.126h.085zM26.464 9.972v4.298h-.086v-4.212l.086-.086zM26.55 9.886v4.384h-.085V9.972l.086-.086zM26.637 9.8v4.556h-.086v-4.47l.086-.086zM26.723 9.714v4.728l-.086-.086V9.8l.086-.086zM26.809 9.714v4.728h-.086V9.714h.086zM26.895 9.542v4.986l-.086-.086V9.628l.086-.086zM26.981 9.542v4.986h-.086V9.542h.086zM27.067 9.456v5.072h-.086V9.542l.086-.086z" fill="#F29114"/><path fill-rule="evenodd" clip-rule="evenodd" d="M27.153 9.37v5.244h-.086V9.37h.086zM27.24 9.284V14.7l-.087-.086V9.37l.086-.086z" fill="#F28F15"/><path fill-rule="evenodd" clip-rule="evenodd" d="M27.325 9.198V14.7h-.086V9.284l.086-.086z" fill="#F28F15"/><path fill-rule="evenodd" clip-rule="evenodd" d="M27.411 9.112v5.674l-.086-.086V9.198l.086-.086zM27.497 9.026v5.76h-.086V9.112l.086-.086zM27.583 9.026v5.846l-.086-.086v-5.76h.086zM27.67 8.94v5.932h-.087V8.94h.087z" fill="#F18D16"/><path fill-rule="evenodd" clip-rule="evenodd" d="M27.755 8.854v6.104l-.086-.086V8.94l.086-.086zM27.841 8.769v6.189h-.086V8.855l.086-.086zM27.927 8.683v6.361h-.086V8.769l.086-.086zM28.014 8.683v6.361h-.086V8.683h.086zM28.1 8.596v6.534l-.086-.087v-6.36l.086-.087z" fill="#F18D16"/><path fill-rule="evenodd" clip-rule="evenodd" d="M28.186 8.51v6.706l-.086-.086V8.51h.086zM28.271 8.424v6.792h-.085V8.51l.085-.086zM28.358 8.424v6.792h-.086V8.424h.086zM28.444 8.338v6.964h-.086V8.338h.086zM28.53 8.252v7.135l-.086-.085V8.338l.086-.086zM28.616 8.252v7.135h-.086V8.252h.086z" fill="#F18B17"/><path fill-rule="evenodd" clip-rule="evenodd" d="M28.702 8.08v7.393h-.086V8.168l.086-.086zM28.788 8.08v7.393h-.086V8.081h.086zM28.874 7.995v7.564l-.086-.085V8.08l.086-.086zM28.96 7.909v7.737l-.086-.087V7.995l.086-.086zM29.046 7.909v7.737h-.086V7.909h.086zM29.132 7.823v7.822h-.086V7.91l.086-.086z" fill="#F18917"/><path fill-rule="evenodd" clip-rule="evenodd" d="M29.218 7.737v7.995h-.086v-7.91l.086-.085zM29.304 7.737v8.08l-.086-.085V7.737h.086zM29.39 7.65v8.168h-.086V7.737l.086-.086zM29.476 7.565v8.338h-.086V7.651l.086-.086zM29.563 7.565v8.338h-.086V7.566h.085zM29.648 7.479v8.51l-.085-.086V7.566l.085-.086zM29.734 7.479v8.51h-.086V7.48h.086zM29.82 7.393v8.682h-.086V7.393h.086zM29.907 7.393v8.768l-.086-.086V7.393h.086zM29.993 7.307v8.854h-.086V7.393l.086-.086z" fill="#F08718"/><path fill-rule="evenodd" clip-rule="evenodd" d="M30.079 7.22v9.027h-.086v-8.94l.086-.086zM30.165 7.22v9.027h-.086V7.22h.086zM30.251 7.135v9.198l-.086-.086V7.221l.086-.086z" fill="#F08518"/><path fill-rule="evenodd" clip-rule="evenodd" d="M30.337 7.135v9.284l-.086-.086V7.135h.086zM30.423 7.049v9.37h-.086V7.135l.086-.086zM30.509 7.049v9.456l-.086-.086v-9.37h.086zM30.595 6.963v9.542h-.086V6.963h.086zM30.681 6.877v9.714l-.086-.086V6.963l.086-.086zM30.767 6.877v9.714h-.086V6.877h.086zM30.853 6.791v9.886h-.086v-9.8l.086-.086zM30.939 6.791v9.886h-.086V6.79h.086zM31.025 6.791v9.972l-.085-.086V6.79h.085z" fill="#F08319"/><path fill-rule="evenodd" clip-rule="evenodd" d="M31.111 6.705V16.85l-.086-.086V6.705h.086zM31.197 6.62v10.229h-.086V6.705l.086-.086zM31.283 6.62v10.229h-.086V6.619h.086z" fill="#F0811A"/><path fill-rule="evenodd" clip-rule="evenodd" d="M31.37 6.533v10.402h-.087V6.619l.086-.086zM31.456 6.533v10.402h-.086V6.533h.086zM31.541 6.533v10.488l-.085-.086V6.533h.085zM31.628 6.447v10.574h-.087V6.447h.087z" fill="#EF7F1A"/><path fill-rule="evenodd" clip-rule="evenodd" d="M31.713 6.447v10.574h-.086V6.447h.086zM31.8 6.447v10.66l-.087-.086V6.447h.086z" fill="#EF7F1A"/><path fill-rule="evenodd" clip-rule="evenodd" d="M31.886 6.361v10.746H31.8V6.36h.086zM31.972 6.361v10.746h-.086V6.36h.086zM32.058 6.275v10.918l-.086-.086V6.36l.086-.086zM32.144 6.275v10.918h-.086V6.275h.086zM32.23 6.275v10.918h-.086V6.275h.086zM32.316 6.19v11.089l-.086-.086V6.275l.086-.086z" fill="#EF7C1B"/><path fill-rule="evenodd" clip-rule="evenodd" d="M32.402 6.19v11.089h-.086V6.189h.086zM32.488 6.19v11.089h-.086V6.189h.086zM32.574 6.19v11.089h-.086V6.189h.086zM32.66 6.104v11.26l-.086-.085V6.189l.086-.085zM32.746 6.104v11.26h-.086V6.105h.086zM32.832 6.104v11.26h-.086V6.105h.086z" fill="#EF7A1B"/><path fill-rule="evenodd" clip-rule="evenodd" d="M32.918 6.104v11.26h-.086V6.105h.086zM33.004 6.104v11.26h-.085V6.105h.085zM33.09 6.104v11.26h-.086V6.105h.086zM33.176 6.018V17.45h-.086V6.018h.086zM33.262 6.018V17.45h-.086V6.018h.086zM33.349 6.018V17.45h-.086V6.018h.086z" fill="#EE781C"/><path fill-rule="evenodd" clip-rule="evenodd" d="M33.435 6.018V17.45h-.086V6.018h.086zM33.52 6.018V17.45h-.085V6.018h.085zM33.606 6.018V17.45h-.086V6.018h.086zM33.692 6.018V17.45h-.086V6.018h.086zM33.779 6.018V17.45h-.086V6.018h.086zM33.865 6.018V17.45h-.086V6.018h.086z" fill="#EE761C"/><path fill-rule="evenodd" clip-rule="evenodd" d="M33.95 6.018V17.45h-.085V6.018h.086zM34.037 6.018V17.45h-.086V6.018h.086zM34.123 6.018V17.45h-.086V6.018h.086zM34.209 6.018V17.45h-.086V6.018h.086zM34.295 6.018V17.45h-.086V6.018h.086zM34.38 6.018V17.45h-.085V6.018h.086zM34.467 6.018V17.45h-.086V6.018h.086zM34.553 6.018V17.45h-.086V6.018h.086zM34.64 6.018V17.45h-.087V6.018h.086z" fill="#EE741D"/><path fill-rule="evenodd" clip-rule="evenodd" d="M34.725 6.018V17.45h-.086V6.018h.086z" fill="#EE741D"/><path fill-rule="evenodd" clip-rule="evenodd" d="M34.811 6.104V17.45h-.086V6.104h.086zM34.898 6.104V17.45h-.087V6.104h.087z" fill="#ED721D"/><path fill-rule="evenodd" clip-rule="evenodd" d="M34.983 6.104v11.26l-.085.087V6.104h.085zM35.07 6.104v11.26h-.087V6.105h.086z" fill="#ED721D"/><path fill-rule="evenodd" clip-rule="evenodd" d="M35.155 6.104v11.26h-.086V6.105h.086zM35.242 6.19v11.175h-.086V6.104l.086.085z" fill="#ED721D"/><path fill-rule="evenodd" clip-rule="evenodd" d="M35.328 6.19v11.175h-.086V6.189h.086zM35.414 6.19v11.089l-.086.086V6.189h.086zM35.5 6.19v11.089h-.086V6.189h.085zM35.586 6.275V17.28H35.5V6.275h.086zM35.672 6.275V17.28h-.086V6.275h.086zM35.758 6.275v10.918l-.086.086V6.275h.086zM35.844 6.361v10.832h-.086V6.36h.086zM35.93 6.361v10.832h-.086V6.36h.086zM36.016 6.361v10.746l-.086.086V6.36h.086z" fill="#ED701E"/><path fill-rule="evenodd" clip-rule="evenodd" d="M36.102 6.447v10.66h-.086V6.447h.086zM36.188 6.447v10.66h-.086V6.447h.086zM36.274 6.533v10.488l-.086.086V6.447l.086.086zM36.36 6.533v10.488h-.086V6.533h.086zM36.446 6.62v10.315l-.086.086V6.533l.086.086zM36.532 6.62v10.315h-.086V6.619h.086z" fill="#ED6E1E"/><path fill-rule="evenodd" clip-rule="evenodd" d="M36.618 6.705V16.85l-.086.086V6.619l.086.086zM36.705 6.705V16.85h-.086V6.705h.086zM36.79 6.791v9.972l-.085.086V6.705l.086.086z" fill="#EC6B1E"/><path fill-rule="evenodd" clip-rule="evenodd" d="M36.877 6.877v9.886h-.087V6.79l.087.086z" fill="#EC6B1E"/><path fill-rule="evenodd" clip-rule="evenodd" d="M36.962 6.877v9.8l-.086.086V6.877h.086zM37.048 6.877v9.8h-.086v-9.8h.086zM37.135 6.963v9.628h-.086V6.963h.086zM37.22 7.049v9.456l-.085.086V6.963l.086.086zM37.307 7.135v9.37h-.086V7.049l.086.086z" fill="#EC6B1E"/><path fill-rule="evenodd" clip-rule="evenodd" d="M37.393 7.22v9.199h-.086V7.135l.086.086zM37.479 7.22v9.113l-.086.086V7.22h.086zM37.565 7.307v8.94l-.086.086V7.22l.086.086zM37.65 7.393v8.768l-.085.086v-8.94l.086.086zM37.737 7.479v8.596l-.086.086V7.393l.086.086zM37.823 7.479v8.596h-.086V7.48h.086z" fill="#EC691F"/><path fill-rule="evenodd" clip-rule="evenodd" d="M37.91 7.65v8.253l-.087.086V7.565l.086.086z" fill="#EC671F"/><path fill-rule="evenodd" clip-rule="evenodd" d="M37.995 7.737v8.166h-.086V7.651l.086.086zM38.081 7.737v8.08l-.086.086V7.737h.086zM38.167 7.823v7.909l-.086.085v-8.08l.086.086zM38.253 7.995v7.564l-.086.087V7.909l.086.086zM38.34 8.08v7.48h-.087V7.994l.086.086z" fill="#EC671F"/><path fill-rule="evenodd" clip-rule="evenodd" d="M38.425 8.167v7.306l-.086.086V8.081l.086.086z" fill="#EC671F"/><path fill-rule="evenodd" clip-rule="evenodd" d="M38.511 8.338v6.964l-.086.085V8.252l.086.086zM38.598 8.424v6.792l-.086.086V8.338l.086.086zM38.684 8.51v6.62l-.086.085v-6.79l.086.085zM38.77 8.682v6.19l-.086.171V8.596l.086.086z" fill="#EB6420"/><path fill-rule="evenodd" clip-rule="evenodd" d="M38.855 8.769v6.017l-.085.086v-6.19l.085.087zM38.942 8.855V14.7l-.086.086V8.77l.086.086z" fill="#EB6420"/><path fill-rule="evenodd" clip-rule="evenodd" d="M39.028 9.112v5.33l-.086.172V9.026l.086.086zM39.114 9.284v5.072l-.086.086v-5.33l.086.172zM39.2 9.37v4.814l-.086.172V9.284l.086.086zM39.286 9.714v4.126c0 .086 0 .172-.086.172v-4.47c.086.086.086.086.086.172zM39.372 9.886v3.782c0 .086-.086.172-.086.172V9.714s.086.086.086.172zM39.458 10.058v3.438c-.086.086-.086.172-.086.172V9.886c0 .086 0 .086.086.172zM39.544 10.573v2.407c0 .086 0 .172-.086.258v-2.923c.086.086.086.172.086.258zM39.63 10.918v1.719c0 .172-.086.258-.086.344v-2.407c0 .086.086.258.086.344zM39.716 11.691v.172c0 .258-.086.516-.086.774v-1.72c0 .258.086.516.086.774z" fill="#EB6320"/><path fill-rule="evenodd" clip-rule="evenodd" d="M5.555 33.268l-.086-.086.086.086zM5.727 33.354l-.086-.086.086.086zM5.813 33.354v.086l-.086-.086h.086zM5.899 33.44h-.086v-.086l.086.086zM5.985 33.44v.086l-.086-.086h.086z" fill="#F59D0E"/><path fill-rule="evenodd" clip-rule="evenodd" d="M6.071 33.526v.086l-.086-.086v-.086l.086.086zM6.157 33.526v.086h-.086v-.086h.086zM6.243 33.612v.086l-.086-.086v-.086l.086.086zM6.33 33.612v.172l-.087-.086v-.086h.086zM6.416 33.698v.086H6.33v-.172l.086.086z" fill="#F59D0E"/><path fill-rule="evenodd" clip-rule="evenodd" d="M6.501 33.784v.172l-.085-.086v-.172l.085.086z" fill="#F49B0F"/><path fill-rule="evenodd" clip-rule="evenodd" d="M6.587 33.784v.258l-.086-.086v-.172h.086zM6.673 33.87v.172h-.086v-.258l.086.086zM6.76 33.87v.258l-.087-.086v-.172h.086z" fill="#F49B0F"/><path fill-rule="evenodd" clip-rule="evenodd" d="M6.846 33.956v.258l-.086-.086v-.258l.086.086zM6.932 33.956v.344l-.086-.086v-.258h.086z" fill="#F49911"/><path fill-rule="evenodd" clip-rule="evenodd" d="M7.018 34.042v.344l-.086-.086v-.344l.086.086zM7.104 34.042v.344h-.086v-.344h.086zM7.19 34.128v.344l-.086-.086v-.344l.086.086z" fill="#F49911"/><path fill-rule="evenodd" clip-rule="evenodd" d="M7.276 34.128v.43l-.086-.086v-.344h.086zM7.362 34.214v.43l-.086-.086v-.43l.086.086zM7.448 34.214v.516l-.086-.086v-.43h.086z" fill="#F49911"/><path fill-rule="evenodd" clip-rule="evenodd" d="M7.534 34.3v.516l-.086-.086v-.516l.086.086zM7.62 34.3v.602l-.086-.086V34.3h.086zM7.706 34.386v.687l-.086-.086v-.601h.086z" fill="#F49911"/><path fill-rule="evenodd" clip-rule="evenodd" d="M7.792 34.472v.687l-.086-.085v-.688l.086.086zM7.878 34.472v.773l-.086-.086v-.687h.086zM7.964 34.558v.773l-.086-.086v-.773l.086.086zM8.05 34.558v.86l-.086-.087v-.773h.086z" fill="#F49712"/><path fill-rule="evenodd" clip-rule="evenodd" d="M8.136 34.644v.945l-.086-.172v-.86l.086.087zM8.222 34.644v1.031l-.086-.086v-.945h.086z" fill="#F49712"/><path fill-rule="evenodd" clip-rule="evenodd" d="M8.309 34.73v1.031l-.086-.086v-1.031l.086.086zM8.395 34.73v1.203l-.086-.172V34.73h.086zM8.48 34.816v1.203l-.085-.086V34.73l.085.086zm0 11.777v1.633a5.204 5.204 0 010-1.633zM8.566 34.815v1.376c-.086-.086-.086-.086-.086-.172v-1.204h.086zm0 11.176v2.837c-.086-.172-.086-.43-.086-.602v-1.633c0-.258 0-.43.086-.602z" fill="#F39513"/><path fill-rule="evenodd" clip-rule="evenodd" d="M8.652 34.901v1.462c-.086-.086-.086-.172-.086-.172v-1.376l.086.086zm0 10.66v3.696c-.086-.171-.086-.258-.086-.43v-2.836c0-.172 0-.258.086-.43zM8.739 34.901v1.548c-.086 0-.086-.086-.086-.086V34.9h.086zm0 10.23v4.47c-.086-.172-.086-.258-.086-.344v-3.696c0-.086 0-.258.086-.43z" fill="#F39513"/><path fill-rule="evenodd" clip-rule="evenodd" d="M8.825 34.987v1.806s0-.086-.086-.172v-1.634h.086zm0 9.284v5.846c0-.086 0-.172-.086-.258v-5.158c.086-.086.086-.258.086-.43zM8.91 35.073v1.977c0-.085 0-.171-.085-.257v-1.806l.086.086zm0 8.683v6.619c0-.086 0-.172-.085-.258v-5.846c.086-.172.086-.343.086-.515zM8.997 35.073v2.15c0-.087 0-.087-.086-.173v-1.977h.086zm0 8.167v7.307c0-.086 0-.172-.086-.172v-6.62c.086-.085.086-.257.086-.515z" fill="#F39513"/><path fill-rule="evenodd" clip-rule="evenodd" d="M9.083 35.073v2.407-.086l-.086-.172v-2.149h.086zm0 7.651v7.995s0-.086-.086-.172V43.24c.086-.172.086-.344.086-.516zM9.169 35.16v2.578c0-.086 0-.172-.086-.258v-2.407l.086.086zm0 6.876v8.94l-.086-.257v-7.995c.086-.258.086-.43.086-.688zM9.255 35.16v3.094c0-.172 0-.344-.086-.516V35.16h.086zm0 6.103v9.886l-.086-.172v-8.94c0-.259.086-.517.086-.774z" fill="#F39314"/><path fill-rule="evenodd" clip-rule="evenodd" d="M9.34 35.245v4.384c0 .516 0 1.118-.085 1.634v9.886l.086.085V39.63c0-.515 0-.945-.086-1.375v-3.095l.086.086z" fill="#F39314"/><path fill-rule="evenodd" clip-rule="evenodd" d="M9.427 35.245v16.161l-.086-.172V35.245h.086zM9.513 35.331v16.247l-.086-.172v-16.16l.086.085zM9.6 35.331v16.42l-.087-.173V35.331H9.6zM9.685 35.417v16.42L9.6 51.75V35.331l.086.086z" fill="#F29114"/><path fill-rule="evenodd" clip-rule="evenodd" d="M9.771 35.417v16.591l-.086-.172V35.417h.086z" fill="#F29114"/><path fill-rule="evenodd" clip-rule="evenodd" d="M9.857 35.503v16.591l-.086-.086V35.417l.086.086zM9.943 35.503v16.763l-.086-.172V35.503h.086zM10.03 35.589v16.849l-.087-.086v-16.85l.086.087z" fill="#F29114"/><path fill-rule="evenodd" clip-rule="evenodd" d="M10.115 35.589v17.02l-.086-.171v-16.85h.086zM10.202 35.675v17.02l-.086-.085V35.589l.086.086zM10.288 35.675v17.107l-.086-.086V35.675h.086z" fill="#F29114"/><path fill-rule="evenodd" clip-rule="evenodd" d="M10.374 35.76v17.108l-.086-.086V35.675l.086.086z" fill="#F28F15"/><path fill-rule="evenodd" clip-rule="evenodd" d="M10.46 35.761v17.193l-.087-.086V35.761h.087z" fill="#F28F15"/><path fill-rule="evenodd" clip-rule="evenodd" d="M10.545 35.761V53.04l-.085-.086V35.761h.085zM10.632 35.847v17.279l-.086-.086V35.761l.086.086zM10.718 35.847v17.45l-.086-.171V35.847h.086z" fill="#F28F15"/><path fill-rule="evenodd" clip-rule="evenodd" d="M10.804 35.933v17.45l-.086-.085v-17.45l.086.085zM10.89 35.933v17.45h-.086v-17.45h.086zM10.976 36.02v17.45l-.086-.086v-17.45l.086.085z" fill="#F18D16"/><path fill-rule="evenodd" clip-rule="evenodd" d="M11.062 36.019v17.537l-.086-.086V36.019h.086zM11.148 36.105v17.623l-.086-.086V36.019l.086.086zM11.234 36.105v17.709l-.086-.086V36.105h.086zM11.32 36.19V53.9l-.086-.086V36.105l.086.086zM11.406 36.19v17.796l-.086-.086V36.19h.086zM11.492 36.277V54.07l-.086-.085V36.19l.086.086z" fill="#F18D16"/><path fill-rule="evenodd" clip-rule="evenodd" d="M11.578 36.277V54.07h-.086V36.277h.086zM11.664 36.277v17.88l-.086-.086V36.277h.086z" fill="#F18D16"/><path fill-rule="evenodd" clip-rule="evenodd" d="M11.75 36.363v17.88l-.085-.086v-17.88l.086.086zM11.836 36.363v17.966l-.085-.086v-17.88h.085zM11.922 36.449v17.88h-.086V36.363l.086.086z" fill="#F18B17"/><path fill-rule="evenodd" clip-rule="evenodd" d="M12.008 36.449v17.966l-.086-.086V36.45h.086zM12.094 36.449V54.5l-.086-.086V36.45h.086zM12.18 36.535V54.5h-.085V36.45l.086.086zM12.267 36.62v18.053l-.086-.086V36.535l.086.086z" fill="#F18B17"/><path fill-rule="evenodd" clip-rule="evenodd" d="M12.353 36.62v18.053h-.086V36.621h.086z" fill="#F18917"/><path fill-rule="evenodd" clip-rule="evenodd" d="M12.438 36.62V54.76l-.086-.086V36.621h.086zM12.525 36.707v18.052h-.086V36.621l.086.086z" fill="#F18917"/><path fill-rule="evenodd" clip-rule="evenodd" d="M12.61 36.706v18.139l-.085-.086V36.706h.086zM12.697 36.792v18.053h-.086V36.706l.086.086zM12.783 36.792v18.139l-.086-.086V36.792h.086zM12.869 36.792v18.225l-.086-.086V36.792h.086zM12.955 36.878v18.139h-.086V36.792l.086.086z" fill="#F18917"/><path fill-rule="evenodd" clip-rule="evenodd" d="M13.041 36.878v18.225l-.086-.086V36.878h.086zM13.127 36.964v18.139h-.086V36.878l.086.086z" fill="#F08718"/><path fill-rule="evenodd" clip-rule="evenodd" d="M13.213 36.965v18.224l-.086-.086V36.965h.086zM13.3 36.965v18.224h-.087V36.965h.086zM13.385 37.05v18.14H13.3V36.964l.086.086z" fill="#F08718"/><path fill-rule="evenodd" clip-rule="evenodd" d="M13.471 37.05v18.225h-.086V37.051h.086zM13.557 37.137V55.36l-.086-.086V37.051l.086.086zM13.644 37.137V55.36h-.086V37.137h.086zM13.73 37.223v18.224l-.086-.086V37.137l.085.086z" fill="#F08718"/><path fill-rule="evenodd" clip-rule="evenodd" d="M13.816 37.223v18.224h-.087V37.223h.087z" fill="#F08718"/><path fill-rule="evenodd" clip-rule="evenodd" d="M13.901 37.223v18.224h-.086V37.223h.086z" fill="#F08718"/><path fill-rule="evenodd" clip-rule="evenodd" d="M13.987 37.309v18.224l-.086-.086V37.223l.086.086zM14.074 37.309v18.224h-.086V37.309h.086zM14.16 37.395v18.138h-.086V37.309l.086.086zM14.246 37.395v18.224l-.086-.086V37.394h.086z" fill="#F08518"/><path fill-rule="evenodd" clip-rule="evenodd" d="M14.332 37.395v18.224h-.086V37.395h.086z" fill="#F08319"/><path fill-rule="evenodd" clip-rule="evenodd" d="M14.418 37.48V55.62h-.086V37.395l.086.085zM14.504 37.48v18.225l-.086-.086V37.48h.086zM14.59 37.566v18.139h-.086V37.48l.086.085zM14.676 37.566v18.225l-.086-.086V37.566h.086zM14.762 37.652v18.139h-.086V37.566l.086.086zM14.848 37.652v18.139h-.086V37.652h.086z" fill="#F08319"/><path fill-rule="evenodd" clip-rule="evenodd" d="M14.934 37.652v18.139h-.086V37.652h.086zM15.02 37.738v18.139l-.086-.086V37.652l.086.086zM15.106 37.738v18.139h-.086V37.738h.086zM15.192 37.824v18.053h-.086V37.738l.086.086z" fill="#F08319"/><path fill-rule="evenodd" clip-rule="evenodd" d="M15.278 37.824v18.053h-.086V37.824h.086zM15.364 37.824v18.053h-.086V37.824h.086z" fill="#F0811A"/><path fill-rule="evenodd" clip-rule="evenodd" d="M15.45 37.91v18.053l-.086-.086V37.824l.086.086zM15.537 37.91v18.053h-.086V37.91h.086z" fill="#F0811A"/><path fill-rule="evenodd" clip-rule="evenodd" d="M15.623 37.91v18.053h-.086V37.91h.086zM15.709 37.996v17.967h-.086V37.996h.086zM15.794 38.082v17.88h-.085V37.997l.085.086zM15.88 38.082v17.967l-.086-.086V38.082h.086zM15.967 38.082v17.967h-.086V38.082h.086zM16.053 38.168v17.88h-.086V38.083l.086.086zM16.139 38.168v17.88h-.086v-17.88h.086zM16.225 38.168v17.88h-.086v-17.88h.086z" fill="#EF7F1A"/><path fill-rule="evenodd" clip-rule="evenodd" d="M16.311 38.254v17.794h-.086v-17.88l.086.086zM16.397 38.254v17.794h-.086V38.254h.086zM16.483 38.34v17.708h-.086V38.254l.086.086zM16.569 38.34v17.708h-.086V38.34h.086zM16.655 38.34v17.708h-.086V38.34h.086zM16.741 38.426v17.708l-.086-.086V38.34l.086.086zM16.827 38.426v17.708h-.086V38.426h.086z" fill="#EF7C1B"/><path fill-rule="evenodd" clip-rule="evenodd" d="M16.913 38.512v17.622h-.086V38.426l.086.086zM17 38.512v17.622h-.086V38.512h.085zM17.085 38.598v17.536H17V38.512l.085.086zM17.171 38.598v17.536h-.086V38.598h.086zM17.257 38.598v17.536h-.086V38.598h.086zM17.343 38.684v17.45h-.086V38.598l.086.086zM17.43 38.684v17.45h-.086v-17.45h.086zM17.516 38.684v17.45h-.086v-17.45h.086z" fill="#EF7A1B"/><path fill-rule="evenodd" clip-rule="evenodd" d="M17.602 38.77v17.364h-.086v-17.45l.086.086zM17.688 38.77v17.364h-.086V38.77h.085zM17.774 38.77v17.278l-.086.086V38.77h.086zM17.86 38.855v17.193h-.086V38.77l.086.087zM17.946 38.855v17.193h-.086V38.855h.086zM18.032 38.942v17.107h-.086V38.942h.086zM18.118 38.942v17.107h-.086V38.942h.086z" fill="#EE781C"/><path fill-rule="evenodd" clip-rule="evenodd" d="M18.204 39.028v17.02h-.086V38.943l.086.086zM18.29 39.028v17.02h-.086v-17.02h.086zM18.376 39.028v17.02h-.086v-17.02h.086zM18.462 39.114v16.935h-.086V39.028l.086.086zM18.548 39.114v16.849l-.086.086V39.114h.086zM18.634 39.2v16.763h-.086v-16.85l.086.087zM18.72 39.2v16.763h-.086V39.2h.086zM18.806 39.2v16.763h-.086V39.2h.086z" fill="#EE761C"/><path fill-rule="evenodd" clip-rule="evenodd" d="M18.893 39.286v16.677h-.086V39.2l.086.086zM18.979 39.286v16.59l-.086.087V39.286h.085zM19.064 39.286v16.59h-.085v-16.59h.085zM19.15 39.372v16.505h-.085V39.286l.085.086zM19.236 39.458v16.419h-.086V39.372l.086.086zM19.323 39.458V55.79l-.086.086v-16.42h.086zM19.409 39.458V55.79h-.086V39.458h.086zM19.495 39.544V55.79h-.086V39.458l.086.086z" fill="#EE741D"/><path fill-rule="evenodd" clip-rule="evenodd" d="M19.58 39.544V55.79h-.085V39.544h.086zM19.667 39.544v16.16l-.086.087V39.544h.086zM19.753 39.63v16.075h-.086V39.544l.086.085z" fill="#EE741D"/><path fill-rule="evenodd" clip-rule="evenodd" d="M19.839 39.63v16.075h-.086V39.629h.086zM19.925 39.715V55.62l-.086.086V39.629l.086.086zM20.011 39.715V55.62h-.086V39.715h.086zM20.097 39.715V55.62h-.086V39.715h.086zM20.183 39.801v15.732l-.086.086V39.715l.086.086zM20.27 39.801v15.732h-.087V39.8h.086z" fill="#ED721D"/><path fill-rule="evenodd" clip-rule="evenodd" d="M20.355 39.887v15.56l-.086.086V39.8l.086.086z" fill="#ED721D"/><path fill-rule="evenodd" clip-rule="evenodd" d="M20.441 39.887v15.56h-.085v-15.56h.085zM20.527 39.973v15.474h-.086v-15.56l.086.086zM20.613 39.973v15.388l-.086.086V39.973h.086zM20.7 40.06v15.3h-.087V39.974l.086.086zM20.786 40.06v15.215l-.086.086V40.059h.086zM20.872 40.145v15.13h-.086V40.059l.086.086zM20.958 40.145V55.19l-.086.086v-15.13h.086z" fill="#ED701E"/><path fill-rule="evenodd" clip-rule="evenodd" d="M21.044 40.231V55.19h-.087V40.145l.087.086zM21.13 40.231v14.872l-.086.086V40.231h.085zM21.216 40.317v14.786h-.086V40.231l.086.086zM21.302 40.317v14.7l-.086.086V40.317h.086zM21.388 40.403v14.614h-.086v-14.7l.086.086z" fill="#ED701E"/><path fill-rule="evenodd" clip-rule="evenodd" d="M21.474 40.49V54.93h-.086V40.403l.086.086zM21.56 40.575v14.27l-.086.086V40.49l.086.086zM21.646 40.575v14.27h-.086v-14.27h.086zM21.732 40.661V54.76l-.086.086v-14.27l.086.086zM21.818 40.747V54.76h-.086V40.661l.086.086zM21.904 40.747v13.926l-.086.086V40.747h.086zM21.99 40.833v13.754l-.086.086V40.747l.086.086zM22.076 40.919v13.668h-.086V40.833l.086.086z" fill="#ED6E1E"/><path fill-rule="evenodd" clip-rule="evenodd" d="M22.162 40.919V54.5l-.086.086V40.92h.086zM22.248 41.005v13.41l-.086.086V40.92l.086.086zM22.334 41.09v13.325h-.086v-13.41l.086.086zM22.42 41.177v13.152l-.086.086V41.091l.086.086zM22.506 41.177v13.066l-.086.086V41.177h.086zM22.592 41.263v12.98h-.086V41.177l.086.086zM22.678 41.435V54.07l-.086.086V41.35l.086.086zM22.765 41.435v12.55l-.086.086V41.435h.086zM22.85 41.52V53.9l-.085.085v-12.55l.086.085zM22.936 41.606V53.9h-.085V41.52l.085.086zM23.023 41.692v12.121l-.087.086V41.606l.087.086z" fill="#EC6B1E"/><path fill-rule="evenodd" clip-rule="evenodd" d="M23.109 41.778v11.95l-.086.085v-12.12l.086.085zM23.195 41.864v11.777l-.086.086V41.778l.086.086zM23.28 41.95v11.605l-.085.086V41.864l.086.086zM23.367 42.036V53.47l-.086.086V41.95l.086.086zM23.453 42.122v11.261l-.086.086V42.036l.086.086zM23.54 42.209v11.089l-.087.086V42.123l.086.086z" fill="#EC691F"/><path fill-rule="evenodd" clip-rule="evenodd" d="M23.625 42.294v10.918l-.086.086v-11.09l.086.087zM23.711 42.38v10.746l-.086.086V42.294l.086.086z" fill="#EC691F"/><path fill-rule="evenodd" clip-rule="evenodd" d="M23.797 42.552v10.402l-.086.086V42.466l.086.086zM23.883 42.638v10.23l-.086.086V42.552l.086.086zM23.97 42.724v10.058l-.087.086v-10.23l.086.086z" fill="#EC671F"/><path fill-rule="evenodd" clip-rule="evenodd" d="M24.055 42.81v9.8l-.086.172V42.724l.086.086zM24.141 42.896v9.628l-.086.086v-9.8l.086.086zM24.227 42.982v9.456l-.086.086v-9.628l.086.086zM24.314 43.154v9.198l-.087.086v-9.456l.087.172z" fill="#EC671F"/><path fill-rule="evenodd" clip-rule="evenodd" d="M24.4 43.24v8.94l-.086.172v-9.198l.085.086z" fill="#EB6420"/><path fill-rule="evenodd" clip-rule="evenodd" d="M24.485 43.326v8.768l-.086.087v-8.94l.086.085zM24.571 43.498v8.425l-.086.171v-8.768l.086.172zM24.658 43.584v8.253l-.086.085v-8.424l.086.086zM24.744 43.67v7.995l-.086.172v-8.253l.086.086zM24.83 43.842v7.737l-.086.086V43.67l.086.172zM24.916 44.1v7.135l-.086.172v-7.48l.086.173z" fill="#EB6420"/><path fill-rule="evenodd" clip-rule="evenodd" d="M25.002 44.272v6.79l-.086.173V44.1l.086.172zM25.088 44.443v6.448l-.086.172v-6.791l.086.171zM25.174 44.53v6.189l-.086.172v-6.448l.086.086zM25.26 44.701v5.846l-.086.172v-6.19l.086.172zM25.346 44.96v5.415c0 .086-.086.086-.086.172V44.7c0 .086.086.172.086.258zM25.432 45.13v4.987c0 .086-.086.172-.086.258v-5.416s.086.086.086.172zM25.518 45.303v4.642c0 .086-.086.172-.086.172V45.13c0 .086.086.172.086.172zM25.604 45.561v4.126c0 .086-.086.172-.086.258v-4.642c0 .086.086.172.086.258zM25.69 45.819v3.524c-.086.172-.086.258-.086.344v-4.126c0 .086 0 .172.086.258zM25.776 46.163v2.923l-.086.086v.171-3.524c0 .172 0 .258.086.344zM25.862 46.592v2.064c-.086.086-.086.258-.086.43v-2.923c0 .172 0 .258.086.43zM25.948 47.624c0 .344-.086.688-.086 1.032v-2.063c0 .344.086.688.086 1.031z" fill="#EB6320"/><path fill-rule="evenodd" clip-rule="evenodd" d="M.908 26.305v1.547c-.086-.43-.086-.945 0-1.547zM.994 25.79v2.664c0-.086 0-.172-.086-.258v-2.149l.086-.086v-.172zM1.08 25.617v3.009c-.086 0-.086-.086-.086-.172v-2.665c0-.086 0-.172.086-.172zM1.167 25.273v3.697l-.086-.172v-3.439l.086-.086zM1.252 24.93v4.384l-.085-.172v-4.04l.085-.172zM1.338 24.844V29.4l-.086-.086V24.93l.086-.086z" fill="#489ED7"/><path fill-rule="evenodd" clip-rule="evenodd" d="M1.424 24.586v5.072l-.086-.172v-4.814l.086-.086zM1.51 24.5v5.244l-.085-.086v-5.072l.086-.086z" fill="#479FD8"/><path fill-rule="evenodd" clip-rule="evenodd" d="M1.597 24.328v5.587l-.086-.086v-5.415l.086-.086zM1.683 24.07v6.017l-.086-.086v-5.845l.086-.086z" fill="#479FD8"/><path fill-rule="evenodd" clip-rule="evenodd" d="M1.769 23.984v6.19l-.086-.087V24.07l.086-.086z" fill="#479FD8"/><path fill-rule="evenodd" clip-rule="evenodd" d="M1.855 23.898v6.447l-.086-.086v-6.361h.086zM1.941 23.726v6.791l-.086-.086v-6.619l.086-.086z" fill="#46A0D9"/><path fill-rule="evenodd" clip-rule="evenodd" d="M2.027 23.64v6.963l-.086-.086v-6.79l.086-.087zM2.113 23.468v7.221h-.086v-7.135l.086-.086zM2.199 23.468v7.307l-.086-.086v-7.22h.086z" fill="#4BA1D9"/><path fill-rule="evenodd" clip-rule="evenodd" d="M2.285 23.296v7.651l-.086-.086v-7.479l.086-.086zM2.371 23.21v7.823l-.086-.086v-7.65l.086-.087zM2.457 23.124v7.995l-.086-.086V23.21l.086-.086zM2.543 23.038v8.167l-.086-.086v-7.995l.086-.086z" fill="#4AA3DA"/><path fill-rule="evenodd" clip-rule="evenodd" d="M2.629 22.952v8.339l-.086-.086v-8.253h.086zM2.715 22.866v8.51l-.086-.085v-8.339l.086-.086zM2.801 22.78v8.683l-.086-.086v-8.51l.086-.087z" fill="#49A4DB"/><path fill-rule="evenodd" clip-rule="evenodd" d="M2.887 22.694v8.855l-.086-.086v-8.769h.086zM2.973 22.608v8.94h-.086v-8.854l.086-.086zM3.06 22.523v9.112h-.086v-9.027l.086-.085zM3.146 22.523v9.198l-.086-.086v-9.113h.086zM3.231 22.436v9.37l-.085-.085v-9.198l.085-.087z" fill="#4DA6DD"/><path fill-rule="evenodd" clip-rule="evenodd" d="M3.317 22.35v9.543l-.086-.086v-9.37l.086-.086zM3.403 22.35v9.543h-.086V22.35h.086zM3.49 22.265v9.714l-.086-.086v-9.628h.086z" fill="#4CA8DE"/><path fill-rule="evenodd" clip-rule="evenodd" d="M3.576 22.179v9.886-.086H3.49v-9.714l.086-.086zM3.662 22.179v9.886h-.086v-9.886h.086z" fill="#4BA8DE"/><path fill-rule="evenodd" clip-rule="evenodd" d="M3.748 22.093V32.15l-.086-.086v-9.972h.086zM3.834 22.093V32.15h-.086V22.093h.086zM3.92 22.007v10.23l-.086-.086V22.007h.086z" fill="#4FA9DF"/><path fill-rule="evenodd" clip-rule="evenodd" d="M4.006 21.92v10.403l-.086-.086v-10.23l.086-.086z" fill="#4EABE0"/><path fill-rule="evenodd" clip-rule="evenodd" d="M4.092 21.92v10.403h-.086V21.92h.086zM4.178 21.92v10.488l-.086-.085V21.92h.086zM4.264 21.835v10.574h-.086V21.835h.086z" fill="#4EABE0"/><path fill-rule="evenodd" clip-rule="evenodd" d="M4.35 21.835v10.66l-.086-.086V21.835h.086zM4.436 21.749v10.746H4.35V21.748h.086zM4.522 21.749v10.832l-.086-.087V21.75h.086z" fill="#4DACE1"/><path fill-rule="evenodd" clip-rule="evenodd" d="M4.608 21.663v10.918h-.086V21.748l.086-.086zM4.694 21.663v11.003l-.086-.085V21.663h.086z" fill="#4DACE1"/><path fill-rule="evenodd" clip-rule="evenodd" d="M4.78 21.663v11.003h-.086V21.663h.086z" fill="#51AEE2"/><path fill-rule="evenodd" clip-rule="evenodd" d="M4.866 21.577v11.175l-.086-.086V21.663l.086-.086zM4.953 21.577v11.175h-.086V21.577h.086z" fill="#51AEE2"/><path fill-rule="evenodd" clip-rule="evenodd" d="M5.039 21.577v11.261l-.086-.086V21.577h.086zM5.125 21.491V32.84h-.086V21.577l.086-.086zM5.21 21.491V32.84h-.085V21.49h.085z" fill="#51AEE2"/><path fill-rule="evenodd" clip-rule="evenodd" d="M5.297 21.491v11.433H5.21V21.491h.086zM5.383 21.491v11.433h-.086V21.491h.086zM5.469 21.491v11.52l-.086-.087V21.491h.086z" fill="#50AFE3"/><path fill-rule="evenodd" clip-rule="evenodd" d="M5.555 21.405V33.01h-.086V21.405h.086z" fill="#50AFE3"/><path fill-rule="evenodd" clip-rule="evenodd" d="M5.64 21.405v11.691h-.085v-11.69h.086zM5.727 21.405v11.691h-.086v-11.69h.086z" fill="#53B1E4"/><path fill-rule="evenodd" clip-rule="evenodd" d="M5.813 21.405v11.777l-.086-.086v-11.69h.086zM5.899 21.405v11.777h-.086V21.405h.086zM5.985 21.405v11.777h-.086V21.405h.086z" fill="#53B1E4"/><path fill-rule="evenodd" clip-rule="evenodd" d="M6.071 21.32v11.948h-.086V21.32h.086zM6.157 21.32v11.948h-.086V21.32h.086zM6.243 21.32v11.948h-.086V21.32h.086z" fill="#52B2E5"/><path fill-rule="evenodd" clip-rule="evenodd" d="M6.33 21.32v12.034h-.087V21.32h.086zM6.416 21.32v12.034H6.33V21.32h.086zM6.501 21.32v12.12l-.085-.086V21.32H6.5z" fill="#51B4E6"/><path fill-rule="evenodd" clip-rule="evenodd" d="M6.587 21.32v12.12h-.086V21.32h.086zM6.673 21.32v12.12h-.086V21.32h.086z" fill="#51B4E6"/><path fill-rule="evenodd" clip-rule="evenodd" d="M6.76 21.32v12.206l-.087-.086V21.32h.086zM6.846 21.32v12.206H6.76V21.32h.086z" fill="#55B6E7"/><path fill-rule="evenodd" clip-rule="evenodd" d="M6.932 21.32v12.206h-.086V21.32h.086z" fill="#54B7E8"/><path fill-rule="evenodd" clip-rule="evenodd" d="M7.018 21.32v12.292h-.086V21.32h.086zM7.104 21.32v12.292h-.086V21.32h.086zM7.19 21.32v12.292h-.086V21.32h.086z" fill="#54B7E8"/><path fill-rule="evenodd" clip-rule="evenodd" d="M7.276 21.32v12.378l-.086-.086V21.32h.086z" fill="#54B7E8"/><path fill-rule="evenodd" clip-rule="evenodd" d="M7.362 21.405v12.293h-.086V21.32l.086.086zM7.448 21.405v12.293h-.086V21.405h.086z" fill="#53B8E9"/><path fill-rule="evenodd" clip-rule="evenodd" d="M7.534 21.405v12.293h-.086V21.405h.086z" fill="#53B8E9"/><path fill-rule="evenodd" clip-rule="evenodd" d="M7.62 21.405v12.38h-.086v-12.38h.086z" fill="#56B9EA"/><path fill-rule="evenodd" clip-rule="evenodd" d="M7.706 21.405v12.38H7.62v-12.38h.086z" fill="#55BAEA"/><path fill-rule="evenodd" clip-rule="evenodd" d="M7.792 21.405v12.38h-.086v-12.38h.086zM7.878 21.491v12.38h-.086V21.404v.086h.086zM7.964 21.491V33.87h-.086V21.491h.086zM8.05 21.491V33.87h-.086V21.491h.086z" fill="#55BAEA"/><path fill-rule="evenodd" clip-rule="evenodd" d="M8.136 21.491v12.465l-.086-.086V21.491h.086zM8.222 21.577v12.379h-.086V21.577h.086zM8.309 21.577v12.379h-.086V21.577h.086z" fill="#54BCEB"/><path fill-rule="evenodd" clip-rule="evenodd" d="M8.395 21.577v12.379h-.086V21.577h.086zM8.48 21.577v12.465l-.085-.086V21.577h.085zM8.566 21.663v12.379H8.48V21.663h.086z" fill="#54BCEC"/><path fill-rule="evenodd" clip-rule="evenodd" d="M8.652 21.663v12.379h-.086V21.663h.086zM8.739 21.75v12.292h-.086V21.663l.086.086z" fill="#59BEEC"/><path fill-rule="evenodd" clip-rule="evenodd" d="M8.825 21.749v12.379l-.086-.086V21.749h.086zM8.91 21.835v12.293h-.085V21.749l.086.086z" fill="#58BFED"/><path fill-rule="evenodd" clip-rule="evenodd" d="M8.997 21.835v12.293H8.91V21.835h.086zM9.083 21.92v12.208h-.086V21.835l.086.086zM9.169 21.92v12.208h-.086V21.92h.086z" fill="#58BFED"/><path fill-rule="evenodd" clip-rule="evenodd" d="M9.255 21.92v12.294h-.086V21.92h.086z" fill="#58C0EE"/><path fill-rule="evenodd" clip-rule="evenodd" d="M9.34 22.007v12.207h-.085V22.007h.086zM9.427 22.007v12.207h-.086V22.007h.086zM9.513 22.093v12.12h-.086v-12.12h.086z" fill="#58C0EE"/><path fill-rule="evenodd" clip-rule="evenodd" d="M9.6 22.179v12.12h-.087V22.18H9.6zM9.685 22.179v12.12H9.6V22.18h.086z" fill="#57C1EF"/><path fill-rule="evenodd" clip-rule="evenodd" d="M9.771 22.265V34.3h-.086V22.265h.086z" fill="#57C1EF"/><path fill-rule="evenodd" clip-rule="evenodd" d="M9.857 22.35V34.3h-.086V22.265l.086.086zM9.943 22.437V34.3h-.086V22.35l.086.087zM10.03 22.436v11.95h-.087v-11.95h.086z" fill="#57C1EF"/><path fill-rule="evenodd" clip-rule="evenodd" d="M10.115 22.523v11.863h-.086v-11.95l.086.087zM10.202 22.608v11.777h-.086V22.523l.086.085zM10.288 22.694v11.692h-.086V22.608l.086.086zM10.374 22.78v11.605h-.086v-11.69l.086.085z" fill="#5AC3F0"/><path fill-rule="evenodd" clip-rule="evenodd" d="M10.46 22.866v11.605l-.087-.086V22.78l.087.086z" fill="#5AC3F0"/><path fill-rule="evenodd" clip-rule="evenodd" d="M10.545 22.952v11.52h-.085V22.865l.085.086zM10.632 23.038v11.433h-.086V22.952l.086.086zM10.718 23.124v11.347h-.086V23.038l.086.086zM10.804 23.21v11.261h-.086V23.124l.086.086zM10.89 23.296v11.176h-.086V23.21l.086.086z" fill="#58C4F1"/><path fill-rule="evenodd" clip-rule="evenodd" d="M10.976 23.382v11.176l-.086-.086v-11.09h.086z" fill="#5FC6F1"/><path fill-rule="evenodd" clip-rule="evenodd" d="M11.062 23.468v11.09h-.086V23.382l.086.086zM11.148 23.64v10.918h-.086V23.554l.086.086zM11.234 23.812v10.746h-.086V23.726l.086.086zM11.32 23.812v10.745h-.086V23.813h.086zM11.406 23.984v10.573h-.086v-10.66l.086.087zM11.492 24.07v10.487h-.086V23.984l.086.086z" fill="#5FC6F1"/><path fill-rule="evenodd" clip-rule="evenodd" d="M11.578 24.328v10.315h-.086V24.156l.086.172zM11.664 24.5v10.144h-.086v-10.23l.086.086zM11.75 24.586v10.058h-.085V24.5l.086.086zM11.836 24.844v9.8h-.085v-9.972l.085.172zM11.922 25.016v9.628h-.086V24.93l.086.086z" fill="#5FC6F1"/><path fill-rule="evenodd" clip-rule="evenodd" d="M12.008 25.188v9.456h-.086v-9.628l.086.172z" fill="#5FC6F1"/><path fill-rule="evenodd" clip-rule="evenodd" d="M12.094 25.445v9.199h-.086v-9.285l.086.086zM12.18 25.617v9.027h-.085v-9.199l.086.172zM12.267 26.047v8.682h-.086v-8.94c0 .086.086.172.086.258zM12.353 26.563v8.167h-.086v-8.425c.086.086.086.172.086.258z" fill="#63C7F2"/><path fill-rule="evenodd" clip-rule="evenodd" d="M12.438 26.907v7.823h-.086v-8.167c0 .086 0 .258.086.344z" fill="#63C7F2"/><path fill-rule="evenodd" clip-rule="evenodd" d="M12.525 28.025v6.705h-.086v-7.221l.086.516z" fill="#66C8F2"/><path fill-rule="evenodd" clip-rule="evenodd" d="M12.61 29.142v5.587h-.085v-6.103l.086.516zM12.697 29.571v5.158h-.086v-5.587l.086.43zM12.783 30.431v4.299h-.086v-4.643l.086.344zM12.869 31.205v3.525h-.086V30.86c.086.172.086.258.086.344zM12.955 31.549v3.267l-.086-.086v-3.525l.086.344zM13.041 32.15v2.665h-.086v-2.922c.086.085.086.172.086.258zM13.127 32.408v2.407h-.086V32.15l.086.258z" fill="#66C8F2"/><path fill-rule="evenodd" clip-rule="evenodd" d="M13.213 32.838v1.977h-.086V32.58c0 .086.086.172.086.258zM13.3 33.096v1.72h-.087V33.01c.086 0 .086.086.086.086zM13.385 33.268v1.547H13.3v-1.719l.086.172z" fill="#66C8F2"/><path fill-rule="evenodd" clip-rule="evenodd" d="M13.471 33.526v1.29h-.086V33.44l.086.086z" fill="#66C8F2"/><path fill-rule="evenodd" clip-rule="evenodd" d="M13.557 33.698v1.117h-.086v-1.203l.086.086zM13.644 33.784v1.031h-.086v-1.117l.086.086z" fill="#6BC9F2"/><path fill-rule="evenodd" clip-rule="evenodd" d="M13.73 33.956v.86h-.086v-.946l.085.086z" fill="#6BC9F1"/><path fill-rule="evenodd" clip-rule="evenodd" d="M13.816 34.042v.774h-.087v-.86l.087.086z" fill="#6BC9F1"/><path fill-rule="evenodd" clip-rule="evenodd" d="M13.901 34.214v.688l-.086-.086v-.688l.086.086zM13.987 34.386v.516h-.086V34.3l.086.086zM14.074 34.386v.515h-.086v-.515h.086z" fill="#6BC9F1"/><path fill-rule="evenodd" clip-rule="evenodd" d="M14.16 34.558v.343h-.086v-.43l.086.087zM14.246 34.73v.172h-.086v-.258l.086.086zM14.332 36.816v.085h-.086v-.172l.086.087z" fill="#6ECAF1"/></svg>