<?xml version="1.0" encoding="UTF-8"?>
<!DOCTYPE svg PUBLIC "-//W3C//DTD SVG 1.1//EN" "http://www.w3.org/Graphics/SVG/1.1/DTD/svg11.dtd">
<!-- Creator: CorelDRAW 2017 -->
<svg xmlns="http://www.w3.org/2000/svg" xml:space="preserve" width="4.4027mm" height="3.333mm" version="1.1" style="shape-rendering:geometricPrecision; text-rendering:geometricPrecision; image-rendering:optimizeQuality; fill-rule:evenodd; clip-rule:evenodd"
viewBox="0 0 2261 1712"
 xmlns:xlink="http://www.w3.org/1999/xlink">
 <defs>
  <style type="text/css">
   <![CDATA[
    .fil0 {fill:none}
    .fil1 {fill:#8FD6F1}
   ]]>
  </style>
 </defs>
 <g id="Слой_x0020_1">
  <metadata id="CorelCorpID_0Corel-Layer"/>
  <rect class="fil0" width="2261" height="1712"/>
  <path class="fil1" d="M990 1502c0,-76 63,-137 141,-137 78,0 141,61 141,137 0,76 -63,137 -141,137 -78,0 -141,-61 -141,-137zm0 -646c0,-76 63,-137 141,-137 78,0 141,61 141,137 0,76 -63,137 -141,137 -78,0 -141,-61 -141,-137zm0 -646c0,-76 63,-137 141,-137 78,0 141,61 141,137 0,76 -63,137 -141,137 -78,0 -141,-61 -141,-137z"/>
 </g>
</svg>
