<?xml version="1.0" encoding="UTF-8"?>
<!DOCTYPE svg PUBLIC "-//W3C//DTD SVG 1.1//EN" "http://www.w3.org/Graphics/SVG/1.1/DTD/svg11.dtd">
<!-- Creator: CorelDRAW 2017 -->
<svg xmlns="http://www.w3.org/2000/svg" xml:space="preserve" width="4.4027mm" height="3.333mm" version="1.1" style="shape-rendering:geometricPrecision; text-rendering:geometricPrecision; image-rendering:optimizeQuality; fill-rule:evenodd; clip-rule:evenodd"
viewBox="0 0 1795 1359"
 xmlns:xlink="http://www.w3.org/1999/xlink">
 <defs>
  <style type="text/css">
   <![CDATA[
    .fil1 {fill:none}
    .fil0 {fill:#BFE9F9}
   ]]>
  </style>
 </defs>
 <g id="Слой_x0020_1">
  <metadata id="CorelCorpID_0Corel-Layer"/>
  <path class="fil0" d="M897 75c39,0 77,4 114,11 0,2 0,4 0,7 0,83 68,151 151,151 41,0 77,-16 105,-42 40,31 77,68 108,108 -26,27 -42,64 -42,105 0,83 68,151 151,151 2,0 4,0 7,0 7,37 11,75 11,114 0,39 -4,77 -11,114 -2,0 -4,0 -7,0 -83,0 -151,68 -151,151 0,41 16,77 42,105 -31,40 -68,77 -108,108 -27,-26 -64,-42 -105,-42 -83,0 -151,68 -151,151 0,2 0,4 0,7 -37,7 -75,11 -114,11 -39,0 -77,-4 -114,-11 0,-2 0,-4 0,-7 0,-83 -68,-151 -151,-151 -41,0 -77,16 -105,42 -40,-31 -77,-68 -108,-108 26,-27 42,-64 42,-105 0,-83 -68,-151 -151,-151 -2,0 -4,0 -7,0 -7,-37 -11,-75 -11,-114 0,-39 4,-77 11,-114 2,0 4,0 7,0 83,0 151,-68 151,-151 0,-41 -16,-77 -42,-105 31,-40 68,-77 108,-108 27,26 64,42 105,42 83,0 151,-68 151,-151 0,-2 0,-4 0,-7 37,-7 75,-11 114,-11zm0 233c205,0 371,166 371,371 0,205 -166,371 -371,371 -205,0 -371,-166 -371,-371 0,-205 166,-371 371,-371z"/>
  <rect class="fil1" width="1795" height="1359"/>
 </g>
</svg>
