<?xml version="1.0" encoding="UTF-8"?>
<!DOCTYPE svg PUBLIC "-//W3C//DTD SVG 1.1//EN" "http://www.w3.org/Graphics/SVG/1.1/DTD/svg11.dtd">
<!-- Creator: CorelDRAW 2017 -->
<svg xmlns="http://www.w3.org/2000/svg" xml:space="preserve" width="1675px" height="1845px" version="1.1" style="shape-rendering:geometricPrecision; text-rendering:geometricPrecision; image-rendering:optimizeQuality; fill-rule:evenodd; clip-rule:evenodd"
viewBox="0 0 524.11 577.55"
 xmlns:xlink="http://www.w3.org/1999/xlink">
 <defs>
  <style type="text/css">
   <![CDATA[
    .fil0 {fill:white}
   ]]>
  </style>
 </defs>
 <g id="Слой_x0020_1">
  <metadata id="CorelCorpID_0Corel-Layer"/>
  <path class="fil0" d="M39.27 0l204.32 0 32.99 67.62 208.26 0c21.6,0 39.27,16.3 39.27,36.22l0 222.87c0,19.93 -17.67,36.23 -39.27,36.23l-94.63 0c-10.44,-55.48 -63.83,-97.73 -128.16,-97.73 -64.32,0 -117.72,42.25 -128.15,97.73l-94.63 0c-21.6,0 -39.27,-16.3 -39.27,-36.23l0 -290.48c0,-19.93 17.67,-36.23 39.27,-36.23zm222.78 292.33c-56.33,0 -102,46.13 -102,103.01 0,56.89 45.67,103.01 102,103.01 11.96,0 23.43,-2.08 34.09,-5.9l39.3 80.24c3.06,6.25 10.33,4.69 17.33,4.69l0.01 0c6.99,0 7.7,-11.22 4.64,-17.51l-38.57 -78.96c27.26,-18.49 45.2,-49.91 45.2,-85.57 0,-56.88 -45.67,-103.01 -102,-103.01zm0 22.07c-44.26,0 -80.14,36.24 -80.14,80.94 0,44.71 35.88,80.94 80.14,80.94 44.26,0 80.14,-36.23 80.14,-80.94 0,-44.7 -35.88,-80.94 -80.14,-80.94z"/>
 </g>
</svg>
