<svg width="25" height="19" viewBox="0 0 25 19" fill="none" xmlns="http://www.w3.org/2000/svg">
<path fill-rule="evenodd" clip-rule="evenodd" d="M8.5 0C10.7543 0 12.9163 0.895533 14.5104 2.48959C15.9061 3.88524 16.7662 5.71626 16.9588 7.66343C16.5082 7.85088 16.0833 8.08756 15.6908 8.36675C15.678 7.74808 15.585 7.1335 15.4138 6.53846H12.3512C12.393 6.97131 12.4231 7.40677 12.4231 7.84615C12.4204 8.72473 12.3301 9.60085 12.1537 10.4615H13.7982C13.5652 10.8717 13.3755 11.3097 13.2354 11.7692H11.8124C11.3858 13.1254 10.7414 14.4031 9.90446 15.5524C10.9677 15.3378 11.969 14.8862 12.8336 14.2312C12.8795 14.1965 12.9249 14.1612 12.9698 14.1254C13.0043 14.6209 13.0944 15.1011 13.2338 15.5599C11.8438 16.4919 10.1981 17 8.5 17C6.24566 17 4.08365 16.1045 2.48959 14.5104C0.895533 12.9163 0 10.7543 0 8.5C0 6.24566 0.895533 4.08365 2.48959 2.48959C4.08365 0.895533 6.24566 0 8.5 0ZM14.8998 5.23077C14.0612 3.60009 12.634 2.34916 10.9075 1.73138C11.4881 2.82985 11.9078 4.00677 12.1537 5.23077H14.8998ZM11.0382 9.14731L11.0461 9.08062C11.0907 8.67062 11.1138 8.25857 11.1154 7.84615C11.1066 7.40875 11.0734 6.97217 11.016 6.53846H5.984C5.9261 6.97212 5.89291 7.40872 5.88462 7.84615C5.88781 8.72661 5.99002 9.60392 6.18931 10.4615H10.8107C10.9114 10.0274 10.9872 9.58931 11.0382 9.14731ZM10.7872 5.23077C10.4791 3.84769 9.92304 2.53184 9.146 1.34692L9.07519 1.34081C8.8843 1.32426 8.69319 1.30769 8.5 1.30769C8.36378 1.30836 8.22765 1.3149 8.092 1.32731L7.854 1.34692L7.84615 1.36C7.07321 2.54145 6.5199 3.85273 6.21285 5.23077H10.7872ZM4.84631 5.23077C5.09714 4.00761 5.52257 2.82689 6.10954 1.72485C4.37552 2.34051 2.9416 3.59436 2.10015 5.23077H4.84631ZM1.58623 6.53846C1.40301 7.17626 1.30927 7.83641 1.30769 8.5C1.30927 9.16359 1.40301 9.82374 1.58623 10.4615H4.84631C4.66902 9.60099 4.57877 8.72478 4.57692 7.84615C4.57692 7.40677 4.607 6.97131 4.64885 6.53846H1.58623ZM5.18762 11.7692H2.10146C2.59579 12.7348 3.30156 13.5764 4.16623 14.2314C5.0309 14.8865 6.03219 15.338 7.09554 15.5524C6.2586 14.4032 5.61421 13.1254 5.18762 11.7692ZM8.5 15.2268C9.33619 14.1926 9.98983 13.0233 10.4328 11.7692H6.56723C7.0102 13.0233 7.66383 14.1925 8.5 15.2268Z" fill="#BFE9F9"/>
<path fill-rule="evenodd" clip-rule="evenodd" d="M18.454 9.16727C18.454 8.89112 18.6778 8.66727 18.954 8.66727H19.954C20.2301 8.66727 20.454 8.89112 20.454 9.16727V9.79328C22.1792 10.2373 23.454 11.8034 23.454 13.6673C23.454 15.5311 22.1792 17.0972 20.4539 17.5413L20.4239 17.5489C20.434 17.5464 20.4439 17.5438 20.4539 17.5413L20.454 18.1673C20.454 18.4434 20.2301 18.6673 19.954 18.6673H18.954C18.6778 18.6673 18.454 18.4434 18.454 18.1673V17.5413C17.739 17.3572 17.1014 16.9805 16.5998 16.4698L16.0568 16.7833C15.8177 16.9213 15.5119 16.8394 15.3738 16.6003L14.8738 15.7342C14.7358 15.4951 14.8177 15.1893 15.0568 15.0512L15.5989 14.7382C15.5045 14.3974 15.454 14.0382 15.454 13.6673C15.454 13.2963 15.5045 12.9371 15.5989 12.5963L15.0569 12.2833C14.8177 12.1452 14.7358 11.8394 14.8738 11.6003L15.3738 10.7343C15.5119 10.4951 15.8177 10.4132 16.0569 10.5513L16.5999 10.8648C17.1014 10.354 17.739 9.97729 18.454 9.79328V9.16727ZM19.454 16.1673C20.8347 16.1673 21.954 15.048 21.954 13.6673C21.954 12.2866 20.8347 11.1673 19.454 11.1673C18.0733 11.1673 16.954 12.2866 16.954 13.6673C16.954 15.048 18.0733 16.1673 19.454 16.1673Z" fill="#BFE9F9"/>
<path d="M22.3081 16.4698L22.8511 16.7833C23.0902 16.9214 23.396 16.8394 23.5341 16.6003L24.0341 15.7343C24.1722 15.4951 24.0902 15.1893 23.8511 15.0513L23.309 14.7383C23.1255 15.4003 22.7759 15.9934 22.3081 16.4698Z" fill="#BFE9F9"/>
<path d="M23.309 12.5963L23.8511 12.2833C24.0902 12.1452 24.1722 11.8394 24.0341 11.6003L23.5341 10.7342C23.396 10.4951 23.0902 10.4132 22.8511 10.5512L22.3081 10.8647C22.7759 11.3412 23.1255 11.9342 23.309 12.5963Z" fill="#BFE9F9"/>
</svg>
