<?xml version="1.0" encoding="UTF-8"?>
<!DOCTYPE svg PUBLIC "-//W3C//DTD SVG 1.1//EN" "http://www.w3.org/Graphics/SVG/1.1/DTD/svg11.dtd">
<!-- Creator: CorelDRAW 2017 -->
<svg xmlns="http://www.w3.org/2000/svg" xml:space="preserve" width="4.4027mm" height="3.333mm" version="1.1" style="shape-rendering:geometricPrecision; text-rendering:geometricPrecision; image-rendering:optimizeQuality; fill-rule:evenodd; clip-rule:evenodd"
viewBox="0 0 1753 1327"
 xmlns:xlink="http://www.w3.org/1999/xlink">
 <defs>
  <style type="text/css">
   <![CDATA[
    .fil0 {fill:none}
    .fil1 {fill:#BFE9F9}
   ]]>
  </style>
 </defs>
 <g id="Слой_x0020_1">
  <metadata id="CorelCorpID_0Corel-Layer"/>
  <rect class="fil0" width="1753" height="1327"/>
  <path class="fil1" d="M366 265l-1 276c0,240 -1,321 124,481 66,84 215,204 362,247 100,29 350,-174 384,-212 179,-202 153,-392 152,-671 0,-132 18,-118 -71,-137 -57,-12 -109,-29 -162,-48 -46,-16 -107,-42 -147,-64l-131 -79c-72,37 -84,67 -233,126 -96,38 -174,51 -277,82zm510 391l0 -493c-43,30 -138,76 -194,99 -59,24 -179,52 -227,77l-3 318 424 0zm0 0l0 529c231,-88 424,-251 424,-529l-424 0z"/>
 </g>
</svg>
