<?xml version="1.0" encoding="UTF-8"?>
<!DOCTYPE svg PUBLIC "-//W3C//DTD SVG 1.1//EN" "http://www.w3.org/Graphics/SVG/1.1/DTD/svg11.dtd">
<!-- Creator: CorelDRAW 2017 -->
<svg xmlns="http://www.w3.org/2000/svg" xml:space="preserve" width="4.4027mm" height="3.333mm" version="1.1" style="shape-rendering:geometricPrecision; text-rendering:geometricPrecision; image-rendering:optimizeQuality; fill-rule:evenodd; clip-rule:evenodd"
viewBox="0 0 2112 1599"
 xmlns:xlink="http://www.w3.org/1999/xlink">
 <defs>
  <style type="text/css">
   <![CDATA[
    .fil0 {fill:none}
    .fil1 {fill:#8FD6F1}
   ]]>
  </style>
 </defs>
 <g id="Слой_x0020_1">
  <metadata id="CorelCorpID_0Corel-Layer"/>
  <rect class="fil0" width="2112" height="1599"/>
  <path class="fil1" d="M654 664c-5,-51 -125,-101 132,-253 291,-172 201,35 270,69 48,-21 19,-82 63,-129 68,-23 214,57 269,103 173,147 79,115 68,208 54,20 121,-66 136,144 8,119 5,201 -44,310 -119,264 -179,120 -294,108 -216,-23 -293,-1 -471,47 -114,31 -160,-48 -207,-136 -60,-112 -59,-175 -56,-300 6,-220 49,-127 135,-169zm492 351c85,-71 -22,-165 -70,-223 -29,-36 -131,-158 -166,-173 -29,42 55,203 70,260 18,68 71,214 165,136zm-90 -903c411,0 744,333 744,744 0,411 -333,744 -744,744 -411,0 -744,-333 -744,-744 0,-411 333,-744 744,-744zm0 122c343,0 621,278 621,621 0,343 -278,621 -621,621 -343,0 -621,-278 -621,-621 0,-343 278,-621 621,-621z"/>
 </g>
</svg>
