<?xml version="1.0" encoding="UTF-8"?>
<!DOCTYPE svg PUBLIC "-//W3C//DTD SVG 1.1//EN" "http://www.w3.org/Graphics/SVG/1.1/DTD/svg11.dtd">
<!-- Creator: CorelDRAW 2017 -->
<svg xmlns="http://www.w3.org/2000/svg" xml:space="preserve" width="4.4027mm" height="3.333mm" version="1.1" style="shape-rendering:geometricPrecision; text-rendering:geometricPrecision; image-rendering:optimizeQuality; fill-rule:evenodd; clip-rule:evenodd"
viewBox="0 0 2114 1600"
 xmlns:xlink="http://www.w3.org/1999/xlink">
 <defs>
  <style type="text/css">
   <![CDATA[
    .fil1 {fill:none}
    .fil0 {fill:#BFE9F9}
   ]]>
  </style>
 </defs>
 <g id="Слой_x0020_1">
  <metadata id="CorelCorpID_0Corel-Layer"/>
  <path class="fil0" d="M654 665c-5,-51 -125,-101 132,-253 291,-172 201,35 271,69 48,-21 19,-82 63,-129 68,-23 215,57 269,103 173,147 79,116 68,208 54,20 121,-66 136,144 8,119 5,201 -44,310 -119,264 -179,120 -295,108 -216,-23 -293,-1 -471,47 -114,31 -160,-48 -207,-137 -60,-112 -59,-175 -56,-300 6,-220 49,-127 135,-169zm493 351c85,-71 -22,-166 -70,-223 -29,-36 -131,-158 -166,-173 -29,42 55,203 70,260 18,68 71,214 165,136zm-90 -904c411,0 744,333 744,744 0,411 -333,744 -744,744 -411,0 -744,-333 -744,-744 0,-411 333,-744 744,-744zm0 122c343,0 622,278 622,622 0,343 -278,622 -622,622 -343,0 -622,-278 -622,-622 0,-343 278,-622 622,-622z"/>
  <rect class="fil1" width="2114" height="1600"/>
 </g>
</svg>
