<?xml version="1.0" encoding="UTF-8"?>
<!DOCTYPE svg PUBLIC "-//W3C//DTD SVG 1.1//EN" "http://www.w3.org/Graphics/SVG/1.1/DTD/svg11.dtd">
<!-- Creator: CorelDRAW 2017 -->
<svg xmlns="http://www.w3.org/2000/svg" xml:space="preserve" width="4.4027mm" height="3.333mm" version="1.1" style="shape-rendering:geometricPrecision; text-rendering:geometricPrecision; image-rendering:optimizeQuality; fill-rule:evenodd; clip-rule:evenodd"
viewBox="0 0 1.93 1.46"
 xmlns:xlink="http://www.w3.org/1999/xlink">
 <defs>
  <style type="text/css">
   <![CDATA[
    .fil1 {fill:none}
    .fil0 {fill:#BFE9F9}
   ]]>
  </style>
 </defs>
 <g id="Слой_x0020_1">
  <metadata id="CorelCorpID_0Corel-Layer"/>
  <path class="fil0" d="M0.7 0.27c-0.08,0 -0.15,-0.01 -0.2,0.04 -0.02,0.03 -0.02,0.05 -0.02,0.09l0 0.83c-0,0.08 -0.01,0.16 0.04,0.2 0.03,0.02 0.05,0.03 0.09,0.02l0.71 0c0.04,0 0.07,0 0.1,-0.02 0.05,-0.04 0.04,-0.11 0.04,-0.2l0 -0.83c-0,-0.04 0,-0.07 -0.02,-0.1 -0.05,-0.06 -0.11,-0.04 -0.2,-0.04 -0,-0.03 -0.02,-0.05 -0.05,-0.06 -0.04,-0.01 -0.06,0.01 -0.09,-0.02 -0.03,-0.03 -0.02,-0.09 -0.13,-0.09 -0.11,0 -0.1,0.05 -0.13,0.09 -0.04,0.04 -0.13,-0.01 -0.14,0.08zm0.18 0.88l0.35 0 0 0.04 -0.35 0 0 -0.04zm0 -0.12l0.35 0 0 0.04 -0.35 0 0 -0.04zm0 -0.12l0.35 0 0 0.04 -0.35 0 0 -0.04zm0 -0.12l0.35 0 0 0.04 -0.35 0 0 -0.04zm0 -0.12l0.35 0 0 0.04 -0.35 0 0 -0.04zm0 -0.12l0.35 0 0 0.04 -0.35 0 0 -0.04zm-0.17 0.05c-0.01,-0.01 -0.03,-0.04 -0.05,-0.03 -0.01,0 -0.02,0.01 -0.01,0.02 0,0.01 0.01,0.02 0.02,0.02 0.05,0.05 0.03,0.05 0.13,-0.04 0.01,-0 0.02,-0.01 0.02,-0.02 0,-0.01 -0.01,-0.02 -0.02,-0.02 -0.02,-0 -0.04,0.03 -0.05,0.03 -0.01,0.01 -0.03,0.03 -0.04,0.04zm0 0.34c-0.01,-0.01 -0.03,-0.04 -0.05,-0.03 -0.01,0 -0.02,0.01 -0.01,0.02 0,0.01 0.01,0.02 0.02,0.02 0.05,0.05 0.04,0.05 0.13,-0.04 0.01,-0 0.02,-0.01 0.02,-0.02 0,-0.01 -0.01,-0.02 -0.02,-0.02 -0.02,-0 -0.06,0.06 -0.09,0.07zm0.22 -0.78c-0.03,0.01 -0.03,0.02 -0.04,0.04 -0.06,0.12 -0.15,0.02 -0.15,0.1 0,0.02 -0.01,0.06 0.01,0.07l0.41 0c0.03,-0 0.02,-0.03 0.02,-0.06 0,-0.04 0,-0.05 -0.04,-0.05 -0.11,0 -0.09,-0.08 -0.15,-0.1 -0.01,-0.01 -0.06,-0.01 -0.08,-0zm-0.05 0.13l0.16 0c0.01,0 0.02,0.01 0.02,0.02l0 0.02c0,0.01 -0.01,0.02 -0.02,0.02l-0.16 0c-0.01,0 -0.02,-0.01 -0.02,-0.02l0 -0.02c0,-0.01 0.01,-0.02 0.02,-0.02zm0.34 0.07c-0,0.06 -0.04,0.06 -0.1,0.06l-0.32 0c-0.06,0 -0.12,0 -0.11,-0.06 -0.03,0 -0.03,-0 -0.07,-0 -0.03,0 -0.05,0.01 -0.06,0.04 -0.01,0.02 -0,0.68 -0,0.78 -0,0.03 0,0.07 0,0.1 -0,0.09 0.03,0.09 0.11,0.09l0.59 0c0.07,-0 0.11,0.01 0.11,-0.08l-0 -0.69c0,-0.03 0,-0.17 -0,-0.19 -0.01,-0.02 -0.03,-0.04 -0.06,-0.04 -0.03,-0 -0.05,-0 -0.08,0z"/>
  <rect class="fil1" x="0" y="0" width="1.93" height="1.46"/>
 </g>
</svg>
