<?xml version="1.0" encoding="UTF-8"?>
<!DOCTYPE svg PUBLIC "-//W3C//DTD SVG 1.1//EN" "http://www.w3.org/Graphics/SVG/1.1/DTD/svg11.dtd">
<!-- Creator: CorelDRAW 2017 -->
<svg xmlns="http://www.w3.org/2000/svg" xml:space="preserve" width="4.4027mm" height="3.333mm" version="1.1" style="shape-rendering:geometricPrecision; text-rendering:geometricPrecision; image-rendering:optimizeQuality; fill-rule:evenodd; clip-rule:evenodd"
viewBox="0 0 2164 1638"
 xmlns:xlink="http://www.w3.org/1999/xlink">
 <defs>
  <style type="text/css">
   <![CDATA[
    .fil0 {fill:none}
    .fil1 {fill:#8FD6F1}
   ]]>
  </style>
 </defs>
 <g id="Слой_x0020_1">
  <metadata id="CorelCorpID_0Corel-Layer"/>
  <rect class="fil0" width="2164" height="1638"/>
  <path class="fil1" d="M978 1339l1 -92c-78,-3 -525,7 -554,-4 -11,-9 -5,-438 -4,-486 0,-46 -5,-120 2,-163l1024 0 2 183 92 1c3,-100 1,-205 0,-305 0,-55 8,-131 -73,-155 -21,-6 -46,-8 -66,0 0,40 3,65 -18,95 -14,20 -39,41 -78,40 -35,-1 -60,-19 -74,-41 -25,-39 -10,-58 -19,-97l-557 0c-3,35 7,137 -94,138 -38,0 -65,-20 -77,-41 -23,-38 -12,-53 -18,-98 -37,0 -68,-3 -95,18 -17,13 -40,38 -44,69l0 793c0,46 -4,60 17,96 35,61 99,48 180,48 149,0 306,5 454,0zm410 -468c-192,32 -357,210 -319,444 31,190 213,356 445,318 192,-31 357,-215 318,-446 -32,-189 -214,-355 -444,-316zm31 63c-169,20 -310,165 -286,359 21,165 173,303 365,276 160,-22 296,-172 272,-359 -21,-159 -166,-298 -350,-277zm9 346c10,15 155,107 178,88 49,-42 -84,-87 -125,-119 -1,-48 8,-137 -11,-171 -61,-12 -47,32 -47,80 0,38 -7,91 5,122zm-912 -592c-6,11 -4,32 -4,45 0,16 1,31 1,47 0,24 -3,72 1,94l185 -3 0 -183 -183 0zm558 182c6,8 26,4 43,4 36,0 113,3 141,-1l2 -163c0,-17 0,-15 -4,-22l-182 0 0 182zm186 -622c0,55 -18,149 38,158 70,11 55,-80 55,-133 0,-55 17,-146 -46,-146 -58,0 -47,70 -47,120zm-716 -118c-47,18 -30,104 -31,154 0,21 -3,75 3,91 7,22 31,38 59,29 48,-15 32,-105 31,-153 0,-24 4,-72 -2,-91 -7,-22 -32,-41 -60,-31zm250 632l1 111 183 0 2 -185 -185 0 0 73zm0 291l0 99 185 1 0 -184 -185 0 0 84zm-279 -55l0 154 185 0 0 -184 -185 0 0 30z"/>
 </g>
</svg>
