<?xml version="1.0" encoding="UTF-8"?>
<!DOCTYPE svg PUBLIC "-//W3C//DTD SVG 1.1//EN" "http://www.w3.org/Graphics/SVG/1.1/DTD/svg11.dtd">
<!-- Creator: CorelDRAW 2017 -->
<svg xmlns="http://www.w3.org/2000/svg" xml:space="preserve" width="3.1328mm" height="3.1328mm" version="1.1" style="shape-rendering:geometricPrecision; text-rendering:geometricPrecision; image-rendering:optimizeQuality; fill-rule:evenodd; clip-rule:evenodd"
viewBox="0 0 1126 1126"
 xmlns:xlink="http://www.w3.org/1999/xlink">
 <defs>
  <style type="text/css">
   <![CDATA[
    .fil0 {fill:#BFE9F9}
   ]]>
  </style>
 </defs>
 <g id="Слой_x0020_1">
  <metadata id="CorelCorpID_0Corel-Layer"/>
  <path class="fil0" d="M272 798c0,68 39,55 130,55l396 0c58,0 59,-26 56,-82 -3,-45 -29,-55 -63,-72 -153,-76 -104,-80 -181,-58 -98,29 -107,-35 -159,-5l-132 72c-43,24 -46,31 -46,90zm291 -798c155,0 296,63 398,165 102,102 165,243 165,398 0,155 -63,296 -165,398 -102,102 -243,165 -398,165 -155,0 -296,-63 -398,-165 -102,-102 -165,-243 -165,-398 0,-155 63,-296 165,-398 102,-102 243,-165 398,-165zm377 186c-96,-96 -230,-156 -377,-156 -147,0 -280,60 -377,156 -96,96 -156,230 -156,377 0,147 60,280 156,377 96,96 230,156 377,156 147,0 280,-60 377,-156 96,-96 156,-230 156,-377 0,-147 -60,-280 -156,-377zm-414 92c-199,62 -113,388 76,330 71,-22 126,-105 107,-203 -15,-77 -89,-157 -184,-127z"/>
 </g>
</svg>
