<svg viewBox="0 0 22 24" fill="none" xmlns="http://www.w3.org/2000/svg">
<path d="M17.0257 6.0679C16.4274 2.88756 13.7613 0.5 10.5586 0.5C8.01572 0.5 5.80722 2.01181 4.70737 4.22422C2.05892 4.51921 0 6.8699 0 9.71838C0 11.6372 0.935979 13.3299 2.35501 14.3222V11.7716C1.97905 11.1848 1.75976 10.4786 1.75976 9.71838C1.75976 7.68112 3.33475 6.03102 5.27929 6.03102H5.904C6.48473 3.90158 8.34128 2.34368 10.5586 2.34368C13.2334 2.34368 15.3979 4.6114 15.3979 7.41378V7.8747H16.7177C18.1783 7.8747 19.3574 9.10996 19.3574 10.6402C19.3574 11.3059 19.1342 11.9158 18.7618 12.3925V14.7222C20.1618 13.9506 21.1172 12.4116 21.1172 10.6402C21.1172 8.20656 19.3134 6.23383 17.0257 6.0679Z" fill="#61D6F2"/>
<path d="M10.5585 13.9639L13.192 15.4353V18.3781L10.5585 19.8495L7.92507 18.3781V15.4353L10.5585 13.9639Z" fill="#61D6F2"/>
<path fill-rule="evenodd" clip-rule="evenodd" d="M11.9589 12.1777C12.0193 12.0155 12.0523 11.8399 12.0523 11.6566C12.0523 10.8316 11.3835 10.1628 10.5586 10.1628C9.73357 10.1628 9.06479 10.8316 9.06479 11.6566C9.06479 11.8399 9.0978 12.0155 9.15821 12.1777L7.08902 13.3339C6.81535 13.025 6.4157 12.8303 5.97056 12.8303C5.14558 12.8303 4.4768 13.499 4.4768 14.324C4.4768 15.0602 5.00941 15.6721 5.71035 15.7952V17.8676C5.00941 17.9907 4.4768 18.6026 4.4768 19.3388C4.4768 20.1638 5.14558 20.8326 5.97056 20.8326C6.42342 20.8326 6.82922 20.631 7.10316 20.3128L9.16578 21.4652C9.10056 21.633 9.06479 21.8154 9.06479 22.0062C9.06479 22.8312 9.73357 23.5 10.5586 23.5C11.3835 23.5 12.0523 22.8312 12.0523 22.0062C12.0523 21.8154 12.0165 21.633 11.9513 21.4652L14.0139 20.3128C14.2879 20.631 14.6937 20.8326 15.1465 20.8326C15.9715 20.8326 16.6403 20.1638 16.6403 19.3388C16.6403 18.6026 16.1077 17.9907 15.4068 17.8676V15.7952C16.1077 15.6721 16.6403 15.0602 16.6403 14.324C16.6403 13.499 15.9715 12.8303 15.1465 12.8303C14.7014 12.8303 14.3017 13.025 14.0281 13.3339L11.9589 12.1777ZM7.46432 14.324C7.46432 15.0826 6.89888 15.7091 6.16648 15.8051V17.8578C6.89888 17.9537 7.46432 18.5802 7.46432 19.3388C7.46432 19.547 7.42173 19.7452 7.34479 19.9253L9.39424 21.0704C9.66804 20.7302 10.0879 20.5125 10.5586 20.5125C11.0292 20.5125 11.4491 20.7302 11.7229 21.0704L13.7723 19.9253C13.6954 19.7452 13.6528 19.547 13.6528 19.3388C13.6528 18.5802 14.2182 17.9537 14.9506 17.8578V15.8051C14.2182 15.7091 13.6528 15.0826 13.6528 14.324C13.6528 14.1083 13.6985 13.9033 13.7808 13.7182L11.7361 12.5758C11.4627 12.9255 11.0369 13.1503 10.5586 13.1503C10.0802 13.1503 9.65439 12.9255 9.381 12.5758L7.33635 13.7182C7.41861 13.9033 7.46432 14.1083 7.46432 14.324Z" fill="#61D6F2"/>
</svg>
