<svg width="24" height="23" viewBox="0 0 24 23" fill="none" xmlns="http://www.w3.org/2000/svg">
  <path d="M17.3359 5.50966C16.7975 2.64818 14.3988 0.5 11.5171 0.5C9.22922 0.5 7.24214 1.86024 6.25256 3.85084C3.86965 4.11625 2.01715 6.23126 2.01715 8.79415C2.01715 10.5206 2.85929 12.0436 4.13605 12.9364V10.6415C3.79779 10.1136 3.60048 9.47811 3.60048 8.79415C3.60048 6.96114 5.01756 5.47649 6.76714 5.47649H7.32922C7.85172 3.56054 9.52213 2.15883 11.5171 2.15883C13.9238 2.15883 15.8713 4.19919 15.8713 6.72061V7.13532H17.0588C18.3729 7.13532 19.4338 8.24673 19.4338 9.62356C19.4338 10.2225 19.233 10.7713 18.8979 11.2001V13.2963C20.1575 12.602 21.0171 11.2173 21.0171 9.62356C21.0171 7.43391 19.3942 5.65896 17.3359 5.50966Z" fill="#8394A5"/>
  <path d="M11.5171 12.614L13.8866 13.9379V16.5856L11.5171 17.9095L9.14766 16.5856V13.9379L11.5171 12.614Z" fill="#8394A5"/>
  <path fill-rule="evenodd" clip-rule="evenodd" d="M12.777 11.0069C12.8314 10.8609 12.8611 10.703 12.8611 10.538C12.8611 9.79576 12.2594 9.19403 11.5171 9.19403C10.7748 9.19403 10.1731 9.79576 10.1731 10.538C10.1731 10.703 10.2028 10.8609 10.2572 11.0069L8.39543 12.0471C8.1492 11.7692 7.78961 11.594 7.3891 11.594C6.64683 11.594 6.0451 12.1958 6.0451 12.938C6.0451 13.6004 6.52432 14.1509 7.15499 14.2617V16.1264C6.52432 16.2371 6.0451 16.7876 6.0451 17.45C6.0451 18.1923 6.64683 18.794 7.3891 18.794C7.79657 18.794 8.16168 18.6127 8.40815 18.3264L10.264 19.3632C10.2053 19.5142 10.1731 19.6784 10.1731 19.85C10.1731 20.5923 10.7748 21.194 11.5171 21.194C12.2594 21.194 12.8611 20.5923 12.8611 19.85C12.8611 19.6784 12.8289 19.5142 12.7702 19.3633L14.6261 18.3264C14.8725 18.6127 15.2376 18.794 15.6451 18.794C16.3874 18.794 16.9891 18.1923 16.9891 17.45C16.9891 16.7876 16.5099 16.2371 15.8792 16.1264V14.2617C16.5099 14.1509 16.9891 13.6004 16.9891 12.938C16.9891 12.1958 16.3874 11.594 15.6451 11.594C15.2446 11.594 14.885 11.7692 14.6388 12.0471L12.777 11.0069ZM8.73311 12.938C8.73311 13.6206 8.22435 14.1842 7.56539 14.2706V16.1175C8.22435 16.2038 8.73311 16.7675 8.73311 17.45C8.73311 17.6373 8.69479 17.8157 8.62556 17.9777L10.4695 19.008C10.7159 18.7019 11.0936 18.506 11.5171 18.506C11.9406 18.506 12.3183 18.7019 12.5647 19.008L14.4087 17.9777C14.3394 17.8157 14.3011 17.6373 14.3011 17.45C14.3011 16.7675 14.8099 16.2038 15.4688 16.1175V14.2706C14.8099 14.1842 14.3011 13.6206 14.3011 12.938C14.3011 12.744 14.3422 12.5595 14.4163 12.3929L12.5766 11.3651C12.3306 11.6797 11.9475 11.882 11.5171 11.882C11.0867 11.882 10.7036 11.6797 10.4576 11.3651L8.61796 12.3929C8.69198 12.5595 8.73311 12.744 8.73311 12.938Z" fill="#8394A5"/>
</svg>
