<svg width="23" height="23" viewBox="0 0 23 23" fill="none" xmlns="http://www.w3.org/2000/svg">
  <path d="M17.3187 5.50966C16.7804 2.64818 14.3816 0.5 11.5 0.5C9.21207 0.5 7.22499 1.86024 6.23541 3.85084C3.8525 4.11625 2 6.23126 2 8.79415C2 10.5206 2.84214 12.0436 4.1189 12.9364V10.6415C3.78063 10.1136 3.58333 9.47811 3.58333 8.79415C3.58333 6.96114 5.00041 5.47649 6.74999 5.47649H7.31207C7.83457 3.56054 9.50498 2.15883 11.5 2.15883C13.9066 2.15883 15.8541 4.19919 15.8541 6.72061V7.13532H17.0416C18.3558 7.13532 19.4166 8.24673 19.4166 9.62356C19.4166 10.2225 19.2159 10.7713 18.8808 11.2001V13.2963C20.1404 12.602 21 11.2173 21 9.62356C21 7.43391 19.377 5.65896 17.3187 5.50966Z" fill="#61D6F2"/>
  <path d="M11.5 12.614L13.8694 13.9379V16.5856L11.5 17.9095L9.13051 16.5856V13.9379L11.5 12.614Z" fill="#61D6F2"/>
  <path fill-rule="evenodd" clip-rule="evenodd" d="M12.7599 11.0069C12.8142 10.8609 12.844 10.703 12.844 10.538C12.844 9.79576 12.2422 9.19403 11.5 9.19403C10.7577 9.19403 10.156 9.79576 10.156 10.538C10.156 10.703 10.1857 10.8609 10.24 11.0069L8.37828 12.0471C8.13205 11.7692 7.77246 11.594 7.37195 11.594C6.62968 11.594 6.02795 12.1958 6.02795 12.938C6.02795 13.6004 6.50717 14.1509 7.13783 14.2617V16.1264C6.50717 16.2371 6.02795 16.7876 6.02795 17.45C6.02795 18.1923 6.62968 18.794 7.37195 18.794C7.77941 18.794 8.14452 18.6127 8.391 18.3264L10.2468 19.3632C10.1881 19.5142 10.156 19.6784 10.156 19.85C10.156 20.5923 10.7577 21.194 11.5 21.194C12.2422 21.194 12.844 20.5923 12.844 19.85C12.844 19.6784 12.8118 19.5142 12.7531 19.3633L14.6089 18.3264C14.8554 18.6127 15.2205 18.794 15.628 18.794C16.3702 18.794 16.972 18.1923 16.972 17.45C16.972 16.7876 16.4927 16.2371 15.8621 16.1264V14.2617C16.4927 14.1509 16.972 13.6004 16.972 12.938C16.972 12.1958 16.3702 11.594 15.628 11.594C15.2275 11.594 14.8679 11.7692 14.6216 12.0471L12.7599 11.0069ZM8.71595 12.938C8.71595 13.6206 8.2072 14.1842 7.54823 14.2706V16.1175C8.2072 16.2038 8.71595 16.7675 8.71595 17.45C8.71595 17.6373 8.67764 17.8157 8.60841 17.9777L10.4524 19.008C10.6987 18.7019 11.0765 18.506 11.5 18.506C11.9234 18.506 12.3012 18.7019 12.5475 19.008L14.3915 17.9777C14.3223 17.8157 14.284 17.6373 14.284 17.45C14.284 16.7675 14.7927 16.2038 15.4517 16.1175V14.2706C14.7927 14.1842 14.284 13.6206 14.284 12.938C14.284 12.744 14.3251 12.5595 14.3991 12.3929L12.5595 11.3651C12.3135 11.6797 11.9303 11.882 11.5 11.882C11.0696 11.882 10.6864 11.6797 10.4405 11.3651L8.60081 12.3929C8.67483 12.5595 8.71595 12.744 8.71595 12.938Z" fill="#61D6F2"/>
</svg>
