<svg width="24" height="24" viewBox="0 0 24 24" fill="none" xmlns="http://www.w3.org/2000/svg">
<g clip-path="url(#clip0)">
<path d="M14.2989 5.14968C14.2989 3.17682 11.1003 1.57825 7.15602 1.57825C3.21173 1.57825 0.0131598 3.17682 0.0131598 5.14968C0.0131598 5.20682 0.00740827 5.25968 0.0131226 5.31682L0.0131598 17.9911L0.0931598 18.5011C0.49316 20.2297 3.48316 21.5782 7.15602 21.5782C10.8289 21.5782 13.8189 20.2297 14.2189 18.5011L14.2989 17.9911V5.31682C14.3046 5.25968 14.2989 5.20682 14.2989 5.14968ZM7.15602 3.05253C10.6446 3.05253 12.8703 4.42968 12.8703 5.14968C12.8703 5.86968 10.6446 7.24682 7.15602 7.24682C3.66745 7.24682 1.44173 5.86396 1.44173 5.14968C1.44173 4.43539 3.66745 3.05253 7.15602 3.05253ZM12.8703 17.9925L12.8274 18.1797C12.6632 18.8868 10.6289 20.1497 7.15602 20.1497C3.68316 20.1497 1.64887 18.8868 1.48459 18.1797L1.44173 17.9925V7.27825C3.17162 8.29014 5.15311 8.79047 7.15602 8.7211C9.15948 8.78874 11.141 8.28642 12.8703 7.27253V17.9925Z" fill="#8394A5"/>
<circle cx="19" cy="2.07825" r="2" fill="#8394A5"/>
</g>
<defs>
<clipPath id="clip0">
<rect width="23" height="23" fill="white" transform="translate(0.0131226 0.0782471)"/>
</clipPath>
</defs>
</svg>
