<svg width="24" height="23" viewBox="0 0 24 23" fill="none" xmlns="http://www.w3.org/2000/svg">
<g clip-path="url(#clip0)">
<path d="M14.316 5.07143C14.316 3.09857 11.1174 1.5 7.17313 1.5C3.22885 1.5 0.0302773 3.09857 0.0302773 5.07143C0.0302773 5.12857 0.0245257 5.18143 0.03024 5.23857L0.0302773 17.9129L0.110277 18.4229C0.510277 20.1514 3.50028 21.5 7.17313 21.5C10.846 21.5 13.836 20.1514 14.236 18.4229L14.316 17.9129V5.23857C14.3217 5.18143 14.316 5.12857 14.316 5.07143ZM7.17313 2.97429C10.6617 2.97429 12.8874 4.35143 12.8874 5.07143C12.8874 5.79143 10.6617 7.16857 7.17313 7.16857C3.68456 7.16857 1.45885 5.78571 1.45885 5.07143C1.45885 4.35714 3.68456 2.97429 7.17313 2.97429ZM12.8874 17.9143L12.8446 18.1014C12.6803 18.8086 10.646 20.0714 7.17313 20.0714C3.70028 20.0714 1.66599 18.8086 1.50171 18.1014L1.45885 17.9143V7.2C3.18874 8.21189 5.17023 8.71222 7.17313 8.64286C9.1766 8.71049 11.1581 8.20818 12.8874 7.19429V17.9143Z" fill="#8394A5"/>
</g>
<defs>
<clipPath id="clip0">
<rect width="23" height="23" fill="white" transform="translate(0.0302734)"/>
</clipPath>
</defs>
</svg>
