<svg width="24" height="23" viewBox="0 0 24 23" fill="none" xmlns="http://www.w3.org/2000/svg">
<g clip-path="url(#clip0)">
<path d="M14.2988 5.07143C14.2988 3.09857 11.1003 1.5 7.15598 1.5C3.2117 1.5 0.0131264 3.09857 0.0131264 5.07143C0.0131264 5.12857 0.00737486 5.18143 0.0130891 5.23857L0.0131264 17.9129L0.0931264 18.4229C0.493126 20.1514 3.48313 21.5 7.15598 21.5C10.8288 21.5 13.8188 20.1514 14.2188 18.4229L14.2988 17.9129V5.23857C14.3046 5.18143 14.2988 5.12857 14.2988 5.07143ZM7.15598 2.97429C10.6446 2.97429 12.8703 4.35143 12.8703 5.07143C12.8703 5.79143 10.6446 7.16857 7.15598 7.16857C3.66741 7.16857 1.4417 5.78571 1.4417 5.07143C1.4417 4.35714 3.66741 2.97429 7.15598 2.97429ZM12.8703 17.9143L12.8274 18.1014C12.6631 18.8086 10.6288 20.0714 7.15598 20.0714C3.68313 20.0714 1.64884 18.8086 1.48456 18.1014L1.4417 17.9143V7.2C3.17159 8.21189 5.15308 8.71222 7.15598 8.64286C9.15945 8.71049 11.141 8.20818 12.8703 7.19429V17.9143Z" fill="#61D6F2"/>
</g>
<defs>
<clipPath id="clip0">
<rect width="23" height="23" fill="white" transform="translate(0.0131226)"/>
</clipPath>
</defs>
</svg>
