<svg width="24" height="23" viewBox="0 0 24 23" fill="none" xmlns="http://www.w3.org/2000/svg">
<g clip-path="url(#clip0)">
<path d="M14.2989 5.07143C14.2989 3.09857 11.1003 1.5 7.15602 1.5C3.21173 1.5 0.0131598 3.09857 0.0131598 5.07143C0.0131598 5.12857 0.00740827 5.18143 0.0131226 5.23857L0.0131598 17.9129L0.0931598 18.4229C0.49316 20.1514 3.48316 21.5 7.15602 21.5C10.8289 21.5 13.8189 20.1514 14.2189 18.4229L14.2989 17.9129V5.23857C14.3046 5.18143 14.2989 5.12857 14.2989 5.07143ZM7.15602 2.97429C10.6446 2.97429 12.8703 4.35143 12.8703 5.07143C12.8703 5.79143 10.6446 7.16857 7.15602 7.16857C3.66745 7.16857 1.44173 5.78571 1.44173 5.07143C1.44173 4.35714 3.66745 2.97429 7.15602 2.97429ZM12.8703 17.9143L12.8274 18.1014C12.6632 18.8086 10.6289 20.0714 7.15602 20.0714C3.68316 20.0714 1.64887 18.8086 1.48459 18.1014L1.44173 17.9143V7.2C3.17162 8.21189 5.15311 8.71222 7.15602 8.64286C9.15948 8.71049 11.141 8.20818 12.8703 7.19429V17.9143Z" fill="#61D6F2"/>
<circle cx="19" cy="2" r="2" fill="#61D6F2"/>
</g>
<defs>
<clipPath id="clip0">
<rect width="23" height="23" fill="white" transform="translate(0.0131226)"/>
</clipPath>
</defs>
</svg>
