<svg width="23" height="23" viewBox="0 0 23 23" fill="none" xmlns="http://www.w3.org/2000/svg">
<path d="M5.34417 11.3404C6.72417 14.0525 8.9475 16.2662 11.6596 17.6558L13.7679 15.5475C14.0267 15.2887 14.41 15.2025 14.7454 15.3175C15.8188 15.6721 16.9783 15.8637 18.1667 15.8637C18.6938 15.8637 19.125 16.295 19.125 16.8221V20.1667C19.125 20.6938 18.6938 21.125 18.1667 21.125C9.16792 21.125 1.875 13.8321 1.875 4.83333C1.875 4.30625 2.30625 3.875 2.83333 3.875H6.1875C6.71458 3.875 7.14583 4.30625 7.14583 4.83333C7.14583 6.03125 7.3375 7.18125 7.69208 8.25458C7.7975 8.59 7.72083 8.96375 7.4525 9.23208L5.34417 11.3404Z" fill="#85929E"/>
<circle cx="21" cy="2" r="2" fill="#85929E"/>
</svg>
