<svg width="24" height="23" viewBox="0 0 24 23" fill="none" xmlns="http://www.w3.org/2000/svg">
<path d="M12.0125 2.5C12.0125 2.52108 12.0122 2.54209 12.0117 2.56304C13.8723 3.17438 15.4317 4.44978 16.4095 6.10889H14.8457C14.0405 5.0518 12.9282 4.24128 11.6419 3.81041C11.2017 4.52422 10.4126 5 9.51245 5C8.61226 5 7.82319 4.52422 7.383 3.81041C4.72661 4.7002 2.81245 7.20902 2.81245 10.1649L2.81248 10.1837C4.04772 10.3357 5.00415 11.3886 5.00415 12.6649C5.00415 13.3342 4.74117 13.942 4.3129 14.3907C5.05352 15.3009 6.02833 16.0129 7.14551 16.4348V17.809C5.5604 17.3187 4.18593 16.349 3.19155 15.0692C2.97316 15.1315 2.74255 15.1649 2.50415 15.1649C1.12344 15.1649 0.00415039 14.0456 0.00415039 12.6649C0.00415039 11.6356 0.626249 10.7515 1.51498 10.3682C1.5133 10.3007 1.51245 10.2329 1.51245 10.1649C1.51245 6.61941 3.81889 3.6126 7.01323 2.56304C7.01271 2.54209 7.01245 2.52108 7.01245 2.5C7.01245 1.11929 8.13174 0 9.51245 0C10.8932 0 12.0125 1.11929 12.0125 2.5Z" fill="#61D6F2"/>
<path fill-rule="evenodd" clip-rule="evenodd" d="M21.5338 7.29822H9.38807C9.15315 7.29822 8.96094 7.50069 8.96094 7.74816V10.631C8.96094 10.8784 9.15315 11.0809 9.38807 11.0809H21.5338C21.7687 11.0809 21.9609 10.8784 21.9609 10.631V7.74816C21.9609 7.50069 21.7687 7.29822 21.5338 7.29822ZM20.8046 8.74123H19.0992V9.6379H20.8046V8.74123ZM18.5653 8.74123H16.8567V9.6379H18.5653V8.74123Z" fill="#61D6F2"/>
<path fill-rule="evenodd" clip-rule="evenodd" d="M21.5338 11.9069H9.38807C9.15315 11.9069 8.96094 12.1093 8.96094 12.3568V15.2396C8.96094 15.4871 9.15315 15.6896 9.38807 15.6896H21.5338C21.7687 15.6896 21.9609 15.4871 21.9609 15.2396V12.3568C21.9609 12.1093 21.7687 11.9069 21.5338 11.9069ZM20.8046 13.3499H19.0992V14.2498H20.8046V13.3499Z" fill="#61D6F2"/>
<path fill-rule="evenodd" clip-rule="evenodd" d="M21.5338 16.5155H9.38807C9.15315 16.5155 8.96094 16.718 8.96094 16.9655V19.8483C8.96094 20.0957 9.15315 20.2982 9.38807 20.2982H21.5338C21.7687 20.2982 21.9609 20.0957 21.9609 19.8483V16.9655C21.9609 16.718 21.7687 16.5155 21.5338 16.5155ZM20.8046 17.9585H19.0992V18.8584H20.8046V17.9585Z" fill="#61D6F2"/>
</svg>
