<svg width="23" height="23" viewBox="0 0 23 23" fill="none" xmlns="http://www.w3.org/2000/svg">
<path fill-rule="evenodd" clip-rule="evenodd" d="M1.77778 9C1.34822 9 1 9.3134 1 9.7V15.3C1 15.6866 1.34822 16 1.77778 16H21.2222C21.6518 16 22 15.6866 22 15.3V9.7C22 9.3134 21.6518 9 21.2222 9H1.77778ZM3.33333 11.8H4.88889V12.5H5.66667V14.6H2.55556V12.5H3.33333V11.8ZM9.55556 11.8H8V12.5H7.22222V14.6H10.3333V12.5H9.55556V11.8ZM12.6667 11.8H14.2222V12.5H15V14.6H11.8889V12.5H12.6667V11.8ZM16.5556 10.4H18.1111V14.6H16.5556V10.4ZM20.4444 10.4H18.8889V14.6H20.4444V10.4Z" fill="#61D6F2"/>
<circle cx="21" cy="2" r="2" fill="#61D6F2"/>
</svg>
