<svg width="24" height="23" viewBox="0 0 24 23" fill="none" xmlns="http://www.w3.org/2000/svg">
<path d="M12.0296 2.5C12.0296 2.52108 12.0293 2.54209 12.0288 2.56304C13.8894 3.17438 15.4488 4.44978 16.4266 6.10889H14.8628C14.0577 5.0518 12.9454 4.24128 11.6591 3.81041C11.2189 4.52422 10.4298 5 9.5296 5C8.62941 5 7.84034 4.52422 7.40015 3.81041C4.74376 4.7002 2.8296 7.20902 2.8296 10.1649L2.82963 10.1837C4.06487 10.3357 5.0213 11.3886 5.0213 12.6649C5.0213 13.3342 4.75832 13.942 4.33005 14.3907C5.07067 15.3009 6.04548 16.0129 7.16266 16.4348V17.809C5.57756 17.3187 4.20308 16.349 3.2087 15.0692C2.99031 15.1315 2.7597 15.1649 2.5213 15.1649C1.14059 15.1649 0.0213013 14.0456 0.0213013 12.6649C0.0213013 11.6356 0.6434 10.7515 1.53214 10.3682C1.53045 10.3007 1.5296 10.2329 1.5296 10.1649C1.5296 6.61941 3.83604 3.6126 7.03038 2.56304C7.02986 2.54209 7.0296 2.52108 7.0296 2.5C7.0296 1.11929 8.14889 0 9.5296 0C10.9103 0 12.0296 1.11929 12.0296 2.5Z" fill="#8394A5"/>
<path fill-rule="evenodd" clip-rule="evenodd" d="M10.9281 11.5711H20.0281C21.1071 11.5711 21.9781 12.4421 21.9781 13.5211V17.4211H19.3781V20.0211H11.5781V17.4211H8.97809V13.5211C8.97809 12.4421 9.84909 11.5711 10.9281 11.5711ZM12.8781 18.7211H18.0781V15.4711H12.8781V18.7211ZM19.3781 13.5211C19.3781 13.8786 19.6706 14.1711 20.0281 14.1711C20.3856 14.1711 20.6781 13.8786 20.6781 13.5211C20.6781 13.1636 20.3856 12.8711 20.0281 12.8711C19.6706 12.8711 19.3781 13.1636 19.3781 13.5211Z" fill="#8394A5"/>
<path d="M11.5781 8.32111H19.3781V10.9211H11.5781V8.32111Z" fill="#8394A5"/>
</svg>
