<svg viewBox="0 0 24 23" fill="none" xmlns="http://www.w3.org/2000/svg">
<path d="M13.3135 4.96449L13.3016 5.44734L13.3097 5.44999L13.0403 5.88676C12.7135 6.41668 12.1295 6.76754 11.4641 6.76754C10.7987 6.76754 10.2147 6.41668 9.88791 5.88676L9.61856 5.44999L9.62664 5.44734L9.61469 4.96451C9.61431 4.94891 9.61411 4.93325 9.61411 4.91754C9.61411 3.89581 10.4424 3.06754 11.4641 3.06754C12.4858 3.06754 13.3141 3.89581 13.3141 4.91754C13.3141 4.93326 13.3139 4.94892 13.3135 4.96449ZM13.8 5.61161L13.7225 5.58563L13.7604 5.5981C16.6959 6.56262 18.8141 9.32602 18.8141 12.5825C18.8141 9.3388 16.7134 6.58748 13.8 5.61161ZM9.16779 5.5981L9.20576 5.58563L9.1282 5.61161C6.2177 6.58653 4.11822 9.33343 4.11412 12.573C4.11823 9.32064 6.23515 6.56168 9.16779 5.5981ZM3.72405 13.3826L4.1274 13.2087L4.12663 13.1778L4.68479 13.2464C5.5982 13.3588 6.30581 14.1385 6.30581 15.0825C6.30581 15.578 6.11184 16.0268 5.79435 16.3595L5.40635 16.766L5.38708 16.7412L4.96484 16.8617C4.80388 16.9077 4.63328 16.9325 4.45581 16.9325C3.43408 16.9325 2.60581 16.1042 2.60581 15.0825C2.60581 14.3218 3.06505 13.6668 3.72405 13.3826ZM11.4641 19.9325C9.15375 19.9325 7.09251 18.8672 5.74411 17.1985L5.76039 17.2185C7.10703 18.8735 9.16215 19.9325 11.4641 19.9325ZM17.9955 16.8473L17.5629 16.711L17.5488 16.7292L17.1821 16.3253C16.8836 15.9964 16.7025 15.5613 16.7025 15.0825C16.7025 14.1591 17.3796 13.3927 18.2642 13.2547L18.8034 13.1706L18.803 13.1933L19.2257 13.3586C19.9156 13.6283 20.4025 14.2993 20.4025 15.0825C20.4025 16.1042 19.5742 16.9325 18.5525 16.9325C18.3574 16.9325 18.1705 16.9025 17.9955 16.8473ZM17.2086 17.168L17.2257 17.1465C15.8785 18.8448 13.7989 19.9322 11.4651 19.9325C13.79 19.9322 15.863 18.8516 17.2086 17.168ZM18.8141 12.5839C18.8141 12.5941 18.8141 12.6043 18.814 12.6145L18.814 12.6139L18.8141 12.5839Z" fill="#61D6F2" stroke="#61D6F2" stroke-width="1.3"/>
</svg>
