<svg viewBox="0 0 24 23" fill="none" xmlns="http://www.w3.org/2000/svg">
<path d="M12.0125 2.5C12.0125 2.52108 12.0122 2.54209 12.0117 2.56304C13.8723 3.17438 15.4317 4.44978 16.4095 6.10889H14.8457C14.0405 5.0518 12.9282 4.24128 11.6419 3.81041C11.2017 4.52422 10.4126 5 9.51245 5C8.61226 5 7.82319 4.52422 7.383 3.81041C4.72661 4.7002 2.81245 7.20902 2.81245 10.1649L2.81248 10.1837C4.04772 10.3357 5.00415 11.3886 5.00415 12.6649C5.00415 13.3342 4.74117 13.942 4.3129 14.3907C5.05352 15.3009 6.02833 16.0129 7.14551 16.4348V17.809C5.5604 17.3187 4.18593 16.349 3.19155 15.0692C2.97316 15.1315 2.74255 15.1649 2.50415 15.1649C1.12344 15.1649 0.00415039 14.0456 0.00415039 12.6649C0.00415039 11.6356 0.626249 10.7515 1.51498 10.3682C1.5133 10.3007 1.51245 10.2329 1.51245 10.1649C1.51245 6.61941 3.81889 3.6126 7.01323 2.56304C7.01271 2.54209 7.01245 2.52108 7.01245 2.5C7.01245 1.11929 8.13174 0 9.51245 0C10.8932 0 12.0125 1.11929 12.0125 2.5Z" fill="#61D6F2"/>
<path d="M14.4917 8.6243C11.7419 8.6243 9.51245 9.23795 9.51245 9.99482C9.51245 10.0082 9.51331 10.021 9.51473 10.0341H9.51245V12.5316C9.51245 13.2888 11.7419 13.9024 14.4917 13.9024C17.2419 13.9024 19.4713 13.2888 19.4713 12.5316V10.0341H19.469C19.4705 10.021 19.4713 10.0082 19.4713 9.99482C19.4714 9.23795 17.2419 8.6243 14.4917 8.6243Z" fill="#61D6F2"/>
<path d="M19.4665 14.0165L19.4571 14.0228C19.1457 14.2253 18.7211 14.4015 18.1946 14.5465C17.1966 14.8214 15.8814 14.9726 14.4917 14.9726C13.1022 14.9726 11.7872 14.8214 10.7891 14.5465C10.2627 14.4015 9.83811 14.2253 9.52671 14.0228L9.5173 14.0165C9.51388 14.0362 9.51245 14.0561 9.51245 14.0761C9.51245 14.0895 9.51331 14.1023 9.51473 14.1157H9.51245V16.6129C9.51245 17.3701 11.7419 17.9837 14.4917 17.9837C17.2419 17.9837 19.4713 17.3701 19.4713 16.6129V14.1157H19.469C19.4705 14.1023 19.4713 14.0895 19.4713 14.0761C19.4713 14.0561 19.4699 14.0362 19.4665 14.0165Z" fill="#61D6F2"/>
<path d="M19.4571 17.7446L19.4665 17.7384C19.4699 17.758 19.4713 17.778 19.4713 17.7979C19.4713 17.8113 19.4705 17.8241 19.469 17.8375H19.4713V20.3347C19.4713 21.0919 17.2419 21.7056 14.4917 21.7056C11.7419 21.7056 9.51245 21.0919 9.51245 20.3347V17.8375H9.51473C9.51331 17.8241 9.51245 17.8113 9.51245 17.7979C9.51245 17.778 9.51388 17.758 9.5173 17.7384L9.52671 17.7446C9.83811 17.9471 10.2627 18.1234 10.7891 18.2684C11.7872 18.5432 13.1022 18.6945 14.4917 18.6945C15.8814 18.6945 17.1966 18.5432 18.1946 18.2684C18.7211 18.1234 19.1457 17.9471 19.4571 17.7446Z" fill="#61D6F2"/>
</svg>
