<svg width="23" height="23" viewBox="0 0 23 23" fill="none" xmlns="http://www.w3.org/2000/svg">
<path d="M16.7346 4.21595C16.6074 4.11794 16.4592 4.05075 16.3016 4.01966C16.1441 3.98857 15.9815 3.99442 15.8265 4.03675L7.81824 6.1895C7.54037 6.26413 7.29518 6.42899 7.12121 6.65816C6.94724 6.88732 6.85437 7.16781 6.85718 7.45551V16.5358C6.85718 16.8066 6.682 17.0404 6.4108 17.1316L6.40598 17.1336L4.31671 17.8568C3.51757 18.124 3.00007 18.8661 3.00007 19.7464C2.99715 20.1045 3.08042 20.458 3.24287 20.777C3.40532 21.0961 3.64217 21.3715 3.93341 21.5797C4.30846 21.8522 4.75997 21.9993 5.22353 22C5.46605 21.9996 5.7069 21.9598 5.9367 21.8823L5.95196 21.8771L6.82945 21.558C7.21009 21.431 7.54142 21.1879 7.77696 20.8631C8.01251 20.5382 8.14046 20.1477 8.14288 19.7464V11.2286C8.14288 10.9357 8.33453 10.6979 8.63144 10.6232L8.63988 10.6207L15.6562 8.74684C15.6799 8.74072 15.7047 8.74009 15.7287 8.74501C15.7527 8.74994 15.7752 8.76027 15.7946 8.77523C15.814 8.79019 15.8297 8.80939 15.8405 8.83134C15.8513 8.8533 15.857 8.87744 15.8571 8.90193V14.6044C15.8571 14.8756 15.6863 15.1018 15.4107 15.1942L15.4007 15.1978L13.356 15.9255C12.9584 16.0562 12.6127 16.3101 12.3689 16.6504C12.1251 16.9907 11.9959 17.3997 12 17.8183C11.9964 18.1774 12.0793 18.5321 12.2418 18.8524C12.4042 19.1727 12.6414 19.4492 12.9333 19.6584C13.2191 19.865 13.5504 19.9997 13.8993 20.0511C14.2481 20.1025 14.6042 20.0691 14.9374 19.9537L14.9519 19.9489L15.8294 19.6295C16.21 19.5025 16.5413 19.2595 16.7768 18.9347C17.0124 18.6099 17.1403 18.2195 17.1428 17.8183V5.04482C17.1437 4.88447 17.1072 4.72612 17.0364 4.58226C16.9655 4.43841 16.8622 4.313 16.7346 4.21595Z" fill="#61D6F2"/>
<circle cx="21" cy="2" r="2" fill="#61D6F2"/>
</svg>
