<svg width="23" height="23" viewBox="0 0 23 23" fill="none" xmlns="http://www.w3.org/2000/svg">
<path fill-rule="evenodd" clip-rule="evenodd" d="M3.85714 13.4286C3.38376 13.4286 3 13.8123 3 14.2857V18.5714C3 19.0448 3.38376 19.4286 3.85714 19.4286H20.1429C20.6162 19.4286 21 19.0448 21 18.5714V14.2857C21 13.8123 20.6162 13.4286 20.1429 13.4286H3.85714ZM8.14286 16H4.71429V16.8571H8.14286V16Z" fill="#61D6F2"/>
<path d="M15.8571 12.0193V5.90887C15.8555 5.86032 15.8371 5.80675 15.7885 5.7582L14.106 4.07572C14.106 4.07572 14.0173 3.99369 13.9102 4.00039H7.83817C7.83817 4.00039 7.28571 4.00039 7.28571 4.55284V12.0193C7.28571 12.0193 7.28571 12.5718 7.83817 12.5718H15.3047C15.3047 12.5718 15.8571 12.5718 15.8571 12.0193ZM15.2545 11.6008C15.2545 11.9691 14.8862 11.9691 14.8862 11.9691H8.2567C7.88839 11.9691 7.88839 11.6008 7.88839 11.6008V8.25261C7.88839 7.88431 8.2567 7.88431 8.2567 7.88431H14.8862C15.2545 7.88431 15.2545 8.25261 15.2545 8.25261V11.6008Z" fill="#61D6F2"/>
<circle cx="21" cy="2" r="2" fill="#61D6F2"/>
</svg>
