<svg width="23" height="23" viewBox="0 0 23 23" fill="none" xmlns="http://www.w3.org/2000/svg">
<path d="M2 5.88889H3.88889V4C2.85 4 2 4.85 2 5.88889ZM2 13.4444H3.88889V11.5556H2V13.4444ZM5.77778 21H7.66667V19.1111H5.77778V21ZM2 9.66667H3.88889V7.77778H2V9.66667ZM11.4444 4H9.55556V5.88889H11.4444V4ZM17.1111 4V5.88889H19C19 4.85 18.15 4 17.1111 4ZM3.88889 21V19.1111H2C2 20.15 2.85 21 3.88889 21ZM2 17.2222H3.88889V15.3333H2V17.2222ZM7.66667 4H5.77778V5.88889H7.66667V4ZM9.55556 21H11.4444V19.1111H9.55556V21ZM17.1111 13.4444H19V11.5556H17.1111V13.4444ZM17.1111 21C18.15 21 19 20.15 19 19.1111H17.1111V21ZM17.1111 9.66667H19V7.77778H17.1111V9.66667ZM17.1111 17.2222H19V15.3333H17.1111V17.2222ZM13.3333 21H15.2222V19.1111H13.3333V21ZM13.3333 5.88889H15.2222V4H13.3333V5.88889ZM5.77778 17.2222H15.2222V7.77778H5.77778V17.2222ZM7.66667 9.66667H13.3333V15.3333H7.66667V9.66667Z" fill="#85929E"/>
<circle cx="21" cy="2" r="2" fill="#85929E"/>
</svg>
