<svg width="23" height="23" viewBox="0 0 23 23" fill="none" xmlns="http://www.w3.org/2000/svg">
<path d="M5.8303 17.3535C5.48563 17.0089 5.48626 16.4488 5.8303 16.1047C6.17434 15.7607 6.73442 15.7601 7.07908 16.1047C7.42375 16.4494 7.42313 17.0095 7.07908 17.3535C6.73504 17.6976 6.17496 17.6982 5.8303 17.3535Z" fill="#85929E"/>
<path d="M15.3535 7.83029C15.6982 8.17497 15.6976 8.73505 15.3535 9.07908C15.0095 9.42313 14.4494 9.42376 14.1048 9.07908C13.7601 8.73443 13.7607 8.17434 14.1048 7.83029C14.4488 7.48626 15.0089 7.48564 15.3535 7.83029Z" fill="#85929E"/>
<path fill-rule="evenodd" clip-rule="evenodd" d="M8.83675 6.04381C9.30317 7.02721 9.14083 8.23729 8.32787 9.05025C7.29513 10.083 5.61426 10.083 4.58151 9.05025C3.54877 8.01751 3.54877 6.33665 4.58151 5.30389C5.39447 4.49093 6.60455 4.32859 7.58859 4.79439L7.80775 4.57524C8.0283 4.35469 8.21203 4.17004 8.38096 4H3.41667C2.63426 4 2 4.63425 2 5.41667V19.5833C2 20.3657 2.63426 21 3.41667 21H17.5833C17.6371 21 17.6902 20.997 17.7424 20.9912L16.088 19.3368C15.1045 19.8032 13.8945 19.6408 13.0815 18.8279C12.0488 17.7951 12.0488 16.1143 13.0815 15.0815C14.1143 14.0488 15.7951 14.0488 16.8279 15.0815C17.6408 15.8945 17.8032 17.1045 17.3374 18.0886L17.5565 18.3077C17.8532 18.6044 18.0848 18.8344 18.3034 19.0513L18.307 19.055L18.3084 19.0563C18.5311 19.2774 18.7406 19.4854 18.9918 19.737C18.9972 19.6865 19 19.6353 19 19.5833V5.41667C19 4.63425 18.3657 4 17.5833 4H10.8806L8.83675 6.04381ZM8.83675 15.5959L11.2163 13.2163C11.8699 12.5715 12.2275 12.2113 12.629 11.8069C12.847 11.5873 13.0779 11.3548 13.3761 11.0566L13.5953 10.8374C14.5793 11.3032 15.7894 11.1408 16.6023 10.3279C17.6351 9.29512 17.6351 7.61426 16.6023 6.58152C15.5696 5.54877 13.8887 5.54877 12.856 6.58152C12.043 7.39448 11.8807 8.60456 12.3471 9.58796L9.96754 11.9675C9.31586 12.6104 8.95837 12.9705 8.55837 13.3734L8.5577 13.374L8.55646 13.3753L8.55488 13.3769C8.33687 13.5965 8.10596 13.8291 7.80775 14.1273L7.58859 14.3464C6.60455 13.8807 5.39447 14.043 4.58151 14.856C3.54877 15.8887 3.54877 17.5696 4.58151 18.6023C5.61426 19.6351 7.29513 19.6351 8.32787 18.6023C9.14083 17.7893 9.30317 16.5793 8.83675 15.5959Z" fill="#85929E"/>
<path d="M5.8303 6.55268C5.48626 6.89673 5.48563 7.4568 5.8303 7.80148C6.17496 8.14613 6.73504 8.1455 7.07908 7.80148C7.42313 7.45743 7.42375 6.89734 7.07908 6.55268C6.73442 6.20803 6.17434 6.20863 5.8303 6.55268Z" fill="#85929E"/>
<path d="M14.3303 16.3303C14.675 15.9856 15.235 15.9863 15.5791 16.3303C15.9231 16.6743 15.9237 17.2344 15.5791 17.5791C15.2344 17.9237 14.6743 17.9231 14.3303 17.5791C13.9863 17.235 13.9856 16.675 14.3303 16.3303Z" fill="#85929E"/>
<circle cx="21" cy="2" r="2" fill="#85929E"/>
</svg>
