<svg width="23" height="23" viewBox="0 0 23 23" fill="none" xmlns="http://www.w3.org/2000/svg">
<path fill-rule="evenodd" clip-rule="evenodd" d="M11.5 1C14.3817 1 16.7804 3.05041 17.3187 5.78166C19.3771 5.92417 21 7.61833 21 9.70833C21 11.5629 19.7225 13.1209 18 13.5497V11.8829C18.8352 11.5153 19.4167 10.6813 19.4167 9.70833C19.4167 8.39416 18.3558 7.33333 17.0417 7.33333H15.8542V6.9375C15.8542 4.53084 13.9066 2.58333 11.5 2.58333C9.50498 2.58333 7.83458 3.92125 7.3121 5.75H6.75C5.0004 5.75 3.58333 7.16708 3.58333 8.91667C3.58333 10.0191 4.14601 10.9896 5 11.5566V13.3331C3.24383 12.6353 2 10.9193 2 8.91667C2 6.47042 3.85252 4.45167 6.2354 4.19833C7.22498 2.29833 9.21207 1 11.5 1Z" fill="#85929E"/>
<path fill-rule="evenodd" clip-rule="evenodd" d="M13.8 12.7797V13.0079C13.8 13.6482 13.4523 14.2117 12.9258 14.5419C13.358 14.72 13.7571 14.9618 14.1107 15.2569C14.7191 14.6862 15.1 13.8906 15.1 13.0085V12.7804C15.8547 12.5106 16.4 11.7963 16.4 10.95C16.4 9.8749 15.5251 9 14.45 9C13.3749 9 12.5 9.8749 12.5 10.95C12.5 11.7963 13.0454 12.5106 13.8 12.7797ZM14.45 10.3C14.8088 10.3 15.1 10.5919 15.1 10.95C15.1 11.3081 14.8088 11.6 14.45 11.6C14.0912 11.6 13.8 11.3081 13.8 10.95C13.8 10.5919 14.0912 10.3 14.45 10.3Z" fill="#85929E"/>
<path fill-rule="evenodd" clip-rule="evenodd" d="M8.6 18.2196V17.775C8.6 17.2238 8.9328 16.7382 9.43655 16.4444C9.003 16.2611 8.6052 16.0109 8.25225 15.7093C7.66465 16.2384 7.3 16.969 7.3 17.775V18.2196C6.54535 18.4893 6 19.2037 6 20.05C6 21.1251 6.8749 22 7.95 22C9.0251 22 9.9 21.1251 9.9 20.05C9.9 19.2037 9.35465 18.4893 8.6 18.2196ZM7.95 20.7C7.5912 20.7 7.3 20.4081 7.3 20.05C7.3 19.6918 7.5912 19.4 7.95 19.4C8.3088 19.4 8.6 19.6918 8.6 20.05C8.6 20.4081 8.3088 20.7 7.95 20.7Z" fill="#85929E"/>
<path fill-rule="evenodd" clip-rule="evenodd" d="M11.2 14.85C13.1656 14.85 14.7912 16.3131 15.0577 18.2066C15.8345 18.464 16.4 19.1881 16.4 20.05C16.4 21.1251 15.5251 22 14.45 22C13.3749 22 12.5 21.1251 12.5 20.05C12.5 19.2232 13.02 18.5192 13.748 18.2358C13.5088 17.0476 12.4584 16.15 11.2 16.15C9.2344 16.15 7.60875 14.6868 7.34225 12.7934C6.5655 12.536 6 11.8119 6 10.95C6 9.8749 6.8749 9 7.95 9C9.0251 9 9.9 9.8749 9.9 10.95C9.9 11.7768 9.38 12.4807 8.652 12.7641C8.8912 13.9523 9.9416 14.85 11.2 14.85ZM8.6 10.95C8.6 10.5919 8.3088 10.3 7.95 10.3C7.5912 10.3 7.3 10.5919 7.3 10.95C7.3 11.3081 7.5912 11.6 7.95 11.6C8.3088 11.6 8.6 11.3081 8.6 10.95ZM13.8 20.05C13.8 20.4081 14.0912 20.7 14.45 20.7C14.8088 20.7 15.1 20.4081 15.1 20.05C15.1 19.6918 14.8088 19.4 14.45 19.4C14.0912 19.4 13.8 19.6918 13.8 20.05Z" fill="#85929E"/>
</svg>
