<svg width="23" height="23" viewBox="0 0 23 23" fill="none" xmlns="http://www.w3.org/2000/svg">
<path fill-rule="evenodd" clip-rule="evenodd" d="M11 18.5C14.866 18.5 18 15.366 18 11.5C18 7.63401 14.866 4.5 11 4.5C7.13401 4.5 4 7.63401 4 11.5C4 15.366 7.13401 18.5 11 18.5ZM11 20.5C15.9706 20.5 20 16.4706 20 11.5C20 6.52944 15.9706 2.5 11 2.5C6.02944 2.5 2 6.52944 2 11.5C2 16.4706 6.02944 20.5 11 20.5Z" fill="#61D6F2"/>
<path d="M14.8882 9.93604L12.6766 10.2964C12.6021 9.8976 12.4318 9.5973 12.1657 9.3955C11.9049 9.19369 11.5642 9.09279 11.1437 9.09279C10.5848 9.09279 10.1377 9.26817 9.8024 9.61892C9.47239 9.96486 9.30738 10.5462 9.30738 11.3631C9.30738 12.2712 9.47505 12.9126 9.81038 13.2874C10.151 13.6622 10.6061 13.8496 11.1756 13.8496C11.6015 13.8496 11.9501 13.7414 12.2216 13.5252C12.493 13.3042 12.6846 12.927 12.7964 12.3937L15 12.7324C14.7711 13.6453 14.332 14.3348 13.6826 14.8009C13.0333 15.267 12.163 15.5 11.0719 15.5C9.83167 15.5 8.84165 15.1468 8.1018 14.4405C7.36727 13.7342 7 12.7565 7 11.5072C7 10.2435 7.36993 9.26096 8.10978 8.55946C8.84963 7.85315 9.8503 7.5 11.1118 7.5C12.1444 7.5 12.9641 7.7018 13.5709 8.10541C14.183 8.5042 14.6221 9.11441 14.8882 9.93604Z" fill="#61D6F2"/>
<circle cx="21" cy="2" r="2" fill="#61D6F2"/>
</svg>
