<svg width="23" height="23" viewBox="0 0 23 23" fill="none" xmlns="http://www.w3.org/2000/svg">
<path fill-rule="evenodd" clip-rule="evenodd" d="M3.55855 4H19.4414C19.7486 4 20 4.26477 20 4.58838V8.35822C20 8.68183 19.7486 8.9466 19.4414 8.9466H3.55855C3.25135 8.9466 3 8.68183 3 8.35822V4.58838C3 4.26477 3.25135 4 3.55855 4ZM16.2577 5.88702H18.4879V7.05958H16.2577V5.88702ZM13.3253 5.88702H15.5595V7.05958H13.3253V5.88702ZM3.55855 10.0267H19.4414C19.7486 10.0267 20 10.2915 20 10.6151V14.3849C20 14.7085 19.7486 14.9733 19.4414 14.9733H3.55855C3.25135 14.9733 3 14.7085 3 14.3849V10.6151C3 10.2915 3.25135 10.0267 3.55855 10.0267ZM3.55855 16.0534H19.4414C19.7486 16.0534 20 16.3182 20 16.6418V20.4116C20 20.7352 19.7486 21 19.4414 21H3.55855C3.25135 21 3 20.7352 3 20.4116V16.6418C3 16.3182 3.25135 16.0534 3.55855 16.0534ZM16.2577 11.9137H18.4879V13.0905H16.2577V11.9137ZM16.2577 17.9404H18.4879V19.1172H16.2577V17.9404Z" fill="#85929E"/>
<circle cx="21" cy="2" r="2" fill="#85929E"/>
</svg>
