<svg width="23" height="24" viewBox="0 0 23 24" fill="none" xmlns="http://www.w3.org/2000/svg">
<path fill-rule="evenodd" clip-rule="evenodd" d="M11.5 2.07825C14.3816 2.07825 16.7804 4.22643 17.3187 7.08791C19.377 7.23721 21 9.01215 21 11.2018C21 13.2434 19.5894 14.942 17.7343 15.2855V13.5831C18.7093 13.2733 19.4166 12.326 19.4166 11.2018C19.4166 9.82498 18.3558 8.71356 17.0416 8.71356H15.8541V8.29886C15.8541 5.77744 13.9066 3.73708 11.5 3.73708C9.50498 3.73708 7.83457 5.13879 7.31207 7.05473H6.74999C5.00041 7.05473 3.58333 8.53939 3.58333 10.3724C3.58333 11.7949 4.43675 13.0076 5.63671 13.4794V15.211C3.55213 14.6852 2 12.7162 2 10.3724C2 7.8095 3.8525 5.69449 6.23541 5.42908C7.22499 3.43849 9.21207 2.07825 11.5 2.07825ZM16.2463 17.0544H17.061C17.8105 17.0544 18.4188 17.6678 18.4188 18.4235C18.4188 19.1792 17.8105 19.7925 17.061 19.7925H16.2463V21.983C16.2463 22.5854 15.7575 23.0782 15.16 23.0782H13.0961V22.2568C13.0961 21.4409 12.439 20.7782 11.6297 20.7782C10.8204 20.7782 10.1633 21.4409 10.1633 22.2568V23.0782H8.09937C7.50194 23.0782 7.01312 22.5854 7.01312 21.983V19.9021H7.82781C8.63707 19.9021 9.29425 19.2394 9.29425 18.4235C9.29425 17.6075 8.63707 16.9449 7.82781 16.9449H7.01855V14.864C7.01855 14.2616 7.50194 13.7687 8.09937 13.7687H10.2719V12.9473C10.2719 12.1916 10.8802 11.5782 11.6297 11.5782C12.3792 11.5782 12.9875 12.1916 12.9875 12.9473V13.7687H15.16C15.7575 13.7687 16.2463 14.2616 16.2463 14.864V17.0544Z" fill="#8394A5"/>
<circle cx="21" cy="2.07825" r="2" fill="#8394A5"/>
</svg>
