<svg width="23" height="23" viewBox="0 0 23 23" fill="none" xmlns="http://www.w3.org/2000/svg">
<path fill-rule="evenodd" clip-rule="evenodd" d="M15.4697 2.46967C15.7626 2.17678 16.2374 2.17678 16.5303 2.46967L20.3033 6.24264C20.5962 6.53553 20.5962 7.01041 20.3033 7.3033C20.0104 7.59619 19.5355 7.59619 19.2426 7.3033L16.75 4.81066V15C16.75 15.4142 16.4142 15.75 16 15.75C15.5858 15.75 15.25 15.4142 15.25 15V4.81066L12.7574 7.3033C12.4645 7.59619 11.9896 7.59619 11.6967 7.3033C11.4038 7.01041 11.4038 6.53553 11.6967 6.24264L15.4697 2.46967Z" fill="#61D6F2"/>
<path fill-rule="evenodd" clip-rule="evenodd" d="M10.4286 4H4.6C3.91044 4 3.24912 4.27092 2.76152 4.75315C2.27393 5.23539 2 5.88944 2 6.57143V21.3571C2 21.6103 2.15022 21.8399 2.38372 21.9436C2.61722 22.0473 2.89053 22.0058 3.08184 21.8376L8.5 17.0744L13.9182 21.8376C14.1095 22.0058 14.3828 22.0473 14.6163 21.9436C14.8498 21.8399 15 21.6103 15 21.3571V18.6316L13.7 18.5632V19.9256L8.93184 15.7338C8.68556 15.5173 8.31444 15.5173 8.06816 15.7338L3.3 19.9256V6.57143C3.3 6.23043 3.43696 5.90341 3.68076 5.66229C3.92456 5.42117 4.25522 5.28571 4.6 5.28571H10.6122L10.4286 4Z" fill="#61D6F2"/>
</svg>
