<svg width="23" height="23" viewBox="0 0 23 23" fill="none" xmlns="http://www.w3.org/2000/svg">
<path d="M17.3187 7.00966C16.7804 4.14818 14.3816 2 11.5 2C9.21207 2 7.22499 3.36024 6.23541 5.35084C3.8525 5.61625 2 7.73126 2 10.2941C2 12.6379 3.55213 14.6069 5.63671 15.1328V13.4012C4.43675 12.9293 3.58333 11.7166 3.58333 10.2941C3.58333 8.46114 5.00041 6.97649 6.74999 6.97649H7.31207C7.83457 5.06054 9.50498 3.65883 11.5 3.65883C13.9066 3.65883 15.8541 5.69919 15.8541 8.22061V8.63532H17.0416C18.3558 8.63532 19.4166 9.74673 19.4166 11.1236C19.4166 12.2478 18.7093 13.1951 17.7343 13.5048V15.2073C19.5894 14.8638 21 13.1652 21 11.1236C21 8.93391 19.377 7.15896 17.3187 7.00966Z" fill="#61D6F2"/>
<path fill-rule="evenodd" clip-rule="evenodd" d="M7.2509 12.5242C7.2509 12.3681 7.37463 12.2416 7.52726 12.2416H15.7392C15.8918 12.2416 16.0156 12.3681 16.0156 12.5242V14.5019C16.0156 14.6579 15.8918 14.7844 15.7392 14.7844H7.52726C7.37463 14.7844 7.2509 14.6579 7.2509 14.5019V12.5242ZM7.96154 12.8471H8.37609V14.179H7.96154V12.8471ZM9.50128 12.8471H9.08674V14.179H9.50128V12.8471ZM15.1865 13.513C15.1865 13.8474 14.9213 14.1184 14.5943 14.1184C14.2672 14.1184 14.0021 13.8474 14.0021 13.513C14.0021 13.1786 14.2672 12.9076 14.5943 12.9076C14.9213 12.9076 15.1865 13.1786 15.1865 13.513Z" fill="#61D6F2"/>
<path fill-rule="evenodd" clip-rule="evenodd" d="M7.52726 15.3494C7.37463 15.3494 7.2509 15.4759 7.2509 15.632V17.6097C7.2509 17.7657 7.37463 17.8922 7.52726 17.8922H15.7392C15.8918 17.8922 16.0156 17.7657 16.0156 17.6097V15.632C16.0156 15.4759 15.8918 15.3494 15.7392 15.3494H7.52726ZM8.37609 15.9549H7.96154V17.2868H8.37609V15.9549ZM9.08674 15.9549H9.50128V17.2868H9.08674V15.9549ZM14.5943 17.2262C14.9213 17.2262 15.1865 16.9552 15.1865 16.6208C15.1865 16.2865 14.9213 16.0154 14.5943 16.0154C14.2672 16.0154 14.0021 16.2865 14.0021 16.6208C14.0021 16.9552 14.2672 17.2262 14.5943 17.2262Z" fill="#61D6F2"/>
<path fill-rule="evenodd" clip-rule="evenodd" d="M7.2509 18.7398C7.2509 18.5837 7.37463 18.4572 7.52726 18.4572H15.7392C15.8918 18.4572 16.0156 18.5837 16.0156 18.7398V20.7175C16.0156 20.8735 15.8918 21 15.7392 21H7.52726C7.37463 21 7.2509 20.8735 7.2509 20.7175V18.7398ZM7.96154 19.0627H8.37609V20.3946H7.96154V19.0627ZM9.50128 19.0627H9.08674V20.3946H9.50128V19.0627ZM15.1865 19.7286C15.1865 20.063 14.9213 20.334 14.5943 20.334C14.2672 20.334 14.0021 20.063 14.0021 19.7286C14.0021 19.3943 14.2672 19.1232 14.5943 19.1232C14.9213 19.1232 15.1865 19.3943 15.1865 19.7286Z" fill="#61D6F2"/>
</svg>
