<svg width="23" height="23" viewBox="0 0 23 23" fill="none" xmlns="http://www.w3.org/2000/svg">
<path d="M14.4575 4.54614L14.4572 4.54586C13.5435 3.63093 12.3206 3.12502 11 3.12502H10.9987L10.9973 3.12501C10.3571 3.12349 9.7228 3.24847 9.13097 3.49279C8.53914 3.7371 8.00142 4.09594 7.54868 4.54868C7.09594 5.00142 6.7371 5.53915 6.49279 6.13097C6.24847 6.7228 6.12349 7.35706 6.12501 7.99733L6.12502 7.99867V8.00001C6.12502 9.46836 6.68822 10.7971 7.60882 11.6675L7.6101 11.6687L7.78784 11.8354C8.11348 12.1399 8.5628 12.5599 8.92918 13.0138C9.03922 13.1502 9.16075 13.3118 9.27501 13.4948L9.20001 16.4C9.04088 16.4 8.88827 16.3368 8.77575 16.2243C8.66323 16.1117 8.60001 15.9591 8.60001 15.8V14.9C8.60001 14.1365 7.67639 13.2714 7.00102 12.6399L6.83752 12.4865C5.67014 11.3836 5.00002 9.74826 5.00002 8.00001C4.99814 7.21155 5.15205 6.43049 5.45291 5.70169C5.75377 4.97289 6.19566 4.31071 6.75318 3.75318C7.31071 3.19566 7.97289 2.75377 8.70169 2.45291C9.43049 2.15205 10.2116 1.99814 11 2.00002C12.6151 2.00002 14.1256 2.62177 15.2533 3.75089C15.8107 4.30865 16.252 4.97133 16.5518 5.70065C16.8517 6.42998 17.004 7.21148 17 8.00001C17 9.78538 16.3655 11.3375 15.1648 12.4839L14.9806 12.6586L14.9797 12.6595C14.3127 13.2909 13.4 14.1549 13.4 14.9V15.8C13.4 15.9591 13.3368 16.1117 13.2243 16.2243C13.1118 16.3368 12.9591 16.4 12.8 16.4L12.725 13.5029C12.8373 13.3236 12.9561 13.1653 13.063 13.0321C13.423 12.5839 13.8643 12.1662 14.1853 11.8624L14.3879 11.6702L14.3891 11.6691C15.3483 10.7526 15.875 9.50377 15.875 8.00001V7.99718L15.875 7.99434C15.8782 7.35444 15.7546 6.72024 15.5113 6.12839C15.268 5.53654 14.9099 4.99876 14.4575 4.54614Z" fill="#85929E"/>
<path d="M12.9883 9.32785C13.2284 9.52504 13.2631 9.87949 13.0659 10.1195C12.6621 10.6112 12.1566 10.934 11.6 11.0568V15.8C11.6 16.1314 11.3314 16.4 11 16.4C10.6686 16.4 10.4 16.1314 10.4 15.8V11.016C9.89739 10.8743 9.41782 10.5808 8.9933 10.1638C8.7717 9.94604 8.76854 9.5899 8.98626 9.3683C9.20398 9.14669 9.56012 9.14354 9.78172 9.36126C10.2357 9.80729 10.6961 9.98751 11.0867 9.98751C11.4683 9.98751 11.8591 9.81639 12.1966 9.40547C12.3938 9.16541 12.7482 9.13066 12.9883 9.32785Z" fill="#85929E"/>
<path d="M13.2243 17.1757C13.1118 17.0632 12.9591 17 12.8 17H9.20001C9.04088 17 8.88827 17.0632 8.77575 17.1757C8.66323 17.2883 8.60001 17.4409 8.60001 17.6C8.60001 17.7591 8.66323 17.9117 8.77575 18.0243C8.88827 18.1368 9.04088 18.2 9.20001 18.2H12.8C12.9591 18.2 13.1118 18.1368 13.2243 18.0243C13.3368 17.9117 13.4 17.7591 13.4 17.6C13.4 17.4409 13.3368 17.2883 13.2243 17.1757Z" fill="#85929E"/>
<path d="M12.6243 18.9757C12.5118 18.8632 12.3591 18.8 12.2 18.8H9.80001C9.64088 18.8 9.48827 18.8632 9.37575 18.9757C9.26323 19.0883 9.20001 19.2409 9.20001 19.4C9.20001 19.5591 9.26323 19.7117 9.37575 19.8243C9.48827 19.9368 9.64088 20 9.80001 20H12.2C12.3591 20 12.5118 19.9368 12.6243 19.8243C12.7368 19.7117 12.8 19.5591 12.8 19.4C12.8 19.2409 12.7368 19.0883 12.6243 18.9757Z" fill="#85929E"/>
<circle cx="21" cy="2" r="2" fill="#85929E"/>
</svg>
