<svg width="23" height="23" viewBox="0 0 23 23" fill="none" xmlns="http://www.w3.org/2000/svg">
<path d="M5.34417 11.3404C6.72417 14.0525 8.9475 16.2662 11.6596 17.6558L13.7679 15.5475C14.0267 15.2887 14.41 15.2025 14.7454 15.3175C15.8188 15.6721 16.9783 15.8637 18.1667 15.8637C18.6937 15.8637 19.125 16.295 19.125 16.8221V20.1666C19.125 20.6937 18.6937 21.125 18.1667 21.125C9.16792 21.125 1.875 13.8321 1.875 4.83331C1.875 4.30623 2.30625 3.87498 2.83333 3.87498H6.1875C6.71458 3.87498 7.14583 4.30623 7.14583 4.83331C7.14583 6.03123 7.3375 7.18123 7.69208 8.25456C7.7975 8.58998 7.72083 8.96373 7.4525 9.23206L5.34417 11.3404Z" fill="#61D6F2"/>
<path fill-rule="evenodd" clip-rule="evenodd" d="M10.9581 9.36394L13.8954 12.3012L18.3012 7.89533L15.364 4.95812L10.9581 9.36394ZM9.48954 8.87441C9.21917 9.14477 9.21917 9.58311 9.48954 9.85348L13.4058 13.7698C13.6762 14.0401 14.1145 14.0401 14.3849 13.7698L19.7698 8.38487C20.0401 8.11451 20.0401 7.67616 19.7698 7.4058L15.8535 3.48952C15.5831 3.21915 15.1448 3.21915 14.8744 3.48952L9.48954 8.87441Z" fill="#61D6F2"/>
<circle cx="21" cy="2" r="2" fill="#61D6F2"/>
</svg>
