<svg width="23" height="24" viewBox="0 0 23 24" fill="none" xmlns="http://www.w3.org/2000/svg">
<path d="M17.3187 7.08791C16.7804 4.22643 14.3816 2.07825 11.5 2.07825C9.21207 2.07825 7.22499 3.43849 6.23541 5.42908C3.8525 5.69449 2 7.8095 2 10.3724C2 12.7162 3.55213 14.6852 5.63671 15.211V13.4794C4.43675 13.0076 3.58333 11.7949 3.58333 10.3724C3.58333 8.53939 5.00041 7.05473 6.74999 7.05473H7.31207C7.83457 5.13879 9.50498 3.73708 11.5 3.73708C13.9066 3.73708 15.8541 5.77744 15.8541 8.29886V8.71356H17.0416C18.3558 8.71356 19.4166 9.82498 19.4166 11.2018C19.4166 12.326 18.7093 13.2733 17.7343 13.5831V15.2855C19.5894 14.942 21 13.2434 21 11.2018C21 9.01215 19.377 7.23721 17.3187 7.08791Z" fill="#8394A5"/>
<path fill-rule="evenodd" clip-rule="evenodd" d="M7.2509 12.6024C7.2509 12.4464 7.37463 12.3199 7.52726 12.3199H15.7392C15.8918 12.3199 16.0156 12.4464 16.0156 12.6024V14.5801C16.0156 14.7361 15.8918 14.8626 15.7392 14.8626H7.52726C7.37463 14.8626 7.2509 14.7361 7.2509 14.5801V12.6024ZM7.96154 12.9253H8.37609V14.2572H7.96154V12.9253ZM9.50128 12.9253H9.08674V14.2572H9.50128V12.9253ZM15.1865 13.5913C15.1865 13.9256 14.9213 14.1967 14.5943 14.1967C14.2672 14.1967 14.0021 13.9256 14.0021 13.5913C14.0021 13.2569 14.2672 12.9858 14.5943 12.9858C14.9213 12.9858 15.1865 13.2569 15.1865 13.5913Z" fill="#8394A5"/>
<path fill-rule="evenodd" clip-rule="evenodd" d="M7.52726 15.4277C7.37463 15.4277 7.2509 15.5542 7.2509 15.7102V17.6879C7.2509 17.8439 7.37463 17.9704 7.52726 17.9704H15.7392C15.8918 17.9704 16.0156 17.8439 16.0156 17.6879V15.7102C16.0156 15.5542 15.8918 15.4277 15.7392 15.4277H7.52726ZM8.37609 16.0331H7.96154V17.365H8.37609V16.0331ZM9.08674 16.0331H9.50128V17.365H9.08674V16.0331ZM14.5943 17.3045C14.9213 17.3045 15.1865 17.0334 15.1865 16.6991C15.1865 16.3647 14.9213 16.0936 14.5943 16.0936C14.2672 16.0936 14.0021 16.3647 14.0021 16.6991C14.0021 17.0334 14.2672 17.3045 14.5943 17.3045Z" fill="#8394A5"/>
<path fill-rule="evenodd" clip-rule="evenodd" d="M7.2509 18.818C7.2509 18.662 7.37463 18.5355 7.52726 18.5355H15.7392C15.8918 18.5355 16.0156 18.662 16.0156 18.818V20.7957C16.0156 20.9518 15.8918 21.0782 15.7392 21.0782H7.52726C7.37463 21.0782 7.2509 20.9518 7.2509 20.7957V18.818ZM7.96154 19.1409H8.37609V20.4728H7.96154V19.1409ZM9.50128 19.1409H9.08674V20.4728H9.50128V19.1409ZM15.1865 19.8069C15.1865 20.1412 14.9213 20.4123 14.5943 20.4123C14.2672 20.4123 14.0021 20.1412 14.0021 19.8069C14.0021 19.4725 14.2672 19.2015 14.5943 19.2015C14.9213 19.2015 15.1865 19.4725 15.1865 19.8069Z" fill="#8394A5"/>
<circle cx="21" cy="2.07825" r="2" fill="#8394A5"/>
</svg>
