<svg width="23" height="23" viewBox="0 0 23 23" fill="none" xmlns="http://www.w3.org/2000/svg">
<path d="M11.2119 11.106C11.8374 11.106 12.3444 10.5989 12.3444 9.97351C12.3444 9.34807 11.8374 8.84106 11.2119 8.84106C10.5865 8.84106 10.0795 9.34807 10.0795 9.97351C10.0795 10.5989 10.5865 11.106 11.2119 11.106Z" fill="#61D6F2"/>
<path d="M11.7831 13.394C11.6904 13.0534 11.8742 12.6986 12.2059 12.5778C12.5356 12.4578 12.9024 12.6088 13.0521 12.9262L14.8506 16.7403C15.1138 17.2982 14.8406 17.9617 14.261 18.1726C13.6845 18.3824 13.0519 18.0547 12.8908 17.4628L11.7831 13.394Z" fill="#61D6F2"/>
<path fill-rule="evenodd" clip-rule="evenodd" d="M4.59603 3C4.26685 3 4 3.26685 4 3.59603V20.404C4 20.7332 4.26685 21 4.59603 21H17.5894C17.9186 21 18.1854 20.7332 18.1854 20.404V3.59603C18.1854 3.26685 17.9186 3 17.5894 3H4.59603ZM11.1523 15.2781C11.3138 15.2781 11.4737 15.271 11.6316 15.257L12.2548 17.868C12.4698 18.7689 13.4218 19.2812 14.2921 18.9644L14.7631 18.793C15.64 18.4738 16.038 17.4576 15.6111 16.6278L14.3665 14.209C15.6719 13.2305 16.5166 11.6708 16.5166 9.91391C16.5166 6.95132 14.1149 4.54967 11.1523 4.54967C8.18973 4.54967 5.78808 6.95132 5.78808 9.91391C5.78808 12.8765 8.18973 15.2781 11.1523 15.2781ZM6.3245 19.3311C6.6866 19.3311 6.98013 19.0376 6.98013 18.6755C6.98013 18.3134 6.6866 18.0199 6.3245 18.0199C5.96241 18.0199 5.66887 18.3134 5.66887 18.6755C5.66887 19.0376 5.96241 19.3311 6.3245 19.3311Z" fill="#61D6F2"/>
<circle cx="21" cy="2" r="2" fill="#61D6F2"/>
</svg>
