<svg width="23" height="23" viewBox="0 0 23 23" fill="none" xmlns="http://www.w3.org/2000/svg">
<path fill-rule="evenodd" clip-rule="evenodd" d="M11.5 1C14.3817 1 16.7804 3.05041 17.3187 5.78166C19.3771 5.92417 21 7.61833 21 9.70833C21 11.5629 19.7225 13.1209 18 13.5497V11.8829C18.8352 11.5153 19.4167 10.6813 19.4167 9.70833C19.4167 8.39416 18.3558 7.33333 17.0417 7.33333H15.8542V6.9375C15.8542 4.53084 13.9066 2.58333 11.5 2.58333C9.50498 2.58333 7.83458 3.92125 7.3121 5.75H6.75C5.0004 5.75 3.58333 7.16708 3.58333 8.91667C3.58333 10.0191 4.14601 10.9896 5 11.5566V13.3331C3.24383 12.6353 2 10.9193 2 8.91667C2 6.47042 3.85252 4.45167 6.2354 4.19833C7.22498 2.29833 9.21207 1 11.5 1Z" fill="#61D6F2"/>
<path d="M11.1666 9C8.31332 9 6 9.60984 6 10.362C6 10.3753 6.00089 10.388 6.00237 10.4011H6V12.883C6 13.6355 8.31332 14.2454 11.1666 14.2454C14.0203 14.2454 16.3336 13.6355 16.3336 12.883V10.4011H16.3312C16.3327 10.388 16.3336 10.3753 16.3336 10.362C16.3336 9.60984 14.0203 9 11.1666 9Z" fill="#61D6F2"/>
<path d="M16.3286 14.3588C16.3253 14.3608 16.3221 14.3629 16.3188 14.365C15.9957 14.5662 15.5551 14.7413 15.0089 14.8855C13.9732 15.1586 12.6086 15.3089 11.1666 15.3089C9.72478 15.3089 8.36037 15.1586 7.32473 14.8855C6.7785 14.7413 6.33791 14.5662 6.01479 14.365C6.01154 14.3629 6.00829 14.3608 6.00503 14.3588C6.00148 14.3783 6 14.3981 6 14.4179C6 14.4312 6.00089 14.444 6.00237 14.4573H6V16.939C6 17.6914 8.31332 18.3013 11.1666 18.3013C14.0203 18.3013 16.3336 17.6914 16.3336 16.939V14.4573H16.3312C16.3327 14.444 16.3336 14.4312 16.3336 14.4179C16.3336 14.3981 16.3321 14.3783 16.3286 14.3588Z" fill="#61D6F2"/>
<path d="M16.3286 18.0575C16.3253 18.0595 16.3221 18.0616 16.3188 18.0637C15.9957 18.2649 15.5551 18.4401 15.0089 18.5842C13.9732 18.8573 12.6086 19.0076 11.1666 19.0076C9.72478 19.0076 8.36037 18.8573 7.32473 18.5842C6.7785 18.4401 6.33791 18.2649 6.01479 18.0637C6.01154 18.0616 6.00829 18.0595 6.00503 18.0575C6.00148 18.077 6 18.0968 6 18.1167C6 18.13 6.00089 18.1427 6.00237 18.156H6V20.6377C6 21.3902 8.31332 22 11.1666 22C14.0203 22 16.3336 21.3902 16.3336 20.6377V18.156H16.3312C16.3327 18.1427 16.3336 18.13 16.3336 18.1167C16.3336 18.0968 16.3321 18.077 16.3286 18.0575Z" fill="#61D6F2"/>
</svg>
