<svg width="23" height="23" viewBox="0 0 23 23" fill="none" xmlns="http://www.w3.org/2000/svg">
<path d="M12.5062 9.3821L9.58332 7.18752V15.8125L12.5062 13.6179L15.3333 11.5L12.5062 9.3821ZM12.5062 9.3821L9.58332 7.18752V15.8125L12.5062 13.6179L15.3333 11.5L12.5062 9.3821ZM12.5062 9.3821L9.58332 7.18752V15.8125L12.5062 13.6179L15.3333 11.5L12.5062 9.3821ZM10.5417 3.90043V1.9646C8.6154 2.15627 6.86165 2.92293 5.44332 4.08252L6.80415 5.45293C7.8679 4.62877 9.14249 4.07293 10.5417 3.90043ZM5.4529 6.80418L4.08249 5.44335C2.9229 6.86168 2.15624 8.61543 1.96457 10.5417H3.9004C4.0729 9.14252 4.62874 7.86793 5.4529 6.80418ZM3.9004 12.4584H1.96457C2.15624 14.3846 2.9229 16.1384 4.08249 17.5567L5.4529 16.1863C4.62874 15.1321 4.0729 13.8575 3.9004 12.4584ZM5.44332 18.9175C6.86165 20.0771 8.62499 20.8438 10.5417 21.0354V19.0996C9.14249 18.9271 7.8679 18.3713 6.80415 17.5471L5.44332 18.9175ZM21.0833 11.5C21.0833 16.445 17.3267 20.5275 12.5062 21.0354V19.0996C16.2629 18.6013 19.1667 15.3813 19.1667 11.5C19.1667 7.61877 16.2629 4.39877 12.5062 3.90043V1.9646C17.3267 2.47252 21.0833 6.55502 21.0833 11.5Z" fill="#61D6F2"/>
</svg>
