<svg width="24" height="23" viewBox="0 0 24 23" fill="none" xmlns="http://www.w3.org/2000/svg">
<path d="M11.379 2.54695L11.3671 3.0298L11.3752 3.03245L11.1058 3.46922C10.779 3.99914 10.195 4.35 9.5296 4.35C8.8642 4.35 8.28019 3.99914 7.9534 3.46922L7.68405 3.03245L7.69213 3.0298L7.68018 2.54697C7.6798 2.53137 7.6796 2.51571 7.6796 2.5C7.6796 1.47827 8.50788 0.65 9.5296 0.65C10.5513 0.65 11.3796 1.47827 11.3796 2.5C11.3796 2.51572 11.3794 2.53137 11.379 2.54695ZM11.8655 3.19407L11.7877 3.16799L11.8259 3.18056C13.1469 3.6146 14.3036 4.4137 15.1757 5.45889H15.1757C14.3133 4.42523 13.1717 3.6316 11.8655 3.19407ZM3.82588 14.801C4.54353 15.6829 5.46209 16.3956 6.51266 16.869V16.8694C5.4555 16.3928 4.53059 15.6732 3.80966 14.7811L3.82588 14.801ZM3.85984 13.942L3.47184 14.3485L3.45257 14.3237L3.03034 14.4442C2.86937 14.4901 2.69877 14.5149 2.5213 14.5149C1.49957 14.5149 0.671301 13.6866 0.671301 12.6649C0.671301 11.9042 1.13054 11.2493 1.78954 10.9651L2.19289 10.7911L2.19212 10.7602L2.75028 10.8289C3.66369 10.9412 4.3713 11.7209 4.3713 12.6649C4.3713 13.1604 4.17733 13.6093 3.85984 13.942ZM7.23328 3.18056L7.27125 3.16809L7.19369 3.19407C4.28319 4.16898 2.18371 6.91588 2.17961 10.1554C2.18372 6.9031 4.30064 4.14414 7.23328 3.18056ZM15.6758 9.2058L20.8781 8.44887V12.7415L15.6758 12.7827V9.2058ZM13.784 9.4748L13.7855 12.8001L10.1834 12.8205L10.1802 9.96408L13.784 9.4748ZM10.1834 17.4708L10.1832 14.6123L13.7818 14.6355L13.7845 17.9643L10.1834 17.4708ZM20.8783 18.9496L15.6747 18.2174L15.6679 14.6746L20.8794 14.6831L20.8783 18.9496Z" fill="#8394A5" stroke="#8394A5" stroke-width="1.3"/>
</svg>
