<svg width="23" height="23" viewBox="0 0 23 23" fill="none" xmlns="http://www.w3.org/2000/svg">
<path d="M11.5 2C14.3816 2 16.7804 4.14818 17.3187 7.00966C19.377 7.15896 21 8.93391 21 11.1236C21 13.1652 19.5894 14.8638 17.7343 15.2073V13.5048C18.7093 13.1951 19.4166 12.2478 19.4166 11.1236C19.4166 9.74673 18.3558 8.63532 17.0416 8.63532H15.8541V8.22061C15.8541 5.69919 13.9066 3.65883 11.5 3.65883C9.50498 3.65883 7.83457 5.06054 7.31207 6.97649H6.74999C5.00041 6.97649 3.58333 8.46114 3.58333 10.2941C3.58333 11.7166 4.43675 12.9293 5.63671 13.4012V15.1328C3.55213 14.6069 2 12.6379 2 10.2941C2 7.73125 3.8525 5.61625 6.23541 5.35084C7.22499 3.36024 9.21207 2 11.5 2Z" fill="#61D6F2"/>
<path fill-rule="evenodd" clip-rule="evenodd" d="M7.83332 9.81333C7.83332 9.07694 8.43027 8.47999 9.16665 8.47999H13.8333C14.5697 8.47999 15.1667 9.07694 15.1667 9.81333V19.1467C15.1667 19.883 14.5697 20.48 13.8333 20.48H9.16665C8.43027 20.48 7.83332 19.883 7.83332 19.1467V9.81333ZM9.16665 13.1467H13.8333V13.8133H9.16665V13.1467ZM13.8333 11.1467H9.16665V11.8133H13.8333V11.1467ZM12.5 17.48C12.5 18.0323 12.0523 18.48 11.5 18.48C10.9477 18.48 10.5 18.0323 10.5 17.48C10.5 16.9277 10.9477 16.48 11.5 16.48C12.0523 16.48 12.5 16.9277 12.5 17.48Z" fill="#61D6F2"/>
</svg>
