<svg width="24" height="23" viewBox="0 0 24 23" fill="none" xmlns="http://www.w3.org/2000/svg">
<path d="M17.3359 7.00966C16.7975 4.14818 14.3988 2 11.5171 2C9.22922 2 7.24214 3.36024 6.25256 5.35084C3.86965 5.61625 2.01715 7.73126 2.01715 10.2941C2.01715 12.6379 3.56928 14.6069 5.65386 15.1328V13.4012C4.45391 12.9293 3.60048 11.7166 3.60048 10.2941C3.60048 8.46114 5.01756 6.97649 6.76714 6.97649H7.32922C7.85172 5.06054 9.52213 3.65883 11.5171 3.65883C13.9238 3.65883 15.8713 5.69919 15.8713 8.22061V8.63532H17.0588C18.3729 8.63532 19.4338 9.74673 19.4338 11.1236C19.4338 12.2478 18.7265 13.1951 17.7515 13.5048V15.2073C19.6066 14.8638 21.0171 13.1652 21.0171 11.1236C21.0171 8.93391 19.3942 7.15896 17.3359 7.00966Z" fill="#8394A5"/>
<path fill-rule="evenodd" clip-rule="evenodd" d="M7.26805 12.5242C7.26805 12.3681 7.39178 12.2416 7.54441 12.2416H15.7563C15.909 12.2416 16.0327 12.3681 16.0327 12.5242V14.5019C16.0327 14.6579 15.909 14.7844 15.7563 14.7844H7.54441C7.39178 14.7844 7.26805 14.6579 7.26805 14.5019V12.5242ZM7.9787 12.8471H8.39324V14.179H7.9787V12.8471ZM9.51843 12.8471H9.10389V14.179H9.51843V12.8471ZM15.2036 13.513C15.2036 13.8474 14.9385 14.1184 14.6114 14.1184C14.2843 14.1184 14.0192 13.8474 14.0192 13.513C14.0192 13.1786 14.2843 12.9076 14.6114 12.9076C14.9385 12.9076 15.2036 13.1786 15.2036 13.513Z" fill="#8394A5"/>
<path fill-rule="evenodd" clip-rule="evenodd" d="M7.54441 15.3494C7.39178 15.3494 7.26805 15.4759 7.26805 15.632V17.6097C7.26805 17.7657 7.39178 17.8922 7.54441 17.8922H15.7563C15.909 17.8922 16.0327 17.7657 16.0327 17.6097V15.632C16.0327 15.4759 15.909 15.3494 15.7563 15.3494H7.54441ZM8.39324 15.9549H7.9787V17.2868H8.39324V15.9549ZM9.10389 15.9549H9.51843V17.2868H9.10389V15.9549ZM14.6114 17.2262C14.9385 17.2262 15.2036 16.9552 15.2036 16.6208C15.2036 16.2865 14.9385 16.0154 14.6114 16.0154C14.2843 16.0154 14.0192 16.2865 14.0192 16.6208C14.0192 16.9552 14.2843 17.2262 14.6114 17.2262Z" fill="#8394A5"/>
<path fill-rule="evenodd" clip-rule="evenodd" d="M7.26805 18.7398C7.26805 18.5837 7.39178 18.4572 7.54441 18.4572H15.7563C15.909 18.4572 16.0327 18.5837 16.0327 18.7398V20.7175C16.0327 20.8735 15.909 21 15.7563 21H7.54441C7.39178 21 7.26805 20.8735 7.26805 20.7175V18.7398ZM7.9787 19.0627H8.39324V20.3946H7.9787V19.0627ZM9.51843 19.0627H9.10389V20.3946H9.51843V19.0627ZM15.2036 19.7286C15.2036 20.063 14.9385 20.334 14.6114 20.334C14.2843 20.334 14.0192 20.063 14.0192 19.7286C14.0192 19.3943 14.2843 19.1232 14.6114 19.1232C14.9385 19.1232 15.2036 19.3943 15.2036 19.7286Z" fill="#8394A5"/>
</svg>
