<svg width="24" height="23" viewBox="0 0 24 23" fill="none" xmlns="http://www.w3.org/2000/svg">
<path d="M11.5171 2C14.3988 2 16.7975 4.14818 17.3359 7.00966C19.3942 7.15896 21.0171 8.93391 21.0171 11.1236C21.0171 13.1652 19.6066 14.8638 17.7515 15.2073V13.5048C18.7265 13.1951 19.4338 12.2478 19.4338 11.1236C19.4338 9.74673 18.3729 8.63532 17.0588 8.63532H15.8713V8.22061C15.8713 5.69919 13.9238 3.65883 11.5171 3.65883C9.52213 3.65883 7.85172 5.06054 7.32922 6.97649H6.76714C5.01756 6.97649 3.60048 8.46114 3.60048 10.2941C3.60048 11.7166 4.45391 12.9293 5.65386 13.4012V15.1328C3.56928 14.6069 2.01715 12.6379 2.01715 10.2941C2.01715 7.73126 3.86965 5.61625 6.25256 5.35084C7.24214 3.36024 9.22922 2 11.5171 2Z" fill="#8394A5"/>
<path fill-rule="evenodd" clip-rule="evenodd" d="M7.85047 9.81333C7.85047 9.07694 8.44742 8.47999 9.1838 8.47999H13.8505C14.5868 8.47999 15.1838 9.07694 15.1838 9.81333V19.1467C15.1838 19.883 14.5868 20.48 13.8505 20.48H9.1838C8.44742 20.48 7.85047 19.883 7.85047 19.1467V9.81333ZM9.1838 13.1467H13.8505V13.8133H9.1838V13.1467ZM13.8505 11.1467H9.1838V11.8133H13.8505V11.1467ZM12.5171 17.48C12.5171 18.0323 12.0694 18.48 11.5171 18.48C10.9649 18.48 10.5171 18.0323 10.5171 17.48C10.5171 16.9277 10.9649 16.48 11.5171 16.48C12.0694 16.48 12.5171 16.9277 12.5171 17.48Z" fill="#8394A5"/>
</svg>
