<svg width="23" height="23" viewBox="0 0 23 23" fill="none" xmlns="http://www.w3.org/2000/svg">
<path d="M15.4905 5.81225C12.6989 6.20517 10.5417 8.60196 10.5417 11.5C10.5417 13.3553 9.21821 14.904 7.46638 15.2566C7.04854 14.1833 6.01067 13.4166 4.79167 13.4166C3.20658 13.4166 1.91667 14.7065 1.91667 16.2916C1.91667 17.8767 3.20658 19.1666 4.79167 19.1666C6.06242 19.1666 7.13 18.3329 7.5095 17.1877C10.3011 16.7948 12.4583 14.398 12.4583 11.5C12.4583 9.64463 13.7818 8.09596 15.5336 7.74329C15.9515 8.81663 16.9893 9.58329 18.2083 9.58329C19.7934 9.58329 21.0833 8.29338 21.0833 6.70829C21.0833 5.12321 19.7934 3.83329 18.2083 3.83329C16.9376 3.83329 15.87 4.66704 15.4905 5.81225ZM3.83333 16.2916C3.83333 15.7626 4.26363 15.3333 4.79167 15.3333C5.31971 15.3333 5.75 15.7626 5.75 16.2916C5.75 16.8206 5.31971 17.25 4.79167 17.25C4.26363 17.25 3.83333 16.8206 3.83333 16.2916ZM19.1667 6.70829C19.1667 7.23729 18.7364 7.66663 18.2083 7.66663C17.6803 7.66663 17.25 7.23729 17.25 6.70829C17.25 6.17929 17.6803 5.74996 18.2083 5.74996C18.7364 5.74996 19.1667 6.17929 19.1667 6.70829Z" fill="#85929E"/>
</svg>
