<svg width="23" height="24" viewBox="0 0 23 24" fill="none" xmlns="http://www.w3.org/2000/svg">
<path fill-rule="evenodd" clip-rule="evenodd" d="M11.5 2.07825C14.3816 2.07825 16.7804 4.22643 17.3187 7.08791C19.377 7.23721 21 9.01215 21 11.2018C21 13.2434 19.5894 14.942 17.7343 15.2855V13.5831C18.7093 13.2733 19.4166 12.326 19.4166 11.2018C19.4166 9.82498 18.3558 8.71356 17.0416 8.71356H15.8541V8.29886C15.8541 5.77744 13.9066 3.73708 11.5 3.73708C9.50498 3.73708 7.83457 5.13879 7.31207 7.05473H6.74999C5.00041 7.05473 3.58333 8.53939 3.58333 10.3724C3.58333 11.7949 4.43675 13.0076 5.63671 13.4794V15.211C3.55213 14.6852 2 12.7162 2 10.3724C2 7.8095 3.8525 5.69449 6.23541 5.42908C7.22499 3.43849 9.21207 2.07825 11.5 2.07825ZM7.83332 9.89157C7.83332 9.15518 8.43027 8.55824 9.16665 8.55824H13.8333C14.5697 8.55824 15.1667 9.15518 15.1667 9.89157V19.2249C15.1667 19.9613 14.5697 20.5582 13.8333 20.5582H9.16665C8.43027 20.5582 7.83332 19.9613 7.83332 19.2249V9.89157ZM9.16665 13.2249H13.8333V13.8916H9.16665V13.2249ZM13.8333 11.2249H9.16665V11.8916H13.8333V11.2249ZM12.5 17.5582C12.5 18.1105 12.0523 18.5582 11.5 18.5582C10.9477 18.5582 10.5 18.1105 10.5 17.5582C10.5 17.006 10.9477 16.5582 11.5 16.5582C12.0523 16.5582 12.5 17.006 12.5 17.5582Z" fill="#8394A5"/>
<circle cx="21" cy="2.07825" r="2" fill="#8394A5"/>
</svg>
