<svg width="24" height="23" viewBox="0 0 24 23" fill="none" xmlns="http://www.w3.org/2000/svg">
<path d="M12.0125 2.5C12.0125 2.52108 12.0122 2.54209 12.0117 2.56304C13.8723 3.17438 15.4317 4.44978 16.4095 6.10889H14.8457C14.0405 5.0518 12.9282 4.24128 11.6419 3.81041C11.2017 4.52422 10.4126 5 9.51245 5C8.61226 5 7.82319 4.52422 7.383 3.81041C4.72661 4.7002 2.81245 7.20902 2.81245 10.1649L2.81248 10.1837C4.04772 10.3357 5.00415 11.3886 5.00415 12.6649C5.00415 13.3342 4.74117 13.942 4.3129 14.3907C5.05352 15.3009 6.02833 16.0129 7.14551 16.4348V17.809C5.5604 17.3187 4.18593 16.349 3.19155 15.0692C2.97316 15.1315 2.74255 15.1649 2.50415 15.1649C1.12344 15.1649 0.00415039 14.0456 0.00415039 12.6649C0.00415039 11.6356 0.626249 10.7515 1.51498 10.3682C1.5133 10.3007 1.51245 10.2329 1.51245 10.1649C1.51245 6.61941 3.81889 3.6126 7.01323 2.56304C7.01271 2.54209 7.01245 2.52108 7.01245 2.5C7.01245 1.11929 8.13174 0 9.51245 0C10.8932 0 12.0125 1.11929 12.0125 2.5Z" fill="#61D6F2"/>
<path fill-rule="evenodd" clip-rule="evenodd" d="M17.9609 12.3612V12.6245C17.9609 13.3632 17.5597 14.0135 16.9522 14.3945C17.4509 14.6 17.9114 14.879 18.3194 15.2195C19.0214 14.561 19.4609 13.643 19.4609 12.6252V12.362C20.3317 12.0507 20.9609 11.2265 20.9609 10.25C20.9609 9.0095 19.9514 8 18.7109 8C17.4704 8 16.4609 9.0095 16.4609 10.25C16.4609 11.2265 17.0902 12.0507 17.9609 12.3612ZM18.7109 9.5C19.1249 9.5 19.4609 9.83675 19.4609 10.25C19.4609 10.6632 19.1249 11 18.7109 11C18.2969 11 17.9609 10.6632 17.9609 10.25C17.9609 9.83675 18.2969 9.5 18.7109 9.5Z" fill="#61D6F2"/>
<path fill-rule="evenodd" clip-rule="evenodd" d="M11.9609 18.638V18.125C11.9609 17.489 12.3449 16.9287 12.9262 16.5897C12.4259 16.3782 11.9669 16.0895 11.5597 15.7415C10.8817 16.352 10.4609 17.195 10.4609 18.125V18.638C9.59019 18.9492 8.96094 19.7735 8.96094 20.75C8.96094 21.9905 9.97044 23 11.2109 23C12.4514 23 13.4609 21.9905 13.4609 20.75C13.4609 19.7735 12.8317 18.9492 11.9609 18.638ZM11.2109 21.5C10.7969 21.5 10.4609 21.1632 10.4609 20.75C10.4609 20.3367 10.7969 20 11.2109 20C11.6249 20 11.9609 20.3367 11.9609 20.75C11.9609 21.1632 11.6249 21.5 11.2109 21.5Z" fill="#61D6F2"/>
<path fill-rule="evenodd" clip-rule="evenodd" d="M19.4122 18.623C19.1047 16.4382 17.2289 14.75 14.9609 14.75C13.5089 14.75 12.2969 13.7142 12.0209 12.3432C12.8609 12.0162 13.4609 11.204 13.4609 10.25C13.4609 9.0095 12.4514 8 11.2109 8C9.97044 8 8.96094 9.0095 8.96094 10.25C8.96094 11.2445 9.61344 12.08 10.5097 12.377C10.8172 14.5617 12.6929 16.25 14.9609 16.25C16.4129 16.25 17.6249 17.2857 17.9009 18.6567C17.0609 18.9837 16.4609 19.796 16.4609 20.75C16.4609 21.9905 17.4704 23 18.7109 23C19.9514 23 20.9609 21.9905 20.9609 20.75C20.9609 19.7555 20.3084 18.92 19.4122 18.623ZM11.2109 9.5C11.6249 9.5 11.9609 9.83675 11.9609 10.25C11.9609 10.6632 11.6249 11 11.2109 11C10.7969 11 10.4609 10.6632 10.4609 10.25C10.4609 9.83675 10.7969 9.5 11.2109 9.5ZM18.7109 21.5C18.2969 21.5 17.9609 21.1632 17.9609 20.75C17.9609 20.3367 18.2969 20 18.7109 20C19.1249 20 19.4609 20.3367 19.4609 20.75C19.4609 21.1632 19.1249 21.5 18.7109 21.5Z" fill="#61D6F2"/>
</svg>
