<svg width="24" height="23" viewBox="0 0 24 23" fill="none" xmlns="http://www.w3.org/2000/svg">
<path d="M12.0296 2.5C12.0296 2.52108 12.0293 2.54209 12.0288 2.56304C13.8894 3.17438 15.4488 4.44978 16.4266 6.10889H14.8628C14.0577 5.0518 12.9454 4.24128 11.6591 3.81041C11.2189 4.52422 10.4298 5 9.5296 5C8.62941 5 7.84034 4.52422 7.40015 3.81041C4.74376 4.7002 2.8296 7.20902 2.8296 10.1649L2.82963 10.1837C4.06487 10.3357 5.0213 11.3886 5.0213 12.6649C5.0213 13.3342 4.75832 13.942 4.33005 14.3907C5.07067 15.3009 6.04548 16.0129 7.16266 16.4348V17.809C5.57756 17.3187 4.20308 16.349 3.2087 15.0692C2.99031 15.1315 2.7597 15.1649 2.5213 15.1649C1.14059 15.1649 0.0213013 14.0456 0.0213013 12.6649C0.0213013 11.6356 0.6434 10.7515 1.53214 10.3682C1.53045 10.3007 1.5296 10.2329 1.5296 10.1649C1.5296 6.61941 3.83604 3.6126 7.03038 2.56304C7.02986 2.54209 7.0296 2.52108 7.0296 2.5C7.0296 1.11929 8.14889 0 9.5296 0C10.9103 0 12.0296 1.11929 12.0296 2.5Z" fill="#8394A5"/>
<path d="M14.5089 8.6243C11.759 8.6243 9.5296 9.23795 9.5296 9.99482C9.5296 10.0082 9.53046 10.021 9.53188 10.0341H9.5296V12.5316C9.5296 13.2888 11.759 13.9024 14.5089 13.9024C17.259 13.9024 19.4885 13.2888 19.4885 12.5316V10.0341H19.4862C19.4876 10.021 19.4885 10.0082 19.4885 9.99482C19.4885 9.23795 17.2591 8.6243 14.5089 8.6243Z" fill="#8394A5"/>
<path d="M19.4836 14.0165L19.4742 14.0228C19.1628 14.2253 18.7382 14.4015 18.2118 14.5465C17.2137 14.8214 15.8985 14.9726 14.5089 14.9726C13.1193 14.9726 11.8044 14.8214 10.8063 14.5465C10.2799 14.4015 9.85526 14.2253 9.54386 14.0228L9.53445 14.0165C9.53103 14.0362 9.5296 14.0561 9.5296 14.0761C9.5296 14.0895 9.53046 14.1023 9.53188 14.1157H9.5296V16.6129C9.5296 17.3701 11.759 17.9837 14.5089 17.9837C17.259 17.9837 19.4885 17.3701 19.4885 16.6129V14.1157H19.4862C19.4876 14.1023 19.4885 14.0895 19.4885 14.0761C19.4885 14.0561 19.4871 14.0362 19.4836 14.0165Z" fill="#8394A5"/>
<path d="M19.4742 17.7446L19.4836 17.7384C19.4871 17.758 19.4885 17.778 19.4885 17.7979C19.4885 17.8113 19.4876 17.8241 19.4862 17.8375H19.4885V20.3347C19.4885 21.0919 17.259 21.7056 14.5089 21.7056C11.759 21.7056 9.5296 21.0919 9.5296 20.3347V17.8375H9.53188C9.53046 17.8241 9.5296 17.8113 9.5296 17.7979C9.5296 17.778 9.53103 17.758 9.53445 17.7384L9.54386 17.7446C9.85526 17.9471 10.2799 18.1234 10.8063 18.2684C11.8044 18.5432 13.1193 18.6945 14.5089 18.6945C15.8985 18.6945 17.2137 18.5432 18.2118 18.2684C18.7382 18.1234 19.1628 17.9471 19.4742 17.7446Z" fill="#8394A5"/>
</svg>
