<svg width="23" height="23" viewBox="0 0 23 23" fill="none" xmlns="http://www.w3.org/2000/svg">
<path d="M4.48602 10.6343C3.73341 9.92249 2.54725 9.95551 1.8354 10.7081C1.12355 11.4607 1.15657 12.6469 1.90919 13.3588C2.6618 14.0706 3.84796 14.0376 4.55981 13.285C4.92186 12.9022 5.08913 12.4074 5.06893 11.9199L7.92237 11.056C8.06567 11.3438 8.25161 11.6151 8.49885 11.849C9.04373 12.3643 9.74103 12.6135 10.4367 12.6121L11.2466 17.3371C11.0292 17.4347 10.8268 17.5736 10.6528 17.7575C9.94099 18.5102 9.97401 19.6963 10.7266 20.4082C11.4792 21.12 12.6654 21.087 13.3772 20.3344C14.0891 19.5818 14.0561 18.3956 13.3035 17.6838C12.982 17.3797 12.581 17.2198 12.1721 17.1854L11.3605 12.4471C11.7703 12.3044 12.1559 12.0754 12.4748 11.7383C12.6764 11.5251 12.8255 11.2829 12.9479 11.0321L17.3567 12.2251C17.4546 12.479 17.6025 12.717 17.8129 12.916C18.5655 13.6279 19.7517 13.5949 20.4636 12.8423C21.1754 12.0896 21.1424 10.9035 20.3898 10.1916C19.6371 9.47978 18.451 9.5128 17.7391 10.2654C17.4776 10.5419 17.3185 10.878 17.2566 11.2272L13.2153 10.134C13.315 9.2824 13.035 8.39691 12.3641 7.76236C12.0249 7.44155 11.6239 7.23386 11.2034 7.1136L11.322 5.6553C11.6799 5.57836 12.0198 5.3978 12.2903 5.11174C13.0022 4.35912 12.9692 3.17297 12.2165 2.46112C11.4639 1.74926 10.2778 1.78228 9.56591 2.5349C8.85406 3.28752 8.88708 4.47367 9.6397 5.18552C9.85833 5.39232 10.1155 5.5284 10.385 5.61043L10.2713 7.00492C9.58002 7.04406 8.90161 7.3302 8.38817 7.87304C7.78648 8.50919 7.55261 9.35129 7.65396 10.1569L4.79131 11.0237C4.7072 10.8848 4.60998 10.7516 4.48602 10.6343Z" fill="#61D6F2"/>
</svg>
