<svg width="23" height="23" viewBox="0 0 23 23" fill="none" xmlns="http://www.w3.org/2000/svg">
<path d="M20.25 10.7575L16.5 10.75C16.0875 10.75 15.75 11.0875 15.75 11.5V18.25C15.75 18.6625 16.0875 19 16.5 19H20.25C20.6625 19 21 18.6625 21 18.25V11.5C21 11.0875 20.6625 10.7575 20.25 10.7575ZM20.25 17.5H16.5V12.25H20.25V17.5ZM18 4H4.5C3.6675 4 3 4.6675 3 5.5V14.5C3 15.325 3.6675 16 4.5 16H9.75V17.5H8.25V19H14.25V17.5H12.75V16H14.25V14.5H4.5V5.5H18V9.25H19.5V5.5C19.5 4.6675 18.825 4 18 4Z" fill="#85929E"/>
</svg>
