<svg width="23" height="23" viewBox="0 0 23 23" fill="none" xmlns="http://www.w3.org/2000/svg">
<path fill-rule="evenodd" clip-rule="evenodd" d="M14.5 8.57271V8.90908C14.5 9.85304 13.9873 10.6839 13.2111 11.1708C13.8483 11.4333 14.4368 11.7898 14.9581 12.2249C15.8551 11.3835 16.4167 10.2105 16.4167 8.91004V8.57367C17.5293 8.17596 18.3333 7.12275 18.3333 5.875C18.3333 4.28992 17.0434 3 15.4583 3C13.8733 3 12.5833 4.28992 12.5833 5.875C12.5833 7.12275 13.3874 8.17596 14.5 8.57271ZM15.4583 4.91667C15.9873 4.91667 16.4167 5.34696 16.4167 5.875C16.4167 6.40304 15.9873 6.83333 15.4583 6.83333C14.9293 6.83333 14.5 6.40304 14.5 5.875C14.5 5.34696 14.9293 4.91667 15.4583 4.91667Z" fill="#85929E"/>
<path fill-rule="evenodd" clip-rule="evenodd" d="M6.83333 16.593V15.9375C6.83333 15.1248 7.324 14.409 8.06671 13.9758C7.4275 13.7055 6.841 13.3366 6.32062 12.8919C5.45429 13.672 4.91667 14.7492 4.91667 15.9375V16.593C3.80404 16.9907 3 18.0439 3 19.2917C3 20.8767 4.28992 22.1667 5.875 22.1667C7.46008 22.1667 8.75 20.8767 8.75 19.2917C8.75 18.0439 7.94596 16.9907 6.83333 16.593ZM5.875 20.25C5.346 20.25 4.91667 19.8197 4.91667 19.2917C4.91667 18.7636 5.346 18.3333 5.875 18.3333C6.404 18.3333 6.83333 18.7636 6.83333 19.2917C6.83333 19.8197 6.404 20.25 5.875 20.25Z" fill="#85929E"/>
<path fill-rule="evenodd" clip-rule="evenodd" d="M10.6667 11.625C13.5647 11.625 15.9615 13.7822 16.3544 16.5738C17.4996 16.9533 18.3333 18.0209 18.3333 19.2917C18.3333 20.8768 17.0434 22.1667 15.4583 22.1667C13.8732 22.1667 12.5833 20.8768 12.5833 19.2917C12.5833 18.0727 13.35 17.0348 14.4233 16.617C14.0707 14.8651 12.522 13.5417 10.6667 13.5417C7.76867 13.5417 5.37187 11.3845 4.97896 8.59283C3.83375 8.21333 3 7.14575 3 5.875C3 4.28992 4.28992 3 5.875 3C7.46008 3 8.75 4.28992 8.75 5.875C8.75 7.094 7.98333 8.13188 6.91 8.54971C7.26267 10.3015 8.81133 11.625 10.6667 11.625ZM6.83333 5.875C6.83333 5.34696 6.404 4.91667 5.875 4.91667C5.346 4.91667 4.91667 5.34696 4.91667 5.875C4.91667 6.40304 5.346 6.83333 5.875 6.83333C6.404 6.83333 6.83333 6.40304 6.83333 5.875ZM14.5 19.2917C14.5 19.8197 14.9293 20.25 15.4583 20.25C15.9873 20.25 16.4167 19.8197 16.4167 19.2917C16.4167 18.7636 15.9873 18.3333 15.4583 18.3333C14.9293 18.3333 14.5 18.7636 14.5 19.2917Z" fill="#85929E"/>
<circle cx="21" cy="2" r="2" fill="#85929E"/>
</svg>
