<svg width="23" height="23" viewBox="0 0 23 23" fill="none" xmlns="http://www.w3.org/2000/svg">
<path d="M6 12.5574L10.4954 11.9471L10.4973 16.2699L6.00411 16.2954L6 12.5574ZM10.4932 16.7679L10.4967 21.0945L6.00349 20.4786L6.00324 16.7389L10.4932 16.7679ZM11.0382 11.8672L16.9986 11V16.2149L11.0382 16.262V11.8672ZM17 16.8086L16.9986 22L11.0381 21.1613L11.0298 16.7989L17 16.8086Z" fill="#61D6F2"/>
<path fill-rule="evenodd" clip-rule="evenodd" d="M11.5 1C14.3817 1 16.7804 3.05041 17.3187 5.78166C19.3771 5.92417 21 7.61833 21 9.70833C21 11.5629 19.7225 13.1209 18 13.5497V11.8829C18.8352 11.5153 19.4167 10.6813 19.4167 9.70833C19.4167 8.39416 18.3558 7.33333 17.0417 7.33333H15.8542V6.9375C15.8542 4.53084 13.9066 2.58333 11.5 2.58333C9.50498 2.58333 7.83458 3.92125 7.3121 5.75H6.75C5.0004 5.75 3.58333 7.16708 3.58333 8.91667C3.58333 10.0191 4.14601 10.9896 5 11.5566V13.3331C3.24383 12.6353 2 10.9193 2 8.91667C2 6.47042 3.85252 4.45167 6.2354 4.19833C7.22498 2.29833 9.21207 1 11.5 1Z" fill="#61D6F2"/>
</svg>
