<svg width="23" height="23" viewBox="0 0 23 23" fill="none" xmlns="http://www.w3.org/2000/svg">
<path d="M6.34417 10.3404C7.72417 13.0525 9.9475 15.2662 12.6596 16.6558L14.7679 14.5475C15.0267 14.2887 15.41 14.2025 15.7454 14.3175C16.8188 14.6721 17.9783 14.8637 19.1667 14.8637C19.6937 14.8637 20.125 15.295 20.125 15.8221V19.1666C20.125 19.6937 19.6937 20.125 19.1667 20.125C10.1679 20.125 2.875 12.8321 2.875 3.83331C2.875 3.30623 3.30625 2.87498 3.83333 2.87498H7.1875C7.71458 2.87498 8.14583 3.30623 8.14583 3.83331C8.14583 5.03123 8.3375 6.18123 8.69208 7.25456C8.7975 7.58998 8.72083 7.96373 8.4525 8.23206L6.34417 10.3404Z" fill="#61D6F2"/>
<path fill-rule="evenodd" clip-rule="evenodd" d="M11.9581 8.36394L14.8954 11.3012L19.3012 6.89533L16.364 3.95812L11.9581 8.36394ZM10.4895 7.87441C10.2192 8.14477 10.2192 8.58311 10.4895 8.85348L14.4058 12.7698C14.6762 13.0401 15.1145 13.0401 15.3849 12.7698L20.7698 7.38487C21.0401 7.11451 21.0401 6.67616 20.7698 6.4058L16.8535 2.48952C16.5831 2.21915 16.1448 2.21915 15.8744 2.48952L10.4895 7.87441Z" fill="#61D6F2"/>
</svg>
