<svg width="23" height="23" viewBox="0 0 23 23" fill="none" xmlns="http://www.w3.org/2000/svg">
<path d="M19.1 11.2H17.3V4H15.5V11.2H6.5V4H4.7V11.2H2.9C2.6613 11.2 2.43238 11.2948 2.2636 11.4636C2.09482 11.6324 2 11.8613 2 12.1V19.3C2 19.5387 2.09482 19.7676 2.2636 19.9364C2.43238 20.1052 2.6613 20.2 2.9 20.2H19.1C19.3387 20.2 19.5676 20.1052 19.7364 19.9364C19.9052 19.7676 20 19.5387 20 19.3V12.1C20 11.8613 19.9052 11.6324 19.7364 11.4636C19.5676 11.2948 19.3387 11.2 19.1 11.2ZM7.4 16.6H5.6V14.8H7.4V16.6ZM10.1 16.6H8.3V14.8H10.1V16.6ZM16.4 16.6H14.6V14.8H16.4V16.6Z" fill="#85929E"/>
<circle cx="21" cy="2" r="2" fill="#85929E"/>
</svg>
