<svg width="23" height="23" viewBox="0 0 23 23" fill="none" xmlns="http://www.w3.org/2000/svg">
<path fill-rule="evenodd" clip-rule="evenodd" d="M11.5 1C14.3817 1 16.7804 3.05041 17.3187 5.78166C19.3771 5.92417 21 7.61833 21 9.70833C21 11.5629 19.7225 13.1209 18 13.5497V11.8829C18.8352 11.5153 19.4167 10.6813 19.4167 9.70833C19.4167 8.39416 18.3558 7.33333 17.0417 7.33333H15.8542V6.9375C15.8542 4.53084 13.9066 2.58333 11.5 2.58333C9.50498 2.58333 7.83458 3.92125 7.3121 5.75H6.75C5.0004 5.75 3.58333 7.16708 3.58333 8.91667C3.58333 10.0191 4.14601 10.9896 5 11.5566V13.3331C3.24383 12.6353 2 10.9193 2 8.91667C2 6.47042 3.85252 4.45167 6.2354 4.19833C7.22498 2.29833 9.21207 1 11.5 1Z" fill="#85929E"/>
<path d="M16.05 14.25H6.95C5.871 14.25 5 15.121 5 16.2V20.1H7.6V22.7H15.4V20.1H18V16.2C18 15.121 17.129 14.25 16.05 14.25ZM14.1 21.4H8.9V18.15H14.1V21.4ZM16.05 16.85C15.6925 16.85 15.4 16.5575 15.4 16.2C15.4 15.8425 15.6925 15.55 16.05 15.55C16.4075 15.55 16.7 15.8425 16.7 16.2C16.7 16.5575 16.4075 16.85 16.05 16.85ZM15.4 11H7.6V13.6H15.4V11Z" fill="#85929E"/>
</svg>
