<svg width="23" height="23" viewBox="0 0 23 23" fill="none" xmlns="http://www.w3.org/2000/svg">
<path fill-rule="evenodd" clip-rule="evenodd" d="M5.15457 2.27957C5.69374 1.7404 6.425 1.4375 7.1875 1.4375H15.8125C16.575 1.4375 17.3063 1.7404 17.8454 2.27957C18.3846 2.81874 18.6875 3.55 18.6875 4.3125V20.8437C18.6875 21.1268 18.5214 21.3835 18.2632 21.4994C18.005 21.6154 17.7028 21.569 17.4912 21.3809L11.5 16.0554L5.50876 21.3809C5.29722 21.569 4.99501 21.6154 4.73681 21.4994C4.47861 21.3835 4.3125 21.1268 4.3125 20.8437V4.3125C4.3125 3.55 4.6154 2.81874 5.15457 2.27957ZM7.1875 2.875C6.80625 2.875 6.44062 3.02645 6.17103 3.29603C5.90145 3.56562 5.75 3.93125 5.75 4.3125V19.2432L11.0225 14.5565C11.2948 14.3145 11.7052 14.3145 11.9775 14.5565L17.25 19.2432V4.3125C17.25 3.93125 17.0985 3.56562 16.829 3.29603C16.5594 3.02645 16.1937 2.875 15.8125 2.875H7.1875Z" fill="#85929E"/>
</svg>
