<svg width="24" height="23" viewBox="0 0 24 23" fill="none" xmlns="http://www.w3.org/2000/svg">
<path d="M12.0296 2.5C12.0296 2.52108 12.0293 2.54209 12.0288 2.56304C13.8894 3.17438 15.4488 4.44978 16.4266 6.10889H14.8628C14.0577 5.0518 12.9454 4.24128 11.6591 3.81041C11.2189 4.52422 10.4298 5 9.5296 5C8.62941 5 7.84034 4.52422 7.40015 3.81041C4.74376 4.7002 2.8296 7.20902 2.8296 10.1649L2.82963 10.1837C4.06487 10.3357 5.0213 11.3886 5.0213 12.6649C5.0213 13.3342 4.75832 13.942 4.33005 14.3907C5.07067 15.3009 6.04548 16.0129 7.16266 16.4348V17.809C5.57756 17.3187 4.20308 16.349 3.2087 15.0692C2.99031 15.1315 2.7597 15.1649 2.5213 15.1649C1.14059 15.1649 0.0213013 14.0456 0.0213013 12.6649C0.0213013 11.6356 0.6434 10.7515 1.53214 10.3682C1.53045 10.3007 1.5296 10.2329 1.5296 10.1649C1.5296 6.61941 3.83604 3.6126 7.03038 2.56304C7.02986 2.54209 7.0296 2.52108 7.0296 2.5C7.0296 1.11929 8.14889 0 9.5296 0C10.9103 0 12.0296 1.11929 12.0296 2.5Z" fill="#8394A5"/>
<path fill-rule="evenodd" clip-rule="evenodd" d="M20.3114 14.4898H21.6448C21.8216 14.4898 21.9911 14.5601 22.1162 14.6851C22.2412 14.8101 22.3114 14.9797 22.3114 15.1565V20.4898C22.3114 20.6666 22.2412 20.8362 22.1162 20.9612C21.9911 21.0863 21.8216 21.1565 21.6448 21.1565H9.64476C9.46794 21.1565 9.29838 21.0863 9.17335 20.9612C9.04833 20.8362 8.97809 20.6666 8.97809 20.4898V15.1565C8.97809 14.9797 9.04833 14.8101 9.17335 14.6851C9.29838 14.5601 9.46794 14.4898 9.64476 14.4898H10.9781V9.15649H12.3114V14.4898H18.9781V9.15649H20.3114V14.4898ZM11.6448 17.1565V18.4898H12.9781V17.1565H11.6448ZM13.6448 18.4898H14.9781V17.1565H13.6448V18.4898ZM18.3114 18.4898H19.6448V17.1565H18.3114V18.4898Z" fill="#8394A5"/>
</svg>
