<svg width="23" height="23" viewBox="0 0 23 23" fill="none" xmlns="http://www.w3.org/2000/svg">
<path fill-rule="evenodd" clip-rule="evenodd" d="M17.3187 9.78166C16.7804 7.05041 14.3817 5 11.5 5C9.21207 5 7.22498 6.29833 6.2354 8.19833C3.85252 8.45167 2 10.4704 2 12.9167C2 15.5371 4.12959 17.6667 6.75 17.6667H17.0417C19.2267 17.6667 21 15.8933 21 13.7083C21 11.6183 19.3771 9.92417 17.3187 9.78166ZM17.0417 16.0833H6.75C5.0004 16.0833 3.58333 14.6663 3.58333 12.9167C3.58333 11.1671 5.0004 9.75 6.75 9.75H7.3121C7.83458 7.92125 9.50498 6.58333 11.5 6.58333C13.9066 6.58333 15.8542 8.53084 15.8542 10.9375V11.3333H17.0417C18.3558 11.3333 19.4167 12.3942 19.4167 13.7083C19.4167 15.0225 18.3558 16.0833 17.0417 16.0833Z" fill="#61D6F2"/>
</svg>
