<svg width="23" height="23" viewBox="0 0 23 23" fill="none" xmlns="http://www.w3.org/2000/svg">
<path fill-rule="evenodd" clip-rule="evenodd" d="M9.45454 3C8.34997 3 7.45454 3.89543 7.45454 5V12.8182C7.45454 13.9228 8.34998 14.8182 9.45455 14.8182H20C21.1046 14.8182 22 13.9228 22 12.8182V5C22 3.89543 21.1046 3 20 3H9.45454ZM21.0909 5.72727H8.36362V13.9091H21.0909V5.72727Z" fill="#85929E"/>
<path fill-rule="evenodd" clip-rule="evenodd" d="M2.44804 7.54541H15.1883C15.4347 7.54541 15.6364 7.75779 15.6364 8.01737V11.0413C15.6364 11.3009 15.4347 11.5133 15.1883 11.5133H2.44804C2.20162 11.5133 2 11.3009 2 11.0413V8.01737C2 7.75779 2.20162 7.54541 2.44804 7.54541ZM12.6345 9.05906H14.4235V9.99962H12.6345V9.05906ZM10.2823 9.05906H12.0745V9.99962H10.2823V9.05906ZM2.44804 12.3797H15.1883C15.4347 12.3797 15.6364 12.592 15.6364 12.8516V15.8756C15.6364 16.1351 15.4347 16.3475 15.1883 16.3475H2.44804C2.20162 16.3475 2 16.1351 2 15.8756V12.8516C2 12.592 2.20162 12.3797 2.44804 12.3797ZM2.44804 17.2139H15.1883C15.4347 17.2139 15.6364 17.4263 15.6364 17.6859V20.7098C15.6364 20.9694 15.4347 21.1818 15.1883 21.1818H2.44804C2.20162 21.1818 2 20.9694 2 20.7098V17.6859C2 17.4263 2.20162 17.2139 2.44804 17.2139ZM12.6345 13.8933H14.4235V14.8372H12.6345V13.8933ZM12.6345 18.7276H14.4235V19.6715H12.6345V18.7276Z" fill="#85929E"/>
</svg>
