<svg width="24" height="23" viewBox="0 0 24 23" fill="none" xmlns="http://www.w3.org/2000/svg">
<path d="M12.0296 2.5C12.0296 2.52108 12.0293 2.54209 12.0288 2.56304C13.8894 3.17438 15.4488 4.44978 16.4266 6.10889H14.8628C14.0577 5.0518 12.9454 4.24128 11.6591 3.81041C11.2189 4.52422 10.4298 5 9.5296 5C8.62941 5 7.84034 4.52422 7.40015 3.81041C4.74376 4.7002 2.8296 7.20902 2.8296 10.1649L2.82963 10.1837C4.06487 10.3357 5.0213 11.3886 5.0213 12.6649C5.0213 13.3342 4.75832 13.942 4.33005 14.3907C5.07067 15.3009 6.04548 16.0129 7.16266 16.4348V17.809C5.57756 17.3187 4.20308 16.349 3.2087 15.0692C2.99031 15.1315 2.7597 15.1649 2.5213 15.1649C1.14059 15.1649 0.0213013 14.0456 0.0213013 12.6649C0.0213013 11.6356 0.6434 10.7515 1.53214 10.3682C1.53045 10.3007 1.5296 10.2329 1.5296 10.1649C1.5296 6.61941 3.83604 3.6126 7.03038 2.56304C7.02986 2.54209 7.0296 2.52108 7.0296 2.5C7.0296 1.11929 8.14889 0 9.5296 0C10.9103 0 12.0296 1.11929 12.0296 2.5Z" fill="#8394A5"/>
<path fill-rule="evenodd" clip-rule="evenodd" d="M21.551 7.29822H9.40522C9.1703 7.29822 8.97809 7.50069 8.97809 7.74816V10.631C8.97809 10.8784 9.1703 11.0809 9.40522 11.0809H21.551C21.7859 11.0809 21.9781 10.8784 21.9781 10.631V7.74816C21.9781 7.50069 21.7859 7.29822 21.551 7.29822ZM20.8218 8.74123H19.1163V9.6379H20.8218V8.74123ZM18.5824 8.74123H16.8739V9.6379H18.5824V8.74123Z" fill="#8394A5"/>
<path fill-rule="evenodd" clip-rule="evenodd" d="M21.551 11.9069H9.40522C9.1703 11.9069 8.97809 12.1093 8.97809 12.3568V15.2396C8.97809 15.4871 9.1703 15.6896 9.40522 15.6896H21.551C21.7859 15.6896 21.9781 15.4871 21.9781 15.2396V12.3568C21.9781 12.1093 21.7859 11.9069 21.551 11.9069ZM20.8218 13.3499H19.1163V14.2498H20.8218V13.3499Z" fill="#8394A5"/>
<path fill-rule="evenodd" clip-rule="evenodd" d="M21.551 16.5155H9.40522C9.1703 16.5155 8.97809 16.718 8.97809 16.9655V19.8483C8.97809 20.0957 9.1703 20.2982 9.40522 20.2982H21.551C21.7859 20.2982 21.9781 20.0957 21.9781 19.8483V16.9655C21.9781 16.718 21.7859 16.5155 21.551 16.5155ZM20.8218 17.9585H19.1163V18.8584H20.8218V17.9585Z" fill="#8394A5"/>
</svg>
