<svg viewBox="0 0 24 23" fill="none" xmlns="http://www.w3.org/2000/svg">
<path d="M12.0125 2.5C12.0125 2.52108 12.0122 2.54209 12.0117 2.56304C13.8723 3.17438 15.4317 4.44978 16.4095 6.10889H14.8457C14.0405 5.0518 12.9282 4.24128 11.6419 3.81041C11.2017 4.52422 10.4126 5 9.51245 5C8.61226 5 7.82319 4.52422 7.383 3.81041C4.72661 4.7002 2.81245 7.20902 2.81245 10.1649L2.81248 10.1837C4.04772 10.3357 5.00415 11.3886 5.00415 12.6649C5.00415 13.3342 4.74117 13.942 4.3129 14.3907C5.05352 15.3009 6.02833 16.0129 7.14551 16.4348V17.809C5.5604 17.3187 4.18593 16.349 3.19155 15.0692C2.97316 15.1315 2.74255 15.1649 2.50415 15.1649C1.12344 15.1649 0.00415039 14.0456 0.00415039 12.6649C0.00415039 11.6356 0.626249 10.7515 1.51498 10.3682C1.5133 10.3007 1.51245 10.2329 1.51245 10.1649C1.51245 6.61941 3.81889 3.6126 7.01323 2.56304C7.01271 2.54209 7.01245 2.52108 7.01245 2.5C7.01245 1.11929 8.13174 0 9.51245 0C10.8932 0 12.0125 1.11929 12.0125 2.5Z" fill="#61D6F2"/>
<path fill-rule="evenodd" clip-rule="evenodd" d="M10.9109 11.5711H20.0109C21.0899 11.5711 21.9609 12.4421 21.9609 13.5211V17.4211H19.3609V20.0211H11.5609V17.4211H8.96094V13.5211C8.96094 12.4421 9.83194 11.5711 10.9109 11.5711ZM12.8609 18.7211H18.0609V15.4711H12.8609V18.7211ZM19.3609 13.5211C19.3609 13.8786 19.6534 14.1711 20.0109 14.1711C20.3684 14.1711 20.6609 13.8786 20.6609 13.5211C20.6609 13.1636 20.3684 12.8711 20.0109 12.8711C19.6534 12.8711 19.3609 13.1636 19.3609 13.5211Z" fill="#61D6F2"/>
<path d="M11.5609 8.32111H19.3609V10.9211H11.5609V8.32111Z" fill="#61D6F2"/>
</svg>
