<svg width="24" height="23" viewBox="0 0 24 23" fill="none" xmlns="http://www.w3.org/2000/svg">
<path d="M11.3619 2.54695L11.3499 3.0298L11.358 3.03245L11.0886 3.46922C10.7619 3.99914 10.1779 4.35 9.51245 4.35C8.84705 4.35 8.26304 3.99914 7.93625 3.46922L7.6669 3.03245L7.67498 3.0298L7.66303 2.54697C7.66265 2.53137 7.66245 2.51571 7.66245 2.5C7.66245 1.47827 8.49072 0.65 9.51245 0.65C10.5342 0.65 11.3625 1.47827 11.3625 2.5C11.3625 2.51572 11.3623 2.53137 11.3619 2.54695ZM11.8484 3.19407L11.7705 3.16799L11.8088 3.18056C13.1298 3.6146 14.2864 4.4137 15.1586 5.45889H15.1585C14.2961 4.42523 13.1546 3.6316 11.8484 3.19407ZM3.80873 14.801C4.52638 15.6829 5.44494 16.3956 6.49551 16.869V16.8694C5.43835 16.3928 4.51344 15.6732 3.79251 14.7811L3.80873 14.801ZM3.84269 13.942L3.45469 14.3485L3.43542 14.3237L3.01318 14.4442C2.85222 14.4901 2.68162 14.5149 2.50415 14.5149C1.48242 14.5149 0.65415 13.6866 0.65415 12.6649C0.65415 11.9042 1.11339 11.2493 1.77239 10.9651L2.17574 10.7911L2.17497 10.7602L2.73313 10.8289C3.64654 10.9412 4.35415 11.7209 4.35415 12.6649C4.35415 13.1604 4.16018 13.6093 3.84269 13.942ZM7.21613 3.18056L7.2541 3.16809L7.17654 3.19407C4.26604 4.16898 2.16656 6.91588 2.16246 10.1554C2.16657 6.9031 4.28349 4.14414 7.21613 3.18056ZM15.6586 9.2058L20.8609 8.44887V12.7415L15.6586 12.7827V9.2058ZM13.7668 9.4748L13.7683 12.8001L10.1662 12.8205L10.1631 9.96408L13.7668 9.4748ZM10.1662 17.4708L10.166 14.6123L13.7647 14.6355L13.7673 17.9643L10.1662 17.4708ZM20.8611 18.9496L15.6575 18.2174L15.6507 14.6746L20.8623 14.6831L20.8611 18.9496Z" fill="#61D6F2" stroke="#61D6F2" stroke-width="1.3"/>
</svg>
