<svg width="23" height="23" viewBox="0 0 23 23" fill="none" xmlns="http://www.w3.org/2000/svg">
<g clip-path="url(#clip0)">
<path d="M17.3187 7.00966C16.7804 4.14818 14.3817 2 11.5 2C9.21208 2 7.225 3.36024 6.23542 5.35084C3.85251 5.61625 2.00001 7.73126 2.00001 10.2941C2.00001 12.6379 3.55214 14.6069 5.63672 15.1328V13.4012C4.43677 12.9293 3.58334 11.7166 3.58334 10.2941C3.58334 8.46114 5.00042 6.97649 6.75 6.97649H7.31208C7.83458 5.06054 9.505 3.65883 11.5 3.65883C13.9067 3.65883 15.8541 5.69919 15.8541 8.22061V8.63532H17.0416C18.3558 8.63532 19.4166 9.74673 19.4166 11.1236C19.4166 12.2478 18.7093 13.1951 17.7344 13.5048V15.2073C19.5894 14.8638 21 13.1652 21 11.1236C21 8.93391 19.3771 7.15896 17.3187 7.00966Z" fill="#61D6F2"/>
<path fill-rule="evenodd" clip-rule="evenodd" d="M7.25091 12.5242C7.25091 12.3681 7.37464 12.2416 7.52727 12.2416H15.7392C15.8918 12.2416 16.0156 12.3681 16.0156 12.5242V14.5019C16.0156 14.6579 15.8918 14.7844 15.7392 14.7844H7.52727C7.37464 14.7844 7.25091 14.6579 7.25091 14.5019V12.5242ZM7.96156 12.8471H8.3761V14.179H7.96156V12.8471ZM9.5013 12.8471H9.08675V14.179H9.5013V12.8471ZM15.1865 13.513C15.1865 13.8474 14.9213 14.1184 14.5943 14.1184C14.2672 14.1184 14.0021 13.8474 14.0021 13.513C14.0021 13.1786 14.2672 12.9076 14.5943 12.9076C14.9213 12.9076 15.1865 13.1786 15.1865 13.513Z" fill="#61D6F2"/>
<path fill-rule="evenodd" clip-rule="evenodd" d="M7.52727 15.3494C7.37464 15.3494 7.25091 15.4759 7.25091 15.632V17.6097C7.25091 17.7657 7.37464 17.8922 7.52727 17.8922H15.7392C15.8918 17.8922 16.0156 17.7657 16.0156 17.6097V15.632C16.0156 15.4759 15.8918 15.3494 15.7392 15.3494H7.52727ZM8.3761 15.9549H7.96156V17.2868H8.3761V15.9549ZM9.08675 15.9549H9.5013V17.2868H9.08675V15.9549ZM14.5943 17.2262C14.9213 17.2262 15.1865 16.9552 15.1865 16.6208C15.1865 16.2865 14.9213 16.0154 14.5943 16.0154C14.2672 16.0154 14.0021 16.2865 14.0021 16.6208C14.0021 16.9552 14.2672 17.2262 14.5943 17.2262Z" fill="#61D6F2"/>
<path fill-rule="evenodd" clip-rule="evenodd" d="M7.25091 18.7398C7.25091 18.5837 7.37464 18.4572 7.52727 18.4572H15.7392C15.8918 18.4572 16.0156 18.5837 16.0156 18.7398V20.7175C16.0156 20.8735 15.8918 21 15.7392 21H7.52727C7.37464 21 7.25091 20.8735 7.25091 20.7175V18.7398ZM7.96156 19.0627H8.3761V20.3946H7.96156V19.0627ZM9.5013 19.0627H9.08675V20.3946H9.5013V19.0627ZM15.1865 19.7286C15.1865 20.063 14.9213 20.334 14.5943 20.334C14.2672 20.334 14.0021 20.063 14.0021 19.7286C14.0021 19.3943 14.2672 19.1232 14.5943 19.1232C14.9213 19.1232 15.1865 19.3943 15.1865 19.7286Z" fill="#61D6F2"/>
</g>
<defs>
<clipPath id="clip0">
<rect width="19" height="19" fill="white" transform="translate(2 2)"/>
</clipPath>
</defs>
</svg>
