<svg width="23" height="23" viewBox="0 0 23 23" fill="none" xmlns="http://www.w3.org/2000/svg">
<path d="M18.2 3.6L17 3L15.8 3.6L14.6 3L13.4 3.6L12.2 3L11 3.6L9.8 3L8.6 3.6L6.8 3V12.6019H15.2V17.7C15.2 18.8599 16.4401 19.8 17.6 19.8H18.05C19.2099 19.8 20 18.8599 20 17.7V3L18.2 3.6ZM11.6187 10.8L11.6 9.6H17.5813L17.6 10.8H11.6187ZM9.21875 7.8L9.2 6.6H17.5813L17.6 7.8H9.21875Z" fill="#61D6F2"/>
<path d="M14 17.7V13.8H2V15C2 16.8956 2.21675 17.6858 2.54225 18.2861C3.09462 19.305 4.09475 19.8 5.6 19.8H15.2C15.2 19.8 14 19.05 14 17.7Z" fill="#61D6F2"/>
</svg>
