<svg width="23" height="23" viewBox="0 0 23 23" fill="none" xmlns="http://www.w3.org/2000/svg">
<path d="M18.8571 10.5714H17.5714V7.14286C17.5714 6.2 16.8 5.42857 15.8571 5.42857H12.4286V4.14286C12.4286 2.96 11.4686 2 10.2857 2C9.10286 2 8.14286 2.96 8.14286 4.14286V5.42857H4.71429C3.77143 5.42857 3.00857 6.2 3.00857 7.14286V10.4H4.28571C5.56286 10.4 6.6 11.4371 6.6 12.7143C6.6 13.9914 5.56286 15.0286 4.28571 15.0286H3V18.2857C3 19.2286 3.77143 20 4.71429 20H7.97143V18.7143C7.97143 17.4371 9.00857 16.4 10.2857 16.4C11.5629 16.4 12.6 17.4371 12.6 18.7143V20H15.8571C16.8 20 17.5714 19.2286 17.5714 18.2857V14.8571H18.8571C20.04 14.8571 21 13.8971 21 12.7143C21 11.5314 20.04 10.5714 18.8571 10.5714Z" fill="#85929E"/>
<circle cx="21" cy="2" r="2" fill="#85929E"/>
</svg>
