<svg width="24" height="23" viewBox="0 0 24 23" fill="none" xmlns="http://www.w3.org/2000/svg">
<path d="M11.5171 2C14.3988 2 16.7975 4.14818 17.3359 7.00966C19.3942 7.15896 21.0171 8.93391 21.0171 11.1236C21.0171 13.1652 19.6066 14.8638 17.7515 15.2073V13.5048C18.7265 13.1951 19.4338 12.2478 19.4338 11.1236C19.4338 9.74673 18.3729 8.63532 17.0588 8.63532H15.8713V8.22061C15.8713 5.69919 13.9238 3.65883 11.5171 3.65883C9.52213 3.65883 7.85172 5.06054 7.32922 6.97649H6.76714C5.01756 6.97649 3.60048 8.46114 3.60048 10.2941C3.60048 11.7166 4.45391 12.9293 5.65386 13.4012V15.1328C3.56928 14.6069 2.01715 12.6379 2.01715 10.2941C2.01715 7.73126 3.86965 5.61625 6.25256 5.35084C7.24214 3.36024 9.22922 2 11.5171 2Z" fill="#8394A5"/>
<path d="M16.2634 16.9762H17.0781C17.8276 16.9762 18.4359 17.5895 18.4359 18.3452C18.4359 19.101 17.8276 19.7143 17.0781 19.7143H16.2634V21.9048C16.2634 22.5071 15.7746 23 15.1772 23H13.1133V22.1786C13.1133 21.3626 12.4561 20.7 11.6468 20.7C10.8376 20.7 10.1804 21.3626 10.1804 22.1786V23H8.11653C7.51909 23 7.03027 22.5071 7.03027 21.9048V19.8238H7.84496C8.65422 19.8238 9.3114 19.1612 9.3114 18.3452C9.3114 17.5293 8.65422 16.8667 7.84496 16.8667H7.0357V14.7857C7.0357 14.1833 7.51909 13.6905 8.11653 13.6905H10.289V12.869C10.289 12.1133 10.8973 11.5 11.6468 11.5C12.3964 11.5 13.0047 12.1133 13.0047 12.869V13.6905H15.1772C15.7746 13.6905 16.2634 14.1833 16.2634 14.7857V16.9762Z" fill="#8394A5"/>
</svg>
