<svg width="24" height="23" viewBox="0 0 24 23" fill="none" xmlns="http://www.w3.org/2000/svg">
<path d="M12.0296 2.5C12.0296 2.52108 12.0293 2.54209 12.0288 2.56304C13.8894 3.17438 15.4488 4.44978 16.4266 6.10889H14.8628C14.0577 5.0518 12.9454 4.24128 11.6591 3.81041C11.2189 4.52422 10.4298 5 9.5296 5C8.62941 5 7.84034 4.52422 7.40015 3.81041C4.74376 4.7002 2.8296 7.20902 2.8296 10.1649L2.82963 10.1837C4.06487 10.3357 5.0213 11.3886 5.0213 12.6649C5.0213 13.3342 4.75832 13.942 4.33005 14.3907C5.07067 15.3009 6.04548 16.0129 7.16266 16.4348V17.809C5.57756 17.3187 4.20308 16.349 3.2087 15.0692C2.99031 15.1315 2.7597 15.1649 2.5213 15.1649C1.14059 15.1649 0.0213013 14.0456 0.0213013 12.6649C0.0213013 11.6356 0.6434 10.7515 1.53214 10.3682C1.53045 10.3007 1.5296 10.2329 1.5296 10.1649C1.5296 6.61941 3.83604 3.6126 7.03038 2.56304C7.02986 2.54209 7.0296 2.52108 7.0296 2.5C7.0296 1.11929 8.14889 0 9.5296 0C10.9103 0 12.0296 1.11929 12.0296 2.5Z" fill="#8394A5"/>
<path fill-rule="evenodd" clip-rule="evenodd" d="M17.9781 12.3612V12.6245C17.9781 13.3632 17.5768 14.0135 16.9693 14.3945C17.4681 14.6 17.9286 14.879 18.3366 15.2195C19.0386 14.561 19.4781 13.643 19.4781 12.6252V12.362C20.3488 12.0507 20.9781 11.2265 20.9781 10.25C20.9781 9.0095 19.9686 8 18.7281 8C17.4876 8 16.4781 9.0095 16.4781 10.25C16.4781 11.2265 17.1073 12.0507 17.9781 12.3612ZM18.7281 9.5C19.1421 9.5 19.4781 9.83675 19.4781 10.25C19.4781 10.6632 19.1421 11 18.7281 11C18.3141 11 17.9781 10.6632 17.9781 10.25C17.9781 9.83675 18.3141 9.5 18.7281 9.5Z" fill="#8394A5"/>
<path fill-rule="evenodd" clip-rule="evenodd" d="M11.9781 18.638V18.125C11.9781 17.489 12.3621 16.9287 12.9433 16.5897C12.4431 16.3782 11.9841 16.0895 11.5768 15.7415C10.8988 16.352 10.4781 17.195 10.4781 18.125V18.638C9.60734 18.9492 8.97809 19.7735 8.97809 20.75C8.97809 21.9905 9.98759 23 11.2281 23C12.4686 23 13.4781 21.9905 13.4781 20.75C13.4781 19.7735 12.8488 18.9492 11.9781 18.638ZM11.2281 21.5C10.8141 21.5 10.4781 21.1632 10.4781 20.75C10.4781 20.3367 10.8141 20 11.2281 20C11.6421 20 11.9781 20.3367 11.9781 20.75C11.9781 21.1632 11.6421 21.5 11.2281 21.5Z" fill="#8394A5"/>
<path fill-rule="evenodd" clip-rule="evenodd" d="M19.4293 18.623C19.1218 16.4382 17.2461 14.75 14.9781 14.75C13.5261 14.75 12.3141 13.7142 12.0381 12.3432C12.8781 12.0162 13.4781 11.204 13.4781 10.25C13.4781 9.0095 12.4686 8 11.2281 8C9.98759 8 8.97809 9.0095 8.97809 10.25C8.97809 11.2445 9.63059 12.08 10.5268 12.377C10.8343 14.5617 12.7101 16.25 14.9781 16.25C16.4301 16.25 17.6421 17.2857 17.9181 18.6567C17.0781 18.9837 16.4781 19.796 16.4781 20.75C16.4781 21.9905 17.4876 23 18.7281 23C19.9686 23 20.9781 21.9905 20.9781 20.75C20.9781 19.7555 20.3256 18.92 19.4293 18.623ZM11.2281 9.5C11.6421 9.5 11.9781 9.83675 11.9781 10.25C11.9781 10.6632 11.6421 11 11.2281 11C10.8141 11 10.4781 10.6632 10.4781 10.25C10.4781 9.83675 10.8141 9.5 11.2281 9.5ZM18.7281 21.5C18.3141 21.5 17.9781 21.1632 17.9781 20.75C17.9781 20.3367 18.3141 20 18.7281 20C19.1421 20 19.4781 20.3367 19.4781 20.75C19.4781 21.1632 19.1421 21.5 18.7281 21.5Z" fill="#8394A5"/>
</svg>
