<svg width="23" height="23" viewBox="0 0 23 23" fill="none" xmlns="http://www.w3.org/2000/svg">
<path fill-rule="evenodd" clip-rule="evenodd" d="M9.12619 2.13961C8.54039 2.28578 8.10675 2.81916 8.10675 3.45L8.10676 3.45C8.10676 2.81916 8.5404 2.28578 9.12619 2.13961ZM8 11.5499L8.00675 3.45C8.00675 2.65293 8.65162 2 9.45 2H20.25C21.0477 2 21.7 2.65227 21.7 3.45V11.55C21.7 12.3477 21.0477 13 20.25 13H9.45C8.65227 13 8 12.3476 8 11.5499ZM9.45001 4.8V4.8L14.85 8.175L14.85 8.175L9.45001 4.8ZM9.55 11.45V4.98042L14.85 8.29292L20.15 4.98042V11.45H9.55ZM9.45001 3.45L9.45001 3.45L20.25 3.45H9.45001ZM19.9013 3.55L14.85 6.70708L9.79868 3.55H19.9013Z" fill="#85929E"/>
<path fill-rule="evenodd" clip-rule="evenodd" d="M6 4H4.6C3.91044 4 3.24912 4.27092 2.76152 4.75315C2.27393 5.23539 2 5.88944 2 6.57143V21.3571C2 21.6103 2.15022 21.8399 2.38372 21.9436C2.61722 22.0473 2.89053 22.0058 3.08184 21.8376L8.5 17.0744L13.9182 21.8376C14.1095 22.0058 14.3828 22.0473 14.6163 21.9436C14.8498 21.8399 15 21.6103 15 21.3571V18.6316L13.7 18.5632V19.9256L8.93184 15.7338C8.68556 15.5173 8.31444 15.5173 8.06816 15.7338L3.3 19.9256V6.57143C3.3 6.23043 3.43696 5.90341 3.68076 5.66229C3.92456 5.42117 4.25522 5.28571 4.6 5.28571H6V4Z" fill="#85929E"/>
</svg>
