<svg width="23" height="23" viewBox="0 0 23 23" fill="none" xmlns="http://www.w3.org/2000/svg">
<g clip-path="url(#clip0)">
<path d="M20.5004 10.7497C20.5004 7.07554 17.5648 4.08543 13.9109 4L13.0004 4.88698V7.49973C13.0004 7.91395 13.3362 8.24973 13.7504 8.24973C14.1646 8.24973 14.5004 7.91395 14.5004 7.49973V5.55128C17.044 5.91528 19.0004 8.10455 19.0004 10.7497C19.0004 13.6547 16.6539 16.0052 13.7518 15.9997C10.8427 15.9943 8.46811 13.5995 8.50033 10.6956C8.51342 9.42305 8.98869 8.1981 9.83757 7.25003C10.1139 6.94143 10.0877 6.46728 9.7791 6.19098C9.47051 5.91468 8.99636 5.94085 8.72005 6.24944C7.62849 7.46856 7.01733 9.04292 7.00042 10.6792C6.95905 14.422 10.0113 17.4927 13.749 17.4997C17.4844 17.5068 20.5004 14.4804 20.5004 10.7497Z" fill="#61D6F2"/>
<path d="M10.7961 9.14923L13.2648 12.6805C13.3341 12.777 13.4194 12.8609 13.517 12.9286C13.7379 13.0785 14.0089 13.1355 14.2714 13.0872C14.5339 13.0389 14.7668 12.8892 14.9198 12.6704C15.0728 12.4517 15.1335 12.1815 15.0888 11.9184C15.0442 11.6552 14.8977 11.4202 14.6811 11.2642L11.1498 8.79548C11.1009 8.76132 11.0415 8.74548 10.9821 8.75072C10.9227 8.75597 10.867 8.78196 10.8248 8.82415C10.7826 8.86635 10.7566 8.92204 10.7513 8.98148C10.7461 9.04092 10.7619 9.1003 10.7961 9.14923Z" fill="#61D6F2"/>
<path d="M6 5H2.6C1.91044 5 1.24912 5.27092 0.761522 5.75315C0.273928 6.23539 0 6.88944 0 7.57143V22.3571C0 22.6103 0.150222 22.8399 0.383724 22.9436C0.617225 23.0473 0.890526 23.0058 1.08184 22.8376L6.5 18.0744L11.9182 22.8376C12.1095 23.0058 12.3828 23.0473 12.6163 22.9436C12.8498 22.8399 13 22.6103 13 22.3571V19.6316L11.7 19.5632V20.9256L6.93184 16.7338C6.68556 16.5173 6.31444 16.5173 6.06816 16.7338L1.3 20.9256V7.57143C1.3 7.23043 1.43696 6.90341 1.68076 6.66229C1.92456 6.42117 2.25522 6.28571 2.6 6.28571H6V5Z" fill="#61D6F2"/>
<circle cx="21" cy="2" r="2" fill="#61D6F2"/>
</g>
<defs>
<clipPath id="clip0">
<rect width="23" height="23" fill="white"/>
</clipPath>
</defs>
</svg>
