<svg width="23" height="23" viewBox="0 0 23 23" fill="none" xmlns="http://www.w3.org/2000/svg">
<path d="M12.359 4C8.84716 4 6 4.75058 6 5.67632C6 5.69271 6.00109 5.70837 6.00291 5.72439H6V8.77914C6 9.70525 8.84716 10.4558 12.359 10.4558C15.8711 10.4558 18.7183 9.70525 18.7183 8.77914V5.72439H18.7154C18.7172 5.70837 18.7183 5.69271 18.7183 5.67632C18.7183 4.75058 15.8711 4 12.359 4Z" fill="#85929E"/>
<path d="M18.7121 10.5954C18.7081 10.5979 18.7041 10.6005 18.7001 10.603C18.3024 10.8507 17.7601 11.0663 17.0878 11.2436C15.8132 11.5798 14.1336 11.7648 12.359 11.7648C10.5843 11.7648 8.90507 11.5798 7.63044 11.2436C6.95816 11.0663 6.41589 10.8507 6.01821 10.603C6.0142 10.6005 6.0102 10.5979 6.00619 10.5954C6.00182 10.6194 6 10.6438 6 10.6682C6 10.6846 6.00109 10.7003 6.00291 10.7167H6V13.771C6 14.6972 8.84716 15.4477 12.359 15.4477C15.8711 15.4477 18.7183 14.6972 18.7183 13.771V10.7167H18.7154C18.7172 10.7003 18.7183 10.6846 18.7183 10.6682C18.7183 10.6438 18.7165 10.6194 18.7121 10.5954Z" fill="#85929E"/>
<path d="M18.7121 15.1477C18.7081 15.1502 18.7041 15.1528 18.7001 15.1553C18.3024 15.403 17.7601 15.6185 17.0878 15.7959C15.8132 16.132 14.1336 16.317 12.359 16.317C10.5843 16.317 8.90507 16.132 7.63044 15.7959C6.95816 15.6185 6.41589 15.403 6.01821 15.1553C6.0142 15.1528 6.0102 15.1502 6.00619 15.1477C6.00182 15.1717 6 15.1961 6 15.2205C6 15.2369 6.00109 15.2525 6.00291 15.2689H6V18.3233C6 19.2494 8.84716 20 12.359 20C15.8711 20 18.7183 19.2494 18.7183 18.3233V15.2689H18.7154C18.7172 15.2525 18.7183 15.2369 18.7183 15.2205C18.7183 15.1961 18.7165 15.1717 18.7121 15.1477Z" fill="#85929E"/>
</svg>
