<svg width="23" height="23" viewBox="0 0 23 23" fill="none" xmlns="http://www.w3.org/2000/svg">
<path d="M14.4905 6.81238C11.6989 7.20529 9.54167 9.60208 9.54167 12.5001C9.54167 14.3554 8.21821 15.9041 6.46638 16.2567C6.04854 15.1834 5.01067 14.4167 3.79167 14.4167C2.20658 14.4167 0.916668 15.7067 0.916668 17.2917C0.916668 18.8768 2.20658 20.1667 3.79167 20.1667C5.06242 20.1667 6.13 19.333 6.5095 18.1878C9.30113 17.7949 11.4583 15.3981 11.4583 12.5001C11.4583 10.6447 12.7818 9.09608 14.5336 8.74342C14.9515 9.81675 15.9893 10.5834 17.2083 10.5834C18.7934 10.5834 20.0833 9.2935 20.0833 7.70842C20.0833 6.12333 18.7934 4.83342 17.2083 4.83342C15.9376 4.83342 14.87 5.66717 14.4905 6.81238ZM2.83333 17.2917C2.83333 16.7627 3.26363 16.3334 3.79167 16.3334C4.31971 16.3334 4.75 16.7627 4.75 17.2917C4.75 17.8207 4.31971 18.2501 3.79167 18.2501C3.26363 18.2501 2.83333 17.8207 2.83333 17.2917ZM18.1667 7.70842C18.1667 8.23742 17.7364 8.66675 17.2083 8.66675C16.6803 8.66675 16.25 8.23742 16.25 7.70842C16.25 7.17942 16.6803 6.75008 17.2083 6.75008C17.7364 6.75008 18.1667 7.17942 18.1667 7.70842Z" fill="#85929E"/>
<circle cx="21" cy="2" r="2" fill="#85929E"/>
</svg>
