<svg width="23" height="23" viewBox="0 0 23 23" fill="none" xmlns="http://www.w3.org/2000/svg">
<g clip-path="url(#clip0)">
<path fill-rule="evenodd" clip-rule="evenodd" d="M13.4697 3.46967C13.7626 3.17678 14.2374 3.17678 14.5303 3.46967L18.3033 7.24264C18.5962 7.53553 18.5962 8.01041 18.3033 8.3033C18.0104 8.59619 17.5355 8.59619 17.2426 8.3033L14.75 5.81066V16C14.75 16.4142 14.4142 16.75 14 16.75C13.5858 16.75 13.25 16.4142 13.25 16V5.81066L10.7574 8.3033C10.4645 8.59619 9.9896 8.59619 9.69671 8.3033C9.40381 8.01041 9.40381 7.53553 9.69671 7.24264L13.4697 3.46967Z" fill="#85929E"/>
<path fill-rule="evenodd" clip-rule="evenodd" d="M8.42857 5H2.6C1.91044 5 1.24912 5.27092 0.761522 5.75315C0.273928 6.23539 0 6.88944 0 7.57143V22.3571C0 22.6103 0.150222 22.8399 0.383724 22.9436C0.617225 23.0473 0.890526 23.0058 1.08184 22.8376L6.5 18.0744L11.9182 22.8376C12.1095 23.0058 12.3828 23.0473 12.6163 22.9436C12.8498 22.8399 13 22.6103 13 22.3571V19.6316L11.7 19.5632V20.9256L6.93184 16.7338C6.68556 16.5173 6.31444 16.5173 6.06816 16.7338L1.3 20.9256V7.57143C1.3 7.23043 1.43696 6.90341 1.68076 6.66229C1.92456 6.42117 2.25522 6.28571 2.6 6.28571H8.61224L8.42857 5Z" fill="#85929E"/>
<circle cx="21" cy="2" r="2" fill="#85929E"/>
</g>
<defs>
<clipPath id="clip0">
<rect width="23" height="23" fill="white"/>
</clipPath>
</defs>
</svg>
