<svg width="23" height="23" viewBox="0 0 23 23" fill="none" xmlns="http://www.w3.org/2000/svg">
<path fill-rule="evenodd" clip-rule="evenodd" d="M3.15457 2.27957C3.69374 1.7404 4.425 1.4375 5.1875 1.4375H13.8125C14.575 1.4375 15.3063 1.7404 15.8454 2.27957C16.3846 2.81874 16.6875 3.55 16.6875 4.3125V20.8437C16.6875 21.1268 16.5214 21.3835 16.2632 21.4994C16.005 21.6154 15.7028 21.569 15.4912 21.3809L9.5 16.0554L3.50876 21.3809C3.29722 21.569 2.99501 21.6154 2.73681 21.4994C2.47861 21.3835 2.3125 21.1268 2.3125 20.8437V4.3125C2.3125 3.55 2.6154 2.81873 3.15457 2.27957ZM5.1875 2.875C4.80625 2.875 4.44062 3.02645 4.17103 3.29603C3.90145 3.56562 3.75 3.93125 3.75 4.3125V19.2432L9.02249 14.5565C9.29481 14.3145 9.70519 14.3145 9.97751 14.5565L15.25 19.2432V4.3125C15.25 3.93125 15.0985 3.56562 14.829 3.29603C14.5594 3.02645 14.1937 2.875 13.8125 2.875H5.1875Z" fill="#61D6F2"/>
<circle cx="21" cy="2" r="2" fill="#61D6F2"/>
</svg>
