<svg width="23" height="23" viewBox="0 0 23 23" fill="none" xmlns="http://www.w3.org/2000/svg">
<path d="M12.5063 9.3821L9.58333 7.18752V15.8125L12.5063 13.6179L15.3333 11.5L12.5063 9.3821ZM12.5063 9.3821L9.58333 7.18752V15.8125L12.5063 13.6179L15.3333 11.5L12.5063 9.3821ZM12.5063 9.3821L9.58333 7.18752V15.8125L12.5063 13.6179L15.3333 11.5L12.5063 9.3821ZM10.5417 3.90043V1.9646C8.61542 2.15627 6.86167 2.92293 5.44333 4.08252L6.80417 5.45293C7.86792 4.62877 9.1425 4.07293 10.5417 3.90043ZM5.45292 6.80418L4.0825 5.44335C2.92292 6.86168 2.15625 8.61543 1.96458 10.5417H3.90042C4.07292 9.14252 4.62875 7.86793 5.45292 6.80418ZM3.90042 12.4584H1.96458C2.15625 14.3846 2.92292 16.1384 4.0825 17.5567L5.45292 16.1863C4.62875 15.1321 4.07292 13.8575 3.90042 12.4584ZM5.44333 18.9175C6.86167 20.0771 8.625 20.8438 10.5417 21.0354V19.0996C9.1425 18.9271 7.86792 18.3713 6.80417 17.5471L5.44333 18.9175ZM21.0833 11.5C21.0833 16.445 17.3267 20.5275 12.5063 21.0354V19.0996C16.2629 18.6013 19.1667 15.3813 19.1667 11.5C19.1667 7.61877 16.2629 4.39877 12.5063 3.90043V1.9646C17.3267 2.47252 21.0833 6.55502 21.0833 11.5Z" fill="#85929E"/>
</svg>
