<svg width="23" height="23" viewBox="0 0 23 23" fill="none" xmlns="http://www.w3.org/2000/svg">
<path d="M10.359 4C6.84716 4 4 4.75058 4 5.67632C4 5.69271 4.00109 5.70837 4.00291 5.72439H4V8.77914C4 9.70525 6.84716 10.4558 10.359 10.4558C13.8711 10.4558 16.7183 9.70525 16.7183 8.77914V5.72439H16.7154C16.7172 5.70837 16.7183 5.69271 16.7183 5.67632C16.7183 4.75058 13.8711 4 10.359 4Z" fill="#61D6F2"/>
<path d="M16.7121 10.5954C16.7081 10.5979 16.7041 10.6005 16.7001 10.603C16.3024 10.8507 15.7601 11.0663 15.0878 11.2436C13.8132 11.5798 12.1336 11.7648 10.359 11.7648C8.58434 11.7648 6.90507 11.5798 5.63044 11.2436C4.95816 11.0663 4.41589 10.8507 4.01821 10.603C4.0142 10.6005 4.0102 10.5979 4.00619 10.5954C4.00182 10.6194 4 10.6438 4 10.6682C4 10.6846 4.00109 10.7003 4.00291 10.7167H4V13.771C4 14.6972 6.84716 15.4477 10.359 15.4477C13.8711 15.4477 16.7183 14.6972 16.7183 13.771V10.7167H16.7154C16.7172 10.7003 16.7183 10.6846 16.7183 10.6682C16.7183 10.6438 16.7165 10.6194 16.7121 10.5954Z" fill="#61D6F2"/>
<path d="M16.7121 15.1477C16.7081 15.1502 16.7041 15.1528 16.7001 15.1553C16.3024 15.403 15.7601 15.6185 15.0878 15.7959C13.8132 16.132 12.1336 16.317 10.359 16.317C8.58434 16.317 6.90507 16.132 5.63044 15.7959C4.95816 15.6185 4.41589 15.403 4.01821 15.1553C4.0142 15.1528 4.0102 15.1502 4.00619 15.1477C4.00182 15.1717 4 15.1961 4 15.2205C4 15.2369 4.00109 15.2525 4.00291 15.2689H4V18.3233C4 19.2494 6.84716 20 10.359 20C13.8711 20 16.7183 19.2494 16.7183 18.3233V15.2689H16.7154C16.7172 15.2525 16.7183 15.2369 16.7183 15.2205C16.7183 15.1961 16.7165 15.1717 16.7121 15.1477Z" fill="#61D6F2"/>
<circle cx="21" cy="2" r="2" fill="#61D6F2"/>
</svg>
