<svg width="23" height="23" viewBox="0 0 23 23" fill="none" xmlns="http://www.w3.org/2000/svg">
<g clip-path="url(#clip0)">
<path fill-rule="evenodd" clip-rule="evenodd" d="M6 14.5499L6.00675 6.45C6.00675 5.65293 6.65162 5 7.45 5H18.25C19.0477 5 19.7 5.65227 19.7 6.45V14.55C19.7 15.3477 19.0477 16 18.25 16H7.45C6.65227 16 6 15.3476 6 14.5499ZM7.55 14.45V7.98042L12.85 11.2929L18.15 7.98042V14.45H7.55ZM17.9013 6.55L12.85 9.70708L7.79868 6.55H17.9013Z" fill="#61D6F2"/>
<path d="M4 6H2.6C1.91044 6 1.24912 6.27092 0.761522 6.75315C0.273928 7.23539 0 7.88944 0 8.57143V23.3571C0 23.6103 0.150222 23.8399 0.383724 23.9436C0.617225 24.0473 0.890526 24.0058 1.08184 23.8376L6.5 19.0744L11.9182 23.8376C12.1095 24.0058 12.3828 24.0473 12.6163 23.9436C12.8498 23.8399 13 23.6103 13 23.3571V20.6316L11.7 20.5632V21.9256L6.93184 17.7338C6.68556 17.5173 6.31444 17.5173 6.06816 17.7338L1.3 21.9256V8.57143C1.3 8.23043 1.43696 7.90341 1.68076 7.66229C1.92456 7.42117 2.25522 7.28571 2.6 7.28571H4V6Z" fill="#61D6F2"/>
<circle cx="21" cy="2" r="2" fill="#61D6F2"/>
</g>
<defs>
<clipPath id="clip0">
<rect width="23" height="23" fill="white"/>
</clipPath>
</defs>
</svg>
