<svg width="23" height="23" viewBox="0 0 23 23" fill="none" xmlns="http://www.w3.org/2000/svg">
<path d="M22.5004 9.74973C22.5004 6.07554 19.5648 3.08543 15.9109 3L15.0004 3.88698V6.49973C15.0004 6.91395 15.3362 7.24973 15.7504 7.24973C16.1646 7.24973 16.5004 6.91395 16.5004 6.49973V4.55128C19.044 4.91528 21.0004 7.10455 21.0004 9.74973C21.0004 12.6547 18.6539 15.0052 15.7518 14.9997C12.8427 14.9943 10.4681 12.5995 10.5003 9.69555C10.5134 8.42305 10.9887 7.1981 11.8376 6.25003C12.1139 5.94143 12.0877 5.46728 11.7791 5.19098C11.4705 4.91468 10.9964 4.94085 10.7201 5.24944C9.62849 6.46856 9.01733 8.04292 9.00042 9.67921C8.95905 13.422 12.0113 16.4927 15.749 16.4997C19.4844 16.5068 22.5004 13.4804 22.5004 9.74973Z" fill="#85929E"/>
<path d="M12.7961 8.14923L15.2648 11.6805C15.3341 11.777 15.4194 11.8609 15.517 11.9286C15.7379 12.0785 16.0089 12.1355 16.2714 12.0872C16.5339 12.0389 16.7668 11.8892 16.9198 11.6704C17.0728 11.4517 17.1335 11.1815 17.0888 10.9184C17.0442 10.6552 16.8977 10.4202 16.6811 10.2642L13.1498 7.79548C13.1009 7.76132 13.0415 7.74548 12.9821 7.75072C12.9227 7.75597 12.867 7.78196 12.8248 7.82415C12.7826 7.86635 12.7566 7.92204 12.7513 7.98148C12.7461 8.04092 12.7619 8.1003 12.7961 8.14923Z" fill="#85929E"/>
<path d="M8 4H4.6C3.91044 4 3.24912 4.27092 2.76152 4.75315C2.27393 5.23539 2 5.88944 2 6.57143V21.3571C2 21.6103 2.15022 21.8399 2.38372 21.9436C2.61722 22.0473 2.89053 22.0058 3.08184 21.8376L8.5 17.0744L13.9182 21.8376C14.1095 22.0058 14.3828 22.0473 14.6163 21.9436C14.8498 21.8399 15 21.6103 15 21.3571V18.6316L13.7 18.5632V19.9256L8.93184 15.7338C8.68556 15.5173 8.31444 15.5173 8.06816 15.7338L3.3 19.9256V6.57143C3.3 6.23043 3.43696 5.90341 3.68076 5.66229C3.92456 5.42117 4.25522 5.28571 4.6 5.28571H8V4Z" fill="#85929E"/>
</svg>
