<svg width="23" height="23" viewBox="0 0 23 23" fill="none" xmlns="http://www.w3.org/2000/svg">
<path fill-rule="evenodd" clip-rule="evenodd" d="M1.77778 8C1.34822 8 1 8.3134 1 8.7V14.3C1 14.6866 1.34822 15 1.77778 15H21.2222C21.6518 15 22 14.6866 22 14.3V8.7C22 8.3134 21.6518 8 21.2222 8H1.77778ZM3.33333 10.8H4.88889V11.5H5.66667V13.6H2.55556V11.5H3.33333V10.8ZM9.55556 10.8H8V11.5H7.22222V13.6H10.3333V11.5H9.55556V10.8ZM12.6667 10.8H14.2222V11.5H15V13.6H11.8889V11.5H12.6667V10.8ZM16.5556 9.4H18.1111V13.6H16.5556V9.4ZM20.4444 9.4H18.8889V13.6H20.4444V9.4Z" fill="#61D6F2"/>
</svg>
