<svg viewBox="0 0 24 23" fill="none" xmlns="http://www.w3.org/2000/svg">
<path d="M12.0125 2.5C12.0125 2.52108 12.0122 2.54209 12.0117 2.56304C13.8723 3.17438 15.4317 4.44978 16.4095 6.10889H14.8457C14.0405 5.0518 12.9282 4.24128 11.6419 3.81041C11.2017 4.52422 10.4126 5 9.51245 5C8.61226 5 7.82319 4.52422 7.383 3.81041C4.72661 4.7002 2.81245 7.20902 2.81245 10.1649L2.81248 10.1837C4.04772 10.3357 5.00415 11.3886 5.00415 12.6649C5.00415 13.3342 4.74117 13.942 4.3129 14.3907C5.05352 15.3009 6.02833 16.0129 7.14551 16.4348V17.809C5.5604 17.3187 4.18593 16.349 3.19155 15.0692C2.97316 15.1315 2.74255 15.1649 2.50415 15.1649C1.12344 15.1649 0.00415039 14.0456 0.00415039 12.6649C0.00415039 11.6356 0.626249 10.7515 1.51498 10.3682C1.5133 10.3007 1.51245 10.2329 1.51245 10.1649C1.51245 6.61941 3.81889 3.6126 7.01323 2.56304C7.01271 2.54209 7.01245 2.52108 7.01245 2.5C7.01245 1.11929 8.13174 0 9.51245 0C10.8932 0 12.0125 1.11929 12.0125 2.5Z" fill="#61D6F2"/>
<path fill-rule="evenodd" clip-rule="evenodd" d="M20.2943 14.4898H21.6276C21.8044 14.4898 21.974 14.5601 22.099 14.6851C22.224 14.8101 22.2943 14.9797 22.2943 15.1565V20.4898C22.2943 20.6666 22.224 20.8362 22.099 20.9612C21.974 21.0863 21.8044 21.1565 21.6276 21.1565H9.6276C9.45079 21.1565 9.28122 21.0863 9.1562 20.9612C9.03118 20.8362 8.96094 20.6666 8.96094 20.4898V15.1565C8.96094 14.9797 9.03118 14.8101 9.1562 14.6851C9.28122 14.5601 9.45079 14.4898 9.6276 14.4898H10.9609V9.15649H12.2943V14.4898H18.9609V9.15649H20.2943V14.4898ZM11.6276 17.1565V18.4898H12.9609V17.1565H11.6276ZM13.6276 18.4898H14.9609V17.1565H13.6276V18.4898ZM18.2943 18.4898H19.6276V17.1565H18.2943V18.4898Z" fill="#61D6F2"/>
</svg>
