<svg width="23" height="23" viewBox="0 0 23 23" fill="none" xmlns="http://www.w3.org/2000/svg">
<path fill-rule="evenodd" clip-rule="evenodd" d="M7.64538 18.5796L7.64397 19.1385C7.0753 19.1371 4.62271 19.2239 4.89584 20.2086C5.28943 20.3137 12.8377 20.3095 13.1893 20.2058C13.3349 19.7268 12.6906 19.4677 12.2214 19.3192C11.6177 19.1287 11.0953 19.1427 10.4425 19.1385V18.5796C11.4314 18.5824 12.4203 18.5768 13.4078 18.5796C14.5661 18.5838 15.1334 18.6258 15.6993 17.9059C16.1755 17.3008 16.0397 16.1943 16.0383 15.2782V9.34773C16.0411 8.35885 15.6811 7.76216 14.9289 7.49043C14.3616 7.28593 10.0013 7.38818 9.04325 7.38958C8.04317 7.39098 3.81171 7.27613 3.19821 7.47502C2.44885 7.72014 2.05246 8.33084 2.04966 9.2903L2.05106 15.2222C2.05106 16.106 1.90398 17.256 2.36201 17.8751C2.90547 18.6104 3.48675 18.5838 4.62411 18.5796C5.6298 18.5754 6.63969 18.5726 7.64538 18.5796ZM3.72767 9.73852V16.1732C3.72487 17.0361 3.45734 16.8988 5.18438 16.9016L14.0801 16.9002C14.5003 16.9002 14.3602 16.5248 14.3602 15.9491V9.62787C14.363 8.8757 14.4261 9.0704 12.7929 9.0662H4.4C3.62962 9.0662 3.72767 8.96815 3.72767 9.73852ZM11.5631 6.82791L18.2723 6.82931L18.2779 7.38958L16.0593 7.39238C16.6265 7.68372 16.6447 8.34484 16.6532 9.06479L18.2765 9.0676L18.2751 9.62367L16.5999 9.62787C16.5775 11.6743 16.5915 13.7361 16.5985 15.7825C16.6069 18.5278 16.6321 19.1231 13.8014 19.1413L13.8 20.2576C15.1964 20.2758 16.5999 20.252 17.9964 20.259C18.7654 20.2632 19.1324 20.112 19.5119 19.7044C19.963 19.2211 19.9546 18.8093 19.9532 18.0193C19.9532 17.6328 20.0078 5.9945 19.9307 5.44684C19.8509 4.88096 19.4685 4.44815 19.0777 4.23665C18.5469 3.94811 17.8199 4.03495 17.1574 4.03215C16.4669 4.03075 15.7763 4.03355 15.0872 4.03215C13.7551 4.02935 12.4035 3.74501 11.7648 4.90757C11.4888 5.41322 11.5533 6.17519 11.5631 6.82791ZM17.1588 12.9839H18.2765L18.2737 12.4278L17.9964 12.4222L17.8283 12.4236L17.1574 12.425L17.1588 12.9839ZM12.8335 17.4325C12.4483 17.5907 12.6626 18.2154 13.0954 18.0474C13.4792 17.8975 13.2453 17.2644 12.8335 17.4325Z" fill="#85929E"/>
<circle cx="21" cy="2" r="2" fill="#85929E"/>
</svg>
