<svg width="24" height="23" viewBox="0 0 24 23" fill="none" xmlns="http://www.w3.org/2000/svg">
<path d="M13.3307 4.96449L13.3187 5.44734L13.3268 5.44999L13.0575 5.88676C12.7307 6.41668 12.1467 6.76754 11.4813 6.76754C10.8159 6.76754 10.2319 6.41668 9.90506 5.88676L9.63571 5.44999L9.64379 5.44734L9.63184 4.96451C9.63146 4.94891 9.63126 4.93325 9.63126 4.91754C9.63126 3.89581 10.4595 3.06754 11.4813 3.06754C12.503 3.06754 13.3313 3.89581 13.3313 4.91754C13.3313 4.93326 13.3311 4.94892 13.3307 4.96449ZM13.8172 5.61161L13.7396 5.58563L13.7776 5.5981C16.7131 6.56262 18.8313 9.32602 18.8313 12.5825C18.8313 9.3388 16.7305 6.58748 13.8172 5.61161ZM9.18494 5.5981L9.22291 5.58563L9.14535 5.61161C6.23485 6.58653 4.13537 9.33343 4.13127 12.573C4.13538 9.32064 6.2523 6.56168 9.18494 5.5981ZM3.7412 13.3826L4.14455 13.2087L4.14378 13.1778L4.70194 13.2464C5.61535 13.3588 6.32296 14.1385 6.32296 15.0825C6.32296 15.578 6.12899 16.0268 5.8115 16.3595L5.4235 16.766L5.40423 16.7412L4.982 16.8617C4.82103 16.9077 4.65043 16.9325 4.47296 16.9325C3.45123 16.9325 2.62296 16.1042 2.62296 15.0825C2.62296 14.3218 3.0822 13.6668 3.7412 13.3826ZM11.4813 19.9325C9.1709 19.9325 7.10966 18.8672 5.76126 17.1985L5.77754 17.2185C7.12418 18.8735 9.1793 19.9325 11.4813 19.9325ZM18.0127 16.8473L17.58 16.711L17.5659 16.7292L17.1993 16.3253C16.9007 15.9964 16.7196 15.5613 16.7196 15.0825C16.7196 14.1591 17.3967 13.3927 18.2814 13.2547L18.8206 13.1706L18.8201 13.1933L19.2428 13.3586C19.9328 13.6283 20.4196 14.2993 20.4196 15.0825C20.4196 16.1042 19.5914 16.9325 18.5696 16.9325C18.3745 16.9325 18.1876 16.9025 18.0127 16.8473ZM17.2257 17.168L17.2429 17.1465C15.8957 18.8448 13.8161 19.9322 11.4822 19.9325C13.8072 19.9322 15.8802 18.8516 17.2257 17.168ZM18.8313 12.5839C18.8313 12.5941 18.8312 12.6043 18.8312 12.6145L18.8312 12.6139L18.8313 12.5839Z" fill="#8394A5" stroke="#8394A5" stroke-width="1.3"/>
</svg>
