<svg width="24" height="23" viewBox="0 0 24 23" fill="none" xmlns="http://www.w3.org/2000/svg">
  <path d="M8.03027 4H4.63027C3.94071 4 3.27939 4.27092 2.7918 4.75315C2.3042 5.23539 2.03027 5.88944 2.03027 6.57143V21.3571C2.03027 21.6103 2.1805 21.8399 2.414 21.9436C2.6475 22.0473 2.9208 22.0058 3.11211 21.8376L8.53027 17.0744L13.9484 21.8376C14.1397 22.0058 14.413 22.0473 14.6466 21.9436C14.8801 21.8399 15.0303 21.6103 15.0303 21.3571V18.6316L13.7303 18.5632V19.9256L8.96211 15.7338C8.71583 15.5173 8.34471 15.5173 8.09844 15.7338L3.33027 19.9256V6.57143C3.33027 6.23043 3.46724 5.90341 3.71103 5.66229C3.95483 5.42117 4.28549 5.28571 4.63027 5.28571H8.03027V4Z" fill="#8394A5"/>
  <path fill-rule="evenodd" clip-rule="evenodd" d="M16.3865 10.029C16.3865 10.3753 16.2483 10.7074 16.0025 10.9514L12.5853 14.3448C12.2128 14.7147 11.6544 14.8242 11.1697 14.6225C10.685 14.4208 10.3693 13.9473 10.3693 13.4223V6.63561C10.3693 6.11064 10.685 5.63718 11.1697 5.43544C11.6544 5.23369 12.2128 5.34325 12.5853 5.71316L16.0025 9.10652C16.2483 9.35057 16.3865 9.68261 16.3865 10.029ZM15.0865 10.029L11.6693 6.63561V13.4223L15.0865 10.029Z" fill="#8394A5"/>
  <path d="M18.2682 5.33398C17.9092 5.33398 17.6182 5.625 17.6182 5.98398V14.074C17.6182 14.433 17.9092 14.724 18.2682 14.724C18.6271 14.724 18.9182 14.433 18.9182 14.074V5.98398C18.9182 5.625 18.6271 5.33398 18.2682 5.33398Z" fill="#8394A5"/>
</svg>

