<svg width="24" height="23" viewBox="0 0 24 23" fill="none" xmlns="http://www.w3.org/2000/svg">
<path fill-rule="evenodd" clip-rule="evenodd" d="M10.3636 3.45163C10.748 3.06718 11.2694 2.8512 11.8131 2.8512H17.2131C17.7568 2.8512 18.2782 3.06718 18.6627 3.45163C19.0471 3.83608 19.2631 4.3575 19.2631 4.9012V15.2512C19.2631 15.5268 19.1013 15.7768 18.8499 15.8898C18.5984 16.0027 18.3041 15.9575 18.0981 15.7744L14.5131 12.5878L10.9282 15.7744C10.7221 15.9575 10.4278 16.0027 10.1764 15.8898C9.9249 15.7768 9.76312 15.5268 9.76312 15.2512V4.9012C9.76312 4.3575 9.9791 3.83608 10.3636 3.45163ZM11.8131 4.2512C11.6407 4.2512 11.4754 4.31968 11.3535 4.44158C11.2316 4.56348 11.1631 4.72881 11.1631 4.9012V13.6924L14.0481 11.128C14.3133 10.8923 14.713 10.8923 14.9782 11.128L17.8631 13.6924V4.9012C17.8631 4.72881 17.7946 4.56348 17.6727 4.44158C17.5508 4.31968 17.3855 4.2512 17.2131 4.2512H11.8131Z" fill="#61D6F2"/>
<path d="M4.61312 4H8.01312V5.28571H4.61312C4.26834 5.28571 3.93768 5.42117 3.69388 5.66229C3.45009 5.90341 3.31312 6.23043 3.31312 6.57143V19.9256L8.08129 15.7338C8.32756 15.5173 8.69868 15.5173 8.94496 15.7338L13.7131 19.9256V18.5632L15.0131 18.6316V21.3571C15.0131 21.6103 14.8629 21.8399 14.6294 21.9436C14.3959 22.0473 14.1226 22.0058 13.9313 21.8376L8.51312 17.0744L3.09496 21.8376C2.90365 22.0058 2.63035 22.0473 2.39685 21.9436C2.16334 21.8399 2.01312 21.6103 2.01312 21.3571V6.57143C2.01312 5.88944 2.28705 5.23539 2.77464 4.75315C3.26224 4.27092 3.92356 4 4.61312 4Z" fill="#61D6F2"/>
</svg>