<svg width="24" height="23" viewBox="0 0 24 23" fill="none" xmlns="http://www.w3.org/2000/svg">
<path fill-rule="evenodd" clip-rule="evenodd" d="M10.3807 3.45163C10.7652 3.06718 11.2866 2.8512 11.8303 2.8512H17.2303C17.774 2.8512 18.2954 3.06718 18.6798 3.45163C19.0643 3.83608 19.2803 4.3575 19.2803 4.9012V15.2512C19.2803 15.5268 19.1185 15.7768 18.867 15.8898C18.6156 16.0027 18.3212 15.9575 18.1152 15.7744L14.5303 12.5878L10.9453 15.7744C10.7393 15.9575 10.445 16.0027 10.1935 15.8898C9.94205 15.7768 9.78027 15.5268 9.78027 15.2512V4.9012C9.78027 4.3575 9.99625 3.83608 10.3807 3.45163ZM11.8303 4.2512C11.6579 4.2512 11.4926 4.31968 11.3707 4.44158C11.2488 4.56348 11.1803 4.72881 11.1803 4.9012V13.6924L14.0652 11.128C14.3304 10.8923 14.7301 10.8923 14.9953 11.128L17.8803 13.6924V4.9012C17.8803 4.72881 17.8118 4.56348 17.6899 4.44158C17.568 4.31968 17.4027 4.2512 17.2303 4.2512H11.8303Z" fill="#8394A5"/>
<path d="M4.63027 4H8.03027V5.28571H4.63027C4.28549 5.28571 3.95483 5.42117 3.71103 5.66229C3.46724 5.90341 3.33027 6.23043 3.33027 6.57143V19.9256L8.09844 15.7338C8.34471 15.5173 8.71583 15.5173 8.96211 15.7338L13.7303 19.9256V18.5632L15.0303 18.6316V21.3571C15.0303 21.6103 14.8801 21.8399 14.6466 21.9436C14.413 22.0473 14.1397 22.0058 13.9484 21.8376L8.53027 17.0744L3.11211 21.8376C2.9208 22.0058 2.6475 22.0473 2.414 21.9436C2.1805 21.8399 2.03027 21.6103 2.03027 21.3571V6.57143C2.03027 5.88944 2.3042 5.23539 2.7918 4.75315C3.27939 4.27092 3.94071 4 4.63027 4Z" fill="#8394A5"/>
</svg>
