<svg width="24" height="23" viewBox="0 0 24 23" fill="none" xmlns="http://www.w3.org/2000/svg">
  <path d="M8.01312 4H4.61312C3.92356 4 3.26224 4.27092 2.77464 4.75315C2.28705 5.23539 2.01312 5.88944 2.01312 6.57143V21.3571C2.01312 21.6103 2.16334 21.8399 2.39685 21.9436C2.63035 22.0473 2.90365 22.0058 3.09496 21.8376L8.51312 17.0744L13.9313 21.8376C14.1226 22.0058 14.3959 22.0473 14.6294 21.9436C14.8629 21.8399 15.0131 21.6103 15.0131 21.3571V18.6316L13.7131 18.5632V19.9256L8.94496 15.7338C8.69868 15.5173 8.32756 15.5173 8.08129 15.7338L3.31312 19.9256V6.57143C3.31312 6.23043 3.45009 5.90341 3.69388 5.66229C3.93768 5.42117 4.26834 5.28571 4.61312 5.28571H8.01312V4Z" fill="#61D6F2"/>
  <path fill-rule="evenodd" clip-rule="evenodd" d="M16.3693 10.029C16.3693 10.3753 16.2311 10.7074 15.9853 10.9514L12.5681 14.3448C12.1956 14.7147 11.6372 14.8242 11.1525 14.6225C10.6679 14.4208 10.3521 13.9473 10.3521 13.4223V6.63561C10.3521 6.11064 10.6679 5.63718 11.1525 5.43544C11.6372 5.23369 12.1956 5.34325 12.5681 5.71316L15.9853 9.10652C16.2311 9.35057 16.3693 9.68261 16.3693 10.029ZM15.0693 10.029L11.6521 6.63561V13.4223L15.0693 10.029Z" fill="#61D6F2"/>
  <path d="M18.251 5.33398C17.892 5.33398 17.601 5.625 17.601 5.98398V14.074C17.601 14.433 17.892 14.724 18.251 14.724C18.61 14.724 18.901 14.433 18.901 14.074V5.98398C18.901 5.625 18.61 5.33398 18.251 5.33398Z" fill="#61D6F2"/>
</svg>

