<svg width="23" height="23" viewBox="0 0 23 23" fill="none" xmlns="http://www.w3.org/2000/svg">
<path fill-rule="evenodd" clip-rule="evenodd" d="M17.3187 5.78166C16.7804 3.05041 14.3817 1 11.5 1C9.21207 1 7.22498 2.29833 6.2354 4.19833C3.85252 4.45167 2 6.47042 2 8.91667C2 10.9193 3.24383 12.6353 5 13.3331V11.5566C4.14601 10.9896 3.58333 10.0191 3.58333 8.91667C3.58333 7.16708 5.0004 5.75 6.75 5.75H7.3121C7.83458 3.92125 9.50498 2.58333 11.5 2.58333C13.9066 2.58333 15.8542 4.53084 15.8542 6.9375V7.33333H17.0417C18.3558 7.33333 19.4167 8.39416 19.4167 9.70833C19.4167 10.6813 18.8352 11.5153 18 11.8829V13.5497C19.7225 13.1209 21 11.5629 21 9.70833C21 7.61833 19.3771 5.92417 17.3187 5.78166ZM16.3333 15.3333H17.6667C17.8435 15.3333 18.013 15.4036 18.1381 15.5286C18.2631 15.6536 18.3333 15.8232 18.3333 16V21.3333C18.3333 21.5101 18.2631 21.6797 18.1381 21.8047C18.013 21.9298 17.8435 22 17.6667 22H5.66667C5.48986 22 5.32029 21.9298 5.19526 21.8047C5.07024 21.6797 5 21.5101 5 21.3333V16C5 15.8232 5.07024 15.6536 5.19526 15.5286C5.32029 15.4036 5.48986 15.3333 5.66667 15.3333H7V10H8.33333V15.3333H15V10H16.3333V15.3333ZM7.66667 18V19.3333H9V18H7.66667ZM9.66667 19.3333H11V18H9.66667V19.3333ZM14.3333 18V19.3333H15.6667V18H14.3333Z" fill="#61D6F2"/>
<circle cx="21" cy="2" r="2" fill="#61D6F2"/>
</svg>
