<svg width="23" height="24" viewBox="0 0 23 24" fill="none" xmlns="http://www.w3.org/2000/svg">
<path fill-rule="evenodd" clip-rule="evenodd" d="M17.3187 5.85991C16.7804 3.12866 14.3817 1.07825 11.5 1.07825C9.21207 1.07825 7.22498 2.37658 6.2354 4.27658C3.85252 4.52991 2 6.54867 2 8.99491C2 10.9976 3.24383 12.7135 5 13.4113V11.6349C4.14601 11.0678 3.58333 10.0974 3.58333 8.99491C3.58333 7.24533 5.0004 5.82825 6.75 5.82825H7.3121C7.83458 3.9995 9.50498 2.66158 11.5 2.66158C13.9066 2.66158 15.8542 4.60909 15.8542 7.01575V7.41158H17.0417C18.3558 7.41158 19.4167 8.47241 19.4167 9.78658C19.4167 10.7595 18.8352 11.5936 18 11.9611V13.628C19.7225 13.1992 21 11.6411 21 9.78658C21 7.69658 19.3771 6.00241 17.3187 5.85991ZM16.3333 15.4116H17.6667C17.8435 15.4116 18.013 15.4818 18.1381 15.6068C18.2631 15.7319 18.3333 15.9014 18.3333 16.0782V21.4116C18.3333 21.5884 18.2631 21.758 18.1381 21.883C18.013 22.008 17.8435 22.0782 17.6667 22.0782H5.66667C5.48986 22.0782 5.32029 22.008 5.19526 21.883C5.07024 21.758 5 21.5884 5 21.4116V16.0782C5 15.9014 5.07024 15.7319 5.19526 15.6068C5.32029 15.4818 5.48986 15.4116 5.66667 15.4116H7V10.0782H8.33333V15.4116H15V10.0782H16.3333V15.4116ZM7.66667 18.0782V19.4116H9V18.0782H7.66667ZM9.66667 19.4116H11V18.0782H9.66667V19.4116ZM14.3333 18.0782V19.4116H15.6667V18.0782H14.3333Z" fill="#8394A5"/>
<circle cx="21" cy="2.07825" r="2" fill="#8394A5"/>
</svg>
