<svg viewBox="0 0 12 14" fill="none" xmlns="http://www.w3.org/2000/svg">
<path fill-rule="evenodd" clip-rule="evenodd" d="M8.78588 2.34353V2.48405C9.59002 2.55759 10.3909 2.66332 11.1866 2.801C11.2466 2.81141 11.3041 2.83355 11.3556 2.86615C11.4071 2.89875 11.4517 2.94119 11.4868 2.99103C11.5219 3.04086 11.5469 3.09713 11.5603 3.15662C11.5737 3.2161 11.5752 3.27764 11.5648 3.33772C11.5544 3.3978 11.5322 3.45524 11.4996 3.50676C11.467 3.55828 11.4246 3.60287 11.3748 3.638C11.3249 3.67312 11.2687 3.69808 11.2092 3.71146C11.1497 3.72484 11.0882 3.72636 11.0281 3.71596L10.8987 3.69429L10.2765 11.7853C10.2407 12.2518 10.03 12.6875 9.68676 13.0055C9.34348 13.3234 8.89285 13.5 8.42497 13.5H3.57596C3.10808 13.5 2.65745 13.3234 2.31417 13.0055C1.97089 12.6875 1.76026 12.2518 1.72438 11.7853L1.10162 3.69429L0.97224 3.71596C0.912163 3.72636 0.850625 3.72484 0.79114 3.71146C0.731654 3.69808 0.675385 3.67312 0.625546 3.638C0.524893 3.56706 0.45654 3.45905 0.435525 3.33772C0.414509 3.21639 0.442553 3.09168 0.513487 2.99103C0.58442 2.89037 0.692433 2.82202 0.813764 2.801C1.60941 2.66316 2.41028 2.55742 3.21444 2.48405V2.34353C3.21444 1.37533 3.96534 0.548284 4.95768 0.516713C5.65269 0.49447 6.34824 0.49447 7.04326 0.516713C8.03559 0.548284 8.78588 1.37533 8.78588 2.34353ZM4.98739 1.44467C5.6626 1.42307 6.33833 1.42307 7.01354 1.44467C7.47968 1.45952 7.8573 1.852 7.8573 2.34353V2.41348C6.62035 2.33836 5.37997 2.33836 4.14301 2.41348V2.34353C4.14301 1.852 4.52001 1.45952 4.98739 1.44467ZM4.76763 5.12491C4.76527 5.06394 4.75093 5.00403 4.72542 4.94861C4.69991 4.89318 4.66373 4.84332 4.61895 4.80187C4.57417 4.76043 4.52166 4.72821 4.46443 4.70705C4.4072 4.6859 4.34636 4.67622 4.28539 4.67858C4.22442 4.68094 4.16451 4.69528 4.10908 4.72079C4.05366 4.7463 4.0038 4.78248 3.96235 4.82726C3.9209 4.87204 3.88868 4.92455 3.86753 4.98178C3.84637 5.03901 3.8367 5.09985 3.83906 5.16082L4.05387 10.7323C4.05863 10.8553 4.11208 10.9714 4.20246 11.0551C4.24721 11.0965 4.29968 11.1287 4.35687 11.1498C4.41407 11.171 4.47487 11.1806 4.5358 11.1783C4.59673 11.1759 4.6566 11.1616 4.71199 11.1361C4.76738 11.1106 4.8172 11.0744 4.85862 11.0297C4.90004 10.9849 4.93223 10.9325 4.95337 10.8753C4.97451 10.8181 4.98418 10.7573 4.98182 10.6964L4.76763 5.12491ZM8.16002 5.16082C8.16456 5.09868 8.15654 5.03626 8.13645 4.97728C8.11636 4.9183 8.0846 4.86397 8.04307 4.81752C8.00153 4.77107 7.95108 4.73346 7.8947 4.70692C7.83833 4.68039 7.77719 4.66547 7.71493 4.66306C7.65267 4.66065 7.59056 4.6708 7.5323 4.69289C7.47404 4.71499 7.42083 4.74859 7.37583 4.79169C7.33083 4.83478 7.29497 4.8865 7.27037 4.94375C7.24578 5.00099 7.23296 5.06261 7.23268 5.12491L7.01787 10.6964C7.01311 10.8195 7.05746 10.9395 7.14117 11.0299C7.22487 11.1204 7.34107 11.1738 7.46421 11.1786C7.58734 11.1834 7.70733 11.139 7.79777 11.0553C7.8882 10.9716 7.94169 10.8554 7.94645 10.7323L8.16002 5.16082Z" fill="#B7BABD"/>
</svg>
