<?xml version="1.0" encoding="UTF-8"?>
<!DOCTYPE svg PUBLIC "-//W3C//DTD SVG 1.1//EN" "http://www.w3.org/Graphics/SVG/1.1/DTD/svg11.dtd">
<!-- Creator: CorelDRAW 2017 -->
<svg xmlns="http://www.w3.org/2000/svg" xml:space="preserve" width="652px" height="652px" version="1.1" style="shape-rendering:geometricPrecision; text-rendering:geometricPrecision; image-rendering:optimizeQuality; fill-rule:evenodd; clip-rule:evenodd"
viewBox="0 0 36.44 36.44"
 xmlns:xlink="http://www.w3.org/1999/xlink">
 <defs>
  <style type="text/css">
   <![CDATA[
    .fil0 {fill:#61D6F2}
   ]]>
  </style>
 </defs>
 <g id="Слой_x0020_1">
  <metadata id="CorelCorpID_0Corel-Layer"/>
  <path class="fil0" d="M18.22 0c10.06,0 18.22,8.16 18.22,18.22 0,10.06 -8.16,18.22 -18.22,18.22 -10.06,0 -18.22,-8.16 -18.22,-18.22 0,-10.06 8.16,-18.22 18.22,-18.22zm7.86 23.35c0.77,-0.16 1.53,0.33 1.69,1.1 0.17,0.77 -0.33,1.53 -1.1,1.69 -0.77,0.17 -1.53,-0.32 -1.69,-1.09 -0.16,-0.78 0.33,-1.53 1.1,-1.7zm-5.16 -15.28c0.69,-0.14 3.22,-0.78 3.72,-0.78 0.23,-0.04 0.45,0.01 0.64,0.13 0.19,0.13 0.34,0.33 0.39,0.57l4.11 19.41c0.06,0.25 0,0.49 -0.12,0.68 -0.13,0.2 -0.33,0.35 -0.57,0.4 -0.69,0.14 -3.22,0.78 -3.72,0.78 -0.23,0.04 -0.45,-0.01 -0.64,-0.13 -0.19,-0.13 -0.34,-0.33 -0.39,-0.57l-4.12 -19.41c-0.05,-0.25 0.01,-0.49 0.13,-0.68 0.13,-0.2 0.33,-0.34 0.57,-0.4zm3.81 -0.12l-3.67 0.78c-0.06,0.01 -0.11,0.05 -0.15,0.1 -0.03,0.05 -0.04,0.12 -0.03,0.18l4.12 19.41c0.01,0.06 0.05,0.12 0.1,0.15 0.05,0.03 0.11,0.04 0.17,0.03l3.68 -0.78c0.06,-0.01 0.11,-0.05 0.14,-0.1 0.04,-0.05 0.05,-0.11 0.04,-0.18l-4.12 -19.41c-0.01,-0.06 -0.05,-0.11 -0.1,-0.14 -0.05,-0.04 -0.11,-0.05 -0.18,-0.04zm-17.19 -0.79l3.76 0c0.25,0 0.47,0.11 0.64,0.27 0.16,0.16 0.26,0.39 0.26,0.64l0 19.84c0,0.25 -0.1,0.48 -0.26,0.64 -0.17,0.17 -0.39,0.27 -0.64,0.27l-3.76 0c-0.25,0 -0.47,-0.1 -0.64,-0.27 -0.16,-0.16 -0.26,-0.39 -0.26,-0.64l0 -19.84c0,-0.25 0.1,-0.48 0.26,-0.64 0.17,-0.16 0.39,-0.27 0.64,-0.27zm1.88 15.78c0.94,0 1.71,0.76 1.71,1.71 0,0.94 -0.77,1.7 -1.71,1.7 -0.94,0 -1.71,-0.76 -1.71,-1.7 0,-0.95 0.77,-1.71 1.71,-1.71zm5.06 -15.78l3.76 0c0.25,0 0.47,0.11 0.64,0.27 0.16,0.16 0.26,0.39 0.26,0.64l0 19.84c0,0.25 -0.1,0.48 -0.26,0.64 -0.17,0.17 -0.39,0.27 -0.64,0.27l-3.76 0c-0.25,0 -0.47,-0.1 -0.64,-0.27 -0.16,-0.16 -0.26,-0.39 -0.26,-0.64l0 -19.84c0,-0.25 0.1,-0.48 0.26,-0.64 0.17,-0.16 0.39,-0.27 0.64,-0.27zm1.88 15.78c0.94,0 1.71,0.76 1.71,1.71 0,0.94 -0.77,1.7 -1.71,1.7 -0.94,0 -1.71,-0.76 -1.71,-1.7 0,-0.95 0.77,-1.71 1.71,-1.71z"/>
 </g>
</svg>
