<?xml version="1.0" encoding="UTF-8"?>
<!DOCTYPE svg PUBLIC "-//W3C//DTD SVG 1.1//EN" "http://www.w3.org/Graphics/SVG/1.1/DTD/svg11.dtd">
<!-- Creator: CorelDRAW 2017 -->
<svg xmlns="http://www.w3.org/2000/svg" xml:space="preserve" width="652px" height="652px" version="1.1" style="shape-rendering:geometricPrecision; text-rendering:geometricPrecision; image-rendering:optimizeQuality; fill-rule:evenodd; clip-rule:evenodd"
viewBox="0 0 36.16 36.16"
 xmlns:xlink="http://www.w3.org/1999/xlink">
 <defs>
  <style type="text/css">
   <![CDATA[
    .fil0 {fill:#BDD0DA}
   ]]>
  </style>
 </defs>
 <g id="Слой_x0020_1">
  <metadata id="CorelCorpID_0Corel-Layer"/>
  <path class="fil0" d="M18.08 0c9.98,0 18.08,8.09 18.08,18.08 0,9.98 -8.1,18.08 -18.08,18.08 -9.99,0 -18.08,-8.1 -18.08,-18.08 0,-9.99 8.09,-18.08 18.08,-18.08zm7.8 23.17c0.76,-0.16 1.52,0.33 1.68,1.09 0.16,0.77 -0.33,1.52 -1.09,1.68 -0.77,0.17 -1.52,-0.32 -1.68,-1.09 -0.16,-0.76 0.32,-1.52 1.09,-1.68zm-5.12 -15.16c0.68,-0.14 3.19,-0.78 3.69,-0.78 0.22,-0.03 0.45,0.02 0.63,0.14 0.19,0.12 0.34,0.32 0.39,0.56l4.08 19.26c0.06,0.24 0,0.48 -0.12,0.68 -0.13,0.19 -0.33,0.34 -0.57,0.39 -0.68,0.14 -3.19,0.78 -3.69,0.78 -0.22,0.03 -0.45,-0.02 -0.63,-0.14 -0.19,-0.12 -0.34,-0.32 -0.39,-0.56l-4.08 -19.26c-0.05,-0.24 0,-0.48 0.12,-0.68 0.13,-0.19 0.33,-0.34 0.57,-0.39zm3.78 -0.12l-3.64 0.77c-0.06,0.02 -0.12,0.06 -0.15,0.1 -0.03,0.05 -0.04,0.12 -0.03,0.18l4.08 19.26c0.02,0.06 0.06,0.11 0.1,0.15 0.05,0.03 0.12,0.04 0.18,0.03l3.64 -0.77c0.07,-0.02 0.12,-0.06 0.15,-0.1 0.03,-0.05 0.05,-0.12 0.03,-0.18l-4.08 -19.26c-0.02,-0.06 -0.05,-0.11 -0.1,-0.15 -0.05,-0.03 -0.11,-0.04 -0.18,-0.03zm-17.06 -0.78l3.73 0c0.25,0 0.47,0.1 0.63,0.26 0.17,0.17 0.27,0.39 0.27,0.64l0 19.69c0,0.24 -0.1,0.47 -0.27,0.63 -0.16,0.16 -0.38,0.27 -0.63,0.27l-3.73 0c-0.24,0 -0.47,-0.11 -0.63,-0.27 -0.16,-0.16 -0.27,-0.39 -0.27,-0.63l0 -19.69c0,-0.25 0.11,-0.47 0.27,-0.64 0.16,-0.16 0.39,-0.26 0.63,-0.26zm1.87 15.65c0.93,0 1.69,0.76 1.69,1.69 0,0.94 -0.76,1.7 -1.69,1.7 -0.94,0 -1.7,-0.76 -1.7,-1.7 0,-0.93 0.76,-1.69 1.7,-1.69zm5.02 -15.65l3.72 0c0.25,0 0.48,0.1 0.64,0.26 0.16,0.17 0.26,0.39 0.26,0.64l0 19.69c0,0.24 -0.1,0.47 -0.26,0.63 -0.16,0.16 -0.39,0.27 -0.64,0.27l-3.72 0c-0.25,0 -0.47,-0.11 -0.64,-0.27 -0.16,-0.16 -0.26,-0.39 -0.26,-0.63l0 -19.69c0,-0.25 0.1,-0.47 0.26,-0.64 0.17,-0.16 0.39,-0.26 0.64,-0.26zm1.86 15.65c0.94,0 1.7,0.76 1.7,1.69 0,0.94 -0.76,1.7 -1.7,1.7 -0.93,0 -1.69,-0.76 -1.69,-1.7 0,-0.93 0.76,-1.69 1.69,-1.69z"/>
 </g>
</svg>
