<svg xmlns="http://www.w3.org/2000/svg" viewBox="0 0 32 32"><defs><style>.cls-1{fill:#bdd0da;}.cls-2{fill:#fff;}</style></defs><title>Ресурс 25</title><g id="Слой_2" data-name="Слой 2"><g id="Слой_2-2" data-name="Слой 2"><circle class="cls-1" cx="16" cy="16" r="16"/><path class="cls-2" d="M16,14.18H9.8c-.47-1.86-.63-4.33-.2-4.69a7.61,7.61,0,0,0,4.82-1.93c.6-.49.94-.74,1.38-.74H16v7.35h5.81c-.08.32-.17.61-.26.88a5.09,5.09,0,0,1,.79.21c.68-2.14,1.34-6.5-.26-6.59C18.54,8.46,17.66,6.18,16,6l0,0H15.8C14,6,13.51,8.45,9.55,8.68c-1.8.1-.8,5.66,0,7.29,3.14,6.39,6.58,8,6.58,8a8.83,8.83,0,0,0,2.08-1.82,4.57,4.57,0,0,1-.56-.6A10.33,10.33,0,0,1,16.11,23"/><path class="cls-2" d="M21,22.81,17.6,18.3a.5.5,0,0,1,.8-.6L21,21.19l4.6-5.51a.5.5,0,1,1,.76.64Z"/></g></g></svg>