<svg xmlns="http://www.w3.org/2000/svg" viewBox="0 0 24 24"><defs><style>.cls-1{fill:#61d6f2;fill-rule:evenodd;}</style></defs><title>Ресурс 22</title><g id="Слой_2" data-name="Слой 2"><g id="Layer_2" data-name="Layer 2"><g id="Слой_1-2" data-name="Слой_1"><path class="cls-1" d="M12,0A12,12,0,1,1,0,12,12,12,0,0,1,12,0Zm5,10.45A1.59,1.59,0,0,1,18.52,12,1.61,1.61,0,1,1,17,10.45Zm-5,0A1.52,1.52,0,0,1,13.55,12,1.55,1.55,0,0,1,12,13.66,1.62,1.62,0,0,1,10.45,12,1.58,1.58,0,0,1,12,10.45Zm-4.86,0A1.58,1.58,0,0,1,8.69,12a1.62,1.62,0,0,1-1.55,1.66A1.64,1.64,0,0,1,5.48,12,1.62,1.62,0,0,1,7.14,10.45Z"/></g></g></g></svg>