<?xml version="1.0" encoding="UTF-8"?>
<!DOCTYPE svg PUBLIC "-//W3C//DTD SVG 1.1//EN" "http://www.w3.org/Graphics/SVG/1.1/DTD/svg11.dtd">
<!-- Creator: CorelDRAW 2017 -->
<svg xmlns="http://www.w3.org/2000/svg" xml:space="preserve" width="108px" height="108px" version="1.1" style="shape-rendering:geometricPrecision; text-rendering:geometricPrecision; image-rendering:optimizeQuality; fill-rule:evenodd; clip-rule:evenodd"
viewBox="0 0 0.99 0.99"
 xmlns:xlink="http://www.w3.org/1999/xlink">
 <defs>
  <style type="text/css">
   <![CDATA[
    .fil0 {fill:#BDD0DA}
   ]]>
  </style>
 </defs>
 <g id="Слой_x0020_1">
  <metadata id="CorelCorpID_0Corel-Layer"/>
  <path class="fil0" d="M0.4 0.67l0 0.02c-0.03,0 -0.08,0 -0.08,0.03l0.24 0c0,-0.03 -0.05,-0.03 -0.08,-0.03l0 -0.02c0.19,0 0.15,0.01 0.16,-0.17 0,-0.16 0.01,-0.14 -0.2,-0.14 -0.21,0 -0.2,-0.02 -0.2,0.14 0,0.18 -0.02,0.17 0.16,0.17zm-0.11 -0.04l0.3 0 0 -0.22 -0.3 0 0 0.22zm0.22 -0.28l0.19 0c0,0.02 0.01,0.01 -0.06,0.01 0.01,0.01 0.01,0.02 0.01,0.05 0.03,0 0.05,-0.01 0.05,0.01 0,0.01 -0.02,0 -0.05,0 0,0.06 0,0.12 0,0.18 0,0.07 0,0.09 -0.08,0.09l0 0.03c0.12,0 0.17,0.02 0.17,-0.06l0 -0.35c0,-0.04 -0.03,-0.04 -0.07,-0.04 -0.13,0 -0.16,-0.02 -0.16,0.08zm-0.02 -0.35c0.28,0 0.5,0.22 0.5,0.49 0,0.28 -0.22,0.5 -0.5,0.5 -0.27,0 -0.49,-0.22 -0.49,-0.5 0,-0.27 0.22,-0.49 0.49,-0.49z"/>
 </g>
</svg>
