<svg width="38" height="38" viewBox="0 0 38 38" fill="none" xmlns="http://www.w3.org/2000/svg">
<circle cx="19" cy="19" r="19" fill="#61D6F2"/>
<path fill-rule="evenodd" clip-rule="evenodd" d="M14.327 19.5034C14.6995 19.2122 14.5167 18.9278 14.0358 18.9278H12.3361C12.3325 18.0455 12.5036 17.1712 12.8396 16.3553C13.1756 15.5395 13.6698 14.7983 14.2937 14.1744C14.9176 13.5505 15.6589 13.0563 16.4747 12.7203C17.2905 12.3843 18.1648 12.2131 19.0471 12.2167C19.9365 12.1967 20.8209 12.3541 21.6488 12.6797C22.4766 13.0052 23.2313 13.4925 23.8688 14.1129L26.1442 11.8375C24.2331 10.0117 21.6903 8.99504 19.0471 9.00002C17.7434 9.00002 16.4524 9.25681 15.2479 9.75572C14.0435 10.2546 12.949 10.9859 12.0271 11.9078C10.1653 13.7696 9.11937 16.2948 9.11937 18.9278H7.5144C6.95233 18.9278 6.8372 19.2122 7.23675 19.5034L8.6521 21.0136L10.1623 22.4289C10.2379 22.5187 10.3323 22.5908 10.4387 22.6403C10.5451 22.6898 10.6611 22.7155 10.7785 22.7155C10.8959 22.7155 11.0119 22.6898 11.1183 22.6403C11.2248 22.5908 11.3191 22.5187 11.3948 22.4289L12.9117 21.0136L14.327 19.5034ZM30.7763 17.8849L29.3541 16.4492L27.932 15.0339C27.8463 14.9394 27.7418 14.8639 27.6252 14.8122C27.5085 14.7605 27.3824 14.7338 27.2548 14.7338C27.1272 14.7338 27.0011 14.7605 26.8845 14.8122C26.7678 14.8639 26.6633 14.9394 26.5776 15.0339L25.1961 16.4492L23.686 17.8646C23.4015 18.2574 23.4896 18.5418 23.9636 18.5418H25.6702C25.6854 19.4327 25.5231 20.3178 25.1927 21.1454C24.8623 21.9729 24.3704 22.7264 23.7457 23.3618C23.121 23.9972 22.376 24.5019 21.5542 24.8463C20.7324 25.1908 19.8502 25.3681 18.9591 25.368C18.075 25.3722 17.1992 25.1974 16.3845 24.8541C15.5698 24.5107 14.8331 24.006 14.2187 23.3702L11.9568 25.6592C13.8114 27.5231 16.3297 28.5753 18.9591 28.5847C21.6037 28.5614 24.1318 27.4932 25.9917 25.613C27.8516 23.7327 28.8923 21.1932 28.8869 18.5486H30.5866C31.0539 18.5486 31.1555 18.2777 30.7763 17.8714V17.8849Z" fill="white"/>
</svg>
