<svg xmlns="http://www.w3.org/2000/svg" viewBox="0 0 32 32"><defs><style>.cls-1,.cls-3{fill:#fff;}.cls-1{opacity:0;}.cls-2{fill:#61d6f2;}</style></defs><title>Ресурс 28</title><g id="Слой_2" data-name="Слой 2"><g id="Слой_1-2" data-name="Слой 1"><rect class="cls-1" width="32" height="32"/><circle class="cls-2" cx="16" cy="16" r="16"/><path class="cls-3" d="M22.5,18H22V17H21V16H20l-.36-.36A3.9,3.9,0,0,0,20,14a4,4,0,1,0-4,4,4.08,4.08,0,0,0,.93-.12L18.1,19l2.1,2H23V18ZM15,14a1,1,0,1,1,1-1A1,1,0,0,1,15,14Z"/><path class="cls-3" d="M15.17,12.51A2.49,2.49,0,1,1,18.31,9.8h1a3.49,3.49,0,1,0-4.14,3.74Z"/><path class="cls-3" d="M15,21.07l-.56-.83.1-.5a4.17,4.17,0,0,0,1.25-.45,5,5,0,0,1-4.66-5,4.85,4.85,0,0,1,.31-1.67A4,4,0,0,0,10.53,18a4.14,4.14,0,0,0,.61.7l-.27,1.6-.48,2.86.78,1.16L12,25.52l1.24-.84,1.24-.84-.28-.41L13.88,23l.42-.28.41-.28L14.43,22l-.28-.41.42-.28Z"/></g></g></svg>