<svg xmlns="http://www.w3.org/2000/svg" viewBox="0 0 36 36"><defs><style>.cls-1,.cls-3{fill:#fff;}.cls-1{opacity:0;}.cls-2{fill:#61d6f2;}</style></defs><title>License_window</title><g id="Слой_2" data-name="Слой 2"><g id="Слой_4" data-name="Слой 4"><g id="License_window"><rect class="cls-1" width="36" height="36"/><path class="cls-2" d="M21,22.38A7.38,7.38,0,0,1,28,15c0-.34.05-.68.05-1A14,14,0,1,0,14,28a13.86,13.86,0,0,0,7-1.89Z"/><circle class="cls-3" cx="14" cy="14" r="5.6"/><circle class="cls-2" cx="14" cy="14" r="4.2"/><circle class="cls-3" cx="14" cy="14" r="2.8"/><rect class="cls-2" x="23" y="24" width="12" height="12" rx="1.64"/><path class="cls-3" d="M30,29a1,1,0,0,0-2,0,1,1,0,0,0,.5.86V32h1V29.86A1,1,0,0,0,30,29Z"/><path class="cls-2" d="M26,23V21a3,3,0,0,1,6,0v2h1V21a4,4,0,0,0-8,0v2Z"/></g></g></g></svg>