<?xml version="1.0" encoding="UTF-8"?>
<!DOCTYPE svg PUBLIC "-//W3C//DTD SVG 1.1//EN" "http://www.w3.org/Graphics/SVG/1.1/DTD/svg11.dtd">
<!-- Creator: CorelDRAW 2017 -->
<svg xmlns="http://www.w3.org/2000/svg" xml:space="preserve" width="103px" height="103px" version="1.1" style="shape-rendering:geometricPrecision; text-rendering:geometricPrecision; image-rendering:optimizeQuality; fill-rule:evenodd; clip-rule:evenodd"
viewBox="0 0 0.9 0.9"
 xmlns:xlink="http://www.w3.org/1999/xlink">
 <defs>
  <style type="text/css">
   <![CDATA[
    .fil0 {fill:#BDD0DA}
   ]]>
  </style>
 </defs>
 <g id="Слой_x0020_1">
  <metadata id="CorelCorpID_0Corel-Layer"/>
  <path class="fil0" d="M0.45 0c0.25,0 0.45,0.2 0.45,0.45 0,0.25 -0.2,0.45 -0.45,0.45 -0.25,0 -0.45,-0.2 -0.45,-0.45 0,-0.25 0.2,-0.45 0.45,-0.45zm-0.19 0.24c-0.01,0 -0.02,0.01 -0.03,0.03 0,0.01 0,0.03 0,0.05l0 0.21c0,0.02 0,0.09 0,0.1 0.01,0.02 0.02,0.03 0.03,0.03 0.02,0 0.04,0 0.06,0 0.02,0 0.31,0 0.32,0 0.01,-0.01 0.02,-0.02 0.03,-0.03 0,-0.01 0,-0.04 0,-0.05l0 -0.21c0,-0.02 0,-0.09 0,-0.11 -0.01,-0.01 -0.02,-0.02 -0.04,-0.02 -0.01,0 -0.03,0 -0.05,0 -0.02,0 -0.31,0 -0.32,0zm0.03 0.05c-0.03,0.01 -0.01,0.05 0.01,0.04 0.01,0 0.02,-0.01 0.02,-0.02 0,-0.02 -0.01,-0.03 -0.03,-0.02zm0.17 0c-0.03,0.01 -0.02,0.05 0.01,0.04 0.03,-0.01 0.02,-0.05 -0.01,-0.04zm-0.09 0c-0.02,0.01 -0.01,0.05 0.02,0.04 0.01,0 0.02,-0.01 0.01,-0.02 0,-0.02 -0.01,-0.02 -0.03,-0.02zm-0.08 0.08c-0.02,0.01 -0.02,0.03 -0.02,0.06l0 0.15c0,0.01 0,0.02 0.01,0.02 0.01,0.01 0.02,0.01 0.03,0.01 0.01,0 0.29,0 0.3,0 0.02,0 0.01,-0.03 0.01,-0.06l0 -0.14c0,-0.02 0.01,-0.03 0,-0.03 -0.01,-0.01 -0.02,-0.01 -0.04,-0.01 0,0 -0.28,0 -0.29,0z"/>
 </g>
</svg>
