<?xml version="1.0" encoding="UTF-8"?>
<!DOCTYPE svg PUBLIC "-//W3C//DTD SVG 1.1//EN" "http://www.w3.org/Graphics/SVG/1.1/DTD/svg11.dtd">
<!-- Creator: CorelDRAW 2017 -->
<svg xmlns="http://www.w3.org/2000/svg" xml:space="preserve" width="103px" height="103px" version="1.1" style="shape-rendering:geometricPrecision; text-rendering:geometricPrecision; image-rendering:optimizeQuality; fill-rule:evenodd; clip-rule:evenodd"
viewBox="0 0 0.95 0.95"
 xmlns:xlink="http://www.w3.org/1999/xlink">
 <defs>
  <style type="text/css">
   <![CDATA[
    .fil0 {fill:#61D6F2}
   ]]>
  </style>
 </defs>
 <g id="Слой_x0020_1">
  <metadata id="CorelCorpID_0Corel-Layer"/>
  <path class="fil0" d="M0.47 0c0.26,0 0.48,0.21 0.48,0.47 0,0.26 -0.22,0.48 -0.48,0.48 -0.26,0 -0.47,-0.22 -0.47,-0.48 0,-0.26 0.21,-0.47 0.47,-0.47zm-0.19 0.26c-0.02,0 -0.03,0.01 -0.04,0.02 0,0.01 0,0.04 0,0.05l0 0.23c0,0.02 0,0.09 0,0.11 0.01,0.01 0.02,0.02 0.04,0.02 0.02,0 0.04,0 0.05,0 0.03,0 0.33,0 0.34,0 0.02,0 0.03,-0.01 0.03,-0.02 0.01,-0.02 0.01,-0.04 0.01,-0.06l0 -0.22c0,-0.02 0,-0.1 -0.01,-0.11 0,-0.01 -0.01,-0.02 -0.03,-0.02 -0.02,-0.01 -0.04,0 -0.06,0 -0.02,0 -0.32,-0.01 -0.33,0zm0.03 0.04c-0.03,0.01 -0.02,0.06 0.01,0.05 0.01,0 0.02,-0.01 0.02,-0.03 -0.01,-0.01 -0.02,-0.02 -0.03,-0.02zm0.17 0c-0.03,0.01 -0.01,0.06 0.01,0.05 0.03,-0.01 0.02,-0.05 -0.01,-0.05zm-0.09 0c-0.03,0.01 -0.02,0.06 0.02,0.05 0.01,0 0.02,-0.01 0.01,-0.03 0,-0.01 -0.01,-0.02 -0.03,-0.02zm-0.08 0.09c-0.03,0.01 -0.02,0.03 -0.02,0.06l0 0.16c0,0.01 0,0.02 0.01,0.03 0,0 0.02,0 0.03,0 0.01,0 0.3,0 0.31,0 0.02,0 0.02,-0.03 0.02,-0.06l0 -0.15c0,-0.02 0,-0.03 -0.01,-0.03 -0.01,-0.01 -0.02,-0.01 -0.03,-0.01 -0.01,0 -0.31,0 -0.31,0z"/>
 </g>
</svg>
