<svg width="16" height="16" viewBox="0 0 16 16" fill="none" xmlns="http://www.w3.org/2000/svg">
<path d="M6.69245 8.65477C6.97318 9.03047 7.33135 9.34134 7.74266 9.56629C8.15396 9.79123 8.60878 9.925 9.07628 9.95852C9.54377 9.99204 10.013 9.92451 10.4521 9.76053C10.8913 9.59655 11.29 9.33995 11.6214 9.00813L13.5825 7.04498C14.1779 6.42788 14.5073 5.60139 14.4999 4.7435C14.4924 3.88561 14.1487 3.06497 13.5427 2.45833C12.9367 1.85168 12.1169 1.50758 11.2599 1.50012C10.4029 1.49267 9.57725 1.82246 8.9608 2.41847L7.83643 3.53747M9.30755 7.34525C9.02682 6.96955 8.66865 6.65868 8.25734 6.43373C7.84604 6.20878 7.39121 6.07501 6.92372 6.04149C6.45623 6.00798 5.98701 6.0755 5.54787 6.23948C5.10874 6.40346 4.70998 6.66006 4.37862 6.99188L2.41751 8.95504C1.82213 9.57213 1.49268 10.3986 1.50012 11.2565C1.50757 12.1144 1.85132 12.935 2.45733 13.5417C3.06334 14.1483 3.88312 14.4924 4.74012 14.4999C5.59711 14.5073 6.42275 14.1776 7.0392 13.5815L8.15703 12.4625" stroke="#2B2A29" stroke-linecap="round" stroke-linejoin="round"/>
</svg>
