<?xml version="1.0" encoding="UTF-8"?>
<!DOCTYPE svg PUBLIC "-//W3C//DTD SVG 1.1//EN" "http://www.w3.org/Graphics/SVG/1.1/DTD/svg11.dtd">
<!-- Creator: CorelDRAW 2017 -->
<svg xmlns="http://www.w3.org/2000/svg" xml:space="preserve" width="110px" height="113px" version="1.1" style="shape-rendering:geometricPrecision; text-rendering:geometricPrecision; image-rendering:optimizeQuality; fill-rule:evenodd; clip-rule:evenodd"
viewBox="0 0 2.75 2.81"
 xmlns:xlink="http://www.w3.org/1999/xlink">
 <defs>
  <style type="text/css">
   <![CDATA[
    .fil0 {fill:none}
    .fil2 {fill:#5F6368}
    .fil1 {fill:#5F6368;fill-rule:nonzero}
   ]]>
  </style>
 </defs>
 <g id="Слой_x0020_1">
  <metadata id="CorelCorpID_0Corel-Layer"/>
  <path class="fil0" d="M0 0l2.75 0 0 2.75 -2.75 0 0 -2.75z"/>
  <path class="fil1" d="M0.27 2.08l2.27 0 0 0.73 -2.33 0 0 -0.73 0.06 0zm2.14 0.13l-2.07 0 0 0.48 2.07 0 0 -0.48z"/>
  <g id="_2148611758976">
   <path class="fil2" d="M1.02 1.18l0.56 -0.99c0.01,-0.02 0.04,-0.03 0.06,-0.02l0.37 0.22c0.02,0.01 0.03,0.03 0.02,0.05l-0.56 0.99 -0.45 -0.25z"/>
   <path class="fil2" d="M0.73 1.68l0.21 -0.37 0.45 0.26 -0.11 0.18c-0.17,0 -0.31,0 -0.49,0 -0.07,0 -0.09,-0.01 -0.06,-0.07z"/>
  </g>
 </g>
</svg>
