<?xml version="1.0" encoding="UTF-8"?>
<!DOCTYPE svg PUBLIC "-//W3C//DTD SVG 1.1//EN" "http://www.w3.org/Graphics/SVG/1.1/DTD/svg11.dtd">
<!-- Creator: CorelDRAW 2017 -->
<svg xmlns="http://www.w3.org/2000/svg" xml:space="preserve" width="110px" height="110px" version="1.1" style="shape-rendering:geometricPrecision; text-rendering:geometricPrecision; image-rendering:optimizeQuality; fill-rule:evenodd; clip-rule:evenodd"
viewBox="0 0 2.24 2.24"
 xmlns:xlink="http://www.w3.org/1999/xlink">
 <defs>
  <style type="text/css">
   <![CDATA[
    .fil0 {fill:none}
    .fil1 {fill:#5F6368;fill-rule:nonzero}
   ]]>
  </style>
 </defs>
 <g id="Слой_x0020_1">
  <metadata id="CorelCorpID_0Corel-Layer"/>
  <g id="_2148611796800">
   <path class="fil0" d="M0 0l2.24 0 0 2.24 -2.24 0 0 -2.24z"/>
   <path class="fil1" d="M0.53 0.42l0.56 0c0.12,0 0.2,0 0.25,0.01 0.06,0.01 0.11,0.03 0.15,0.06 0.04,0.03 0.08,0.07 0.11,0.12 0.03,0.04 0.04,0.1 0.04,0.16 0,0.07 -0.02,0.13 -0.05,0.18 -0.04,0.06 -0.09,0.1 -0.15,0.12 0.09,0.03 0.16,0.07 0.2,0.13 0.05,0.06 0.07,0.13 0.07,0.22 0,0.06 -0.01,0.12 -0.04,0.18 -0.03,0.06 -0.07,0.11 -0.13,0.15 -0.05,0.03 -0.11,0.06 -0.19,0.07 -0.04,0 -0.16,0 -0.34,0l-0.48 0 0 -1.4zm0.29 0.23l0 0.32 0.18 0c0.11,0 0.18,0 0.21,0 0.05,-0.01 0.08,-0.02 0.11,-0.05 0.03,-0.03 0.04,-0.06 0.04,-0.11 0,-0.04 -0.01,-0.08 -0.03,-0.11 -0.03,-0.02 -0.06,-0.04 -0.11,-0.05 -0.03,0 -0.11,0 -0.24,0l-0.16 0zm0 0.56l0 0.38 0.26 0c0.1,0 0.17,-0.01 0.19,-0.01 0.05,-0.01 0.08,-0.03 0.11,-0.06 0.02,-0.03 0.04,-0.07 0.04,-0.12 0,-0.04 -0.01,-0.08 -0.03,-0.11 -0.02,-0.03 -0.05,-0.05 -0.09,-0.06 -0.04,-0.01 -0.13,-0.02 -0.25,-0.02l-0.23 0z"/>
  </g>
 </g>
</svg>
