<?xml version="1.0" encoding="UTF-8"?>
<!DOCTYPE svg PUBLIC "-//W3C//DTD SVG 1.1//EN" "http://www.w3.org/Graphics/SVG/1.1/DTD/svg11.dtd">
<!-- Creator: CorelDRAW 2017 -->
<svg xmlns="http://www.w3.org/2000/svg" xml:space="preserve" width="110px" height="110px" version="1.1" style="shape-rendering:geometricPrecision; text-rendering:geometricPrecision; image-rendering:optimizeQuality; fill-rule:evenodd; clip-rule:evenodd"
viewBox="0 0 1.21 1.21"
 xmlns:xlink="http://www.w3.org/1999/xlink">
 <defs>
  <style type="text/css">
   <![CDATA[
    .fil0 {fill:none}
    .fil1 {fill:#5F6368}
   ]]>
  </style>
 </defs>
 <g id="Слой_x0020_1">
  <metadata id="CorelCorpID_0Corel-Layer"/>
  <g id="_2148606395840">
   <rect class="fil0" width="1.21" height="1.21"/>
   <path id="Shape" class="fil1" d="M0.76 0.23l-0.41 0c-0.04,0 -0.07,0.03 -0.07,0.06l0 0.48 0.07 0 0 -0.48 0.41 0 0 -0.06 0 0zm0.1 0.13l-0.38 0c-0.03,0 -0.07,0.03 -0.07,0.07l0 0.48c0,0.04 0.04,0.07 0.07,0.07l0.38 0c0.04,0 0.07,-0.03 0.07,-0.07l0 -0.48c0,-0.04 -0.03,-0.07 -0.07,-0.07l0 0zm0 0.55l-0.38 0 0 -0.48 0.38 0 0 0.48 0 0z"/>
  </g>
 </g>
</svg>
