<?xml version="1.0" encoding="UTF-8"?>
<!DOCTYPE svg PUBLIC "-//W3C//DTD SVG 1.1//EN" "http://www.w3.org/Graphics/SVG/1.1/DTD/svg11.dtd">
<!-- Creator: CorelDRAW 2017 -->
<svg xmlns="http://www.w3.org/2000/svg" xml:space="preserve" width="110px" height="110px" version="1.1" style="shape-rendering:geometricPrecision; text-rendering:geometricPrecision; image-rendering:optimizeQuality; fill-rule:evenodd; clip-rule:evenodd"
viewBox="0 0 1.17 1.17"
 xmlns:xlink="http://www.w3.org/1999/xlink">
 <defs>
  <style type="text/css">
   <![CDATA[
    .fil0 {fill:none}
    .fil1 {fill:#5F6368}
   ]]>
  </style>
 </defs>
 <g id="Слой_x0020_1">
  <metadata id="CorelCorpID_0Corel-Layer"/>
  <g id="_2148709818848">
   <rect class="fil0" width="1.17" height="1.17"/>
   <path class="fil1" d="M0.64 0.59c0.04,0.06 0.06,0.07 0.13,0.09 0.01,0 0.02,0 0.03,0 0.03,0.01 0.07,0.02 0.09,0.05 0.03,0.02 0.04,0.05 0.04,0.08 0.01,0.04 0,0.07 -0.02,0.09 -0.02,0.02 -0.05,0.03 -0.08,0.02 -0.03,0 -0.07,-0.01 -0.09,-0.04 -0.03,-0.03 -0.04,-0.06 -0.05,-0.09 0,-0.01 0,-0.03 0.01,-0.04 -0.06,-0.14 -0.19,-0.1 -0.23,-0.01 0,0.02 0.01,0.03 0,0.05 0,0.03 -0.02,0.06 -0.04,0.09 -0.03,0.03 -0.06,0.04 -0.09,0.04 -0.03,0.01 -0.06,0 -0.08,-0.02 -0.02,-0.02 -0.03,-0.05 -0.03,-0.09 0.01,-0.03 0.02,-0.06 0.05,-0.08 0.02,-0.03 0.05,-0.04 0.08,-0.05 0.01,0 0.02,0 0.03,0 0.07,-0.02 0.09,-0.03 0.14,-0.09 -0.05,-0.12 -0.14,-0.3 -0.15,-0.33 0,-0.02 0.01,-0.02 0.02,-0.01 0.01,0.01 0.12,0.16 0.18,0.26 0.07,-0.1 0.17,-0.25 0.18,-0.26 0.02,-0.01 0.03,-0.01 0.02,0.01 -0.01,0.03 -0.1,0.21 -0.14,0.33zm0.13 0.17c0.02,-0.03 0.06,-0.02 0.08,0.01 0.03,0.02 0.04,0.06 0.01,0.08 -0.02,0.03 -0.06,0.02 -0.09,-0.01 -0.02,-0.02 -0.03,-0.06 0,-0.08zm-0.37 0c-0.02,-0.03 -0.06,-0.02 -0.09,0.01 -0.02,0.02 -0.03,0.06 -0.01,0.08 0.02,0.03 0.06,0.02 0.09,-0.01 0.03,-0.02 0.03,-0.06 0.01,-0.08z"/>
  </g>
 </g>
</svg>
