<?xml version="1.0" encoding="UTF-8"?>
<!DOCTYPE svg PUBLIC "-//W3C//DTD SVG 1.1//EN" "http://www.w3.org/Graphics/SVG/1.1/DTD/svg11.dtd">
<!-- Creator: CorelDRAW 2017 -->
<svg xmlns="http://www.w3.org/2000/svg" xml:space="preserve" width="110px" height="110px" version="1.1" style="shape-rendering:geometricPrecision; text-rendering:geometricPrecision; image-rendering:optimizeQuality; fill-rule:evenodd; clip-rule:evenodd"
viewBox="0 0 2.98 2.98"
 xmlns:xlink="http://www.w3.org/1999/xlink">
 <defs>
  <style type="text/css">
   <![CDATA[
    .fil0 {fill:none}
    .fil2 {fill:#2B2A29}
    .fil1 {fill:#5F6368;fill-rule:nonzero}
   ]]>
  </style>
 </defs>
 <g id="Слой_x0020_1">
  <metadata id="CorelCorpID_0Corel-Layer"/>
  <g id="_2148418174336">
   <path class="fil0" d="M0 0l2.98 0 0 2.98 -2.98 0 0 -2.98z"/>
   <path class="fil1" d="M0.88 2.02l0.5 -1.29 0.19 0 0.52 1.29 -0.19 0 -0.15 -0.39 -0.54 0 -0.14 0.39 -0.19 0zm0.38 -0.53l0.43 0 -0.13 -0.36c-0.04,-0.11 -0.07,-0.2 -0.09,-0.27 -0.02,0.08 -0.04,0.17 -0.07,0.25l-0.14 0.38z"/>
   <path class="fil2" d="M0.31 2.32l2.36 0 0 0.66 -2.36 0 0 -0.66z"/>
  </g>
 </g>
</svg>
