<?xml version="1.0" encoding="UTF-8"?>
<!DOCTYPE svg PUBLIC "-//W3C//DTD SVG 1.1//EN" "http://www.w3.org/Graphics/SVG/1.1/DTD/svg11.dtd">
<!-- Creator: CorelDRAW 2017 -->
<svg xmlns="http://www.w3.org/2000/svg" xml:space="preserve" width="110px" height="110px" version="1.1" style="shape-rendering:geometricPrecision; text-rendering:geometricPrecision; image-rendering:optimizeQuality; fill-rule:evenodd; clip-rule:evenodd"
viewBox="0 0 1.25 1.25"
 xmlns:xlink="http://www.w3.org/1999/xlink">
 <defs>
  <style type="text/css">
   <![CDATA[
    .fil0 {fill:none}
    .fil1 {fill:#5F6368}
   ]]>
  </style>
 </defs>
 <g id="Слой_x0020_1">
  <metadata id="CorelCorpID_0Corel-Layer"/>
  <g id="_2148709798496">
   <rect class="fil0" width="1.25" height="1.25"/>
   <path class="fil1" d="M0.56 0.8l0.27 0 0 0.05 -0.27 0 0 -0.05zm0 -0.16l0.27 0 0 0.06 -0.27 0 0 -0.06zm0.22 -0.35l-0.07 0c-0.01,-0.01 -0.02,-0.02 -0.03,-0.02l-0.04 0c0,-0.01 0,-0.01 0,-0.02 0,-0.04 -0.03,-0.07 -0.07,-0.07 -0.03,0 -0.06,0.03 -0.06,0.07 0,0.01 0,0.01 0,0.02l-0.04 0c-0.01,0 -0.02,0.01 -0.03,0.02l-0.08 0c-0.04,0 -0.07,0.03 -0.07,0.07l0 0.49 0.07 0 0 -0.49 0.07 0c0.01,0.02 0.02,0.03 0.04,0.03l0.21 0c0.02,0 0.03,-0.01 0.04,-0.03l0.06 0 0 -0.07 0 0zm-0.2 -0.07c0.01,0 0.02,0.01 0.02,0.03 0,0.01 -0.01,0.02 -0.02,0.02 -0.02,0 -0.03,-0.01 -0.03,-0.02 0,-0.02 0.01,-0.03 0.03,-0.03zm0.31 0.21l-0.39 0c-0.04,0 -0.07,0.03 -0.07,0.07l0 0.5c0,0.03 0.03,0.07 0.07,0.07l0.39 0c0.04,0 0.07,-0.04 0.07,-0.07l0 -0.5c0,-0.04 -0.03,-0.07 -0.07,-0.07l0 0zm0 0.57l-0.39 0 0 -0.5 0.39 0 0 0.5 0 0z"/>
  </g>
 </g>
</svg>
