<?xml version="1.0" encoding="UTF-8"?>
<!DOCTYPE svg PUBLIC "-//W3C//DTD SVG 1.1//EN" "http://www.w3.org/Graphics/SVG/1.1/DTD/svg11.dtd">
<!-- Creator: CorelDRAW 2017 -->
<svg xmlns="http://www.w3.org/2000/svg" xml:space="preserve" width="110px" height="110px" version="1.1" style="shape-rendering:geometricPrecision; text-rendering:geometricPrecision; image-rendering:optimizeQuality; fill-rule:evenodd; clip-rule:evenodd"
viewBox="0 0 2.39 2.39"
 xmlns:xlink="http://www.w3.org/1999/xlink">
 <defs>
  <style type="text/css">
   <![CDATA[
    .fil0 {fill:none}
    .fil1 {fill:#5F6368;fill-rule:nonzero}
   ]]>
  </style>
 </defs>
 <g id="Слой_x0020_1">
  <metadata id="CorelCorpID_0Corel-Layer"/>
  <path class="fil0" d="M0 0l2.39 0 0 2.39 -2.39 0 0 -2.39z"/>
  <path class="fil1" d="M1.5 0.62c0.01,-0.03 0.03,-0.05 0.05,-0.07 0.03,-0.01 0.08,-0.02 0.14,-0.03 0.01,-0.01 0.03,-0.02 0.03,-0.04 0.01,-0.01 0.01,-0.03 0.01,-0.04 -0.05,0 -0.1,0.01 -0.15,0.01 -0.05,0 -0.09,0 -0.13,0 -0.04,0 -0.09,0 -0.14,0 -0.04,0 -0.09,-0.01 -0.14,-0.01 0,0.01 -0.01,0.03 -0.01,0.04 -0.01,0.02 -0.01,0.03 0,0.04 0.06,0.01 0.1,0.02 0.11,0.03 0.02,0.02 0.02,0.04 0.01,0.07 -0.03,0.1 -0.07,0.19 -0.1,0.29 -0.03,0.1 -0.07,0.2 -0.1,0.29 -0.03,0.1 -0.07,0.2 -0.1,0.29 -0.03,0.1 -0.07,0.2 -0.1,0.29 -0.01,0.03 -0.03,0.05 -0.05,0.06 -0.03,0.02 -0.07,0.03 -0.13,0.04 -0.02,0 -0.03,0.01 -0.04,0.03 0,0.01 0,0.03 -0.01,0.04 0.05,0 0.1,-0.01 0.15,-0.01 0.04,0 0.09,0 0.13,0 0.04,0 0.09,0 0.13,0 0.05,0 0.1,0.01 0.14,0.01 0.01,-0.01 0.02,-0.03 0.02,-0.04 0.01,-0.02 0,-0.03 -0.01,-0.03 -0.06,-0.01 -0.09,-0.02 -0.11,-0.04 -0.02,-0.01 -0.02,-0.03 -0.01,-0.06 0.04,-0.09 0.07,-0.19 0.1,-0.29 0.04,-0.09 0.07,-0.19 0.1,-0.29 0.04,-0.09 0.07,-0.19 0.11,-0.29 0.03,-0.1 0.07,-0.19 0.1,-0.29z"/>
 </g>
</svg>
