<?xml version="1.0" encoding="UTF-8"?>
<!DOCTYPE svg PUBLIC "-//W3C//DTD SVG 1.1//EN" "http://www.w3.org/Graphics/SVG/1.1/DTD/svg11.dtd">
<!-- Creator: CorelDRAW 2017 -->
<svg xmlns="http://www.w3.org/2000/svg" xml:space="preserve" width="110px" height="110px" version="1.1" style="shape-rendering:geometricPrecision; text-rendering:geometricPrecision; image-rendering:optimizeQuality; fill-rule:evenodd; clip-rule:evenodd"
viewBox="0 0 5.57 5.57"
 xmlns:xlink="http://www.w3.org/1999/xlink">
 <defs>
  <style type="text/css">
   <![CDATA[
    .fil0 {fill:none}
    .fil1 {fill:#5F6368}
   ]]>
  </style>
 </defs>
 <g id="Слой_x0020_1">
  <metadata id="CorelCorpID_0Corel-Layer"/>
  <g id="_2148611797056">
   <path class="fil0" d="M0 0l5.57 0 0 5.57 -5.57 0 0 -5.57z"/>
   <g>
    <path class="fil1" d="M0.95 1.24l3.68 0 0 0.37 -3.68 0 0 -0.37z"/>
    <path class="fil1" d="M2.34 2.15l2.29 0 0 0.37 -2.29 0 0 -0.37z"/>
    <path class="fil1" d="M2.34 3.05l2.29 0 0 0.37 -2.29 0 0 -0.37z"/>
    <path class="fil1" d="M1.65 3.49l-0.35 0.39 -0.35 0.4 0 -0.79 0 -0.79 0.35 0.4 0.35 0.39z"/>
    <path class="fil1" d="M2.34 3.96l2.29 0 0 0.37 -2.29 0 0 -0.37z"/>
   </g>
  </g>
 </g>
</svg>
