<?xml version="1.0" encoding="UTF-8"?>
<!DOCTYPE svg PUBLIC "-//W3C//DTD SVG 1.1//EN" "http://www.w3.org/Graphics/SVG/1.1/DTD/svg11.dtd">
<!-- Creator: CorelDRAW 2017 -->
<svg xmlns="http://www.w3.org/2000/svg" xml:space="preserve" width="110px" height="110px" version="1.1" style="shape-rendering:geometricPrecision; text-rendering:geometricPrecision; image-rendering:optimizeQuality; fill-rule:evenodd; clip-rule:evenodd"
viewBox="0 0 6.59 6.59"
 xmlns:xlink="http://www.w3.org/1999/xlink">
 <defs>
  <style type="text/css">
   <![CDATA[
    .fil0 {fill:none}
    .fil1 {fill:#5F6368}
   ]]>
  </style>
 </defs>
 <g id="Слой_x0020_1">
  <metadata id="CorelCorpID_0Corel-Layer"/>
  <g id="_2148240059504">
   <path class="fil0" d="M0 0l6.59 0 0 6.59 -6.59 0 0 -6.59z"/>
   <g>
    <path class="fil1" d="M1.12 1.47l4.35 0 0 0.43 -4.35 0 0 -0.43z"/>
    <path class="fil1" d="M2.77 2.54l2.7 0 0 0.43 -2.7 0 0 -0.43z"/>
    <path class="fil1" d="M2.77 3.61l2.7 0 0 0.44 -2.7 0 0 -0.44z"/>
    <path class="fil1" d="M1.12 4.12l0.42 -0.46 0.41 -0.47 0 0.93 0 0.94 -0.41 -0.47 -0.42 -0.47z"/>
    <path class="fil1" d="M2.77 4.68l2.7 0 0 0.44 -2.7 0 0 -0.44z"/>
   </g>
  </g>
 </g>
</svg>
