<?xml version="1.0" encoding="UTF-8"?>
<!DOCTYPE svg PUBLIC "-//W3C//DTD SVG 1.1//EN" "http://www.w3.org/Graphics/SVG/1.1/DTD/svg11.dtd">
<!-- Creator: CorelDRAW 2017 -->
<svg xmlns="http://www.w3.org/2000/svg" xml:space="preserve" width="110px" height="110px" version="1.1" style="shape-rendering:geometricPrecision; text-rendering:geometricPrecision; image-rendering:optimizeQuality; fill-rule:evenodd; clip-rule:evenodd"
viewBox="0 0 1.49 1.49"
 xmlns:xlink="http://www.w3.org/1999/xlink">
 <defs>
  <style type="text/css">
   <![CDATA[
    .fil0 {fill:none}
    .fil1 {fill:#5F6368}
    .fil2 {fill:#5F6368;fill-rule:nonzero}
   ]]>
  </style>
 </defs>
 <g id="Слой_x0020_1">
  <metadata id="CorelCorpID_0Corel-Layer"/>
  <g id="_2148429961488">
   <rect class="fil0" width="1.49" height="1.49"/>
   <g>
    <rect class="fil1" x="0.56" y="0.69" width="0.67" height="0.11"/>
    <rect class="fil1" x="0.56" y="1.06" width="0.67" height="0.11"/>
    <rect class="fil1" x="0.56" y="0.32" width="0.67" height="0.11"/>
    <path class="fil2" d="M0.38 0.48l-0.05 0 0 -0.16c-0.01,0.02 -0.03,0.03 -0.05,0.03l0 -0.03c0.01,-0.01 0.02,-0.02 0.03,-0.03 0.02,-0.01 0.03,-0.02 0.03,-0.03l0.04 0 0 0.22z"/>
    <path class="fil2" d="M0.4 0.81l0 0.04 -0.15 0c0.01,-0.01 0.01,-0.02 0.02,-0.04 0.01,-0.01 0.02,-0.03 0.05,-0.05 0.02,-0.02 0.03,-0.03 0.03,-0.04 0.01,-0.01 0.01,-0.02 0.01,-0.02 0,-0.01 0,-0.02 -0.01,-0.03 0,0 -0.01,0 -0.02,0 -0.01,0 -0.01,0 -0.02,0 0,0.01 -0.01,0.02 -0.01,0.03l-0.04 0c0,-0.03 0.01,-0.04 0.02,-0.05 0.02,-0.01 0.03,-0.02 0.05,-0.02 0.02,0 0.04,0.01 0.05,0.02 0.02,0.01 0.02,0.03 0.02,0.04 0,0.01 0,0.02 0,0.03 -0.01,0.01 -0.01,0.02 -0.02,0.03 0,0.01 -0.01,0.02 -0.03,0.03 -0.01,0.01 -0.02,0.02 -0.02,0.02 -0.01,0.01 -0.01,0.01 -0.01,0.01l0.08 0z"/>
    <path class="fil2" d="M0.25 1.17l0.05 -0.01c0,0.01 0,0.02 0.01,0.02 0,0.01 0.01,0.01 0.02,0.01 0.01,0 0.01,0 0.02,-0.01 0.01,0 0.01,-0.01 0.01,-0.02 0,-0.01 0,-0.02 -0.01,-0.03 -0.01,-0.01 -0.01,-0.01 -0.02,-0.01 -0.01,0 -0.01,0 -0.02,0l0 -0.03c0.02,0 0.02,0 0.03,-0.01 0.01,0 0.01,-0.01 0.01,-0.02 0,-0.01 0,-0.01 -0.01,-0.02 0,0 -0.01,0 -0.01,0 -0.01,0 -0.02,0 -0.02,0 -0.01,0.01 -0.01,0.02 -0.01,0.03l-0.04 -0.01c0,-0.01 0,-0.02 0.01,-0.03 0.01,-0.01 0.01,-0.02 0.02,-0.02 0.01,-0.01 0.02,-0.01 0.04,-0.01 0.02,0 0.03,0.01 0.05,0.02 0.01,0.01 0.01,0.02 0.01,0.04 0,0.02 -0.01,0.03 -0.03,0.05 0.01,0 0.02,0 0.03,0.01 0.01,0.01 0.01,0.02 0.01,0.04 0,0.02 -0.01,0.03 -0.02,0.05 -0.01,0.01 -0.03,0.02 -0.05,0.02 -0.02,0 -0.04,-0.01 -0.05,-0.02 -0.02,-0.01 -0.02,-0.03 -0.03,-0.04z"/>
   </g>
  </g>
 </g>
</svg>
