<?xml version="1.0" encoding="UTF-8"?>
<!DOCTYPE svg PUBLIC "-//W3C//DTD SVG 1.1//EN" "http://www.w3.org/Graphics/SVG/1.1/DTD/svg11.dtd">
<!-- Creator: CorelDRAW 2017 -->
<svg xmlns="http://www.w3.org/2000/svg" xml:space="preserve" width="110px" height="110px" version="1.1" style="shape-rendering:geometricPrecision; text-rendering:geometricPrecision; image-rendering:optimizeQuality; fill-rule:evenodd; clip-rule:evenodd"
viewBox="0 0 2.56 2.56"
 xmlns:xlink="http://www.w3.org/1999/xlink">
 <defs>
  <style type="text/css">
   <![CDATA[
    .fil0 {fill:none}
    .fil1 {fill:#5F6368;fill-rule:nonzero}
   ]]>
  </style>
 </defs>
 <g id="Слой_x0020_1">
  <metadata id="CorelCorpID_0Corel-Layer"/>
  <g id="_2148611753984">
   <path class="fil0" d="M0 0l2.56 0 0 2.56 -2.56 0 0 -2.56z"/>
   <path class="fil1" d="M1.71 0.5l0.22 0 0 0.96c0,0.17 -0.02,0.3 -0.06,0.4 -0.03,0.1 -0.1,0.18 -0.2,0.24 -0.1,0.06 -0.23,0.09 -0.39,0.09 -0.16,0 -0.28,-0.02 -0.38,-0.08 -0.1,-0.05 -0.17,-0.13 -0.22,-0.23 -0.04,-0.1 -0.06,-0.24 -0.06,-0.42l0 -0.96 0.22 0 0 0.96c0,0.15 0.02,0.25 0.04,0.32 0.03,0.07 0.08,0.12 0.14,0.16 0.07,0.04 0.15,0.06 0.24,0.06 0.16,0 0.28,-0.04 0.35,-0.11 0.06,-0.08 0.1,-0.22 0.1,-0.43l0 -0.96zm-1.27 1.88l1.68 0 0 0.1 -1.68 0 0 -0.1z"/>
  </g>
 </g>
</svg>
