<?xml version="1.0" encoding="UTF-8"?>
<!DOCTYPE svg PUBLIC "-//W3C//DTD SVG 1.1//EN" "http://www.w3.org/Graphics/SVG/1.1/DTD/svg11.dtd">
<!-- Creator: CorelDRAW 2017 -->
<svg xmlns="http://www.w3.org/2000/svg" xml:space="preserve" width="43px" height="43px" version="1.1" style="shape-rendering:geometricPrecision; text-rendering:geometricPrecision; image-rendering:optimizeQuality; fill-rule:evenodd; clip-rule:evenodd"
viewBox="0 0 4.97 4.97"
 xmlns:xlink="http://www.w3.org/1999/xlink">
 <defs>
  <style type="text/css">
   <![CDATA[
    .fil0 {fill:none}
    .fil1 {fill:#61D6F2}
   ]]>
  </style>
 </defs>
 <g id="Слой_x0020_1">
  <metadata id="CorelCorpID_0Corel-Layer"/>
  <rect class="fil0" width="4.97" height="4.97"/>
 </g>
 <g id="Слой_x0020_1_0">
  <metadata id="CorelCorpID_1Corel-Layer"/>
  <path class="fil1" d="M2.22 3.99c0.56,-0.57 1.13,-1.13 1.69,-1.69 0.03,-0.43 0.15,-1.05 -0.03,-1.23 -0.19,-0.19 -0.81,-0.02 -1.23,0.02 -0.55,0.56 -1.11,1.11 -1.66,1.66 0.41,0.41 0.82,0.82 1.23,1.24zm1.21 -2.44c-0.14,-0.14 -0.36,-0.14 -0.5,0 -0.14,0.14 -0.14,0.36 0,0.5 0.14,0.14 0.36,0.14 0.5,0 0.14,-0.14 0.14,-0.36 0,-0.5z"/>
 </g>
</svg>
