<?xml version="1.0" encoding="UTF-8"?>
<!DOCTYPE svg PUBLIC "-//W3C//DTD SVG 1.0//EN" "http://www.w3.org/TR/2001/REC-SVG-20010904/DTD/svg10.dtd">
<!-- Creator: CorelDRAW 2017 -->
<svg xmlns="http://www.w3.org/2000/svg" xml:space="preserve" width="32px" height="32px" version="1.0" style="shape-rendering:geometricPrecision; text-rendering:geometricPrecision; image-rendering:optimizeQuality; fill-rule:evenodd; clip-rule:evenodd"
viewBox="0 0 4.75 4.75"
 xmlns:xlink="http://www.w3.org/1999/xlink">
 <defs>
  <style type="text/css">
   <![CDATA[
    .fil0 {fill:none}
    .fil1 {fill:#8394A5}
   ]]>
  </style>
 </defs>
 <g id="Слой_x0020_1">
  <metadata id="CorelCorpID_0Corel-Layer"/>
  <rect class="fil0" width="4.75" height="4.75"/>
 </g>
 <g id="Слой_x0020_1_0">
  <metadata id="CorelCorpID_1Corel-Layer"/>
  <path class="fil1" d="M1.03 0.9c-0.1,0.01 -0.18,0.08 -0.21,0.17 -0.03,0.07 -0.02,0.27 -0.02,0.36l0 1.53c0,0.15 -0.02,0.64 0.02,0.74 0.04,0.08 0.12,0.15 0.23,0.16 0.12,0 0.26,0 0.38,0 0.19,0 2.21,0 2.29,-0.01 0.11,-0.01 0.19,-0.08 0.22,-0.16 0.03,-0.08 0.02,-0.28 0.02,-0.37l0 -1.53c0,-0.14 0.01,-0.65 -0.03,-0.74 -0.03,-0.07 -0.11,-0.15 -0.22,-0.15 -0.13,-0.01 -0.26,0 -0.39,0 -0.18,0 -2.21,-0.01 -2.29,0zm0.22 0.33c-0.21,0.07 -0.12,0.38 0.09,0.32 0.07,-0.02 0.14,-0.11 0.11,-0.2 -0.02,-0.08 -0.1,-0.15 -0.2,-0.12zm1.18 0c-0.22,0.07 -0.11,0.38 0.1,0.32 0.2,-0.07 0.1,-0.38 -0.1,-0.32zm-0.59 0c-0.2,0.06 -0.13,0.37 0.08,0.32 0.08,-0.02 0.15,-0.1 0.12,-0.2 -0.01,-0.08 -0.1,-0.14 -0.2,-0.12zm-0.59 0.59c-0.16,0.03 -0.12,0.21 -0.12,0.41l0 1.05c0,0.08 -0.01,0.16 0.05,0.21 0.05,0.05 0.14,0.04 0.23,0.04 0.05,0 2.05,0.01 2.1,-0.01 0.16,-0.03 0.12,-0.23 0.12,-0.4l0 -1.06c0,-0.1 0.01,-0.15 -0.05,-0.21 -0.06,-0.05 -0.15,-0.03 -0.23,-0.03 -0.05,0 -2.05,-0.01 -2.1,0z"/>
 </g>
</svg>
