<?xml version="1.0" encoding="UTF-8"?>
<!DOCTYPE svg PUBLIC "-//W3C//DTD SVG 1.1//EN" "http://www.w3.org/Graphics/SVG/1.1/DTD/svg11.dtd">
<!-- Creator: CorelDRAW 2017 -->
<svg xmlns="http://www.w3.org/2000/svg" xml:space="preserve" width="43px" height="43px" version="1.1" style="shape-rendering:geometricPrecision; text-rendering:geometricPrecision; image-rendering:optimizeQuality; fill-rule:evenodd; clip-rule:evenodd"
viewBox="0 0 2.89 2.89"
 xmlns:xlink="http://www.w3.org/1999/xlink">
 <defs>
  <style type="text/css">
   <![CDATA[
    .fil1 {fill:none}
    .fil0 {fill:#61D6F2}
   ]]>
  </style>
 </defs>
 <g id="Слой_x0020_1">
  <metadata id="CorelCorpID_0Corel-Layer"/>
  <path class="fil0" d="M1.44 0.57c0.11,0 0.19,0.09 0.19,0.19 0,0.1 -0.08,0.19 -0.19,0.19 -0.1,0 -0.18,-0.09 -0.18,-0.19 0,-0.1 0.08,-0.19 0.18,-0.19zm-0.25 1.14c0.01,0.26 -0.06,0.57 0.1,0.6 0.09,0.02 0.12,-0.04 0.15,-0.07 0.04,0.04 0.07,0.09 0.15,0.07 0.07,-0.01 0.1,-0.06 0.1,-0.13 0.01,-0.14 0,-0.33 0,-0.47l0.08 -0.05c0.07,-0.07 0.05,-0.25 0.05,-0.36 0,-0.22 -0.02,-0.28 -0.25,-0.29 -0.01,0.09 -0.03,0.19 -0.08,0.25 0,-0.14 -0.02,-0.13 0.01,-0.25l-0.12 0c0.04,0.12 0.02,0.11 0.01,0.25 -0.04,-0.06 -0.06,-0.16 -0.07,-0.25 -0.21,0 -0.25,0.08 -0.25,0.28 0,0.34 -0.04,0.28 0.12,0.42z"/>
  <rect class="fil1" width="2.89" height="2.89"/>
 </g>
</svg>
