<?xml version="1.0" encoding="UTF-8"?>
<!DOCTYPE svg PUBLIC "-//W3C//DTD SVG 1.1//EN" "http://www.w3.org/Graphics/SVG/1.1/DTD/svg11.dtd">
<!-- Creator: CorelDRAW 2017 -->
<svg xmlns="http://www.w3.org/2000/svg" xml:space="preserve" width="43px" height="43px" version="1.1" style="shape-rendering:geometricPrecision; text-rendering:geometricPrecision; image-rendering:optimizeQuality; fill-rule:evenodd; clip-rule:evenodd"
viewBox="0 0 0.66 0.66"
 xmlns:xlink="http://www.w3.org/1999/xlink">
 <defs>
  <style type="text/css">
   <![CDATA[
    .fil0 {fill:none}
    .fil1 {fill:#61D6F2}
   ]]>
  </style>
 </defs>
 <g id="Слой_x0020_1">
  <metadata id="CorelCorpID_0Corel-Layer"/>
  <rect class="fil0" width="0.66" height="0.66"/>
  <path class="fil1" d="M0.29 0.51c0.01,0.02 0.04,0.02 0.06,0.01 0.04,-0.01 0,-0.08 0.03,-0.12l0.03 -0.06c0.01,-0.01 0.01,-0.01 0.02,-0.02 0.02,-0.02 0.07,-0.09 0.07,-0.13 -0.01,-0.03 -0.09,-0.05 -0.12,-0.06 -0.05,0 -0.1,0 -0.15,0.01 -0.11,0.04 -0.06,0.08 -0.02,0.16 0.02,0.02 0.07,0.08 0.08,0.11 0.01,0.03 -0.01,0.07 0,0.1zm-0.02 -0.36c-0.04,0.01 -0.14,0.04 -0.05,0.08 0.04,0.02 0.12,0.02 0.17,0.01 0.02,0 0.05,-0.01 0.07,-0.02 0.06,-0.04 -0.07,-0.09 -0.19,-0.07z"/>
 </g>
</svg>
