<?xml version="1.0" encoding="UTF-8"?>
<!DOCTYPE svg PUBLIC "-//W3C//DTD SVG 1.1//EN" "http://www.w3.org/Graphics/SVG/1.1/DTD/svg11.dtd">
<!-- Creator: CorelDRAW 2017 -->
<svg xmlns="http://www.w3.org/2000/svg" xml:space="preserve" width="43px" height="43px" version="1.1" style="shape-rendering:geometricPrecision; text-rendering:geometricPrecision; image-rendering:optimizeQuality; fill-rule:evenodd; clip-rule:evenodd"
viewBox="0 0 3.83 3.83"
 xmlns:xlink="http://www.w3.org/1999/xlink">
 <defs>
  <style type="text/css">
   <![CDATA[
    .fil1 {fill:none}
    .fil0 {fill:#61D6F2}
   ]]>
  </style>
 </defs>
 <g id="Слой_x0020_1">
  <metadata id="CorelCorpID_0Corel-Layer"/>
  <path class="fil0" d="M1.92 3.08c0.11,-0.12 0.5,-1.02 0.58,-1.25 0.09,-0.25 0.15,-0.49 0.01,-0.73 -0.27,-0.45 -0.9,-0.46 -1.18,-0.01 -0.14,0.24 -0.09,0.48 0,0.72 0.08,0.23 0.48,1.15 0.59,1.27zm0 -1.99c0.14,0 0.25,0.11 0.25,0.25 0,0.14 -0.11,0.25 -0.25,0.25 -0.14,0 -0.25,-0.11 -0.25,-0.25 0,-0.14 0.11,-0.25 0.25,-0.25z"/>
  <rect class="fil1" width="3.83" height="3.83"/>
 </g>
</svg>
