<?xml version="1.0" encoding="UTF-8"?>
<!DOCTYPE svg PUBLIC "-//W3C//DTD SVG 1.1//EN" "http://www.w3.org/Graphics/SVG/1.1/DTD/svg11.dtd">
<!-- Creator: CorelDRAW 2017 -->
<svg xmlns="http://www.w3.org/2000/svg" xml:space="preserve" width="43px" height="43px" version="1.1" style="shape-rendering:geometricPrecision; text-rendering:geometricPrecision; image-rendering:optimizeQuality; fill-rule:evenodd; clip-rule:evenodd"
viewBox="0 0 5.02 5.02"
 xmlns:xlink="http://www.w3.org/1999/xlink">
 <defs>
  <style type="text/css">
   <![CDATA[
    .fil0 {fill:none}
    .fil1 {fill:#8394A5}
   ]]>
  </style>
 </defs>
 <g id="Слой_x0020_1">
  <metadata id="CorelCorpID_0Corel-Layer"/>
  <rect class="fil0" width="5.02" height="5.02"/>
 </g>
 <g id="Слой_x0020_1_0">
  <metadata id="CorelCorpID_1Corel-Layer"/>
  <path class="fil1" d="M2.25 4.03c0.56,-0.57 1.13,-1.14 1.7,-1.7 0.03,-0.44 0.16,-1.07 -0.03,-1.25 -0.19,-0.19 -0.81,-0.02 -1.24,0.03 -0.56,0.55 -1.12,1.11 -1.68,1.67 0.42,0.42 0.83,0.83 1.25,1.25zm1.21 -2.47c-0.14,-0.14 -0.36,-0.14 -0.5,0 -0.14,0.14 -0.14,0.37 0,0.51 0.14,0.14 0.36,0.14 0.5,0 0.14,-0.14 0.14,-0.37 0,-0.51z"/>
 </g>
</svg>
