<svg width="38" height="38" viewBox="0 0 38 38" fill="none" xmlns="http://www.w3.org/2000/svg">
<mask id="path-1-inside-1" fill="white">
<path d="M38 19C38 29.4934 29.4934 38 19 38C8.50659 38 0 29.4934 0 19C0 8.50659 8.50659 0 19 0C29.4934 0 38 8.50659 38 19Z"/>
</mask>
<path d="M38 19C38 29.4934 29.4934 38 19 38C8.50659 38 0 29.4934 0 19C0 8.50659 8.50659 0 19 0C29.4934 0 38 8.50659 38 19Z" fill="#BDD0DA"/>
<path d="M37 19C37 28.9411 28.9411 37 19 37V39C30.0457 39 39 30.0457 39 19H37ZM19 37C9.05887 37 1 28.9411 1 19H-1C-1 30.0457 7.95431 39 19 39V37ZM1 19C1 9.05887 9.05887 1 19 1V-1C7.95431 -1 -1 7.95431 -1 19H1ZM19 1C28.9411 1 37 9.05887 37 19H39C39 7.95431 30.0457 -1 19 -1V1Z" fill="#BDD0DA" mask="url(#path-1-inside-1)"/>
<path fill-rule="evenodd" clip-rule="evenodd" d="M19.5 29.2222C24.8694 29.2222 29.2222 24.8694 29.2222 19.5C29.2222 14.1306 24.8694 9.77778 19.5 9.77778C14.1306 9.77778 9.77778 14.1306 9.77778 19.5C9.77778 24.8694 14.1306 29.2222 19.5 29.2222ZM19.5 32C26.4036 32 32 26.4036 32 19.5C32 12.5964 26.4036 7 19.5 7C12.5964 7 7 12.5964 7 19.5C7 26.4036 12.5964 32 19.5 32Z" fill="white"/>
<path d="M24.9003 17.3278L21.8287 17.8283C21.7252 17.2744 21.4886 16.8574 21.119 16.5771C20.7567 16.2968 20.2836 16.1567 19.6996 16.1567C18.9234 16.1567 18.3024 16.4002 17.8367 16.8874C17.3783 17.3679 17.1491 18.1753 17.1491 19.3098C17.1491 20.5711 17.382 21.462 17.8477 21.9825C18.3209 22.503 18.9529 22.7633 19.744 22.7633C20.3354 22.7633 20.8196 22.6131 21.1966 22.3128C21.5736 22.0058 21.8398 21.482 21.995 20.7412L25.0556 21.2117C24.7377 22.4796 24.1278 23.4373 23.2259 24.0846C22.324 24.7319 21.1153 25.0556 19.5998 25.0556C17.8773 25.0556 16.5023 24.5651 15.4747 23.5841C14.4545 22.6031 13.9444 21.2451 13.9444 19.51C13.9444 17.7549 14.4582 16.3902 15.4858 15.4159C16.5134 14.4349 17.9032 13.9444 19.6552 13.9444C21.0894 13.9444 22.2279 14.2247 23.0706 14.7853C23.9208 15.3392 24.5307 16.1867 24.9003 17.3278Z" fill="white"/>
</svg>
