<svg width="38" height="38" viewBox="0 0 38 38" fill="none" xmlns="http://www.w3.org/2000/svg">
<path d="M38 19C38 29.4934 29.4934 38 19 38C8.50659 38 0 29.4934 0 19C0 8.50659 8.50659 0 19 0C29.4934 0 38 8.50659 38 19Z" fill="#61D6F2"/>
<path d="M12 26C15.866 29.866 22.134 29.866 26 26C29.866 22.134 29.866 15.866 26 12C22.134 8.13401 15.866 8.13401 12 12C8.13401 15.866 8.13401 22.134 12 26Z" fill="#2F2F2F"/>
<path d="M12 26C15.866 29.866 22.134 29.866 26 26C29.866 22.134 29.866 15.866 26 12C22.134 8.13401 15.866 8.13401 12 12C8.13401 15.866 8.13401 22.134 12 26Z" fill="white"/>
<path d="M14.8239 16.4564C15.2733 16.9058 16.0021 16.9058 16.4515 16.4564C16.901 16.0069 16.901 15.2782 16.4515 14.8287C16.0021 14.3793 15.2733 14.3793 14.8239 14.8287C14.3744 15.2782 14.3744 16.0069 14.8239 16.4564Z" fill="#61D6F2"/>
<path d="M12.8628 12.8628C16.2501 9.47095 21.7454 9.46867 25.1361 12.8549C28.528 16.2422 28.5314 21.7363 25.1441 25.1282C23.4504 26.8241 20.7028 26.8264 19.0068 25.1327C17.312 23.4402 17.3746 20.7757 19.0046 18.9955C20.6072 17.2449 20.6959 14.5519 19 12.8583C17.3041 11.1646 14.5564 11.1669 12.8628 12.8628V12.8628Z" fill="#61D6F2"/>
<path d="M21.5485 23.1717C21.9979 23.6211 22.7267 23.6211 23.1761 23.1717C23.6256 22.7222 23.6256 21.9935 23.1761 21.544C22.7267 21.0946 21.9979 21.0946 21.5485 21.544C21.099 21.9935 21.099 22.7222 21.5485 23.1717Z" fill="white"/>
</svg>
