<svg width="38" height="38" viewBox="0 0 38 38" fill="none" xmlns="http://www.w3.org/2000/svg">
<mask id="path-1-inside-1_1532_1657" fill="white">
<path d="M38 19C38 29.4934 29.4934 38 19 38C8.50659 38 0 29.4934 0 19C0 8.50659 8.50659 0 19 0C29.4934 0 38 8.50659 38 19Z"/>
</mask>
<path d="M38 19C38 29.4934 29.4934 38 19 38C8.50659 38 0 29.4934 0 19C0 8.50659 8.50659 0 19 0C29.4934 0 38 8.50659 38 19Z" fill="#BDD0DA"/>
<path d="M37 19C37 28.9411 28.9411 37 19 37V39C30.0457 39 39 30.0457 39 19H37ZM19 37C9.05887 37 1 28.9411 1 19H-1C-1 30.0457 7.95431 39 19 39V37ZM1 19C1 9.05887 9.05887 1 19 1V-1C7.95431 -1 -1 7.95431 -1 19H1ZM19 1C28.9411 1 37 9.05887 37 19H39C39 7.95431 30.0457 -1 19 -1V1Z" fill="#BDD0DA" mask="url(#path-1-inside-1_1532_1657)"/>
<path fill-rule="evenodd" clip-rule="evenodd" d="M8 9C8 8.44772 8.44772 8 9 8H13C13.5523 8 14 8.44772 14 9V13C14 13.5523 13.5523 14 13 14H9C8.44772 14 8 13.5523 8 13V9ZM16 9C16 8.44772 16.4477 8 17 8H21C21.5523 8 22 8.44772 22 9V13C22 13.5523 21.5523 14 21 14H17C16.4477 14 16 13.5523 16 13V9ZM25 8C24.4477 8 24 8.44772 24 9V13C24 13.5523 24.4477 14 25 14H29C29.5523 14 30 13.5523 30 13V9C30 8.44772 29.5523 8 29 8H25ZM24 17C24 16.4477 24.4477 16 25 16H29C29.5523 16 30 16.4477 30 17V21C30 21.5523 29.5523 22 29 22H25C24.4477 22 24 21.5523 24 21V17ZM17 16C16.4477 16 16 16.4477 16 17V21C16 21.5523 16.4477 22 17 22H21C21.5523 22 22 21.5523 22 21V17C22 16.4477 21.5523 16 21 16H17ZM8 17C8 16.4477 8.44772 16 9 16H13C13.5523 16 14 16.4477 14 17V21C14 21.5523 13.5523 22 13 22H9C8.44772 22 8 21.5523 8 21V17ZM9 24C8.44772 24 8 24.4477 8 25V29C8 29.5523 8.44772 30 9 30H13C13.5523 30 14 29.5523 14 29V25C14 24.4477 13.5523 24 13 24H9ZM16 25C16 24.4477 16.4477 24 17 24H21C21.5523 24 22 24.4477 22 25V29C22 29.5523 21.5523 30 21 30H17C16.4477 30 16 29.5523 16 29V25ZM25 24C24.4477 24 24 24.4477 24 25V29C24 29.5523 24.4477 30 25 30H29C29.5523 30 30 29.5523 30 29V25C30 24.4477 29.5523 24 29 24H25Z" fill="white"/>
</svg>
