<svg width="36" height="36" viewBox="0 0 36 36" fill="none" xmlns="http://www.w3.org/2000/svg">
<path fill-rule="evenodd" clip-rule="evenodd" d="M28.5 10C29.6046 10 30.5 9.10457 30.5 8C30.5 6.89543 29.6046 6 28.5 6C27.3954 6 26.5 6.89543 26.5 8C26.5 9.10457 27.3954 10 28.5 10ZM24.2778 12H8.72222C8.13285 12 7.56762 12.2341 7.15087 12.6509C6.73413 13.0676 6.5 13.6329 6.5 14.2222V27.5556C6.5 28.1449 6.73413 28.7102 7.15087 29.1269C7.56762 29.5437 8.13285 29.7778 8.72222 29.7778H24.2778C25.5 29.7778 26.5 28.7778 26.5 27.5556V14.2222C26.5 13.6329 26.2659 13.0676 25.8491 12.6509C25.4324 12.2341 24.8671 12 24.2778 12ZM9.83333 28.6667C8.16667 28.6667 7.61111 28.0158 7.61111 26.4444V16.4444H16.5H25.3889V26.4444C25.3889 28.0158 24.8333 28.5714 23.1667 28.6667H9.83333ZM10.9444 14.2222C10.9444 14.8359 10.447 15.3333 9.83333 15.3333C9.21968 15.3333 8.72222 14.8359 8.72222 14.2222C8.72222 13.6086 9.21968 13.1111 9.83333 13.1111C10.447 13.1111 10.9444 13.6086 10.9444 14.2222ZM13.1667 15.3333C13.7803 15.3333 14.2778 14.8359 14.2778 14.2222C14.2778 13.6086 13.7803 13.1111 13.1667 13.1111C12.553 13.1111 12.0556 13.6086 12.0556 14.2222C12.0556 14.8359 12.553 15.3333 13.1667 15.3333ZM17.6111 14.2222C17.6111 14.8359 17.1137 15.3333 16.5 15.3333C15.8864 15.3333 15.3889 14.8359 15.3889 14.2222C15.3889 13.6086 15.8864 13.1111 16.5 13.1111C17.1137 13.1111 17.6111 13.6086 17.6111 14.2222Z" fill="#61D6F2"/>
</svg>
