<svg viewBox="0 0 23 23" fill="none" xmlns="http://www.w3.org/2000/svg">
<path d="M11.5 2C14.3816 2 16.7804 4.14818 17.3187 7.00966C19.377 7.15896 21 8.93391 21 11.1236C21 13.1652 19.5894 14.8638 17.7343 15.2073V13.5048C18.7093 13.1951 19.4166 12.2478 19.4166 11.1236C19.4166 9.74673 18.3558 8.63532 17.0416 8.63532H15.8541V8.22061C15.8541 5.69919 13.9066 3.65883 11.5 3.65883C9.50498 3.65883 7.83457 5.06054 7.31207 6.97649H6.74999C5.00041 6.97649 3.58333 8.46114 3.58333 10.2941C3.58333 11.7166 4.43675 12.9293 5.63671 13.4012V15.1328C3.55213 14.6069 2 12.6379 2 10.2941C2 7.73126 3.8525 5.61625 6.23541 5.35083C7.22499 3.36024 9.21207 2 11.5 2Z" fill="#61D6F2"/>
<path d="M16.2463 16.9762H17.061C17.8105 16.9762 18.4188 17.5895 18.4188 18.3452C18.4188 19.101 17.8105 19.7143 17.061 19.7143H16.2463V21.9048C16.2463 22.5071 15.7575 23 15.16 23H13.0961V22.1786C13.0961 21.3626 12.439 20.7 11.6297 20.7C10.8204 20.7 10.1633 21.3626 10.1633 22.1786V23H8.09937C7.50194 23 7.01312 22.5071 7.01312 21.9048V19.8238H7.82781C8.63707 19.8238 9.29425 19.1612 9.29425 18.3452C9.29425 17.5293 8.63707 16.8667 7.82781 16.8667H7.01855V14.7857C7.01855 14.1833 7.50194 13.6905 8.09937 13.6905H10.2719V12.869C10.2719 12.1133 10.8802 11.5 11.6297 11.5C12.3792 11.5 12.9875 12.1133 12.9875 12.869V13.6905H15.16C15.7575 13.6905 16.2463 14.1833 16.2463 14.7857V16.9762Z" fill="#61D6F2"/>
</svg>
