<svg viewBox="0 0 23 23" fill="none" xmlns="http://www.w3.org/2000/svg">
<path fill-rule="evenodd" clip-rule="evenodd" d="M11.5 1C14.3817 1 16.7804 3.05041 17.3187 5.78166C19.3771 5.92417 21 7.61833 21 9.70833C21 11.5629 19.7225 13.1209 18 13.5497V11.8829C18.8352 11.5153 19.4167 10.6813 19.4167 9.70833C19.4167 8.39416 18.3558 7.33333 17.0417 7.33333H15.8542V6.9375C15.8542 4.53084 13.9066 2.58333 11.5 2.58333C9.50498 2.58333 7.83458 3.92125 7.3121 5.75H6.75C5.0004 5.75 3.58333 7.16708 3.58333 8.91667C3.58333 10.0191 4.14601 10.9896 5 11.5566V13.3331C3.24383 12.6353 2 10.9193 2 8.91667C2 6.47042 3.85252 4.45167 6.2354 4.19833C7.22498 2.29833 9.21207 1 11.5 1Z" fill="#61D6F2"/>
<path d="M17.6667 15.3333H16.3333V10H15V15.3333H8.33333V10H7V15.3333H5.66667C5.48986 15.3333 5.32029 15.4036 5.19526 15.5286C5.07024 15.6536 5 15.8232 5 16V21.3333C5 21.5101 5.07024 21.6797 5.19526 21.8047C5.32029 21.9298 5.48986 22 5.66667 22H17.6667C17.8435 22 18.013 21.9298 18.1381 21.8047C18.2631 21.6797 18.3333 21.5101 18.3333 21.3333V16C18.3333 15.8232 18.2631 15.6536 18.1381 15.5286C18.013 15.4036 17.8435 15.3333 17.6667 15.3333ZM9 19.3333H7.66667V18H9V19.3333ZM11 19.3333H9.66667V18H11V19.3333ZM15.6667 19.3333H14.3333V18H15.6667V19.3333Z" fill="#61D6F2"/>
</svg>