<svg width="38" height="38" viewBox="0 0 38 38" fill="none" xmlns="http://www.w3.org/2000/svg">
<path fill-rule="evenodd" clip-rule="evenodd" d="M19 38C29.4934 38 38 29.4934 38 19C38 8.50659 29.4934 0 19 0C8.50659 0 0 8.50659 0 19C0 29.4934 8.50659 38 19 38ZM15.1364 13.4545C14.8602 13.4545 14.6364 13.6784 14.6364 13.9545V16.8182C14.6364 17.3705 14.1886 17.8182 13.6364 17.8182H13.4545C12.9023 17.8182 12.4545 17.3705 12.4545 16.8182V13.2727C12.4545 12.1682 13.35 11.2727 14.4545 11.2727H25.5455V8L31 12.3636L25.5455 16.7273V13.4545H15.1364ZM22.8636 24.3636C23.1398 24.3636 23.3636 24.1398 23.3636 23.8636V21C23.3636 20.4477 23.8114 20 24.3636 20H24.5455C25.0977 20 25.5455 20.4477 25.5455 21V24.5455C25.5455 25.65 24.65 26.5455 23.5455 26.5455H12.4545V29.8182L7 25.4545L12.4545 21.0909V24.3636H22.8636Z" fill="#BDD0DA"/>
</svg>
