<svg width="42" height="42" viewBox="0 0 42 42" fill="none" xmlns="http://www.w3.org/2000/svg">
<path fill-rule="evenodd" clip-rule="evenodd" d="M28.35 19.04C27.67 15.59 24.64 13 21 13C18.11 13 15.6 14.64 14.35 17.04C11.34 17.36 9 19.91 9 23C9 26.31 11.69 29 15 29H28C30.76 29 33 26.76 33 24C33 21.36 30.95 19.22 28.35 19.04ZM28 27H15C12.79 27 11 25.21 11 23C11 20.79 12.79 19 15 19H15.71C16.37 16.69 18.48 15 21 15C24.04 15 26.5 17.46 26.5 20.5V21H28C29.66 21 31 22.34 31 24C31 25.66 29.66 27 28 27Z" fill="#61D6F2"/>
</svg>
