<svg width="22" height="31" viewBox="0 0 22 31" fill="none" xmlns="http://www.w3.org/2000/svg">
<path d="M21.4286 5.85678C21.4286 2.89749 16.6307 0.499634 10.7143 0.499634C4.79786 0.499634 0 2.89749 0 5.85678C0 5.94249 0.042857 6.02178 0.0514284 6.10749H0V25.1189L0.12 25.8839C0.72 28.4768 5.205 30.4996 10.7143 30.4996C16.2236 30.4996 20.7086 28.4768 21.3086 25.8839L21.4286 25.1189V6.10749H21.3771C21.3857 6.02178 21.4286 5.94249 21.4286 5.85678ZM10.7143 2.71106C15.9471 2.71106 19.2857 4.77678 19.2857 5.85678C19.2857 6.93678 15.9471 9.00249 10.7143 9.00249C5.48143 9.00249 2.14286 6.92821 2.14286 5.85678C2.14286 4.78535 5.48143 2.71106 10.7143 2.71106ZM19.2857 25.1211L19.2214 25.4018C18.975 26.4625 15.9236 28.3568 10.7143 28.3568C5.505 28.3568 2.45357 26.4625 2.20714 25.4018L2.14286 25.1211V9.04963C4.73769 10.5675 7.70992 11.318 10.7143 11.2139C13.7195 11.3154 16.6918 10.5619 19.2857 9.04106V25.1211Z" fill="#61D6F2"/>
</svg>
