<svg width="42" height="42" viewBox="0 0 42 42" fill="none" xmlns="http://www.w3.org/2000/svg">
<path d="M27.2621 33H20.8594C20.691 32.9991 20.5264 32.9509 20.3842 32.8611C20.2419 32.7712 20.1279 32.6433 20.0551 32.4919C19.9823 32.3405 19.9536 32.1717 19.9723 32.0048C19.9911 31.8379 20.0565 31.6796 20.161 31.548C20.4427 31.195 20.5951 30.7567 20.5931 30.3055C20.584 29.7797 20.3683 29.2785 19.9924 28.9099C19.6165 28.5412 19.1105 28.3347 18.5834 28.3347C18.0563 28.3347 17.5504 28.5412 17.1745 28.9099C16.7986 29.2785 16.5828 29.7797 16.5737 30.3055C16.5718 30.7567 16.7242 31.195 17.0058 31.548C17.1107 31.6801 17.1762 31.839 17.1947 32.0065C17.2131 32.1741 17.1838 32.3434 17.1102 32.4951C17.0365 32.6468 16.9214 32.7746 16.7781 32.8639C16.6348 32.9532 16.4692 33.0004 16.3003 33H9.89758C9.65952 33 9.43122 32.9056 9.26289 32.7377C9.09457 32.5697 9 32.3419 9 32.1044V23.8688C9 23.7025 9.04642 23.5394 9.13405 23.398C9.22169 23.2565 9.34708 23.1421 9.49617 23.0678C9.64526 22.9934 9.81217 22.9619 9.97818 22.9768C10.1442 22.9918 10.3028 23.0525 10.4361 23.1523C10.7346 23.3762 11.0898 23.5127 11.4617 23.5465C11.8336 23.5803 12.2076 23.51 12.5418 23.3435C12.8759 23.177 13.1569 22.921 13.3534 22.6041C13.5498 22.2872 13.6538 21.9219 13.6538 21.5493C13.6538 21.1766 13.5498 20.8114 13.3534 20.4945C13.1569 20.1775 12.8759 19.9215 12.5418 19.755C12.2076 19.5886 11.8336 19.5183 11.4617 19.552C11.0898 19.5858 10.7346 19.7223 10.4361 19.9462C10.3028 20.046 10.1442 20.1068 9.97818 20.1217C9.81217 20.1366 9.64526 20.1052 9.49617 20.0308C9.34708 19.9564 9.22169 19.8421 9.13405 19.7006C9.04642 19.5591 9 19.3961 9 19.2298V14.7818C9 14.5442 9.09457 14.3165 9.26289 14.1485C9.43122 13.9806 9.65952 13.8862 9.89758 13.8862H14.9336C14.7634 13.3193 14.7283 12.7206 14.8312 12.1379C14.9341 11.5551 15.1721 11.0044 15.5262 10.5297C15.8803 10.055 16.3408 9.66952 16.8707 9.40392C17.4007 9.13832 17.9856 9 18.5786 9C19.1717 9 19.7566 9.13832 20.2865 9.40392C20.8165 9.66952 21.2769 10.055 21.631 10.5297C21.9851 11.0044 22.2231 11.5551 22.326 12.1379C22.4289 12.7206 22.3939 13.3193 22.2237 13.8862H27.2597C27.4977 13.8862 27.726 13.9806 27.8944 14.1485C28.0627 14.3165 28.1572 14.5442 28.1572 14.7818V17.8977C28.7232 17.7377 29.3187 17.7107 29.8969 17.819C30.4751 17.9273 31.0202 18.1679 31.4895 18.5219C31.9588 18.8758 32.3394 19.3335 32.6015 19.859C32.8636 20.3845 33 20.9635 33 21.5505C33 22.1374 32.8636 22.7164 32.6015 23.2419C32.3394 23.7674 31.9588 24.2251 31.4895 24.5791C31.0202 24.933 30.4751 25.1736 29.8969 25.2819C29.3187 25.3902 28.7232 25.3632 28.1572 25.2032V32.1044C28.1572 32.3415 28.063 32.569 27.8952 32.7368C27.7274 32.9047 27.4997 32.9994 27.2621 33ZM22.2763 31.2089H26.3645V23.7148C26.3645 23.5419 26.4146 23.3727 26.5089 23.2276C26.6031 23.0826 26.7375 22.9678 26.8956 22.8972C27.0538 22.8267 27.2291 22.8033 27.4003 22.8299C27.5715 22.8565 27.7313 22.932 27.8604 23.0473C28.1499 23.3047 28.5077 23.4732 28.8909 23.5324C29.2741 23.5915 29.6663 23.5388 30.0201 23.3806C30.374 23.2224 30.6744 22.9654 30.8852 22.6407C31.096 22.316 31.2082 21.9374 31.2082 21.5505C31.2082 21.1636 31.096 20.785 30.8852 20.4602C30.6744 20.1355 30.374 19.8785 30.0201 19.7203C29.6663 19.5621 29.2741 19.5094 28.8909 19.5686C28.5077 19.6277 28.1499 19.7962 27.8604 20.0537C27.7313 20.1689 27.5715 20.2444 27.4003 20.271C27.2291 20.2977 27.0538 20.2743 26.8956 20.2037C26.7375 20.1331 26.6031 20.0184 26.5089 19.8733C26.4146 19.7282 26.3645 19.5591 26.3645 19.3862V15.6773H20.6996C20.5245 15.6773 20.3532 15.6262 20.2068 15.5302C20.0605 15.4342 19.9455 15.2977 19.8759 15.1373C19.8064 14.9769 19.7854 14.7998 19.8156 14.6276C19.8457 14.4555 19.9257 14.296 20.0456 14.1686C20.3146 13.8836 20.494 13.5262 20.5619 13.1406C20.6298 12.755 20.583 12.358 20.4274 11.9986C20.2718 11.6391 20.0142 11.333 19.6863 11.118C19.3584 10.9029 18.9746 10.7883 18.5822 10.7883C18.1898 10.7883 17.806 10.9029 17.4781 11.118C17.1502 11.333 16.8926 11.6391 16.737 11.9986C16.5814 12.358 16.5347 12.755 16.6025 13.1406C16.6704 13.5262 16.8499 13.8836 17.1189 14.1686C17.2388 14.296 17.3187 14.4555 17.3488 14.6276C17.379 14.7998 17.358 14.9769 17.2885 15.1373C17.219 15.2977 17.1039 15.4342 16.9576 15.5302C16.8112 15.6262 16.64 15.6773 16.4648 15.6773H10.7975V17.8482C11.0764 17.7854 11.3614 17.7538 11.6472 17.7539C12.1827 17.7544 12.7119 17.8678 13.2005 18.0864C13.689 18.305 14.1258 18.6241 14.4822 19.0227C14.8387 19.4213 15.1069 19.8905 15.2692 20.3996C15.4315 20.9086 15.4843 21.4462 15.4241 21.977C15.364 22.5079 15.1922 23.0201 14.9201 23.4801C14.648 23.9402 14.2816 24.3378 13.8449 24.6469C13.4082 24.956 12.9111 25.1697 12.386 25.274C11.8608 25.3783 11.3196 25.3709 10.7975 25.2521V31.2089H14.8857C14.7481 30.6498 14.7397 30.0669 14.8612 29.5042C14.9826 28.9415 15.2307 28.4137 15.5867 27.9607C15.9427 27.5077 16.3972 27.1414 16.916 26.8895C17.4347 26.6377 18.0041 26.5068 18.581 26.5068C19.1579 26.5068 19.7273 26.6377 20.2461 26.8895C20.7648 27.1414 21.2194 27.5077 21.5754 27.9607C21.9313 28.4137 22.1794 28.9415 22.3009 29.5042C22.4223 30.0669 22.4139 30.6498 22.2763 31.2089V31.2089Z" fill="#61D6F2"/>
</svg>
