<svg width="32" height="33" viewBox="0 0 32 33" fill="none" xmlns="http://www.w3.org/2000/svg">
<path d="M18.277 13.7361L14.246 14.2411L14.101 14.9111L14.895 15.0561C15.411 15.1791 15.514 15.3651 15.4 15.8801L14.101 21.9831C13.761 23.5611 14.287 24.3031 15.524 24.3031C16.483 24.3031 17.596 23.8601 18.101 23.2511L18.256 22.5191C17.906 22.8291 17.39 22.9531 17.05 22.9531C16.565 22.9531 16.39 22.6131 16.514 22.0141L18.277 13.7361ZM18.399 10.0631C18.399 10.2942 18.3535 10.5231 18.265 10.7366C18.1766 10.9502 18.0469 11.1442 17.8835 11.3076C17.7201 11.471 17.5261 11.6007 17.3125 11.6891C17.099 11.7776 16.8701 11.8231 16.639 11.8231C16.4079 11.8231 16.179 11.7776 15.9655 11.6891C15.7519 11.6007 15.5579 11.471 15.3945 11.3076C15.2311 11.1442 15.1014 10.9502 15.013 10.7366C14.9245 10.5231 14.879 10.2942 14.879 10.0631C14.879 9.59633 15.0644 9.14866 15.3945 8.8186C15.7246 8.48854 16.1722 8.30311 16.639 8.30311C17.1058 8.30311 17.5534 8.48854 17.8835 8.8186C18.2136 9.14866 18.399 9.59633 18.399 10.0631Z" fill="white"/>
<path fill-rule="evenodd" clip-rule="evenodd" d="M16 30.6031C23.8977 30.6031 30.3 24.2008 30.3 16.3031C30.3 8.40543 23.8977 2.0031 16 2.0031C8.10233 2.0031 1.7 8.40543 1.7 16.3031C1.7 24.2008 8.10233 30.6031 16 30.6031ZM16 32.3031C24.8366 32.3031 32 25.1397 32 16.3031C32 7.46655 24.8366 0.303101 16 0.303101C7.16344 0.303101 0 7.46655 0 16.3031C0 25.1397 7.16344 32.3031 16 32.3031Z" fill="white"/>
</svg>
