<svg width="16" height="16" viewBox="0 0 16 16" fill="none" xmlns="http://www.w3.org/2000/svg">
<path fill-rule="evenodd" clip-rule="evenodd" d="M8 16C12.4183 16 16 12.4183 16 8C16 3.58172 12.4183 0 8 0C3.58172 0 0 3.58172 0 8C0 12.4183 3.58172 16 8 16ZM5 9C5.55228 9 6 8.55229 6 8C6 7.44772 5.55228 7 5 7C4.44772 7 4 7.44772 4 8C4 8.55229 4.44772 9 5 9ZM9 8C9 8.55229 8.55229 9 8 9C7.44772 9 7 8.55229 7 8C7 7.44772 7.44772 7 8 7C8.55229 7 9 7.44772 9 8ZM11 9C11.5523 9 12 8.55229 12 8C12 7.44772 11.5523 7 11 7C10.4477 7 10 7.44772 10 8C10 8.55229 10.4477 9 11 9Z" fill="#43A2E3"/>
</svg>
