<svg width="24" height="24" viewBox="0 0 24 24" fill="none" xmlns="http://www.w3.org/2000/svg">
<path fill-rule="evenodd" clip-rule="evenodd" d="M19 5H18V6C18 6.55228 17.5523 7 17 7H16C15.4477 7 15 6.55228 15 6V5H9V6C9 6.55228 8.55228 7 8 7H7C6.44772 7 6 6.55228 6 6V5H5C3.899 5 3 5.9 3 7V19C3 20.1 3.899 21 5 21H19C20.1 21 21 20.1 21 19V7C21 5.9 20.1 5 19 5ZM19 19H5V11H19V19ZM8.5 4C8.5 3.44772 8.05228 3 7.5 3C6.94772 3 6.5 3.44772 6.5 4V5.5C6.5 6.05228 6.94772 6.5 7.5 6.5C8.05228 6.5 8.5 6.05228 8.5 5.5V4ZM17.5 4C17.5 3.44772 17.0523 3 16.5 3C15.9477 3 15.5 3.44772 15.5 4V5.5C15.5 6.05228 15.9477 6.5 16.5 6.5C17.0523 6.5 17.5 6.05228 17.5 5.5V4ZM9.80005 12.9561H11.5V14.6561H9.80005V12.9561ZM11.5 15.5264H9.80005V17.2264H11.5V15.5264ZM7.1001 12.9561H8.8001V14.6561H7.1001V12.9561ZM8.8001 15.5264H7.1001V17.2264H8.8001V15.5264ZM12.5 12.9561H14.2V14.6561H12.5V12.9561ZM14.2 15.5264H12.5V17.2264H14.2V15.5264ZM15.2 12.9561H16.9V14.6561H15.2V12.9561ZM16.9 15.5264H15.2V17.2264H16.9V15.5264Z" fill="#61D6F2"/>
</svg>
