<svg width="38" height="39" viewBox="0 0 38 39" fill="none" xmlns="http://www.w3.org/2000/svg">
<path d="M38 19.1694C38 29.6628 29.4934 38.1694 19 38.1694C8.50659 38.1694 0 29.6628 0 19.1694C0 8.67602 8.50659 0.169434 19 0.169434C29.4934 0.169434 38 8.67602 38 19.1694Z" fill="#61D6F2"/>
<path fill-rule="evenodd" clip-rule="evenodd" d="M17.17 8.66943C17.17 8.39329 17.3939 8.16943 17.67 8.16943H20.213C20.4891 8.16943 20.713 8.39329 20.713 8.66943V17.0946H23.9795C24.4086 17.0946 24.6384 17.5994 24.3566 17.923L19.3186 23.7078C19.1193 23.9367 18.7637 23.9367 18.5644 23.7078L13.5264 17.923C13.2446 17.5994 13.4744 17.0946 13.9035 17.0946H17.17V8.66943ZM8 26.1694V22.1694H10V26.1694C10 26.7217 10.4477 27.1694 11 27.1694H27C27.5523 27.1694 28 26.7217 28 26.1694V22.1694H30V26.1694C30 27.8263 28.6569 29.1694 27 29.1694H11C9.34315 29.1694 8 27.8263 8 26.1694Z" fill="white"/>
</svg>
