<svg width="38" height="39" viewBox="0 0 38 39" fill="none" xmlns="http://www.w3.org/2000/svg">
<path d="M38 19.6787C38 30.1721 29.4934 38.6787 19 38.6787C8.50659 38.6787 0 30.1721 0 19.6787C0 9.1853 8.50659 0.678711 19 0.678711C29.4934 0.678711 38 9.1853 38 19.6787Z" fill="#BDD0DA"/>
<path fill-rule="evenodd" clip-rule="evenodd" d="M19 37.6787C28.9411 37.6787 37 29.6198 37 19.6787C37 9.73759 28.9411 1.67871 19 1.67871C9.05887 1.67871 1 9.73759 1 19.6787C1 29.6198 9.05887 37.6787 19 37.6787ZM19 38.6787C29.4934 38.6787 38 30.1721 38 19.6787C38 9.1853 29.4934 0.678711 19 0.678711C8.50659 0.678711 0 9.1853 0 19.6787C0 30.1721 8.50659 38.6787 19 38.6787Z" fill="#BDD0DA"/>
<path fill-rule="evenodd" clip-rule="evenodd" d="M19.5 29.9009C24.8694 29.9009 29.2222 25.5481 29.2222 20.1787C29.2222 14.8093 24.8694 10.4565 19.5 10.4565C14.1306 10.4565 9.77778 14.8093 9.77778 20.1787C9.77778 25.5481 14.1306 29.9009 19.5 29.9009ZM19.5 32.6787C26.4036 32.6787 32 27.0823 32 20.1787C32 13.2752 26.4036 7.67871 19.5 7.67871C12.5964 7.67871 7 13.2752 7 20.1787C7 27.0823 12.5964 32.6787 19.5 32.6787Z" fill="white"/>
<path d="M24.9003 18.0065L21.8287 18.507C21.7252 17.9532 21.4886 17.5361 21.119 17.2558C20.7567 16.9755 20.2836 16.8354 19.6996 16.8354C18.9234 16.8354 18.3024 17.0789 17.8367 17.5661C17.3783 18.0466 17.1491 18.8541 17.1491 19.9885C17.1491 21.2498 17.382 22.1407 17.8477 22.6612C18.3209 23.1817 18.9529 23.442 19.744 23.442C20.3354 23.442 20.8196 23.2918 21.1966 22.9915C21.5736 22.6846 21.8398 22.1607 21.995 21.42L25.0556 21.8904C24.7377 23.1584 24.1278 24.116 23.2259 24.7633C22.324 25.4106 21.1153 25.7343 19.5998 25.7343C17.8773 25.7343 16.5023 25.2438 15.4747 24.2628C14.4545 23.2818 13.9444 21.9238 13.9444 20.1887C13.9444 18.4336 14.4582 17.0689 15.4858 16.0946C16.5134 15.1136 17.9032 14.6232 19.6552 14.6232C21.0894 14.6232 22.2279 14.9034 23.0706 15.464C23.9208 16.0179 24.5307 16.8654 24.9003 18.0065Z" fill="white"/>
</svg>
