<?xml version="1.0" encoding="UTF-8"?>
<!DOCTYPE svg PUBLIC "-//W3C//DTD SVG 1.1//EN" "http://www.w3.org/Graphics/SVG/1.1/DTD/svg11.dtd">
<!-- Creator: CorelDRAW 2017 -->
<svg xmlns="http://www.w3.org/2000/svg" xml:space="preserve" width="108px" height="108px" version="1.1" style="shape-rendering:geometricPrecision; text-rendering:geometricPrecision; image-rendering:optimizeQuality; fill-rule:evenodd; clip-rule:evenodd"
viewBox="0 0 1.04 1.04"
 xmlns:xlink="http://www.w3.org/1999/xlink">
 <defs>
  <style type="text/css">
   <![CDATA[
    .fil0 {fill:#61D6F2}
   ]]>
  </style>
 </defs>
 <g id="Слой_x0020_1">
  <metadata id="CorelCorpID_0Corel-Layer"/>
  <path class="fil0" d="M0.42 0.71l0 0.01c-0.03,0 -0.08,0.01 -0.08,0.04l0.24 0c0,-0.03 -0.05,-0.04 -0.08,-0.04l0 -0.01c0.2,0 0.17,0.01 0.17,-0.19 0,-0.16 0.01,-0.14 -0.21,-0.14 -0.22,0 -0.2,-0.03 -0.2,0.14 0,0.2 -0.03,0.19 0.16,0.19zm-0.11 -0.05l0.31 0 0 -0.23 -0.31 0 0 0.23zm0.23 -0.3l0.19 0c0,0.03 0.01,0.02 -0.06,0.02 0.01,0.01 0.01,0.02 0.02,0.05 0.03,0 0.04,-0.01 0.04,0.01 0,0.01 -0.02,0.01 -0.05,0.01 0,0.06 0,0.12 0,0.18 0,0.08 0.01,0.09 -0.08,0.09l0 0.04c0.13,0 0.18,0.02 0.18,-0.07l0 -0.37c-0.01,-0.04 -0.04,-0.04 -0.08,-0.04 -0.13,0 -0.16,-0.02 -0.16,0.08zm-0.02 -0.36c0.29,0 0.52,0.23 0.52,0.52 0,0.29 -0.23,0.52 -0.52,0.52 -0.29,0 -0.52,-0.23 -0.52,-0.52 0,-0.29 0.23,-0.52 0.52,-0.52z"/>
 </g>
</svg>
