<?xml version="1.0" encoding="UTF-8"?>
<!DOCTYPE svg PUBLIC "-//W3C//DTD SVG 1.1//EN" "http://www.w3.org/Graphics/SVG/1.1/DTD/svg11.dtd">
<!-- Creator: CorelDRAW 2017 -->
<svg xmlns="http://www.w3.org/2000/svg" xml:space="preserve" width="108px" height="108px" version="1.1" style="shape-rendering:geometricPrecision; text-rendering:geometricPrecision; image-rendering:optimizeQuality; fill-rule:evenodd; clip-rule:evenodd"
viewBox="0 0 0.98 0.98"
 xmlns:xlink="http://www.w3.org/1999/xlink">
 <defs>
  <style type="text/css">
   <![CDATA[
    .fil0 {fill:#BDD0DA}
   ]]>
  </style>
 </defs>
 <g id="Слой_x0020_1">
  <metadata id="CorelCorpID_0Corel-Layer"/>
  <path class="fil0" d="M0 0.49c0,-0.27 0.22,-0.49 0.49,-0.49 0.27,0 0.49,0.22 0.49,0.49 0,0.27 -0.22,0.49 -0.49,0.49 -0.27,0 -0.49,-0.22 -0.49,-0.49zm0.39 0.04l0.02 0.03 0.18 -0.17c0.02,-0.01 0.04,0.01 0.02,0.04 -0.05,0.06 -0.15,0.16 -0.21,0.22 -0.04,0.03 -0.07,0.07 -0.11,0.06 -0.04,-0.01 -0.06,-0.07 -0.03,-0.11l0.25 -0.26c0.03,-0.02 0.06,-0.06 0.1,-0.07 0.1,-0.02 0.17,0.1 0.1,0.19 -0.03,0.02 -0.03,0.02 -0.05,0.04 -0.04,0.05 -0.17,0.19 -0.21,0.22l0.03 0.03c0.01,-0.01 0.18,-0.19 0.2,-0.2l0.03 -0.03c0.02,-0.03 0.04,-0.05 0.06,-0.09 0.02,-0.06 0,-0.12 -0.03,-0.15 -0.03,-0.04 -0.08,-0.07 -0.15,-0.05 -0.05,0.02 -0.08,0.06 -0.11,0.09 -0.07,0.07 -0.14,0.14 -0.21,0.2 -0.04,0.04 -0.08,0.07 -0.07,0.14 0.01,0.07 0.11,0.15 0.2,0.04l0.23 -0.23c0.02,-0.02 0.04,-0.03 0.03,-0.07 0,-0.03 -0.03,-0.05 -0.05,-0.05 -0.04,-0.01 -0.07,0.03 -0.1,0.05 -0.01,0.01 -0.01,0.02 -0.02,0.03 -0.04,0.03 -0.07,0.07 -0.1,0.1z"/>
 </g>
</svg>
