<?xml version="1.0" encoding="UTF-8"?>
<!DOCTYPE svg PUBLIC "-//W3C//DTD SVG 1.1//EN" "http://www.w3.org/Graphics/SVG/1.1/DTD/svg11.dtd">
<!-- Creator: CorelDRAW 2017 -->
<svg xmlns="http://www.w3.org/2000/svg" xml:space="preserve" width="108px" height="108px" version="1.1" style="shape-rendering:geometricPrecision; text-rendering:geometricPrecision; image-rendering:optimizeQuality; fill-rule:evenodd; clip-rule:evenodd"
viewBox="0 0 1.04 1.04"
 xmlns:xlink="http://www.w3.org/1999/xlink">
 <defs>
  <style type="text/css">
   <![CDATA[
    .fil0 {fill:#61D6F2}
   ]]>
  </style>
 </defs>
 <g id="Слой_x0020_1">
  <metadata id="CorelCorpID_0Corel-Layer"/>
  <path class="fil0" d="M0 0.52c0,-0.29 0.23,-0.52 0.52,-0.52 0.28,0 0.52,0.23 0.52,0.52 0,0.28 -0.24,0.52 -0.52,0.52 -0.29,0 -0.52,-0.24 -0.52,-0.52zm0.52 -0.16c0.08,0 0.15,0.07 0.15,0.16 0,0.08 -0.07,0.15 -0.15,0.15 -0.09,0 -0.16,-0.07 -0.16,-0.15 0,-0.09 0.07,-0.16 0.16,-0.16zm0.02 0.42l-0.04 0c-0.02,0 -0.04,-0.01 -0.04,-0.03l0 -0.04c-0.01,-0.01 -0.02,-0.01 -0.04,-0.02l-0.03 0.03c-0.01,0.01 -0.03,0.01 -0.04,0l-0.03 -0.03c-0.01,-0.01 -0.01,-0.02 -0.01,-0.02 0,-0.01 0,-0.02 0.01,-0.03l0.03 -0.03c-0.01,-0.01 -0.02,-0.02 -0.02,-0.04l-0.04 0c-0.02,0 -0.03,-0.01 -0.03,-0.03l0 -0.04c0,-0.01 0,-0.02 0,-0.03 0.01,0 0.02,-0.01 0.03,-0.01l0.04 0c0,-0.01 0.01,-0.02 0.02,-0.04l-0.03 -0.03c-0.02,-0.01 -0.02,-0.03 0,-0.04l0.03 -0.03c0.01,-0.02 0.03,-0.02 0.04,0l0.03 0.03c0.02,-0.01 0.03,-0.02 0.04,-0.02l0 -0.04c0,-0.02 0.02,-0.03 0.04,-0.03l0.04 0c0.02,0 0.03,0.01 0.03,0.03l0 0.04c0.02,0 0.03,0.01 0.04,0.02l0.03 -0.03c0.01,-0.02 0.04,-0.02 0.05,0l0.03 0.03c0.01,0 0.01,0.01 0.01,0.02 0,0.01 0,0.02 -0.01,0.02l-0.03 0.03c0.01,0.02 0.01,0.03 0.02,0.04l0.04 0c0.02,0 0.03,0.02 0.03,0.04l0 0.04c0,0.01 0,0.02 -0.01,0.02 0,0.01 -0.01,0.01 -0.02,0.01l-0.04 0c-0.01,0.02 -0.01,0.03 -0.02,0.04l0.03 0.03c0.01,0.02 0.01,0.04 0,0.05l-0.03 0.03c-0.01,0.01 -0.04,0.01 -0.05,0l-0.03 -0.03c-0.01,0.01 -0.02,0.01 -0.04,0.02l0 0.04c0,0.02 -0.01,0.03 -0.03,0.03z"/>
 </g>
</svg>
