<?xml version="1.0" encoding="UTF-8"?>
<!DOCTYPE svg PUBLIC "-//W3C//DTD SVG 1.1//EN" "http://www.w3.org/Graphics/SVG/1.1/DTD/svg11.dtd">
<!-- Creator: CorelDRAW 2017 -->
<svg xmlns="http://www.w3.org/2000/svg" xml:space="preserve" width="108px" height="108px" version="1.1" style="shape-rendering:geometricPrecision; text-rendering:geometricPrecision; image-rendering:optimizeQuality; fill-rule:evenodd; clip-rule:evenodd"
viewBox="0 0 1.03 1.03"
 xmlns:xlink="http://www.w3.org/1999/xlink">
 <defs>
  <style type="text/css">
   <![CDATA[
    .fil0 {fill:#61D6F2}
   ]]>
  </style>
 </defs>
 <g id="Слой_x0020_1">
  <metadata id="CorelCorpID_0Corel-Layer"/>
  <path class="fil0" d="M0 0.52c0,-0.29 0.23,-0.52 0.52,-0.52 0.28,0 0.51,0.23 0.51,0.52 0,0.28 -0.23,0.51 -0.51,0.51 -0.29,0 -0.52,-0.23 -0.52,-0.51zm0.6 -0.2l-0.11 0.11c-0.06,-0.03 -0.14,-0.02 -0.2,0.04l0.11 0.11 -0.08 0.11 -0.09 0.11 0.11 -0.08 0.12 -0.09 0.11 0.11c0.05,-0.06 0.06,-0.13 0.04,-0.2l0.1 -0.1c0.03,0.01 0.06,0.01 0.09,0l-0.2 -0.21c-0.01,0.03 -0.01,0.06 0,0.09z"/>
 </g>
</svg>
