<?xml version="1.0" encoding="UTF-8"?>
<!DOCTYPE svg PUBLIC "-//W3C//DTD SVG 1.1//EN" "http://www.w3.org/Graphics/SVG/1.1/DTD/svg11.dtd">
<!-- Creator: CorelDRAW 2017 -->
<svg xmlns="http://www.w3.org/2000/svg" xml:space="preserve" width="43px" height="43px" version="1.1" style="shape-rendering:geometricPrecision; text-rendering:geometricPrecision; image-rendering:optimizeQuality; fill-rule:evenodd; clip-rule:evenodd"
viewBox="0 0 0.71 0.71"
 xmlns:xlink="http://www.w3.org/1999/xlink">
 <defs>
  <style type="text/css">
   <![CDATA[
    .fil0 {fill:none}
    .fil1 {fill:#8394A5}
   ]]>
  </style>
 </defs>
 <g id="Слой_x0020_1">
  <metadata id="CorelCorpID_0Corel-Layer"/>
  <rect class="fil0" width="0.71" height="0.71"/>
  <path class="fil1" d="M0.14 0.18l0.28 0c0.01,-0.02 0.03,-0.03 0.05,-0.03 0.02,0 0.03,0.01 0.04,0.03l0.06 0 0 0.03 -0.06 0c-0.01,0.02 -0.02,0.03 -0.04,0.03 -0.02,0 -0.04,-0.01 -0.05,-0.03l-0.28 0 0 -0.03zm0 0.16l0.06 0c0,-0.02 0.02,-0.03 0.04,-0.03 0.02,0 0.03,0.01 0.04,0.03l0.29 0 0 0.03 -0.29 0c-0.01,0.02 -0.02,0.03 -0.04,0.03 -0.02,0 -0.04,-0.01 -0.04,-0.03l-0.06 0 0 -0.03zm0 0.16l0.3 0c0,-0.02 0.02,-0.03 0.04,-0.03 0.02,0 0.04,0.01 0.04,0.03l0.05 0 0 0.03 -0.05 0c0,0.02 -0.02,0.03 -0.04,0.03 -0.02,0 -0.04,-0.01 -0.04,-0.03l-0.3 0 0 -0.03z"/>
 </g>
</svg>
