<?xml version="1.0" encoding="UTF-8"?>
<!DOCTYPE svg PUBLIC "-//W3C//DTD SVG 1.1//EN" "http://www.w3.org/Graphics/SVG/1.1/DTD/svg11.dtd">
<!-- Creator: CorelDRAW 2017 -->
<svg xmlns="http://www.w3.org/2000/svg" xml:space="preserve" width="43px" height="43px" version="1.1" style="shape-rendering:geometricPrecision; text-rendering:geometricPrecision; image-rendering:optimizeQuality; fill-rule:evenodd; clip-rule:evenodd"
viewBox="0 0 0.79 0.79"
 xmlns:xlink="http://www.w3.org/1999/xlink">
 <defs>
  <style type="text/css">
   <![CDATA[
    .fil0 {fill:none}
    .fil1 {fill:#1E7145}
   ]]>
  </style>
 </defs>
 <g id="Слой_x0020_1">
  <metadata id="CorelCorpID_0Corel-Layer"/>
  <rect class="fil0" width="0.79" height="0.79"/>
  <path class="fil1" d="M0.14 0.2l0 0.38c0.02,0.01 0.28,0.05 0.29,0.05l0 -0.47c-0.01,0 -0.27,0.04 -0.29,0.04zm0.3 0.03l0 0.01 0.07 0 0 0.05 -0.07 0 0 0.01 0.07 0 0 0.05 -0.07 0 0 0.02 0.07 0 0 0.05 -0.07 0 0 0.01 0.07 0 0 0.05 -0.07 0 0 0.02 0.07 0 0 0.05 -0.07 0 0 0.03 0.19 0c0.01,0 0.01,0 0.01,-0.02l0 -0.34c0,-0.01 0,-0.01 -0.01,-0.01l-0.19 0 0 0.02zm-0.13 0.08l-0.02 0.05 -0.02 -0.05 -0.03 0c0,0.01 0.03,0.07 0.03,0.08 0,0.01 -0.04,0.07 -0.04,0.08l0.03 0 0.03 -0.05c0.01,0.01 0.02,0.04 0.02,0.06l0.04 0c-0.01,-0.02 -0.01,-0.03 -0.02,-0.04 0,-0.01 -0.02,-0.04 -0.02,-0.05 0,0 0.03,-0.07 0.04,-0.09l-0.04 0.01zm0.22 0.17l0.08 0 0 0 0 -0.05 -0.08 0 0 0.05zm0 -0.19l0.08 0 0 -0.01 0 -0.04 -0.08 0 0 0.05zm0 0.26l0.08 0 0 -0.01 0 -0.04 -0.08 0 0 0.05zm0 -0.2l0.08 0 0 -0.05 -0.08 0 0 0.05zm0 0.07l0.08 0 0 -0.05 -0.08 0 0 0.05z"/>
 </g>
</svg>
